M48
; DRILL file {KiCad (5.1.9)-1} date 08/04/21 23:08:52
; FORMAT={-:-/ absolute / inch / decimal}
; #@! TF.CreationDate,2021-08-04T23:08:52+08:00
; #@! TF.GenerationSoftware,Kicad,Pcbnew,(5.1.9)-1
FMAT,2
INCH
T1C0.0197
T2C0.0236
T3C0.0394
T4C0.0256
%
G90
G05
T1
X4.4409Y-3.9685
X4.8504Y-4.6457
X5.063Y-4.6457
X5.5039Y-3.9921
X5.5118Y-4.2441
X5.5512Y-3.4567
X5.6614Y-3.3071
X5.7156Y-3.5908
X5.7953Y-3.7638
X5.8976Y-3.3543
X6.1496Y-4.1181
X6.189Y-3.189
X6.7953Y-3.6142
X6.9213Y-4.3307
X7.126Y-3.8661
X7.4567Y-4.2756
T3
X6.8976Y-3.2126
X6.8976Y-3.3126
X6.8976Y-3.4126
X6.8976Y-3.5126
X6.8976Y-3.6126
X6.8976Y-3.7126
T4
X4.839Y-4.7776
X5.0665Y-4.7776
T2
G00X4.7827Y-4.735
M15
G01X4.7827Y-4.7783
M16
G05
G00X4.7827Y-4.9094
M15
G01X4.7827Y-4.9331
M16
G05
G00X5.1228Y-4.735
M15
G01X5.1228Y-4.7783
M16
G05
G00X5.1228Y-4.9094
M15
G01X5.1228Y-4.9331
M16
G05
T0
M30
