M48
; DRILL file {KiCad (5.1.9)-1} date 08/15/21 16:37:02
; FORMAT={-:-/ absolute / inch / decimal}
; #@! TF.CreationDate,2021-08-15T16:37:02+08:00
; #@! TF.GenerationSoftware,Kicad,Pcbnew,(5.1.9)-1
FMAT,2
INCH
T1C0.0079
T2C0.0118
T3C0.0157
T4C0.0197
T5C0.0236
T6C0.0394
T7C0.0630
T8C0.0256
T9C0.1260
%
G90
G05
T1
X2.7382Y-1.7992
X2.7382Y-2.7055
X2.7382Y-3.6118
X2.7382Y-4.5181
X2.7579Y-1.8661
X2.7579Y-2.7724
X2.7579Y-3.6787
X2.7579Y-4.585
X2.7657Y-1.8425
X2.7657Y-2.7488
X2.7657Y-3.6551
X2.7657Y-4.5614
X2.8012Y-1.5492
X2.8012Y-1.5886
X2.8012Y-1.628
X2.8012Y-2.4555
X2.8012Y-2.4949
X2.8012Y-2.5343
X2.8012Y-3.3618
X2.8012Y-3.4012
X2.8012Y-3.4406
X2.8012Y-4.2681
X2.8012Y-4.3075
X2.8012Y-4.3469
X2.8524Y-1.5492
X2.8524Y-1.5886
X2.8524Y-1.628
X2.8524Y-2.4555
X2.8524Y-2.4949
X2.8524Y-2.5343
X2.8524Y-3.3618
X2.8524Y-3.4012
X2.8524Y-3.4406
X2.8524Y-4.2681
X2.8524Y-4.3075
X2.8524Y-4.3469
X4.0157Y-1.939
X4.0157Y-2.8453
X4.0157Y-3.7516
X4.0157Y-4.6579
X4.0543Y-1.9181
X4.0543Y-2.8244
X4.0543Y-3.7307
X4.0543Y-4.637
T2
X2.3876Y-1.8209
X2.3876Y-2.7272
X2.3876Y-3.6335
X2.3876Y-4.5398
X2.7283Y-1.6634
X2.7283Y-2.5697
X2.7283Y-3.476
X2.7283Y-4.3823
X2.9252Y-1.6634
X2.9252Y-2.5697
X2.9252Y-3.476
X2.9252Y-4.3823
X2.9626Y-1.4213
X2.9626Y-2.3276
X2.9626Y-3.2339
X2.9626Y-4.1402
X4.1286Y-1.6273
X4.1286Y-2.5336
X4.1286Y-3.4399
X4.1286Y-4.3462
X4.1724Y-1.6339
X4.1724Y-2.5402
X4.1724Y-3.4465
X4.1724Y-4.3528
X4.2047Y-1.7126
X4.2047Y-2.6189
X4.2047Y-3.5252
X4.2047Y-4.4315
X4.2087Y-1.6614
X4.2087Y-2.5677
X4.2087Y-3.474
X4.2087Y-4.3803
X4.2287Y-1.7478
X4.2287Y-2.6541
X4.2287Y-3.5604
X4.2287Y-4.4667
X4.2658Y-1.569
X4.2658Y-2.4753
X4.2658Y-3.3816
X4.2658Y-4.2879
X4.3626Y-1.6984
X4.3626Y-2.6047
X4.3626Y-3.511
X4.3626Y-4.4173
T3
X2.0236Y-1.7697
X2.0236Y-2.676
X2.0236Y-3.5823
X2.0236Y-4.4886
X2.0295Y-1.4016
X2.0295Y-2.3079
X2.0295Y-3.2142
X2.0295Y-4.1205
X2.2933Y-1.7539
X2.2933Y-2.6602
X2.2933Y-3.5665
X2.2933Y-4.4728
X2.439Y-1.4193
X2.439Y-2.3256
X2.439Y-3.2319
X2.439Y-4.1382
X2.5039Y-1.9783
X2.5039Y-2.8846
X2.5039Y-3.7909
X2.5039Y-4.6972
X2.5394Y-1.239
X2.5394Y-2.1453
X2.5394Y-3.0516
X2.5394Y-3.9579
X2.5768Y-1.5236
X2.5768Y-2.4299
X2.5768Y-3.3362
X2.5768Y-4.2425
X2.5787Y-1.4508
X2.5787Y-2.3571
X2.5787Y-3.2634
X2.5787Y-4.1697
X2.6161Y-1.2854
X2.6161Y-1.3445
X2.6161Y-2.1917
X2.6161Y-2.2508
X2.6161Y-3.098
X2.6161Y-3.1571
X2.6161Y-4.0043
X2.6161Y-4.0634
X2.6181Y-1.7972
X2.6181Y-1.8563
X2.6181Y-2.7035
X2.6181Y-2.7626
X2.6181Y-3.6098
X2.6181Y-3.6689
X2.6181Y-4.5161
X2.6181Y-4.5752
X2.6516Y-1.6752
X2.6516Y-2.5815
X2.6516Y-3.4878
X2.6516Y-4.3941
X2.8287Y-1.9567
X2.8287Y-2.863
X2.8287Y-3.7693
X2.8287Y-4.6756
X2.8647Y-1.3169
X2.8647Y-1.3932
X2.8647Y-1.4503
X2.8647Y-2.2232
X2.8647Y-2.2995
X2.8647Y-2.3566
X2.8647Y-3.1295
X2.8647Y-3.2058
X2.8647Y-3.2629
X2.8647Y-4.0358
X2.8647Y-4.1121
X2.8647Y-4.1692
X2.8972Y-1.4866
X2.8972Y-2.3929
X2.8972Y-3.2992
X2.8972Y-4.2055
X3.093Y-1.7357
X3.093Y-1.8027
X3.093Y-1.8617
X3.093Y-2.642
X3.093Y-2.709
X3.093Y-2.768
X3.093Y-3.5483
X3.093Y-3.6153
X3.093Y-3.6743
X3.093Y-4.4546
X3.093Y-4.5216
X3.093Y-4.5806
X3.2165Y-1.9665
X3.2165Y-2.8728
X3.2165Y-3.7791
X3.2165Y-4.6854
X3.45Y-1.4724
X3.45Y-2.3787
X3.45Y-3.285
X3.45Y-4.1913
X3.5Y-1.4724
X3.5Y-2.3787
X3.5Y-3.285
X3.5Y-4.1913
X3.55Y-1.4724
X3.55Y-2.3787
X3.55Y-3.285
X3.55Y-4.1913
X3.6Y-1.4724
X3.6Y-2.3787
X3.6Y-3.285
X3.6Y-4.1913
X3.65Y-1.4724
X3.65Y-2.3787
X3.65Y-3.285
X3.65Y-4.1913
X3.75Y-1.3327
X3.75Y-2.239
X3.75Y-3.1453
X3.75Y-4.0516
X3.937Y-1.3406
X3.937Y-2.2469
X3.937Y-3.1531
X3.937Y-4.0594
X3.9882Y-1.3406
X3.9882Y-2.2469
X3.9882Y-3.1531
X3.9882Y-4.0594
X4.0267Y-1.428
X4.0267Y-2.3343
X4.0267Y-3.2406
X4.0267Y-4.1469
X4.0394Y-1.3406
X4.0394Y-2.2469
X4.0394Y-3.1531
X4.0394Y-4.0594
X4.073Y-1.4763
X4.073Y-2.3825
X4.073Y-3.2888
X4.073Y-4.1951
X4.0806Y-1.3781
X4.0806Y-2.2844
X4.0806Y-3.1907
X4.0806Y-4.097
X4.1249Y-1.4224
X4.1249Y-2.3287
X4.1249Y-3.235
X4.1249Y-4.1413
X4.3226Y-1.3506
X4.3226Y-2.2569
X4.3226Y-3.1632
X4.3226Y-4.0695
X4.4211Y-1.3466
X4.4211Y-2.2529
X4.4211Y-3.1592
X4.4211Y-4.0655
X4.4705Y-1.3976
X4.4705Y-2.3039
X4.4705Y-3.2102
X4.4705Y-4.1165
X4.4961Y-1.3563
X4.4961Y-2.2626
X4.4961Y-3.1689
X4.4961Y-4.0752
X4.7323Y-1.7657
X4.7323Y-1.8169
X4.7323Y-1.8622
X4.7323Y-2.672
X4.7323Y-2.7232
X4.7323Y-2.7685
X4.7323Y-3.5783
X4.7323Y-3.6295
X4.7323Y-3.6748
X4.7323Y-4.4846
X4.7323Y-4.5358
X4.7323Y-4.5811
X4.8228Y-1.565
X4.8228Y-2.4713
X4.8228Y-3.3776
X4.8228Y-4.2839
T4
X3.474Y-1.5654
X3.474Y-2.4717
X3.474Y-3.378
X3.474Y-4.2843
X4.5126Y-1.9835
X4.5126Y-2.8898
X4.5126Y-3.7961
X4.5126Y-4.7024
X4.5657Y-1.9835
X4.5657Y-2.8898
X4.5657Y-3.7961
X4.5657Y-4.7024
T6
X2.4776Y-2.0535
X2.4776Y-2.9598
X2.4776Y-3.8661
X2.4776Y-4.7724
X2.5776Y-2.0535
X2.5776Y-2.9598
X2.5776Y-3.8661
X2.5776Y-4.7724
X2.6776Y-2.0535
X2.6776Y-2.9598
X2.6776Y-3.8661
X2.6776Y-4.7724
X2.7776Y-2.0535
X2.7776Y-2.9598
X2.7776Y-3.8661
X2.7776Y-4.7724
X2.8776Y-2.0535
X2.8776Y-2.9598
X2.8776Y-3.8661
X2.8776Y-4.7724
X2.9776Y-2.0535
X2.9776Y-2.9598
X2.9776Y-3.8661
X2.9776Y-4.7724
X3.0776Y-2.0535
X3.0776Y-2.9598
X3.0776Y-3.8661
X3.0776Y-4.7724
X3.1776Y-2.0535
X3.1776Y-2.9598
X3.1776Y-3.8661
X3.1776Y-4.7724
X3.2776Y-2.0535
X3.2776Y-2.9598
X3.2776Y-3.8661
X3.2776Y-4.7724
X3.3961Y-1.2535
X3.3961Y-2.1598
X3.3961Y-3.0661
X3.3961Y-3.9724
X3.4961Y-1.2535
X3.4961Y-2.1598
X3.4961Y-3.0661
X3.4961Y-3.9724
X3.5961Y-1.2535
X3.5961Y-2.1598
X3.5961Y-3.0661
X3.5961Y-3.9724
X3.6961Y-1.2535
X3.6961Y-2.1598
X3.6961Y-3.0661
X3.6961Y-3.9724
X3.7961Y-1.2535
X3.7961Y-2.1598
X3.7961Y-3.0661
X3.7961Y-3.9724
X3.8961Y-1.2535
X3.8961Y-2.0535
X3.8961Y-2.1598
X3.8961Y-2.9598
X3.8961Y-3.0661
X3.8961Y-3.8661
X3.8961Y-3.9724
X3.8961Y-4.7724
X3.9961Y-1.2535
X3.9961Y-2.0535
X3.9961Y-2.1598
X3.9961Y-2.9598
X3.9961Y-3.0661
X3.9961Y-3.8661
X3.9961Y-3.9724
X3.9961Y-4.7724
X4.0961Y-1.2535
X4.0961Y-2.0535
X4.0961Y-2.1598
X4.0961Y-2.9598
X4.0961Y-3.0661
X4.0961Y-3.8661
X4.0961Y-3.9724
X4.0961Y-4.7724
X4.1961Y-1.2535
X4.1961Y-2.0535
X4.1961Y-2.1598
X4.1961Y-2.9598
X4.1961Y-3.0661
X4.1961Y-3.8661
X4.1961Y-3.9724
X4.1961Y-4.7724
X4.2961Y-1.2535
X4.2961Y-2.0535
X4.2961Y-2.1598
X4.2961Y-2.9598
X4.2961Y-3.0661
X4.2961Y-3.8661
X4.2961Y-3.9724
X4.2961Y-4.7724
X4.3961Y-1.2535
X4.3961Y-2.0535
X4.3961Y-2.1598
X4.3961Y-2.9598
X4.3961Y-3.0661
X4.3961Y-3.8661
X4.3961Y-3.9724
X4.3961Y-4.7724
X4.4961Y-1.2535
X4.4961Y-2.0535
X4.4961Y-2.1598
X4.4961Y-2.9598
X4.4961Y-3.0661
X4.4961Y-3.8661
X4.4961Y-3.9724
X4.4961Y-4.7724
X4.5961Y-1.2535
X4.5961Y-2.0535
X4.5961Y-2.1598
X4.5961Y-2.9598
X4.5961Y-3.0661
X4.5961Y-3.8661
X4.5961Y-3.9724
X4.5961Y-4.7724
X4.6961Y-1.2535
X4.6961Y-2.0535
X4.6961Y-2.1598
X4.6961Y-2.9598
X4.6961Y-3.0661
X4.6961Y-3.8661
X4.6961Y-3.9724
X4.6961Y-4.7724
X4.7961Y-1.2535
X4.7961Y-2.0535
X4.7961Y-2.1598
X4.7961Y-2.9598
X4.7961Y-3.0661
X4.7961Y-3.8661
X4.7961Y-3.9724
X4.7961Y-4.7724
X4.8961Y-1.2535
X4.8961Y-2.0535
X4.8961Y-2.1598
X4.8961Y-2.9598
X4.8961Y-3.0661
X4.8961Y-3.8661
X4.8961Y-3.9724
X4.8961Y-4.7724
X4.9961Y-1.2535
X4.9961Y-2.0535
X4.9961Y-2.1598
X4.9961Y-2.9598
X4.9961Y-3.0661
X4.9961Y-3.8661
X4.9961Y-3.9724
X4.9961Y-4.7724
T7
X2.0866Y-1.6535
X2.0866Y-2.5598
X2.0866Y-3.4661
X2.0866Y-4.3724
X4.9567Y-1.6535
X4.9567Y-2.5598
X4.9567Y-3.4661
X4.9567Y-4.3724
T8
X2.2441Y-1.2839
X2.2441Y-1.5114
X2.2441Y-2.1902
X2.2441Y-2.4177
X2.2441Y-3.0965
X2.2441Y-3.324
X2.2441Y-4.0028
X2.2441Y-4.2303
T9
X2.4266Y-1.6535
X2.4266Y-2.5598
X2.4266Y-3.4661
X2.4266Y-4.3724
X4.6163Y-1.6535
X4.6163Y-2.5598
X4.6163Y-3.4661
X4.6163Y-4.3724
T5
G00X2.1122Y-1.2276
M15
G01X2.0886Y-1.2276
M16
G05
G00X2.1122Y-1.5677
M15
G01X2.0886Y-1.5677
M16
G05
G00X2.1122Y-2.1339
M15
G01X2.0886Y-2.1339
M16
G05
G00X2.1122Y-2.474
M15
G01X2.0886Y-2.474
M16
G05
G00X2.1122Y-3.0402
M15
G01X2.0886Y-3.0402
M16
G05
G00X2.1122Y-3.3803
M15
G01X2.0886Y-3.3803
M16
G05
G00X2.1122Y-3.9465
M15
G01X2.0886Y-3.9465
M16
G05
G00X2.1122Y-4.2866
M15
G01X2.0886Y-4.2866
M16
G05
G00X2.2866Y-1.2276
M15
G01X2.2433Y-1.2276
M16
G05
G00X2.2866Y-1.5677
M15
G01X2.2433Y-1.5677
M16
G05
G00X2.2866Y-2.1339
M15
G01X2.2433Y-2.1339
M16
G05
G00X2.2866Y-2.474
M15
G01X2.2433Y-2.474
M16
G05
G00X2.2866Y-3.0402
M15
G01X2.2433Y-3.0402
M16
G05
G00X2.2866Y-3.3803
M15
G01X2.2433Y-3.3803
M16
G05
G00X2.2866Y-3.9465
M15
G01X2.2433Y-3.9465
M16
G05
G00X2.2866Y-4.2866
M15
G01X2.2433Y-4.2866
M16
G05
T0
M30
