%TF.GenerationSoftware,KiCad,Pcbnew,(5.1.9)-1*%
%TF.CreationDate,2021-08-15T16:36:55+08:00*%
%TF.ProjectId,final project,66696e61-6c20-4707-926f-6a6563742e6b,rev?*%
%TF.SameCoordinates,Original*%
%TF.FileFunction,Soldermask,Bot*%
%TF.FilePolarity,Negative*%
%FSLAX46Y46*%
G04 Gerber Fmt 4.6, Leading zero omitted, Abs format (unit mm)*
G04 Created by KiCad (PCBNEW (5.1.9)-1) date 2021-08-15 16:36:55*
%MOMM*%
%LPD*%
G01*
G04 APERTURE LIST*
%ADD10R,2.000000X2.000000*%
%ADD11C,2.000000*%
%ADD12C,6.000000*%
%ADD13O,1.600000X1.000000*%
%ADD14O,2.100000X1.000000*%
%ADD15C,0.650000*%
%ADD16R,1.700000X1.700000*%
%ADD17O,1.700000X1.700000*%
G04 APERTURE END LIST*
D10*
%TO.C,BT1*%
X53000000Y-111060000D03*
D11*
X125900000Y-111060000D03*
D12*
X117255000Y-111060000D03*
X61636000Y-111060000D03*
%TD*%
D10*
%TO.C,BT1*%
X53000000Y-88040000D03*
D11*
X125900000Y-88040000D03*
D12*
X117255000Y-88040000D03*
X61636000Y-88040000D03*
%TD*%
D10*
%TO.C,BT1*%
X53000000Y-65020000D03*
D11*
X125900000Y-65020000D03*
D12*
X117255000Y-65020000D03*
X61636000Y-65020000D03*
%TD*%
D13*
%TO.C,USB1*%
X53350000Y-108880000D03*
X53350000Y-100240000D03*
D14*
X57530000Y-108880000D03*
X57530000Y-100240000D03*
D15*
X57000000Y-101670000D03*
X57000000Y-107450000D03*
%TD*%
D13*
%TO.C,USB1*%
X53350000Y-85860000D03*
X53350000Y-77220000D03*
D14*
X57530000Y-85860000D03*
X57530000Y-77220000D03*
D15*
X57000000Y-78650000D03*
X57000000Y-84430000D03*
%TD*%
D13*
%TO.C,USB1*%
X53350000Y-62840000D03*
X53350000Y-54200000D03*
D14*
X57530000Y-62840000D03*
X57530000Y-54200000D03*
D15*
X57000000Y-55630000D03*
X57000000Y-61410000D03*
%TD*%
D16*
%TO.C,J3*%
X86260000Y-100900000D03*
D17*
X88800000Y-100900000D03*
X91340000Y-100900000D03*
X93880000Y-100900000D03*
X96420000Y-100900000D03*
X98960000Y-100900000D03*
X101500000Y-100900000D03*
X104040000Y-100900000D03*
X106580000Y-100900000D03*
X109120000Y-100900000D03*
X111660000Y-100900000D03*
X114200000Y-100900000D03*
X116740000Y-100900000D03*
X119280000Y-100900000D03*
X121820000Y-100900000D03*
X124360000Y-100900000D03*
X126900000Y-100900000D03*
%TD*%
D16*
%TO.C,J3*%
X86260000Y-77880000D03*
D17*
X88800000Y-77880000D03*
X91340000Y-77880000D03*
X93880000Y-77880000D03*
X96420000Y-77880000D03*
X98960000Y-77880000D03*
X101500000Y-77880000D03*
X104040000Y-77880000D03*
X106580000Y-77880000D03*
X109120000Y-77880000D03*
X111660000Y-77880000D03*
X114200000Y-77880000D03*
X116740000Y-77880000D03*
X119280000Y-77880000D03*
X121820000Y-77880000D03*
X124360000Y-77880000D03*
X126900000Y-77880000D03*
%TD*%
D16*
%TO.C,J3*%
X86260000Y-54860000D03*
D17*
X88800000Y-54860000D03*
X91340000Y-54860000D03*
X93880000Y-54860000D03*
X96420000Y-54860000D03*
X98960000Y-54860000D03*
X101500000Y-54860000D03*
X104040000Y-54860000D03*
X106580000Y-54860000D03*
X109120000Y-54860000D03*
X111660000Y-54860000D03*
X114200000Y-54860000D03*
X116740000Y-54860000D03*
X119280000Y-54860000D03*
X121820000Y-54860000D03*
X124360000Y-54860000D03*
X126900000Y-54860000D03*
%TD*%
D16*
%TO.C,J1*%
X62930000Y-121220000D03*
D17*
X65470000Y-121220000D03*
X68010000Y-121220000D03*
X70550000Y-121220000D03*
X73090000Y-121220000D03*
X75630000Y-121220000D03*
X78170000Y-121220000D03*
X80710000Y-121220000D03*
X83250000Y-121220000D03*
%TD*%
D16*
%TO.C,J1*%
X62930000Y-98200000D03*
D17*
X65470000Y-98200000D03*
X68010000Y-98200000D03*
X70550000Y-98200000D03*
X73090000Y-98200000D03*
X75630000Y-98200000D03*
X78170000Y-98200000D03*
X80710000Y-98200000D03*
X83250000Y-98200000D03*
%TD*%
D16*
%TO.C,J1*%
X62930000Y-75180000D03*
D17*
X65470000Y-75180000D03*
X68010000Y-75180000D03*
X70550000Y-75180000D03*
X73090000Y-75180000D03*
X75630000Y-75180000D03*
X78170000Y-75180000D03*
X80710000Y-75180000D03*
X83250000Y-75180000D03*
%TD*%
D16*
%TO.C,J2*%
X98960000Y-121220000D03*
D17*
X101500000Y-121220000D03*
X104040000Y-121220000D03*
X106580000Y-121220000D03*
X109120000Y-121220000D03*
X111660000Y-121220000D03*
X114200000Y-121220000D03*
X116740000Y-121220000D03*
X119280000Y-121220000D03*
X121820000Y-121220000D03*
X124360000Y-121220000D03*
X126900000Y-121220000D03*
%TD*%
D16*
%TO.C,J2*%
X98960000Y-98200000D03*
D17*
X101500000Y-98200000D03*
X104040000Y-98200000D03*
X106580000Y-98200000D03*
X109120000Y-98200000D03*
X111660000Y-98200000D03*
X114200000Y-98200000D03*
X116740000Y-98200000D03*
X119280000Y-98200000D03*
X121820000Y-98200000D03*
X124360000Y-98200000D03*
X126900000Y-98200000D03*
%TD*%
D16*
%TO.C,J2*%
X98960000Y-75180000D03*
D17*
X101500000Y-75180000D03*
X104040000Y-75180000D03*
X106580000Y-75180000D03*
X109120000Y-75180000D03*
X111660000Y-75180000D03*
X114200000Y-75180000D03*
X116740000Y-75180000D03*
X119280000Y-75180000D03*
X121820000Y-75180000D03*
X124360000Y-75180000D03*
X126900000Y-75180000D03*
%TD*%
D15*
%TO.C,USB1*%
X57000000Y-38390000D03*
X57000000Y-32610000D03*
D14*
X57530000Y-31180000D03*
X57530000Y-39820000D03*
D13*
X53350000Y-31180000D03*
X53350000Y-39820000D03*
%TD*%
D17*
%TO.C,J1*%
X83250000Y-52160000D03*
X80710000Y-52160000D03*
X78170000Y-52160000D03*
X75630000Y-52160000D03*
X73090000Y-52160000D03*
X70550000Y-52160000D03*
X68010000Y-52160000D03*
X65470000Y-52160000D03*
D16*
X62930000Y-52160000D03*
%TD*%
D17*
%TO.C,J3*%
X126900000Y-31840000D03*
X124360000Y-31840000D03*
X121820000Y-31840000D03*
X119280000Y-31840000D03*
X116740000Y-31840000D03*
X114200000Y-31840000D03*
X111660000Y-31840000D03*
X109120000Y-31840000D03*
X106580000Y-31840000D03*
X104040000Y-31840000D03*
X101500000Y-31840000D03*
X98960000Y-31840000D03*
X96420000Y-31840000D03*
X93880000Y-31840000D03*
X91340000Y-31840000D03*
X88800000Y-31840000D03*
D16*
X86260000Y-31840000D03*
%TD*%
D17*
%TO.C,J2*%
X126900000Y-52160000D03*
X124360000Y-52160000D03*
X121820000Y-52160000D03*
X119280000Y-52160000D03*
X116740000Y-52160000D03*
X114200000Y-52160000D03*
X111660000Y-52160000D03*
X109120000Y-52160000D03*
X106580000Y-52160000D03*
X104040000Y-52160000D03*
X101500000Y-52160000D03*
D16*
X98960000Y-52160000D03*
%TD*%
D12*
%TO.C,BT1*%
X61636000Y-42000000D03*
X117255000Y-42000000D03*
D11*
X125900000Y-42000000D03*
D10*
X53000000Y-42000000D03*
%TD*%
M02*
