M48
; DRILL file {KiCad (5.1.9)-1} date 03/26/21 17:47:35
; FORMAT={-:-/ absolute / inch / decimal}
; #@! TF.CreationDate,2021-03-26T17:47:35+08:00
; #@! TF.GenerationSoftware,Kicad,Pcbnew,(5.1.9)-1
; #@! TF.FileFunction,Plated,1,2,PTH
FMAT,2
INCH
T1C0.0079
T2C0.0118
T3C0.0157
T4C0.0197
T5C0.0236
T6C0.0394
T7C0.0787
%
G90
G05
T1
X5.1139Y-2.289
X5.2382Y-2.4134
X5.3602Y-2.3425
X5.3917Y-2.3257
X5.4449Y-2.2303
X5.4567Y-2.568
X5.4646Y-2.2697
X5.5177Y-2.6644
X5.5728Y-2.3583
X5.5728Y-2.3799
X5.5738Y-2.6033
X5.5738Y-2.6339
X6.3594Y-2.0433
X6.3594Y-2.0827
X6.3594Y-2.122
X6.4106Y-2.0433
X6.4106Y-2.0827
X6.4106Y-2.122
T2
X4.5551Y-2.2933
X4.9852Y-1.9734
X4.9862Y-2.0512
X5.1949Y-2.4449
X5.2215Y-2.5394
X5.2598Y-2.5384
X5.3366Y-2.5138
X5.3765Y-2.1275
X5.4173Y-2.5886
X5.4488Y-2.0571
X5.4508Y-2.128
X5.498Y-2.5886
X5.5591Y-2.4764
X5.5748Y-2.5709
X5.5994Y-2.4764
X5.9409Y-2.6732
X5.9783Y-2.5374
X5.9902Y-2.6732
X5.9951Y-2.564
X6.0118Y-2.5374
X6.0285Y-2.563
X6.0482Y-2.5374
X6.0886Y-2.0325
X6.1368Y-2.5531
X6.1398Y-2.6732
X6.1909Y-2.6732
X6.2441Y-2.6024
X6.2697Y-2.0079
X6.4783Y-2.0079
X6.628Y-2.2874
T3
X4.5541Y-2.2165
X5.2303Y-2.0728
X5.4843Y-1.9783
X5.6634Y-2.3976
X5.6634Y-2.4567
X5.752Y-2.3996
X5.752Y-2.4567
X5.7795Y-2.5945
X5.7815Y-2.0295
X6.0984Y-2.5807
X6.1713Y-2.5689
X6.6309Y-2.5
X6.7343Y-2.5118
X6.811Y-2.5138
T4
X5.0354Y-2.0138
X6.8386Y-2.6388
T6
X3.8996Y-2.0315
X3.9537Y-2.5384
X3.9537Y-2.6384
X3.9996Y-2.0315
X4.0537Y-2.5384
X4.0537Y-2.6384
X4.0996Y-2.0315
X4.1537Y-2.5384
X4.1537Y-2.6384
X4.1996Y-2.0315
X4.2537Y-2.5384
X4.2537Y-2.6384
X4.2996Y-2.0315
X4.3537Y-2.5384
X4.3537Y-2.6384
X4.3996Y-2.0315
X4.4537Y-2.5384
X4.4537Y-2.6384
X5.8902Y-2.3484
X5.9902Y-2.3484
X6.1343Y-2.3484
X6.2343Y-2.3484
T7
X3.9075Y-2.3406
X6.7776Y-2.3406
T5
G00X5.3043Y-2.061
M15
G01X5.3043Y-2.0374
M16
G05
G00X5.3043Y-2.2354
M15
G01X5.3043Y-2.1921
M16
G05
G00X5.6445Y-2.061
M15
G01X5.6445Y-2.0374
M16
G05
G00X5.6445Y-2.2354
M15
G01X5.6445Y-2.1921
M16
G05
T0
M30
