%TF.GenerationSoftware,KiCad,Pcbnew,(5.1.9)-1*%
%TF.CreationDate,2021-08-15T16:36:55+08:00*%
%TF.ProjectId,final project,66696e61-6c20-4707-926f-6a6563742e6b,rev?*%
%TF.SameCoordinates,Original*%
%TF.FileFunction,Other,ECO2*%
%FSLAX46Y46*%
G04 Gerber Fmt 4.6, Leading zero omitted, Abs format (unit mm)*
G04 Created by KiCad (PCBNEW (5.1.9)-1) date 2021-08-15 16:36:55*
%MOMM*%
%LPD*%
G01*
G04 APERTURE LIST*
%ADD10C,0.150000*%
%ADD11C,0.400000*%
G04 APERTURE END LIST*
D10*
X145150000Y-99500000D02*
X130250000Y-99500000D01*
X130250000Y-99500000D02*
X132350000Y-97600000D01*
D11*
X131850000Y-93661904D02*
X133516666Y-98661904D01*
X135183333Y-93661904D01*
X138992857Y-98423809D02*
X138516666Y-98661904D01*
X137564285Y-98661904D01*
X137088095Y-98423809D01*
X136850000Y-98185714D01*
X136611904Y-97709523D01*
X136611904Y-96280952D01*
X136850000Y-95804761D01*
X137088095Y-95566666D01*
X137564285Y-95328571D01*
X138516666Y-95328571D01*
X138992857Y-95566666D01*
X143278571Y-95328571D02*
X143278571Y-98661904D01*
X141135714Y-95328571D02*
X141135714Y-97947619D01*
X141373809Y-98423809D01*
X141850000Y-98661904D01*
X142564285Y-98661904D01*
X143040476Y-98423809D01*
X143278571Y-98185714D01*
X144945238Y-95328571D02*
X146850000Y-95328571D01*
X145659523Y-93661904D02*
X145659523Y-97947619D01*
X145897619Y-98423809D01*
X146373809Y-98661904D01*
X146850000Y-98661904D01*
D10*
X145350000Y-76500000D02*
X130450000Y-76500000D01*
X130450000Y-76500000D02*
X132550000Y-74600000D01*
D11*
X132050000Y-70661904D02*
X133716666Y-75661904D01*
X135383333Y-70661904D01*
X139192857Y-75423809D02*
X138716666Y-75661904D01*
X137764285Y-75661904D01*
X137288095Y-75423809D01*
X137050000Y-75185714D01*
X136811904Y-74709523D01*
X136811904Y-73280952D01*
X137050000Y-72804761D01*
X137288095Y-72566666D01*
X137764285Y-72328571D01*
X138716666Y-72328571D01*
X139192857Y-72566666D01*
X143478571Y-72328571D02*
X143478571Y-75661904D01*
X141335714Y-72328571D02*
X141335714Y-74947619D01*
X141573809Y-75423809D01*
X142050000Y-75661904D01*
X142764285Y-75661904D01*
X143240476Y-75423809D01*
X143478571Y-75185714D01*
X145145238Y-72328571D02*
X147050000Y-72328571D01*
X145859523Y-70661904D02*
X145859523Y-74947619D01*
X146097619Y-75423809D01*
X146573809Y-75661904D01*
X147050000Y-75661904D01*
D10*
X131350000Y-53500000D02*
X133450000Y-51600000D01*
X146250000Y-53500000D02*
X131350000Y-53500000D01*
D11*
X132950000Y-47661904D02*
X134616666Y-52661904D01*
X136283333Y-47661904D01*
X140092857Y-52423809D02*
X139616666Y-52661904D01*
X138664285Y-52661904D01*
X138188095Y-52423809D01*
X137950000Y-52185714D01*
X137711904Y-51709523D01*
X137711904Y-50280952D01*
X137950000Y-49804761D01*
X138188095Y-49566666D01*
X138664285Y-49328571D01*
X139616666Y-49328571D01*
X140092857Y-49566666D01*
X144378571Y-49328571D02*
X144378571Y-52661904D01*
X142235714Y-49328571D02*
X142235714Y-51947619D01*
X142473809Y-52423809D01*
X142950000Y-52661904D01*
X143664285Y-52661904D01*
X144140476Y-52423809D01*
X144378571Y-52185714D01*
X146045238Y-49328571D02*
X147950000Y-49328571D01*
X146759523Y-47661904D02*
X146759523Y-51947619D01*
X146997619Y-52423809D01*
X147473809Y-52661904D01*
X147950000Y-52661904D01*
M02*
