%TF.GenerationSoftware,KiCad,Pcbnew,(5.1.9)-1*%
%TF.CreationDate,2021-08-15T16:36:55+08:00*%
%TF.ProjectId,final project,66696e61-6c20-4707-926f-6a6563742e6b,rev?*%
%TF.SameCoordinates,Original*%
%TF.FileFunction,Soldermask,Top*%
%TF.FilePolarity,Negative*%
%FSLAX46Y46*%
G04 Gerber Fmt 4.6, Leading zero omitted, Abs format (unit mm)*
G04 Created by KiCad (PCBNEW (5.1.9)-1) date 2021-08-15 16:36:55*
%MOMM*%
%LPD*%
G01*
G04 APERTURE LIST*
%ADD10C,0.100000*%
%ADD11R,1.500000X1.500000*%
%ADD12R,2.290000X3.000000*%
%ADD13R,5.100000X2.350000*%
%ADD14R,2.000000X2.000000*%
%ADD15C,2.000000*%
%ADD16C,6.000000*%
%ADD17C,0.650000*%
%ADD18R,1.450000X0.300000*%
%ADD19R,1.450000X0.600000*%
%ADD20R,2.000000X3.800000*%
%ADD21R,2.000000X1.500000*%
%ADD22R,1.700000X1.700000*%
%ADD23O,1.700000X1.700000*%
%ADD24R,1.000000X2.000000*%
G04 APERTURE END LIST*
%TO.C,R2*%
G36*
G01*
X100275000Y-115109999D02*
X100275000Y-116010001D01*
G75*
G02*
X100025001Y-116260000I-249999J0D01*
G01*
X99499999Y-116260000D01*
G75*
G02*
X99250000Y-116010001I0J249999D01*
G01*
X99250000Y-115109999D01*
G75*
G02*
X99499999Y-114860000I249999J0D01*
G01*
X100025001Y-114860000D01*
G75*
G02*
X100275000Y-115109999I0J-249999D01*
G01*
G37*
G36*
G01*
X98450000Y-115109999D02*
X98450000Y-116010001D01*
G75*
G02*
X98200001Y-116260000I-249999J0D01*
G01*
X97674999Y-116260000D01*
G75*
G02*
X97425000Y-116010001I0J249999D01*
G01*
X97425000Y-115109999D01*
G75*
G02*
X97674999Y-114860000I249999J0D01*
G01*
X98200001Y-114860000D01*
G75*
G02*
X98450000Y-115109999I0J-249999D01*
G01*
G37*
%TD*%
%TO.C,R2*%
G36*
G01*
X100275000Y-92089999D02*
X100275000Y-92990001D01*
G75*
G02*
X100025001Y-93240000I-249999J0D01*
G01*
X99499999Y-93240000D01*
G75*
G02*
X99250000Y-92990001I0J249999D01*
G01*
X99250000Y-92089999D01*
G75*
G02*
X99499999Y-91840000I249999J0D01*
G01*
X100025001Y-91840000D01*
G75*
G02*
X100275000Y-92089999I0J-249999D01*
G01*
G37*
G36*
G01*
X98450000Y-92089999D02*
X98450000Y-92990001D01*
G75*
G02*
X98200001Y-93240000I-249999J0D01*
G01*
X97674999Y-93240000D01*
G75*
G02*
X97425000Y-92990001I0J249999D01*
G01*
X97425000Y-92089999D01*
G75*
G02*
X97674999Y-91840000I249999J0D01*
G01*
X98200001Y-91840000D01*
G75*
G02*
X98450000Y-92089999I0J-249999D01*
G01*
G37*
%TD*%
%TO.C,R2*%
G36*
G01*
X100275000Y-69069999D02*
X100275000Y-69970001D01*
G75*
G02*
X100025001Y-70220000I-249999J0D01*
G01*
X99499999Y-70220000D01*
G75*
G02*
X99250000Y-69970001I0J249999D01*
G01*
X99250000Y-69069999D01*
G75*
G02*
X99499999Y-68820000I249999J0D01*
G01*
X100025001Y-68820000D01*
G75*
G02*
X100275000Y-69069999I0J-249999D01*
G01*
G37*
G36*
G01*
X98450000Y-69069999D02*
X98450000Y-69970001D01*
G75*
G02*
X98200001Y-70220000I-249999J0D01*
G01*
X97674999Y-70220000D01*
G75*
G02*
X97425000Y-69970001I0J249999D01*
G01*
X97425000Y-69069999D01*
G75*
G02*
X97674999Y-68820000I249999J0D01*
G01*
X98200001Y-68820000D01*
G75*
G02*
X98450000Y-69069999I0J-249999D01*
G01*
G37*
%TD*%
%TO.C,R7*%
G36*
G01*
X116325826Y-104599428D02*
X115689428Y-105235826D01*
G75*
G02*
X115335876Y-105235826I-176776J176776D01*
G01*
X114964644Y-104864594D01*
G75*
G02*
X114964644Y-104511042I176776J176776D01*
G01*
X115601042Y-103874644D01*
G75*
G02*
X115954594Y-103874644I176776J-176776D01*
G01*
X116325826Y-104245876D01*
G75*
G02*
X116325826Y-104599428I-176776J-176776D01*
G01*
G37*
G36*
G01*
X115035356Y-103308958D02*
X114398958Y-103945356D01*
G75*
G02*
X114045406Y-103945356I-176776J176776D01*
G01*
X113674174Y-103574124D01*
G75*
G02*
X113674174Y-103220572I176776J176776D01*
G01*
X114310572Y-102584174D01*
G75*
G02*
X114664124Y-102584174I176776J-176776D01*
G01*
X115035356Y-102955406D01*
G75*
G02*
X115035356Y-103308958I-176776J-176776D01*
G01*
G37*
%TD*%
%TO.C,R7*%
G36*
G01*
X116325826Y-81579428D02*
X115689428Y-82215826D01*
G75*
G02*
X115335876Y-82215826I-176776J176776D01*
G01*
X114964644Y-81844594D01*
G75*
G02*
X114964644Y-81491042I176776J176776D01*
G01*
X115601042Y-80854644D01*
G75*
G02*
X115954594Y-80854644I176776J-176776D01*
G01*
X116325826Y-81225876D01*
G75*
G02*
X116325826Y-81579428I-176776J-176776D01*
G01*
G37*
G36*
G01*
X115035356Y-80288958D02*
X114398958Y-80925356D01*
G75*
G02*
X114045406Y-80925356I-176776J176776D01*
G01*
X113674174Y-80554124D01*
G75*
G02*
X113674174Y-80200572I176776J176776D01*
G01*
X114310572Y-79564174D01*
G75*
G02*
X114664124Y-79564174I176776J-176776D01*
G01*
X115035356Y-79935406D01*
G75*
G02*
X115035356Y-80288958I-176776J-176776D01*
G01*
G37*
%TD*%
%TO.C,R7*%
G36*
G01*
X116325826Y-58559428D02*
X115689428Y-59195826D01*
G75*
G02*
X115335876Y-59195826I-176776J176776D01*
G01*
X114964644Y-58824594D01*
G75*
G02*
X114964644Y-58471042I176776J176776D01*
G01*
X115601042Y-57834644D01*
G75*
G02*
X115954594Y-57834644I176776J-176776D01*
G01*
X116325826Y-58205876D01*
G75*
G02*
X116325826Y-58559428I-176776J-176776D01*
G01*
G37*
G36*
G01*
X115035356Y-57268958D02*
X114398958Y-57905356D01*
G75*
G02*
X114045406Y-57905356I-176776J176776D01*
G01*
X113674174Y-57534124D01*
G75*
G02*
X113674174Y-57180572I176776J176776D01*
G01*
X114310572Y-56544174D01*
G75*
G02*
X114664124Y-56544174I176776J-176776D01*
G01*
X115035356Y-56915406D01*
G75*
G02*
X115035356Y-57268958I-176776J-176776D01*
G01*
G37*
%TD*%
%TO.C,R9*%
G36*
G01*
X109839428Y-102684174D02*
X110475826Y-103320572D01*
G75*
G02*
X110475826Y-103674124I-176776J-176776D01*
G01*
X110104594Y-104045356D01*
G75*
G02*
X109751042Y-104045356I-176776J176776D01*
G01*
X109114644Y-103408958D01*
G75*
G02*
X109114644Y-103055406I176776J176776D01*
G01*
X109485876Y-102684174D01*
G75*
G02*
X109839428Y-102684174I176776J-176776D01*
G01*
G37*
G36*
G01*
X108548958Y-103974644D02*
X109185356Y-104611042D01*
G75*
G02*
X109185356Y-104964594I-176776J-176776D01*
G01*
X108814124Y-105335826D01*
G75*
G02*
X108460572Y-105335826I-176776J176776D01*
G01*
X107824174Y-104699428D01*
G75*
G02*
X107824174Y-104345876I176776J176776D01*
G01*
X108195406Y-103974644D01*
G75*
G02*
X108548958Y-103974644I176776J-176776D01*
G01*
G37*
%TD*%
%TO.C,R9*%
G36*
G01*
X109839428Y-79664174D02*
X110475826Y-80300572D01*
G75*
G02*
X110475826Y-80654124I-176776J-176776D01*
G01*
X110104594Y-81025356D01*
G75*
G02*
X109751042Y-81025356I-176776J176776D01*
G01*
X109114644Y-80388958D01*
G75*
G02*
X109114644Y-80035406I176776J176776D01*
G01*
X109485876Y-79664174D01*
G75*
G02*
X109839428Y-79664174I176776J-176776D01*
G01*
G37*
G36*
G01*
X108548958Y-80954644D02*
X109185356Y-81591042D01*
G75*
G02*
X109185356Y-81944594I-176776J-176776D01*
G01*
X108814124Y-82315826D01*
G75*
G02*
X108460572Y-82315826I-176776J176776D01*
G01*
X107824174Y-81679428D01*
G75*
G02*
X107824174Y-81325876I176776J176776D01*
G01*
X108195406Y-80954644D01*
G75*
G02*
X108548958Y-80954644I176776J-176776D01*
G01*
G37*
%TD*%
%TO.C,R9*%
G36*
G01*
X109839428Y-56644174D02*
X110475826Y-57280572D01*
G75*
G02*
X110475826Y-57634124I-176776J-176776D01*
G01*
X110104594Y-58005356D01*
G75*
G02*
X109751042Y-58005356I-176776J176776D01*
G01*
X109114644Y-57368958D01*
G75*
G02*
X109114644Y-57015406I176776J176776D01*
G01*
X109485876Y-56644174D01*
G75*
G02*
X109839428Y-56644174I176776J-176776D01*
G01*
G37*
G36*
G01*
X108548958Y-57934644D02*
X109185356Y-58571042D01*
G75*
G02*
X109185356Y-58924594I-176776J-176776D01*
G01*
X108814124Y-59295826D01*
G75*
G02*
X108460572Y-59295826I-176776J176776D01*
G01*
X107824174Y-58659428D01*
G75*
G02*
X107824174Y-58305876I176776J176776D01*
G01*
X108195406Y-57934644D01*
G75*
G02*
X108548958Y-57934644I176776J-176776D01*
G01*
G37*
%TD*%
%TO.C,C5*%
G36*
G01*
X73800000Y-101485000D02*
X73800000Y-103535000D01*
G75*
G02*
X73550000Y-103785000I-250000J0D01*
G01*
X71975000Y-103785000D01*
G75*
G02*
X71725000Y-103535000I0J250000D01*
G01*
X71725000Y-101485000D01*
G75*
G02*
X71975000Y-101235000I250000J0D01*
G01*
X73550000Y-101235000D01*
G75*
G02*
X73800000Y-101485000I0J-250000D01*
G01*
G37*
G36*
G01*
X67575000Y-101485000D02*
X67575000Y-103535000D01*
G75*
G02*
X67325000Y-103785000I-250000J0D01*
G01*
X65750000Y-103785000D01*
G75*
G02*
X65500000Y-103535000I0J250000D01*
G01*
X65500000Y-101485000D01*
G75*
G02*
X65750000Y-101235000I250000J0D01*
G01*
X67325000Y-101235000D01*
G75*
G02*
X67575000Y-101485000I0J-250000D01*
G01*
G37*
%TD*%
%TO.C,C5*%
G36*
G01*
X73800000Y-78465000D02*
X73800000Y-80515000D01*
G75*
G02*
X73550000Y-80765000I-250000J0D01*
G01*
X71975000Y-80765000D01*
G75*
G02*
X71725000Y-80515000I0J250000D01*
G01*
X71725000Y-78465000D01*
G75*
G02*
X71975000Y-78215000I250000J0D01*
G01*
X73550000Y-78215000D01*
G75*
G02*
X73800000Y-78465000I0J-250000D01*
G01*
G37*
G36*
G01*
X67575000Y-78465000D02*
X67575000Y-80515000D01*
G75*
G02*
X67325000Y-80765000I-250000J0D01*
G01*
X65750000Y-80765000D01*
G75*
G02*
X65500000Y-80515000I0J250000D01*
G01*
X65500000Y-78465000D01*
G75*
G02*
X65750000Y-78215000I250000J0D01*
G01*
X67325000Y-78215000D01*
G75*
G02*
X67575000Y-78465000I0J-250000D01*
G01*
G37*
%TD*%
%TO.C,C5*%
G36*
G01*
X73800000Y-55445000D02*
X73800000Y-57495000D01*
G75*
G02*
X73550000Y-57745000I-250000J0D01*
G01*
X71975000Y-57745000D01*
G75*
G02*
X71725000Y-57495000I0J250000D01*
G01*
X71725000Y-55445000D01*
G75*
G02*
X71975000Y-55195000I250000J0D01*
G01*
X73550000Y-55195000D01*
G75*
G02*
X73800000Y-55445000I0J-250000D01*
G01*
G37*
G36*
G01*
X67575000Y-55445000D02*
X67575000Y-57495000D01*
G75*
G02*
X67325000Y-57745000I-250000J0D01*
G01*
X65750000Y-57745000D01*
G75*
G02*
X65500000Y-57495000I0J250000D01*
G01*
X65500000Y-55445000D01*
G75*
G02*
X65750000Y-55195000I250000J0D01*
G01*
X67325000Y-55195000D01*
G75*
G02*
X67575000Y-55445000I0J-250000D01*
G01*
G37*
%TD*%
%TO.C,U1*%
G36*
G01*
X60495000Y-114860000D02*
X60795000Y-114860000D01*
G75*
G02*
X60945000Y-115010000I0J-150000D01*
G01*
X60945000Y-116660000D01*
G75*
G02*
X60795000Y-116810000I-150000J0D01*
G01*
X60495000Y-116810000D01*
G75*
G02*
X60345000Y-116660000I0J150000D01*
G01*
X60345000Y-115010000D01*
G75*
G02*
X60495000Y-114860000I150000J0D01*
G01*
G37*
G36*
G01*
X59225000Y-114860000D02*
X59525000Y-114860000D01*
G75*
G02*
X59675000Y-115010000I0J-150000D01*
G01*
X59675000Y-116660000D01*
G75*
G02*
X59525000Y-116810000I-150000J0D01*
G01*
X59225000Y-116810000D01*
G75*
G02*
X59075000Y-116660000I0J150000D01*
G01*
X59075000Y-115010000D01*
G75*
G02*
X59225000Y-114860000I150000J0D01*
G01*
G37*
G36*
G01*
X57955000Y-114860000D02*
X58255000Y-114860000D01*
G75*
G02*
X58405000Y-115010000I0J-150000D01*
G01*
X58405000Y-116660000D01*
G75*
G02*
X58255000Y-116810000I-150000J0D01*
G01*
X57955000Y-116810000D01*
G75*
G02*
X57805000Y-116660000I0J150000D01*
G01*
X57805000Y-115010000D01*
G75*
G02*
X57955000Y-114860000I150000J0D01*
G01*
G37*
G36*
G01*
X56685000Y-114860000D02*
X56985000Y-114860000D01*
G75*
G02*
X57135000Y-115010000I0J-150000D01*
G01*
X57135000Y-116660000D01*
G75*
G02*
X56985000Y-116810000I-150000J0D01*
G01*
X56685000Y-116810000D01*
G75*
G02*
X56535000Y-116660000I0J150000D01*
G01*
X56535000Y-115010000D01*
G75*
G02*
X56685000Y-114860000I150000J0D01*
G01*
G37*
G36*
G01*
X55415000Y-114860000D02*
X55715000Y-114860000D01*
G75*
G02*
X55865000Y-115010000I0J-150000D01*
G01*
X55865000Y-116660000D01*
G75*
G02*
X55715000Y-116810000I-150000J0D01*
G01*
X55415000Y-116810000D01*
G75*
G02*
X55265000Y-116660000I0J150000D01*
G01*
X55265000Y-115010000D01*
G75*
G02*
X55415000Y-114860000I150000J0D01*
G01*
G37*
G36*
G01*
X54145000Y-114860000D02*
X54445000Y-114860000D01*
G75*
G02*
X54595000Y-115010000I0J-150000D01*
G01*
X54595000Y-116660000D01*
G75*
G02*
X54445000Y-116810000I-150000J0D01*
G01*
X54145000Y-116810000D01*
G75*
G02*
X53995000Y-116660000I0J150000D01*
G01*
X53995000Y-115010000D01*
G75*
G02*
X54145000Y-114860000I150000J0D01*
G01*
G37*
G36*
G01*
X52875000Y-114860000D02*
X53175000Y-114860000D01*
G75*
G02*
X53325000Y-115010000I0J-150000D01*
G01*
X53325000Y-116660000D01*
G75*
G02*
X53175000Y-116810000I-150000J0D01*
G01*
X52875000Y-116810000D01*
G75*
G02*
X52725000Y-116660000I0J150000D01*
G01*
X52725000Y-115010000D01*
G75*
G02*
X52875000Y-114860000I150000J0D01*
G01*
G37*
G36*
G01*
X51605000Y-114860000D02*
X51905000Y-114860000D01*
G75*
G02*
X52055000Y-115010000I0J-150000D01*
G01*
X52055000Y-116660000D01*
G75*
G02*
X51905000Y-116810000I-150000J0D01*
G01*
X51605000Y-116810000D01*
G75*
G02*
X51455000Y-116660000I0J150000D01*
G01*
X51455000Y-115010000D01*
G75*
G02*
X51605000Y-114860000I150000J0D01*
G01*
G37*
G36*
G01*
X51605000Y-119810000D02*
X51905000Y-119810000D01*
G75*
G02*
X52055000Y-119960000I0J-150000D01*
G01*
X52055000Y-121610000D01*
G75*
G02*
X51905000Y-121760000I-150000J0D01*
G01*
X51605000Y-121760000D01*
G75*
G02*
X51455000Y-121610000I0J150000D01*
G01*
X51455000Y-119960000D01*
G75*
G02*
X51605000Y-119810000I150000J0D01*
G01*
G37*
G36*
G01*
X52875000Y-119810000D02*
X53175000Y-119810000D01*
G75*
G02*
X53325000Y-119960000I0J-150000D01*
G01*
X53325000Y-121610000D01*
G75*
G02*
X53175000Y-121760000I-150000J0D01*
G01*
X52875000Y-121760000D01*
G75*
G02*
X52725000Y-121610000I0J150000D01*
G01*
X52725000Y-119960000D01*
G75*
G02*
X52875000Y-119810000I150000J0D01*
G01*
G37*
G36*
G01*
X54145000Y-119810000D02*
X54445000Y-119810000D01*
G75*
G02*
X54595000Y-119960000I0J-150000D01*
G01*
X54595000Y-121610000D01*
G75*
G02*
X54445000Y-121760000I-150000J0D01*
G01*
X54145000Y-121760000D01*
G75*
G02*
X53995000Y-121610000I0J150000D01*
G01*
X53995000Y-119960000D01*
G75*
G02*
X54145000Y-119810000I150000J0D01*
G01*
G37*
G36*
G01*
X55415000Y-119810000D02*
X55715000Y-119810000D01*
G75*
G02*
X55865000Y-119960000I0J-150000D01*
G01*
X55865000Y-121610000D01*
G75*
G02*
X55715000Y-121760000I-150000J0D01*
G01*
X55415000Y-121760000D01*
G75*
G02*
X55265000Y-121610000I0J150000D01*
G01*
X55265000Y-119960000D01*
G75*
G02*
X55415000Y-119810000I150000J0D01*
G01*
G37*
G36*
G01*
X56685000Y-119810000D02*
X56985000Y-119810000D01*
G75*
G02*
X57135000Y-119960000I0J-150000D01*
G01*
X57135000Y-121610000D01*
G75*
G02*
X56985000Y-121760000I-150000J0D01*
G01*
X56685000Y-121760000D01*
G75*
G02*
X56535000Y-121610000I0J150000D01*
G01*
X56535000Y-119960000D01*
G75*
G02*
X56685000Y-119810000I150000J0D01*
G01*
G37*
G36*
G01*
X57955000Y-119810000D02*
X58255000Y-119810000D01*
G75*
G02*
X58405000Y-119960000I0J-150000D01*
G01*
X58405000Y-121610000D01*
G75*
G02*
X58255000Y-121760000I-150000J0D01*
G01*
X57955000Y-121760000D01*
G75*
G02*
X57805000Y-121610000I0J150000D01*
G01*
X57805000Y-119960000D01*
G75*
G02*
X57955000Y-119810000I150000J0D01*
G01*
G37*
G36*
G01*
X59225000Y-119810000D02*
X59525000Y-119810000D01*
G75*
G02*
X59675000Y-119960000I0J-150000D01*
G01*
X59675000Y-121610000D01*
G75*
G02*
X59525000Y-121760000I-150000J0D01*
G01*
X59225000Y-121760000D01*
G75*
G02*
X59075000Y-121610000I0J150000D01*
G01*
X59075000Y-119960000D01*
G75*
G02*
X59225000Y-119810000I150000J0D01*
G01*
G37*
G36*
G01*
X60495000Y-119810000D02*
X60795000Y-119810000D01*
G75*
G02*
X60945000Y-119960000I0J-150000D01*
G01*
X60945000Y-121610000D01*
G75*
G02*
X60795000Y-121760000I-150000J0D01*
G01*
X60495000Y-121760000D01*
G75*
G02*
X60345000Y-121610000I0J150000D01*
G01*
X60345000Y-119960000D01*
G75*
G02*
X60495000Y-119810000I150000J0D01*
G01*
G37*
%TD*%
%TO.C,U1*%
G36*
G01*
X60495000Y-91840000D02*
X60795000Y-91840000D01*
G75*
G02*
X60945000Y-91990000I0J-150000D01*
G01*
X60945000Y-93640000D01*
G75*
G02*
X60795000Y-93790000I-150000J0D01*
G01*
X60495000Y-93790000D01*
G75*
G02*
X60345000Y-93640000I0J150000D01*
G01*
X60345000Y-91990000D01*
G75*
G02*
X60495000Y-91840000I150000J0D01*
G01*
G37*
G36*
G01*
X59225000Y-91840000D02*
X59525000Y-91840000D01*
G75*
G02*
X59675000Y-91990000I0J-150000D01*
G01*
X59675000Y-93640000D01*
G75*
G02*
X59525000Y-93790000I-150000J0D01*
G01*
X59225000Y-93790000D01*
G75*
G02*
X59075000Y-93640000I0J150000D01*
G01*
X59075000Y-91990000D01*
G75*
G02*
X59225000Y-91840000I150000J0D01*
G01*
G37*
G36*
G01*
X57955000Y-91840000D02*
X58255000Y-91840000D01*
G75*
G02*
X58405000Y-91990000I0J-150000D01*
G01*
X58405000Y-93640000D01*
G75*
G02*
X58255000Y-93790000I-150000J0D01*
G01*
X57955000Y-93790000D01*
G75*
G02*
X57805000Y-93640000I0J150000D01*
G01*
X57805000Y-91990000D01*
G75*
G02*
X57955000Y-91840000I150000J0D01*
G01*
G37*
G36*
G01*
X56685000Y-91840000D02*
X56985000Y-91840000D01*
G75*
G02*
X57135000Y-91990000I0J-150000D01*
G01*
X57135000Y-93640000D01*
G75*
G02*
X56985000Y-93790000I-150000J0D01*
G01*
X56685000Y-93790000D01*
G75*
G02*
X56535000Y-93640000I0J150000D01*
G01*
X56535000Y-91990000D01*
G75*
G02*
X56685000Y-91840000I150000J0D01*
G01*
G37*
G36*
G01*
X55415000Y-91840000D02*
X55715000Y-91840000D01*
G75*
G02*
X55865000Y-91990000I0J-150000D01*
G01*
X55865000Y-93640000D01*
G75*
G02*
X55715000Y-93790000I-150000J0D01*
G01*
X55415000Y-93790000D01*
G75*
G02*
X55265000Y-93640000I0J150000D01*
G01*
X55265000Y-91990000D01*
G75*
G02*
X55415000Y-91840000I150000J0D01*
G01*
G37*
G36*
G01*
X54145000Y-91840000D02*
X54445000Y-91840000D01*
G75*
G02*
X54595000Y-91990000I0J-150000D01*
G01*
X54595000Y-93640000D01*
G75*
G02*
X54445000Y-93790000I-150000J0D01*
G01*
X54145000Y-93790000D01*
G75*
G02*
X53995000Y-93640000I0J150000D01*
G01*
X53995000Y-91990000D01*
G75*
G02*
X54145000Y-91840000I150000J0D01*
G01*
G37*
G36*
G01*
X52875000Y-91840000D02*
X53175000Y-91840000D01*
G75*
G02*
X53325000Y-91990000I0J-150000D01*
G01*
X53325000Y-93640000D01*
G75*
G02*
X53175000Y-93790000I-150000J0D01*
G01*
X52875000Y-93790000D01*
G75*
G02*
X52725000Y-93640000I0J150000D01*
G01*
X52725000Y-91990000D01*
G75*
G02*
X52875000Y-91840000I150000J0D01*
G01*
G37*
G36*
G01*
X51605000Y-91840000D02*
X51905000Y-91840000D01*
G75*
G02*
X52055000Y-91990000I0J-150000D01*
G01*
X52055000Y-93640000D01*
G75*
G02*
X51905000Y-93790000I-150000J0D01*
G01*
X51605000Y-93790000D01*
G75*
G02*
X51455000Y-93640000I0J150000D01*
G01*
X51455000Y-91990000D01*
G75*
G02*
X51605000Y-91840000I150000J0D01*
G01*
G37*
G36*
G01*
X51605000Y-96790000D02*
X51905000Y-96790000D01*
G75*
G02*
X52055000Y-96940000I0J-150000D01*
G01*
X52055000Y-98590000D01*
G75*
G02*
X51905000Y-98740000I-150000J0D01*
G01*
X51605000Y-98740000D01*
G75*
G02*
X51455000Y-98590000I0J150000D01*
G01*
X51455000Y-96940000D01*
G75*
G02*
X51605000Y-96790000I150000J0D01*
G01*
G37*
G36*
G01*
X52875000Y-96790000D02*
X53175000Y-96790000D01*
G75*
G02*
X53325000Y-96940000I0J-150000D01*
G01*
X53325000Y-98590000D01*
G75*
G02*
X53175000Y-98740000I-150000J0D01*
G01*
X52875000Y-98740000D01*
G75*
G02*
X52725000Y-98590000I0J150000D01*
G01*
X52725000Y-96940000D01*
G75*
G02*
X52875000Y-96790000I150000J0D01*
G01*
G37*
G36*
G01*
X54145000Y-96790000D02*
X54445000Y-96790000D01*
G75*
G02*
X54595000Y-96940000I0J-150000D01*
G01*
X54595000Y-98590000D01*
G75*
G02*
X54445000Y-98740000I-150000J0D01*
G01*
X54145000Y-98740000D01*
G75*
G02*
X53995000Y-98590000I0J150000D01*
G01*
X53995000Y-96940000D01*
G75*
G02*
X54145000Y-96790000I150000J0D01*
G01*
G37*
G36*
G01*
X55415000Y-96790000D02*
X55715000Y-96790000D01*
G75*
G02*
X55865000Y-96940000I0J-150000D01*
G01*
X55865000Y-98590000D01*
G75*
G02*
X55715000Y-98740000I-150000J0D01*
G01*
X55415000Y-98740000D01*
G75*
G02*
X55265000Y-98590000I0J150000D01*
G01*
X55265000Y-96940000D01*
G75*
G02*
X55415000Y-96790000I150000J0D01*
G01*
G37*
G36*
G01*
X56685000Y-96790000D02*
X56985000Y-96790000D01*
G75*
G02*
X57135000Y-96940000I0J-150000D01*
G01*
X57135000Y-98590000D01*
G75*
G02*
X56985000Y-98740000I-150000J0D01*
G01*
X56685000Y-98740000D01*
G75*
G02*
X56535000Y-98590000I0J150000D01*
G01*
X56535000Y-96940000D01*
G75*
G02*
X56685000Y-96790000I150000J0D01*
G01*
G37*
G36*
G01*
X57955000Y-96790000D02*
X58255000Y-96790000D01*
G75*
G02*
X58405000Y-96940000I0J-150000D01*
G01*
X58405000Y-98590000D01*
G75*
G02*
X58255000Y-98740000I-150000J0D01*
G01*
X57955000Y-98740000D01*
G75*
G02*
X57805000Y-98590000I0J150000D01*
G01*
X57805000Y-96940000D01*
G75*
G02*
X57955000Y-96790000I150000J0D01*
G01*
G37*
G36*
G01*
X59225000Y-96790000D02*
X59525000Y-96790000D01*
G75*
G02*
X59675000Y-96940000I0J-150000D01*
G01*
X59675000Y-98590000D01*
G75*
G02*
X59525000Y-98740000I-150000J0D01*
G01*
X59225000Y-98740000D01*
G75*
G02*
X59075000Y-98590000I0J150000D01*
G01*
X59075000Y-96940000D01*
G75*
G02*
X59225000Y-96790000I150000J0D01*
G01*
G37*
G36*
G01*
X60495000Y-96790000D02*
X60795000Y-96790000D01*
G75*
G02*
X60945000Y-96940000I0J-150000D01*
G01*
X60945000Y-98590000D01*
G75*
G02*
X60795000Y-98740000I-150000J0D01*
G01*
X60495000Y-98740000D01*
G75*
G02*
X60345000Y-98590000I0J150000D01*
G01*
X60345000Y-96940000D01*
G75*
G02*
X60495000Y-96790000I150000J0D01*
G01*
G37*
%TD*%
%TO.C,U1*%
G36*
G01*
X60495000Y-68820000D02*
X60795000Y-68820000D01*
G75*
G02*
X60945000Y-68970000I0J-150000D01*
G01*
X60945000Y-70620000D01*
G75*
G02*
X60795000Y-70770000I-150000J0D01*
G01*
X60495000Y-70770000D01*
G75*
G02*
X60345000Y-70620000I0J150000D01*
G01*
X60345000Y-68970000D01*
G75*
G02*
X60495000Y-68820000I150000J0D01*
G01*
G37*
G36*
G01*
X59225000Y-68820000D02*
X59525000Y-68820000D01*
G75*
G02*
X59675000Y-68970000I0J-150000D01*
G01*
X59675000Y-70620000D01*
G75*
G02*
X59525000Y-70770000I-150000J0D01*
G01*
X59225000Y-70770000D01*
G75*
G02*
X59075000Y-70620000I0J150000D01*
G01*
X59075000Y-68970000D01*
G75*
G02*
X59225000Y-68820000I150000J0D01*
G01*
G37*
G36*
G01*
X57955000Y-68820000D02*
X58255000Y-68820000D01*
G75*
G02*
X58405000Y-68970000I0J-150000D01*
G01*
X58405000Y-70620000D01*
G75*
G02*
X58255000Y-70770000I-150000J0D01*
G01*
X57955000Y-70770000D01*
G75*
G02*
X57805000Y-70620000I0J150000D01*
G01*
X57805000Y-68970000D01*
G75*
G02*
X57955000Y-68820000I150000J0D01*
G01*
G37*
G36*
G01*
X56685000Y-68820000D02*
X56985000Y-68820000D01*
G75*
G02*
X57135000Y-68970000I0J-150000D01*
G01*
X57135000Y-70620000D01*
G75*
G02*
X56985000Y-70770000I-150000J0D01*
G01*
X56685000Y-70770000D01*
G75*
G02*
X56535000Y-70620000I0J150000D01*
G01*
X56535000Y-68970000D01*
G75*
G02*
X56685000Y-68820000I150000J0D01*
G01*
G37*
G36*
G01*
X55415000Y-68820000D02*
X55715000Y-68820000D01*
G75*
G02*
X55865000Y-68970000I0J-150000D01*
G01*
X55865000Y-70620000D01*
G75*
G02*
X55715000Y-70770000I-150000J0D01*
G01*
X55415000Y-70770000D01*
G75*
G02*
X55265000Y-70620000I0J150000D01*
G01*
X55265000Y-68970000D01*
G75*
G02*
X55415000Y-68820000I150000J0D01*
G01*
G37*
G36*
G01*
X54145000Y-68820000D02*
X54445000Y-68820000D01*
G75*
G02*
X54595000Y-68970000I0J-150000D01*
G01*
X54595000Y-70620000D01*
G75*
G02*
X54445000Y-70770000I-150000J0D01*
G01*
X54145000Y-70770000D01*
G75*
G02*
X53995000Y-70620000I0J150000D01*
G01*
X53995000Y-68970000D01*
G75*
G02*
X54145000Y-68820000I150000J0D01*
G01*
G37*
G36*
G01*
X52875000Y-68820000D02*
X53175000Y-68820000D01*
G75*
G02*
X53325000Y-68970000I0J-150000D01*
G01*
X53325000Y-70620000D01*
G75*
G02*
X53175000Y-70770000I-150000J0D01*
G01*
X52875000Y-70770000D01*
G75*
G02*
X52725000Y-70620000I0J150000D01*
G01*
X52725000Y-68970000D01*
G75*
G02*
X52875000Y-68820000I150000J0D01*
G01*
G37*
G36*
G01*
X51605000Y-68820000D02*
X51905000Y-68820000D01*
G75*
G02*
X52055000Y-68970000I0J-150000D01*
G01*
X52055000Y-70620000D01*
G75*
G02*
X51905000Y-70770000I-150000J0D01*
G01*
X51605000Y-70770000D01*
G75*
G02*
X51455000Y-70620000I0J150000D01*
G01*
X51455000Y-68970000D01*
G75*
G02*
X51605000Y-68820000I150000J0D01*
G01*
G37*
G36*
G01*
X51605000Y-73770000D02*
X51905000Y-73770000D01*
G75*
G02*
X52055000Y-73920000I0J-150000D01*
G01*
X52055000Y-75570000D01*
G75*
G02*
X51905000Y-75720000I-150000J0D01*
G01*
X51605000Y-75720000D01*
G75*
G02*
X51455000Y-75570000I0J150000D01*
G01*
X51455000Y-73920000D01*
G75*
G02*
X51605000Y-73770000I150000J0D01*
G01*
G37*
G36*
G01*
X52875000Y-73770000D02*
X53175000Y-73770000D01*
G75*
G02*
X53325000Y-73920000I0J-150000D01*
G01*
X53325000Y-75570000D01*
G75*
G02*
X53175000Y-75720000I-150000J0D01*
G01*
X52875000Y-75720000D01*
G75*
G02*
X52725000Y-75570000I0J150000D01*
G01*
X52725000Y-73920000D01*
G75*
G02*
X52875000Y-73770000I150000J0D01*
G01*
G37*
G36*
G01*
X54145000Y-73770000D02*
X54445000Y-73770000D01*
G75*
G02*
X54595000Y-73920000I0J-150000D01*
G01*
X54595000Y-75570000D01*
G75*
G02*
X54445000Y-75720000I-150000J0D01*
G01*
X54145000Y-75720000D01*
G75*
G02*
X53995000Y-75570000I0J150000D01*
G01*
X53995000Y-73920000D01*
G75*
G02*
X54145000Y-73770000I150000J0D01*
G01*
G37*
G36*
G01*
X55415000Y-73770000D02*
X55715000Y-73770000D01*
G75*
G02*
X55865000Y-73920000I0J-150000D01*
G01*
X55865000Y-75570000D01*
G75*
G02*
X55715000Y-75720000I-150000J0D01*
G01*
X55415000Y-75720000D01*
G75*
G02*
X55265000Y-75570000I0J150000D01*
G01*
X55265000Y-73920000D01*
G75*
G02*
X55415000Y-73770000I150000J0D01*
G01*
G37*
G36*
G01*
X56685000Y-73770000D02*
X56985000Y-73770000D01*
G75*
G02*
X57135000Y-73920000I0J-150000D01*
G01*
X57135000Y-75570000D01*
G75*
G02*
X56985000Y-75720000I-150000J0D01*
G01*
X56685000Y-75720000D01*
G75*
G02*
X56535000Y-75570000I0J150000D01*
G01*
X56535000Y-73920000D01*
G75*
G02*
X56685000Y-73770000I150000J0D01*
G01*
G37*
G36*
G01*
X57955000Y-73770000D02*
X58255000Y-73770000D01*
G75*
G02*
X58405000Y-73920000I0J-150000D01*
G01*
X58405000Y-75570000D01*
G75*
G02*
X58255000Y-75720000I-150000J0D01*
G01*
X57955000Y-75720000D01*
G75*
G02*
X57805000Y-75570000I0J150000D01*
G01*
X57805000Y-73920000D01*
G75*
G02*
X57955000Y-73770000I150000J0D01*
G01*
G37*
G36*
G01*
X59225000Y-73770000D02*
X59525000Y-73770000D01*
G75*
G02*
X59675000Y-73920000I0J-150000D01*
G01*
X59675000Y-75570000D01*
G75*
G02*
X59525000Y-75720000I-150000J0D01*
G01*
X59225000Y-75720000D01*
G75*
G02*
X59075000Y-75570000I0J150000D01*
G01*
X59075000Y-73920000D01*
G75*
G02*
X59225000Y-73770000I150000J0D01*
G01*
G37*
G36*
G01*
X60495000Y-73770000D02*
X60795000Y-73770000D01*
G75*
G02*
X60945000Y-73920000I0J-150000D01*
G01*
X60945000Y-75570000D01*
G75*
G02*
X60795000Y-75720000I-150000J0D01*
G01*
X60495000Y-75720000D01*
G75*
G02*
X60345000Y-75570000I0J150000D01*
G01*
X60345000Y-73920000D01*
G75*
G02*
X60495000Y-73770000I150000J0D01*
G01*
G37*
%TD*%
D10*
%TO.C,Y1*%
G36*
X100647488Y-106611903D02*
G01*
X101496016Y-107460431D01*
X100506066Y-108450381D01*
X99657538Y-107601853D01*
X100647488Y-106611903D01*
G37*
G36*
X99091853Y-108167538D02*
G01*
X99940381Y-109016066D01*
X98950431Y-110006016D01*
X98101903Y-109157488D01*
X99091853Y-108167538D01*
G37*
G36*
X100293934Y-109369619D02*
G01*
X101142462Y-110218147D01*
X100152512Y-111208097D01*
X99303984Y-110359569D01*
X100293934Y-109369619D01*
G37*
G36*
X101849569Y-107813984D02*
G01*
X102698097Y-108662512D01*
X101708147Y-109652462D01*
X100859619Y-108803934D01*
X101849569Y-107813984D01*
G37*
%TD*%
%TO.C,Y1*%
G36*
X100647488Y-83591903D02*
G01*
X101496016Y-84440431D01*
X100506066Y-85430381D01*
X99657538Y-84581853D01*
X100647488Y-83591903D01*
G37*
G36*
X99091853Y-85147538D02*
G01*
X99940381Y-85996066D01*
X98950431Y-86986016D01*
X98101903Y-86137488D01*
X99091853Y-85147538D01*
G37*
G36*
X100293934Y-86349619D02*
G01*
X101142462Y-87198147D01*
X100152512Y-88188097D01*
X99303984Y-87339569D01*
X100293934Y-86349619D01*
G37*
G36*
X101849569Y-84793984D02*
G01*
X102698097Y-85642512D01*
X101708147Y-86632462D01*
X100859619Y-85783934D01*
X101849569Y-84793984D01*
G37*
%TD*%
%TO.C,Y1*%
G36*
X100647488Y-60571903D02*
G01*
X101496016Y-61420431D01*
X100506066Y-62410381D01*
X99657538Y-61561853D01*
X100647488Y-60571903D01*
G37*
G36*
X99091853Y-62127538D02*
G01*
X99940381Y-62976066D01*
X98950431Y-63966016D01*
X98101903Y-63117488D01*
X99091853Y-62127538D01*
G37*
G36*
X100293934Y-63329619D02*
G01*
X101142462Y-64178147D01*
X100152512Y-65168097D01*
X99303984Y-64319569D01*
X100293934Y-63329619D01*
G37*
G36*
X101849569Y-61773984D02*
G01*
X102698097Y-62622512D01*
X101708147Y-63612462D01*
X100859619Y-62763934D01*
X101849569Y-61773984D01*
G37*
%TD*%
%TO.C,C7*%
G36*
G01*
X64950000Y-108235000D02*
X64950000Y-107285000D01*
G75*
G02*
X65200000Y-107035000I250000J0D01*
G01*
X65700000Y-107035000D01*
G75*
G02*
X65950000Y-107285000I0J-250000D01*
G01*
X65950000Y-108235000D01*
G75*
G02*
X65700000Y-108485000I-250000J0D01*
G01*
X65200000Y-108485000D01*
G75*
G02*
X64950000Y-108235000I0J250000D01*
G01*
G37*
G36*
G01*
X66850000Y-108235000D02*
X66850000Y-107285000D01*
G75*
G02*
X67100000Y-107035000I250000J0D01*
G01*
X67600000Y-107035000D01*
G75*
G02*
X67850000Y-107285000I0J-250000D01*
G01*
X67850000Y-108235000D01*
G75*
G02*
X67600000Y-108485000I-250000J0D01*
G01*
X67100000Y-108485000D01*
G75*
G02*
X66850000Y-108235000I0J250000D01*
G01*
G37*
%TD*%
%TO.C,C7*%
G36*
G01*
X64950000Y-85215000D02*
X64950000Y-84265000D01*
G75*
G02*
X65200000Y-84015000I250000J0D01*
G01*
X65700000Y-84015000D01*
G75*
G02*
X65950000Y-84265000I0J-250000D01*
G01*
X65950000Y-85215000D01*
G75*
G02*
X65700000Y-85465000I-250000J0D01*
G01*
X65200000Y-85465000D01*
G75*
G02*
X64950000Y-85215000I0J250000D01*
G01*
G37*
G36*
G01*
X66850000Y-85215000D02*
X66850000Y-84265000D01*
G75*
G02*
X67100000Y-84015000I250000J0D01*
G01*
X67600000Y-84015000D01*
G75*
G02*
X67850000Y-84265000I0J-250000D01*
G01*
X67850000Y-85215000D01*
G75*
G02*
X67600000Y-85465000I-250000J0D01*
G01*
X67100000Y-85465000D01*
G75*
G02*
X66850000Y-85215000I0J250000D01*
G01*
G37*
%TD*%
%TO.C,C7*%
G36*
G01*
X64950000Y-62195000D02*
X64950000Y-61245000D01*
G75*
G02*
X65200000Y-60995000I250000J0D01*
G01*
X65700000Y-60995000D01*
G75*
G02*
X65950000Y-61245000I0J-250000D01*
G01*
X65950000Y-62195000D01*
G75*
G02*
X65700000Y-62445000I-250000J0D01*
G01*
X65200000Y-62445000D01*
G75*
G02*
X64950000Y-62195000I0J250000D01*
G01*
G37*
G36*
G01*
X66850000Y-62195000D02*
X66850000Y-61245000D01*
G75*
G02*
X67100000Y-60995000I250000J0D01*
G01*
X67600000Y-60995000D01*
G75*
G02*
X67850000Y-61245000I0J-250000D01*
G01*
X67850000Y-62195000D01*
G75*
G02*
X67600000Y-62445000I-250000J0D01*
G01*
X67100000Y-62445000D01*
G75*
G02*
X66850000Y-62195000I0J250000D01*
G01*
G37*
%TD*%
%TO.C,R1*%
G36*
G01*
X100275000Y-117309999D02*
X100275000Y-118210001D01*
G75*
G02*
X100025001Y-118460000I-249999J0D01*
G01*
X99499999Y-118460000D01*
G75*
G02*
X99250000Y-118210001I0J249999D01*
G01*
X99250000Y-117309999D01*
G75*
G02*
X99499999Y-117060000I249999J0D01*
G01*
X100025001Y-117060000D01*
G75*
G02*
X100275000Y-117309999I0J-249999D01*
G01*
G37*
G36*
G01*
X98450000Y-117309999D02*
X98450000Y-118210001D01*
G75*
G02*
X98200001Y-118460000I-249999J0D01*
G01*
X97674999Y-118460000D01*
G75*
G02*
X97425000Y-118210001I0J249999D01*
G01*
X97425000Y-117309999D01*
G75*
G02*
X97674999Y-117060000I249999J0D01*
G01*
X98200001Y-117060000D01*
G75*
G02*
X98450000Y-117309999I0J-249999D01*
G01*
G37*
%TD*%
%TO.C,R1*%
G36*
G01*
X100275000Y-94289999D02*
X100275000Y-95190001D01*
G75*
G02*
X100025001Y-95440000I-249999J0D01*
G01*
X99499999Y-95440000D01*
G75*
G02*
X99250000Y-95190001I0J249999D01*
G01*
X99250000Y-94289999D01*
G75*
G02*
X99499999Y-94040000I249999J0D01*
G01*
X100025001Y-94040000D01*
G75*
G02*
X100275000Y-94289999I0J-249999D01*
G01*
G37*
G36*
G01*
X98450000Y-94289999D02*
X98450000Y-95190001D01*
G75*
G02*
X98200001Y-95440000I-249999J0D01*
G01*
X97674999Y-95440000D01*
G75*
G02*
X97425000Y-95190001I0J249999D01*
G01*
X97425000Y-94289999D01*
G75*
G02*
X97674999Y-94040000I249999J0D01*
G01*
X98200001Y-94040000D01*
G75*
G02*
X98450000Y-94289999I0J-249999D01*
G01*
G37*
%TD*%
%TO.C,R1*%
G36*
G01*
X100275000Y-71269999D02*
X100275000Y-72170001D01*
G75*
G02*
X100025001Y-72420000I-249999J0D01*
G01*
X99499999Y-72420000D01*
G75*
G02*
X99250000Y-72170001I0J249999D01*
G01*
X99250000Y-71269999D01*
G75*
G02*
X99499999Y-71020000I249999J0D01*
G01*
X100025001Y-71020000D01*
G75*
G02*
X100275000Y-71269999I0J-249999D01*
G01*
G37*
G36*
G01*
X98450000Y-71269999D02*
X98450000Y-72170001D01*
G75*
G02*
X98200001Y-72420000I-249999J0D01*
G01*
X97674999Y-72420000D01*
G75*
G02*
X97425000Y-72170001I0J249999D01*
G01*
X97425000Y-71269999D01*
G75*
G02*
X97674999Y-71020000I249999J0D01*
G01*
X98200001Y-71020000D01*
G75*
G02*
X98450000Y-71269999I0J-249999D01*
G01*
G37*
%TD*%
D11*
%TO.C,SW1*%
X75400000Y-101810000D03*
X83200000Y-101810000D03*
%TD*%
%TO.C,SW1*%
X75400000Y-78790000D03*
X83200000Y-78790000D03*
%TD*%
%TO.C,SW1*%
X75400000Y-55770000D03*
X83200000Y-55770000D03*
%TD*%
%TO.C,C9*%
G36*
G01*
X73800000Y-114485000D02*
X73800000Y-116535000D01*
G75*
G02*
X73550000Y-116785000I-250000J0D01*
G01*
X71975000Y-116785000D01*
G75*
G02*
X71725000Y-116535000I0J250000D01*
G01*
X71725000Y-114485000D01*
G75*
G02*
X71975000Y-114235000I250000J0D01*
G01*
X73550000Y-114235000D01*
G75*
G02*
X73800000Y-114485000I0J-250000D01*
G01*
G37*
G36*
G01*
X67575000Y-114485000D02*
X67575000Y-116535000D01*
G75*
G02*
X67325000Y-116785000I-250000J0D01*
G01*
X65750000Y-116785000D01*
G75*
G02*
X65500000Y-116535000I0J250000D01*
G01*
X65500000Y-114485000D01*
G75*
G02*
X65750000Y-114235000I250000J0D01*
G01*
X67325000Y-114235000D01*
G75*
G02*
X67575000Y-114485000I0J-250000D01*
G01*
G37*
%TD*%
%TO.C,C9*%
G36*
G01*
X73800000Y-91465000D02*
X73800000Y-93515000D01*
G75*
G02*
X73550000Y-93765000I-250000J0D01*
G01*
X71975000Y-93765000D01*
G75*
G02*
X71725000Y-93515000I0J250000D01*
G01*
X71725000Y-91465000D01*
G75*
G02*
X71975000Y-91215000I250000J0D01*
G01*
X73550000Y-91215000D01*
G75*
G02*
X73800000Y-91465000I0J-250000D01*
G01*
G37*
G36*
G01*
X67575000Y-91465000D02*
X67575000Y-93515000D01*
G75*
G02*
X67325000Y-93765000I-250000J0D01*
G01*
X65750000Y-93765000D01*
G75*
G02*
X65500000Y-93515000I0J250000D01*
G01*
X65500000Y-91465000D01*
G75*
G02*
X65750000Y-91215000I250000J0D01*
G01*
X67325000Y-91215000D01*
G75*
G02*
X67575000Y-91465000I0J-250000D01*
G01*
G37*
%TD*%
%TO.C,C9*%
G36*
G01*
X73800000Y-68445000D02*
X73800000Y-70495000D01*
G75*
G02*
X73550000Y-70745000I-250000J0D01*
G01*
X71975000Y-70745000D01*
G75*
G02*
X71725000Y-70495000I0J250000D01*
G01*
X71725000Y-68445000D01*
G75*
G02*
X71975000Y-68195000I250000J0D01*
G01*
X73550000Y-68195000D01*
G75*
G02*
X73800000Y-68445000I0J-250000D01*
G01*
G37*
G36*
G01*
X67575000Y-68445000D02*
X67575000Y-70495000D01*
G75*
G02*
X67325000Y-70745000I-250000J0D01*
G01*
X65750000Y-70745000D01*
G75*
G02*
X65500000Y-70495000I0J250000D01*
G01*
X65500000Y-68445000D01*
G75*
G02*
X65750000Y-68195000I250000J0D01*
G01*
X67325000Y-68195000D01*
G75*
G02*
X67575000Y-68445000I0J-250000D01*
G01*
G37*
%TD*%
%TO.C,R8*%
G36*
G01*
X112339428Y-102584174D02*
X112975826Y-103220572D01*
G75*
G02*
X112975826Y-103574124I-176776J-176776D01*
G01*
X112604594Y-103945356D01*
G75*
G02*
X112251042Y-103945356I-176776J176776D01*
G01*
X111614644Y-103308958D01*
G75*
G02*
X111614644Y-102955406I176776J176776D01*
G01*
X111985876Y-102584174D01*
G75*
G02*
X112339428Y-102584174I176776J-176776D01*
G01*
G37*
G36*
G01*
X111048958Y-103874644D02*
X111685356Y-104511042D01*
G75*
G02*
X111685356Y-104864594I-176776J-176776D01*
G01*
X111314124Y-105235826D01*
G75*
G02*
X110960572Y-105235826I-176776J176776D01*
G01*
X110324174Y-104599428D01*
G75*
G02*
X110324174Y-104245876I176776J176776D01*
G01*
X110695406Y-103874644D01*
G75*
G02*
X111048958Y-103874644I176776J-176776D01*
G01*
G37*
%TD*%
%TO.C,R8*%
G36*
G01*
X112339428Y-79564174D02*
X112975826Y-80200572D01*
G75*
G02*
X112975826Y-80554124I-176776J-176776D01*
G01*
X112604594Y-80925356D01*
G75*
G02*
X112251042Y-80925356I-176776J176776D01*
G01*
X111614644Y-80288958D01*
G75*
G02*
X111614644Y-79935406I176776J176776D01*
G01*
X111985876Y-79564174D01*
G75*
G02*
X112339428Y-79564174I176776J-176776D01*
G01*
G37*
G36*
G01*
X111048958Y-80854644D02*
X111685356Y-81491042D01*
G75*
G02*
X111685356Y-81844594I-176776J-176776D01*
G01*
X111314124Y-82215826D01*
G75*
G02*
X110960572Y-82215826I-176776J176776D01*
G01*
X110324174Y-81579428D01*
G75*
G02*
X110324174Y-81225876I176776J176776D01*
G01*
X110695406Y-80854644D01*
G75*
G02*
X111048958Y-80854644I176776J-176776D01*
G01*
G37*
%TD*%
%TO.C,R8*%
G36*
G01*
X112339428Y-56544174D02*
X112975826Y-57180572D01*
G75*
G02*
X112975826Y-57534124I-176776J-176776D01*
G01*
X112604594Y-57905356D01*
G75*
G02*
X112251042Y-57905356I-176776J176776D01*
G01*
X111614644Y-57268958D01*
G75*
G02*
X111614644Y-56915406I176776J176776D01*
G01*
X111985876Y-56544174D01*
G75*
G02*
X112339428Y-56544174I176776J-176776D01*
G01*
G37*
G36*
G01*
X111048958Y-57834644D02*
X111685356Y-58471042D01*
G75*
G02*
X111685356Y-58824594I-176776J-176776D01*
G01*
X111314124Y-59195826D01*
G75*
G02*
X110960572Y-59195826I-176776J176776D01*
G01*
X110324174Y-58559428D01*
G75*
G02*
X110324174Y-58205876I176776J176776D01*
G01*
X110695406Y-57834644D01*
G75*
G02*
X111048958Y-57834644I176776J-176776D01*
G01*
G37*
%TD*%
%TO.C,R5*%
G36*
G01*
X74849999Y-102835000D02*
X75750001Y-102835000D01*
G75*
G02*
X76000000Y-103084999I0J-249999D01*
G01*
X76000000Y-103610001D01*
G75*
G02*
X75750001Y-103860000I-249999J0D01*
G01*
X74849999Y-103860000D01*
G75*
G02*
X74600000Y-103610001I0J249999D01*
G01*
X74600000Y-103084999D01*
G75*
G02*
X74849999Y-102835000I249999J0D01*
G01*
G37*
G36*
G01*
X74849999Y-104660000D02*
X75750001Y-104660000D01*
G75*
G02*
X76000000Y-104909999I0J-249999D01*
G01*
X76000000Y-105435001D01*
G75*
G02*
X75750001Y-105685000I-249999J0D01*
G01*
X74849999Y-105685000D01*
G75*
G02*
X74600000Y-105435001I0J249999D01*
G01*
X74600000Y-104909999D01*
G75*
G02*
X74849999Y-104660000I249999J0D01*
G01*
G37*
%TD*%
%TO.C,R5*%
G36*
G01*
X74849999Y-79815000D02*
X75750001Y-79815000D01*
G75*
G02*
X76000000Y-80064999I0J-249999D01*
G01*
X76000000Y-80590001D01*
G75*
G02*
X75750001Y-80840000I-249999J0D01*
G01*
X74849999Y-80840000D01*
G75*
G02*
X74600000Y-80590001I0J249999D01*
G01*
X74600000Y-80064999D01*
G75*
G02*
X74849999Y-79815000I249999J0D01*
G01*
G37*
G36*
G01*
X74849999Y-81640000D02*
X75750001Y-81640000D01*
G75*
G02*
X76000000Y-81889999I0J-249999D01*
G01*
X76000000Y-82415001D01*
G75*
G02*
X75750001Y-82665000I-249999J0D01*
G01*
X74849999Y-82665000D01*
G75*
G02*
X74600000Y-82415001I0J249999D01*
G01*
X74600000Y-81889999D01*
G75*
G02*
X74849999Y-81640000I249999J0D01*
G01*
G37*
%TD*%
%TO.C,R5*%
G36*
G01*
X74849999Y-56795000D02*
X75750001Y-56795000D01*
G75*
G02*
X76000000Y-57044999I0J-249999D01*
G01*
X76000000Y-57570001D01*
G75*
G02*
X75750001Y-57820000I-249999J0D01*
G01*
X74849999Y-57820000D01*
G75*
G02*
X74600000Y-57570001I0J249999D01*
G01*
X74600000Y-57044999D01*
G75*
G02*
X74849999Y-56795000I249999J0D01*
G01*
G37*
G36*
G01*
X74849999Y-58620000D02*
X75750001Y-58620000D01*
G75*
G02*
X76000000Y-58869999I0J-249999D01*
G01*
X76000000Y-59395001D01*
G75*
G02*
X75750001Y-59645000I-249999J0D01*
G01*
X74849999Y-59645000D01*
G75*
G02*
X74600000Y-59395001I0J249999D01*
G01*
X74600000Y-58869999D01*
G75*
G02*
X74849999Y-58620000I249999J0D01*
G01*
G37*
%TD*%
D10*
%TO.C,SW2*%
G36*
X115931624Y-103302284D02*
G01*
X116992284Y-102241624D01*
X118052944Y-103302284D01*
X116992284Y-104362944D01*
X115931624Y-103302284D01*
G37*
G36*
X121447056Y-108817716D02*
G01*
X122507716Y-107757056D01*
X123568376Y-108817716D01*
X122507716Y-109878376D01*
X121447056Y-108817716D01*
G37*
%TD*%
%TO.C,SW2*%
G36*
X115931624Y-80282284D02*
G01*
X116992284Y-79221624D01*
X118052944Y-80282284D01*
X116992284Y-81342944D01*
X115931624Y-80282284D01*
G37*
G36*
X121447056Y-85797716D02*
G01*
X122507716Y-84737056D01*
X123568376Y-85797716D01*
X122507716Y-86858376D01*
X121447056Y-85797716D01*
G37*
%TD*%
%TO.C,SW2*%
G36*
X115931624Y-57262284D02*
G01*
X116992284Y-56201624D01*
X118052944Y-57262284D01*
X116992284Y-58322944D01*
X115931624Y-57262284D01*
G37*
G36*
X121447056Y-62777716D02*
G01*
X122507716Y-61717056D01*
X123568376Y-62777716D01*
X122507716Y-63838376D01*
X121447056Y-62777716D01*
G37*
%TD*%
%TO.C,R6*%
G36*
G01*
X76225000Y-112310001D02*
X76225000Y-111409999D01*
G75*
G02*
X76474999Y-111160000I249999J0D01*
G01*
X77000001Y-111160000D01*
G75*
G02*
X77250000Y-111409999I0J-249999D01*
G01*
X77250000Y-112310001D01*
G75*
G02*
X77000001Y-112560000I-249999J0D01*
G01*
X76474999Y-112560000D01*
G75*
G02*
X76225000Y-112310001I0J249999D01*
G01*
G37*
G36*
G01*
X78050000Y-112310001D02*
X78050000Y-111409999D01*
G75*
G02*
X78299999Y-111160000I249999J0D01*
G01*
X78825001Y-111160000D01*
G75*
G02*
X79075000Y-111409999I0J-249999D01*
G01*
X79075000Y-112310001D01*
G75*
G02*
X78825001Y-112560000I-249999J0D01*
G01*
X78299999Y-112560000D01*
G75*
G02*
X78050000Y-112310001I0J249999D01*
G01*
G37*
%TD*%
%TO.C,R6*%
G36*
G01*
X76225000Y-89290001D02*
X76225000Y-88389999D01*
G75*
G02*
X76474999Y-88140000I249999J0D01*
G01*
X77000001Y-88140000D01*
G75*
G02*
X77250000Y-88389999I0J-249999D01*
G01*
X77250000Y-89290001D01*
G75*
G02*
X77000001Y-89540000I-249999J0D01*
G01*
X76474999Y-89540000D01*
G75*
G02*
X76225000Y-89290001I0J249999D01*
G01*
G37*
G36*
G01*
X78050000Y-89290001D02*
X78050000Y-88389999D01*
G75*
G02*
X78299999Y-88140000I249999J0D01*
G01*
X78825001Y-88140000D01*
G75*
G02*
X79075000Y-88389999I0J-249999D01*
G01*
X79075000Y-89290001D01*
G75*
G02*
X78825001Y-89540000I-249999J0D01*
G01*
X78299999Y-89540000D01*
G75*
G02*
X78050000Y-89290001I0J249999D01*
G01*
G37*
%TD*%
%TO.C,R6*%
G36*
G01*
X76225000Y-66270001D02*
X76225000Y-65369999D01*
G75*
G02*
X76474999Y-65120000I249999J0D01*
G01*
X77000001Y-65120000D01*
G75*
G02*
X77250000Y-65369999I0J-249999D01*
G01*
X77250000Y-66270001D01*
G75*
G02*
X77000001Y-66520000I-249999J0D01*
G01*
X76474999Y-66520000D01*
G75*
G02*
X76225000Y-66270001I0J249999D01*
G01*
G37*
G36*
G01*
X78050000Y-66270001D02*
X78050000Y-65369999D01*
G75*
G02*
X78299999Y-65120000I249999J0D01*
G01*
X78825001Y-65120000D01*
G75*
G02*
X79075000Y-65369999I0J-249999D01*
G01*
X79075000Y-66270001D01*
G75*
G02*
X78825001Y-66520000I-249999J0D01*
G01*
X78299999Y-66520000D01*
G75*
G02*
X78050000Y-66270001I0J249999D01*
G01*
G37*
%TD*%
%TO.C,D2*%
G36*
G01*
X103425000Y-115103750D02*
X103425000Y-116016250D01*
G75*
G02*
X103181250Y-116260000I-243750J0D01*
G01*
X102693750Y-116260000D01*
G75*
G02*
X102450000Y-116016250I0J243750D01*
G01*
X102450000Y-115103750D01*
G75*
G02*
X102693750Y-114860000I243750J0D01*
G01*
X103181250Y-114860000D01*
G75*
G02*
X103425000Y-115103750I0J-243750D01*
G01*
G37*
G36*
G01*
X101550000Y-115103750D02*
X101550000Y-116016250D01*
G75*
G02*
X101306250Y-116260000I-243750J0D01*
G01*
X100818750Y-116260000D01*
G75*
G02*
X100575000Y-116016250I0J243750D01*
G01*
X100575000Y-115103750D01*
G75*
G02*
X100818750Y-114860000I243750J0D01*
G01*
X101306250Y-114860000D01*
G75*
G02*
X101550000Y-115103750I0J-243750D01*
G01*
G37*
%TD*%
%TO.C,D2*%
G36*
G01*
X103425000Y-92083750D02*
X103425000Y-92996250D01*
G75*
G02*
X103181250Y-93240000I-243750J0D01*
G01*
X102693750Y-93240000D01*
G75*
G02*
X102450000Y-92996250I0J243750D01*
G01*
X102450000Y-92083750D01*
G75*
G02*
X102693750Y-91840000I243750J0D01*
G01*
X103181250Y-91840000D01*
G75*
G02*
X103425000Y-92083750I0J-243750D01*
G01*
G37*
G36*
G01*
X101550000Y-92083750D02*
X101550000Y-92996250D01*
G75*
G02*
X101306250Y-93240000I-243750J0D01*
G01*
X100818750Y-93240000D01*
G75*
G02*
X100575000Y-92996250I0J243750D01*
G01*
X100575000Y-92083750D01*
G75*
G02*
X100818750Y-91840000I243750J0D01*
G01*
X101306250Y-91840000D01*
G75*
G02*
X101550000Y-92083750I0J-243750D01*
G01*
G37*
%TD*%
%TO.C,D2*%
G36*
G01*
X103425000Y-69063750D02*
X103425000Y-69976250D01*
G75*
G02*
X103181250Y-70220000I-243750J0D01*
G01*
X102693750Y-70220000D01*
G75*
G02*
X102450000Y-69976250I0J243750D01*
G01*
X102450000Y-69063750D01*
G75*
G02*
X102693750Y-68820000I243750J0D01*
G01*
X103181250Y-68820000D01*
G75*
G02*
X103425000Y-69063750I0J-243750D01*
G01*
G37*
G36*
G01*
X101550000Y-69063750D02*
X101550000Y-69976250D01*
G75*
G02*
X101306250Y-70220000I-243750J0D01*
G01*
X100818750Y-70220000D01*
G75*
G02*
X100575000Y-69976250I0J243750D01*
G01*
X100575000Y-69063750D01*
G75*
G02*
X100818750Y-68820000I243750J0D01*
G01*
X101306250Y-68820000D01*
G75*
G02*
X101550000Y-69063750I0J-243750D01*
G01*
G37*
%TD*%
%TO.C,U2*%
G36*
G01*
X68350000Y-107655000D02*
X68350000Y-107355000D01*
G75*
G02*
X68500000Y-107205000I150000J0D01*
G01*
X70150000Y-107205000D01*
G75*
G02*
X70300000Y-107355000I0J-150000D01*
G01*
X70300000Y-107655000D01*
G75*
G02*
X70150000Y-107805000I-150000J0D01*
G01*
X68500000Y-107805000D01*
G75*
G02*
X68350000Y-107655000I0J150000D01*
G01*
G37*
G36*
G01*
X68350000Y-108925000D02*
X68350000Y-108625000D01*
G75*
G02*
X68500000Y-108475000I150000J0D01*
G01*
X70150000Y-108475000D01*
G75*
G02*
X70300000Y-108625000I0J-150000D01*
G01*
X70300000Y-108925000D01*
G75*
G02*
X70150000Y-109075000I-150000J0D01*
G01*
X68500000Y-109075000D01*
G75*
G02*
X68350000Y-108925000I0J150000D01*
G01*
G37*
G36*
G01*
X68350000Y-110195000D02*
X68350000Y-109895000D01*
G75*
G02*
X68500000Y-109745000I150000J0D01*
G01*
X70150000Y-109745000D01*
G75*
G02*
X70300000Y-109895000I0J-150000D01*
G01*
X70300000Y-110195000D01*
G75*
G02*
X70150000Y-110345000I-150000J0D01*
G01*
X68500000Y-110345000D01*
G75*
G02*
X68350000Y-110195000I0J150000D01*
G01*
G37*
G36*
G01*
X68350000Y-111465000D02*
X68350000Y-111165000D01*
G75*
G02*
X68500000Y-111015000I150000J0D01*
G01*
X70150000Y-111015000D01*
G75*
G02*
X70300000Y-111165000I0J-150000D01*
G01*
X70300000Y-111465000D01*
G75*
G02*
X70150000Y-111615000I-150000J0D01*
G01*
X68500000Y-111615000D01*
G75*
G02*
X68350000Y-111465000I0J150000D01*
G01*
G37*
G36*
G01*
X73300000Y-111465000D02*
X73300000Y-111165000D01*
G75*
G02*
X73450000Y-111015000I150000J0D01*
G01*
X75100000Y-111015000D01*
G75*
G02*
X75250000Y-111165000I0J-150000D01*
G01*
X75250000Y-111465000D01*
G75*
G02*
X75100000Y-111615000I-150000J0D01*
G01*
X73450000Y-111615000D01*
G75*
G02*
X73300000Y-111465000I0J150000D01*
G01*
G37*
G36*
G01*
X73300000Y-110195000D02*
X73300000Y-109895000D01*
G75*
G02*
X73450000Y-109745000I150000J0D01*
G01*
X75100000Y-109745000D01*
G75*
G02*
X75250000Y-109895000I0J-150000D01*
G01*
X75250000Y-110195000D01*
G75*
G02*
X75100000Y-110345000I-150000J0D01*
G01*
X73450000Y-110345000D01*
G75*
G02*
X73300000Y-110195000I0J150000D01*
G01*
G37*
G36*
G01*
X73300000Y-108925000D02*
X73300000Y-108625000D01*
G75*
G02*
X73450000Y-108475000I150000J0D01*
G01*
X75100000Y-108475000D01*
G75*
G02*
X75250000Y-108625000I0J-150000D01*
G01*
X75250000Y-108925000D01*
G75*
G02*
X75100000Y-109075000I-150000J0D01*
G01*
X73450000Y-109075000D01*
G75*
G02*
X73300000Y-108925000I0J150000D01*
G01*
G37*
G36*
G01*
X73300000Y-107655000D02*
X73300000Y-107355000D01*
G75*
G02*
X73450000Y-107205000I150000J0D01*
G01*
X75100000Y-107205000D01*
G75*
G02*
X75250000Y-107355000I0J-150000D01*
G01*
X75250000Y-107655000D01*
G75*
G02*
X75100000Y-107805000I-150000J0D01*
G01*
X73450000Y-107805000D01*
G75*
G02*
X73300000Y-107655000I0J150000D01*
G01*
G37*
D12*
X71800000Y-109410000D03*
%TD*%
%TO.C,U2*%
G36*
G01*
X68350000Y-84635000D02*
X68350000Y-84335000D01*
G75*
G02*
X68500000Y-84185000I150000J0D01*
G01*
X70150000Y-84185000D01*
G75*
G02*
X70300000Y-84335000I0J-150000D01*
G01*
X70300000Y-84635000D01*
G75*
G02*
X70150000Y-84785000I-150000J0D01*
G01*
X68500000Y-84785000D01*
G75*
G02*
X68350000Y-84635000I0J150000D01*
G01*
G37*
G36*
G01*
X68350000Y-85905000D02*
X68350000Y-85605000D01*
G75*
G02*
X68500000Y-85455000I150000J0D01*
G01*
X70150000Y-85455000D01*
G75*
G02*
X70300000Y-85605000I0J-150000D01*
G01*
X70300000Y-85905000D01*
G75*
G02*
X70150000Y-86055000I-150000J0D01*
G01*
X68500000Y-86055000D01*
G75*
G02*
X68350000Y-85905000I0J150000D01*
G01*
G37*
G36*
G01*
X68350000Y-87175000D02*
X68350000Y-86875000D01*
G75*
G02*
X68500000Y-86725000I150000J0D01*
G01*
X70150000Y-86725000D01*
G75*
G02*
X70300000Y-86875000I0J-150000D01*
G01*
X70300000Y-87175000D01*
G75*
G02*
X70150000Y-87325000I-150000J0D01*
G01*
X68500000Y-87325000D01*
G75*
G02*
X68350000Y-87175000I0J150000D01*
G01*
G37*
G36*
G01*
X68350000Y-88445000D02*
X68350000Y-88145000D01*
G75*
G02*
X68500000Y-87995000I150000J0D01*
G01*
X70150000Y-87995000D01*
G75*
G02*
X70300000Y-88145000I0J-150000D01*
G01*
X70300000Y-88445000D01*
G75*
G02*
X70150000Y-88595000I-150000J0D01*
G01*
X68500000Y-88595000D01*
G75*
G02*
X68350000Y-88445000I0J150000D01*
G01*
G37*
G36*
G01*
X73300000Y-88445000D02*
X73300000Y-88145000D01*
G75*
G02*
X73450000Y-87995000I150000J0D01*
G01*
X75100000Y-87995000D01*
G75*
G02*
X75250000Y-88145000I0J-150000D01*
G01*
X75250000Y-88445000D01*
G75*
G02*
X75100000Y-88595000I-150000J0D01*
G01*
X73450000Y-88595000D01*
G75*
G02*
X73300000Y-88445000I0J150000D01*
G01*
G37*
G36*
G01*
X73300000Y-87175000D02*
X73300000Y-86875000D01*
G75*
G02*
X73450000Y-86725000I150000J0D01*
G01*
X75100000Y-86725000D01*
G75*
G02*
X75250000Y-86875000I0J-150000D01*
G01*
X75250000Y-87175000D01*
G75*
G02*
X75100000Y-87325000I-150000J0D01*
G01*
X73450000Y-87325000D01*
G75*
G02*
X73300000Y-87175000I0J150000D01*
G01*
G37*
G36*
G01*
X73300000Y-85905000D02*
X73300000Y-85605000D01*
G75*
G02*
X73450000Y-85455000I150000J0D01*
G01*
X75100000Y-85455000D01*
G75*
G02*
X75250000Y-85605000I0J-150000D01*
G01*
X75250000Y-85905000D01*
G75*
G02*
X75100000Y-86055000I-150000J0D01*
G01*
X73450000Y-86055000D01*
G75*
G02*
X73300000Y-85905000I0J150000D01*
G01*
G37*
G36*
G01*
X73300000Y-84635000D02*
X73300000Y-84335000D01*
G75*
G02*
X73450000Y-84185000I150000J0D01*
G01*
X75100000Y-84185000D01*
G75*
G02*
X75250000Y-84335000I0J-150000D01*
G01*
X75250000Y-84635000D01*
G75*
G02*
X75100000Y-84785000I-150000J0D01*
G01*
X73450000Y-84785000D01*
G75*
G02*
X73300000Y-84635000I0J150000D01*
G01*
G37*
X71800000Y-86390000D03*
%TD*%
%TO.C,U2*%
G36*
G01*
X68350000Y-61615000D02*
X68350000Y-61315000D01*
G75*
G02*
X68500000Y-61165000I150000J0D01*
G01*
X70150000Y-61165000D01*
G75*
G02*
X70300000Y-61315000I0J-150000D01*
G01*
X70300000Y-61615000D01*
G75*
G02*
X70150000Y-61765000I-150000J0D01*
G01*
X68500000Y-61765000D01*
G75*
G02*
X68350000Y-61615000I0J150000D01*
G01*
G37*
G36*
G01*
X68350000Y-62885000D02*
X68350000Y-62585000D01*
G75*
G02*
X68500000Y-62435000I150000J0D01*
G01*
X70150000Y-62435000D01*
G75*
G02*
X70300000Y-62585000I0J-150000D01*
G01*
X70300000Y-62885000D01*
G75*
G02*
X70150000Y-63035000I-150000J0D01*
G01*
X68500000Y-63035000D01*
G75*
G02*
X68350000Y-62885000I0J150000D01*
G01*
G37*
G36*
G01*
X68350000Y-64155000D02*
X68350000Y-63855000D01*
G75*
G02*
X68500000Y-63705000I150000J0D01*
G01*
X70150000Y-63705000D01*
G75*
G02*
X70300000Y-63855000I0J-150000D01*
G01*
X70300000Y-64155000D01*
G75*
G02*
X70150000Y-64305000I-150000J0D01*
G01*
X68500000Y-64305000D01*
G75*
G02*
X68350000Y-64155000I0J150000D01*
G01*
G37*
G36*
G01*
X68350000Y-65425000D02*
X68350000Y-65125000D01*
G75*
G02*
X68500000Y-64975000I150000J0D01*
G01*
X70150000Y-64975000D01*
G75*
G02*
X70300000Y-65125000I0J-150000D01*
G01*
X70300000Y-65425000D01*
G75*
G02*
X70150000Y-65575000I-150000J0D01*
G01*
X68500000Y-65575000D01*
G75*
G02*
X68350000Y-65425000I0J150000D01*
G01*
G37*
G36*
G01*
X73300000Y-65425000D02*
X73300000Y-65125000D01*
G75*
G02*
X73450000Y-64975000I150000J0D01*
G01*
X75100000Y-64975000D01*
G75*
G02*
X75250000Y-65125000I0J-150000D01*
G01*
X75250000Y-65425000D01*
G75*
G02*
X75100000Y-65575000I-150000J0D01*
G01*
X73450000Y-65575000D01*
G75*
G02*
X73300000Y-65425000I0J150000D01*
G01*
G37*
G36*
G01*
X73300000Y-64155000D02*
X73300000Y-63855000D01*
G75*
G02*
X73450000Y-63705000I150000J0D01*
G01*
X75100000Y-63705000D01*
G75*
G02*
X75250000Y-63855000I0J-150000D01*
G01*
X75250000Y-64155000D01*
G75*
G02*
X75100000Y-64305000I-150000J0D01*
G01*
X73450000Y-64305000D01*
G75*
G02*
X73300000Y-64155000I0J150000D01*
G01*
G37*
G36*
G01*
X73300000Y-62885000D02*
X73300000Y-62585000D01*
G75*
G02*
X73450000Y-62435000I150000J0D01*
G01*
X75100000Y-62435000D01*
G75*
G02*
X75250000Y-62585000I0J-150000D01*
G01*
X75250000Y-62885000D01*
G75*
G02*
X75100000Y-63035000I-150000J0D01*
G01*
X73450000Y-63035000D01*
G75*
G02*
X73300000Y-62885000I0J150000D01*
G01*
G37*
G36*
G01*
X73300000Y-61615000D02*
X73300000Y-61315000D01*
G75*
G02*
X73450000Y-61165000I150000J0D01*
G01*
X75100000Y-61165000D01*
G75*
G02*
X75250000Y-61315000I0J-150000D01*
G01*
X75250000Y-61615000D01*
G75*
G02*
X75100000Y-61765000I-150000J0D01*
G01*
X73450000Y-61765000D01*
G75*
G02*
X73300000Y-61615000I0J150000D01*
G01*
G37*
X71800000Y-63370000D03*
%TD*%
%TO.C,R3*%
G36*
G01*
X64300001Y-107535000D02*
X63399999Y-107535000D01*
G75*
G02*
X63150000Y-107285001I0J249999D01*
G01*
X63150000Y-106759999D01*
G75*
G02*
X63399999Y-106510000I249999J0D01*
G01*
X64300001Y-106510000D01*
G75*
G02*
X64550000Y-106759999I0J-249999D01*
G01*
X64550000Y-107285001D01*
G75*
G02*
X64300001Y-107535000I-249999J0D01*
G01*
G37*
G36*
G01*
X64300001Y-105710000D02*
X63399999Y-105710000D01*
G75*
G02*
X63150000Y-105460001I0J249999D01*
G01*
X63150000Y-104934999D01*
G75*
G02*
X63399999Y-104685000I249999J0D01*
G01*
X64300001Y-104685000D01*
G75*
G02*
X64550000Y-104934999I0J-249999D01*
G01*
X64550000Y-105460001D01*
G75*
G02*
X64300001Y-105710000I-249999J0D01*
G01*
G37*
%TD*%
%TO.C,R3*%
G36*
G01*
X64300001Y-84515000D02*
X63399999Y-84515000D01*
G75*
G02*
X63150000Y-84265001I0J249999D01*
G01*
X63150000Y-83739999D01*
G75*
G02*
X63399999Y-83490000I249999J0D01*
G01*
X64300001Y-83490000D01*
G75*
G02*
X64550000Y-83739999I0J-249999D01*
G01*
X64550000Y-84265001D01*
G75*
G02*
X64300001Y-84515000I-249999J0D01*
G01*
G37*
G36*
G01*
X64300001Y-82690000D02*
X63399999Y-82690000D01*
G75*
G02*
X63150000Y-82440001I0J249999D01*
G01*
X63150000Y-81914999D01*
G75*
G02*
X63399999Y-81665000I249999J0D01*
G01*
X64300001Y-81665000D01*
G75*
G02*
X64550000Y-81914999I0J-249999D01*
G01*
X64550000Y-82440001D01*
G75*
G02*
X64300001Y-82690000I-249999J0D01*
G01*
G37*
%TD*%
%TO.C,R3*%
G36*
G01*
X64300001Y-61495000D02*
X63399999Y-61495000D01*
G75*
G02*
X63150000Y-61245001I0J249999D01*
G01*
X63150000Y-60719999D01*
G75*
G02*
X63399999Y-60470000I249999J0D01*
G01*
X64300001Y-60470000D01*
G75*
G02*
X64550000Y-60719999I0J-249999D01*
G01*
X64550000Y-61245001D01*
G75*
G02*
X64300001Y-61495000I-249999J0D01*
G01*
G37*
G36*
G01*
X64300001Y-59670000D02*
X63399999Y-59670000D01*
G75*
G02*
X63150000Y-59420001I0J249999D01*
G01*
X63150000Y-58894999D01*
G75*
G02*
X63399999Y-58645000I249999J0D01*
G01*
X64300001Y-58645000D01*
G75*
G02*
X64550000Y-58894999I0J-249999D01*
G01*
X64550000Y-59420001D01*
G75*
G02*
X64300001Y-59670000I-249999J0D01*
G01*
G37*
%TD*%
D13*
%TO.C,L1*%
X80750000Y-105535000D03*
X80750000Y-109685000D03*
%TD*%
%TO.C,L1*%
X80750000Y-82515000D03*
X80750000Y-86665000D03*
%TD*%
%TO.C,L1*%
X80750000Y-59495000D03*
X80750000Y-63645000D03*
%TD*%
%TO.C,D1*%
G36*
G01*
X103425000Y-117353750D02*
X103425000Y-118266250D01*
G75*
G02*
X103181250Y-118510000I-243750J0D01*
G01*
X102693750Y-118510000D01*
G75*
G02*
X102450000Y-118266250I0J243750D01*
G01*
X102450000Y-117353750D01*
G75*
G02*
X102693750Y-117110000I243750J0D01*
G01*
X103181250Y-117110000D01*
G75*
G02*
X103425000Y-117353750I0J-243750D01*
G01*
G37*
G36*
G01*
X101550000Y-117353750D02*
X101550000Y-118266250D01*
G75*
G02*
X101306250Y-118510000I-243750J0D01*
G01*
X100818750Y-118510000D01*
G75*
G02*
X100575000Y-118266250I0J243750D01*
G01*
X100575000Y-117353750D01*
G75*
G02*
X100818750Y-117110000I243750J0D01*
G01*
X101306250Y-117110000D01*
G75*
G02*
X101550000Y-117353750I0J-243750D01*
G01*
G37*
%TD*%
%TO.C,D1*%
G36*
G01*
X103425000Y-94333750D02*
X103425000Y-95246250D01*
G75*
G02*
X103181250Y-95490000I-243750J0D01*
G01*
X102693750Y-95490000D01*
G75*
G02*
X102450000Y-95246250I0J243750D01*
G01*
X102450000Y-94333750D01*
G75*
G02*
X102693750Y-94090000I243750J0D01*
G01*
X103181250Y-94090000D01*
G75*
G02*
X103425000Y-94333750I0J-243750D01*
G01*
G37*
G36*
G01*
X101550000Y-94333750D02*
X101550000Y-95246250D01*
G75*
G02*
X101306250Y-95490000I-243750J0D01*
G01*
X100818750Y-95490000D01*
G75*
G02*
X100575000Y-95246250I0J243750D01*
G01*
X100575000Y-94333750D01*
G75*
G02*
X100818750Y-94090000I243750J0D01*
G01*
X101306250Y-94090000D01*
G75*
G02*
X101550000Y-94333750I0J-243750D01*
G01*
G37*
%TD*%
%TO.C,D1*%
G36*
G01*
X103425000Y-71313750D02*
X103425000Y-72226250D01*
G75*
G02*
X103181250Y-72470000I-243750J0D01*
G01*
X102693750Y-72470000D01*
G75*
G02*
X102450000Y-72226250I0J243750D01*
G01*
X102450000Y-71313750D01*
G75*
G02*
X102693750Y-71070000I243750J0D01*
G01*
X103181250Y-71070000D01*
G75*
G02*
X103425000Y-71313750I0J-243750D01*
G01*
G37*
G36*
G01*
X101550000Y-71313750D02*
X101550000Y-72226250D01*
G75*
G02*
X101306250Y-72470000I-243750J0D01*
G01*
X100818750Y-72470000D01*
G75*
G02*
X100575000Y-72226250I0J243750D01*
G01*
X100575000Y-71313750D01*
G75*
G02*
X100818750Y-71070000I243750J0D01*
G01*
X101306250Y-71070000D01*
G75*
G02*
X101550000Y-71313750I0J-243750D01*
G01*
G37*
%TD*%
%TO.C,C8*%
G36*
G01*
X84075000Y-115660000D02*
X83125000Y-115660000D01*
G75*
G02*
X82875000Y-115410000I0J250000D01*
G01*
X82875000Y-114910000D01*
G75*
G02*
X83125000Y-114660000I250000J0D01*
G01*
X84075000Y-114660000D01*
G75*
G02*
X84325000Y-114910000I0J-250000D01*
G01*
X84325000Y-115410000D01*
G75*
G02*
X84075000Y-115660000I-250000J0D01*
G01*
G37*
G36*
G01*
X84075000Y-113760000D02*
X83125000Y-113760000D01*
G75*
G02*
X82875000Y-113510000I0J250000D01*
G01*
X82875000Y-113010000D01*
G75*
G02*
X83125000Y-112760000I250000J0D01*
G01*
X84075000Y-112760000D01*
G75*
G02*
X84325000Y-113010000I0J-250000D01*
G01*
X84325000Y-113510000D01*
G75*
G02*
X84075000Y-113760000I-250000J0D01*
G01*
G37*
%TD*%
%TO.C,C8*%
G36*
G01*
X84075000Y-92640000D02*
X83125000Y-92640000D01*
G75*
G02*
X82875000Y-92390000I0J250000D01*
G01*
X82875000Y-91890000D01*
G75*
G02*
X83125000Y-91640000I250000J0D01*
G01*
X84075000Y-91640000D01*
G75*
G02*
X84325000Y-91890000I0J-250000D01*
G01*
X84325000Y-92390000D01*
G75*
G02*
X84075000Y-92640000I-250000J0D01*
G01*
G37*
G36*
G01*
X84075000Y-90740000D02*
X83125000Y-90740000D01*
G75*
G02*
X82875000Y-90490000I0J250000D01*
G01*
X82875000Y-89990000D01*
G75*
G02*
X83125000Y-89740000I250000J0D01*
G01*
X84075000Y-89740000D01*
G75*
G02*
X84325000Y-89990000I0J-250000D01*
G01*
X84325000Y-90490000D01*
G75*
G02*
X84075000Y-90740000I-250000J0D01*
G01*
G37*
%TD*%
%TO.C,C8*%
G36*
G01*
X84075000Y-69620000D02*
X83125000Y-69620000D01*
G75*
G02*
X82875000Y-69370000I0J250000D01*
G01*
X82875000Y-68870000D01*
G75*
G02*
X83125000Y-68620000I250000J0D01*
G01*
X84075000Y-68620000D01*
G75*
G02*
X84325000Y-68870000I0J-250000D01*
G01*
X84325000Y-69370000D01*
G75*
G02*
X84075000Y-69620000I-250000J0D01*
G01*
G37*
G36*
G01*
X84075000Y-67720000D02*
X83125000Y-67720000D01*
G75*
G02*
X82875000Y-67470000I0J250000D01*
G01*
X82875000Y-66970000D01*
G75*
G02*
X83125000Y-66720000I250000J0D01*
G01*
X84075000Y-66720000D01*
G75*
G02*
X84325000Y-66970000I0J-250000D01*
G01*
X84325000Y-67470000D01*
G75*
G02*
X84075000Y-67720000I-250000J0D01*
G01*
G37*
%TD*%
%TO.C,C12*%
G36*
G01*
X71400000Y-119235000D02*
X71400000Y-118285000D01*
G75*
G02*
X71650000Y-118035000I250000J0D01*
G01*
X72150000Y-118035000D01*
G75*
G02*
X72400000Y-118285000I0J-250000D01*
G01*
X72400000Y-119235000D01*
G75*
G02*
X72150000Y-119485000I-250000J0D01*
G01*
X71650000Y-119485000D01*
G75*
G02*
X71400000Y-119235000I0J250000D01*
G01*
G37*
G36*
G01*
X73300000Y-119235000D02*
X73300000Y-118285000D01*
G75*
G02*
X73550000Y-118035000I250000J0D01*
G01*
X74050000Y-118035000D01*
G75*
G02*
X74300000Y-118285000I0J-250000D01*
G01*
X74300000Y-119235000D01*
G75*
G02*
X74050000Y-119485000I-250000J0D01*
G01*
X73550000Y-119485000D01*
G75*
G02*
X73300000Y-119235000I0J250000D01*
G01*
G37*
%TD*%
%TO.C,C12*%
G36*
G01*
X71400000Y-96215000D02*
X71400000Y-95265000D01*
G75*
G02*
X71650000Y-95015000I250000J0D01*
G01*
X72150000Y-95015000D01*
G75*
G02*
X72400000Y-95265000I0J-250000D01*
G01*
X72400000Y-96215000D01*
G75*
G02*
X72150000Y-96465000I-250000J0D01*
G01*
X71650000Y-96465000D01*
G75*
G02*
X71400000Y-96215000I0J250000D01*
G01*
G37*
G36*
G01*
X73300000Y-96215000D02*
X73300000Y-95265000D01*
G75*
G02*
X73550000Y-95015000I250000J0D01*
G01*
X74050000Y-95015000D01*
G75*
G02*
X74300000Y-95265000I0J-250000D01*
G01*
X74300000Y-96215000D01*
G75*
G02*
X74050000Y-96465000I-250000J0D01*
G01*
X73550000Y-96465000D01*
G75*
G02*
X73300000Y-96215000I0J250000D01*
G01*
G37*
%TD*%
%TO.C,C12*%
G36*
G01*
X71400000Y-73195000D02*
X71400000Y-72245000D01*
G75*
G02*
X71650000Y-71995000I250000J0D01*
G01*
X72150000Y-71995000D01*
G75*
G02*
X72400000Y-72245000I0J-250000D01*
G01*
X72400000Y-73195000D01*
G75*
G02*
X72150000Y-73445000I-250000J0D01*
G01*
X71650000Y-73445000D01*
G75*
G02*
X71400000Y-73195000I0J250000D01*
G01*
G37*
G36*
G01*
X73300000Y-73195000D02*
X73300000Y-72245000D01*
G75*
G02*
X73550000Y-71995000I250000J0D01*
G01*
X74050000Y-71995000D01*
G75*
G02*
X74300000Y-72245000I0J-250000D01*
G01*
X74300000Y-73195000D01*
G75*
G02*
X74050000Y-73445000I-250000J0D01*
G01*
X73550000Y-73445000D01*
G75*
G02*
X73300000Y-73195000I0J250000D01*
G01*
G37*
%TD*%
%TO.C,C6*%
G36*
G01*
X65000000Y-106385000D02*
X65000000Y-105435000D01*
G75*
G02*
X65250000Y-105185000I250000J0D01*
G01*
X65750000Y-105185000D01*
G75*
G02*
X66000000Y-105435000I0J-250000D01*
G01*
X66000000Y-106385000D01*
G75*
G02*
X65750000Y-106635000I-250000J0D01*
G01*
X65250000Y-106635000D01*
G75*
G02*
X65000000Y-106385000I0J250000D01*
G01*
G37*
G36*
G01*
X66900000Y-106385000D02*
X66900000Y-105435000D01*
G75*
G02*
X67150000Y-105185000I250000J0D01*
G01*
X67650000Y-105185000D01*
G75*
G02*
X67900000Y-105435000I0J-250000D01*
G01*
X67900000Y-106385000D01*
G75*
G02*
X67650000Y-106635000I-250000J0D01*
G01*
X67150000Y-106635000D01*
G75*
G02*
X66900000Y-106385000I0J250000D01*
G01*
G37*
%TD*%
%TO.C,C6*%
G36*
G01*
X65000000Y-83365000D02*
X65000000Y-82415000D01*
G75*
G02*
X65250000Y-82165000I250000J0D01*
G01*
X65750000Y-82165000D01*
G75*
G02*
X66000000Y-82415000I0J-250000D01*
G01*
X66000000Y-83365000D01*
G75*
G02*
X65750000Y-83615000I-250000J0D01*
G01*
X65250000Y-83615000D01*
G75*
G02*
X65000000Y-83365000I0J250000D01*
G01*
G37*
G36*
G01*
X66900000Y-83365000D02*
X66900000Y-82415000D01*
G75*
G02*
X67150000Y-82165000I250000J0D01*
G01*
X67650000Y-82165000D01*
G75*
G02*
X67900000Y-82415000I0J-250000D01*
G01*
X67900000Y-83365000D01*
G75*
G02*
X67650000Y-83615000I-250000J0D01*
G01*
X67150000Y-83615000D01*
G75*
G02*
X66900000Y-83365000I0J250000D01*
G01*
G37*
%TD*%
%TO.C,C6*%
G36*
G01*
X65000000Y-60345000D02*
X65000000Y-59395000D01*
G75*
G02*
X65250000Y-59145000I250000J0D01*
G01*
X65750000Y-59145000D01*
G75*
G02*
X66000000Y-59395000I0J-250000D01*
G01*
X66000000Y-60345000D01*
G75*
G02*
X65750000Y-60595000I-250000J0D01*
G01*
X65250000Y-60595000D01*
G75*
G02*
X65000000Y-60345000I0J250000D01*
G01*
G37*
G36*
G01*
X66900000Y-60345000D02*
X66900000Y-59395000D01*
G75*
G02*
X67150000Y-59145000I250000J0D01*
G01*
X67650000Y-59145000D01*
G75*
G02*
X67900000Y-59395000I0J-250000D01*
G01*
X67900000Y-60345000D01*
G75*
G02*
X67650000Y-60595000I-250000J0D01*
G01*
X67150000Y-60595000D01*
G75*
G02*
X66900000Y-60345000I0J250000D01*
G01*
G37*
%TD*%
D14*
%TO.C,BT1*%
X53000000Y-111060000D03*
D15*
X125900000Y-111060000D03*
D16*
X117255000Y-111060000D03*
X61636000Y-111060000D03*
%TD*%
D14*
%TO.C,BT1*%
X53000000Y-88040000D03*
D15*
X125900000Y-88040000D03*
D16*
X117255000Y-88040000D03*
X61636000Y-88040000D03*
%TD*%
D14*
%TO.C,BT1*%
X53000000Y-65020000D03*
D15*
X125900000Y-65020000D03*
D16*
X117255000Y-65020000D03*
X61636000Y-65020000D03*
%TD*%
%TO.C,C3*%
G36*
G01*
X112210571Y-106621180D02*
X111538820Y-105949429D01*
G75*
G02*
X111538820Y-105595875I176777J176777D01*
G01*
X111892373Y-105242322D01*
G75*
G02*
X112245927Y-105242322I176777J-176777D01*
G01*
X112917678Y-105914073D01*
G75*
G02*
X112917678Y-106267627I-176777J-176777D01*
G01*
X112564125Y-106621180D01*
G75*
G02*
X112210571Y-106621180I-176777J176777D01*
G01*
G37*
G36*
G01*
X113554073Y-105277678D02*
X112882322Y-104605927D01*
G75*
G02*
X112882322Y-104252373I176777J176777D01*
G01*
X113235875Y-103898820D01*
G75*
G02*
X113589429Y-103898820I176777J-176777D01*
G01*
X114261180Y-104570571D01*
G75*
G02*
X114261180Y-104924125I-176777J-176777D01*
G01*
X113907627Y-105277678D01*
G75*
G02*
X113554073Y-105277678I-176777J176777D01*
G01*
G37*
%TD*%
%TO.C,C3*%
G36*
G01*
X112210571Y-83601180D02*
X111538820Y-82929429D01*
G75*
G02*
X111538820Y-82575875I176777J176777D01*
G01*
X111892373Y-82222322D01*
G75*
G02*
X112245927Y-82222322I176777J-176777D01*
G01*
X112917678Y-82894073D01*
G75*
G02*
X112917678Y-83247627I-176777J-176777D01*
G01*
X112564125Y-83601180D01*
G75*
G02*
X112210571Y-83601180I-176777J176777D01*
G01*
G37*
G36*
G01*
X113554073Y-82257678D02*
X112882322Y-81585927D01*
G75*
G02*
X112882322Y-81232373I176777J176777D01*
G01*
X113235875Y-80878820D01*
G75*
G02*
X113589429Y-80878820I176777J-176777D01*
G01*
X114261180Y-81550571D01*
G75*
G02*
X114261180Y-81904125I-176777J-176777D01*
G01*
X113907627Y-82257678D01*
G75*
G02*
X113554073Y-82257678I-176777J176777D01*
G01*
G37*
%TD*%
%TO.C,C3*%
G36*
G01*
X112210571Y-60581180D02*
X111538820Y-59909429D01*
G75*
G02*
X111538820Y-59555875I176777J176777D01*
G01*
X111892373Y-59202322D01*
G75*
G02*
X112245927Y-59202322I176777J-176777D01*
G01*
X112917678Y-59874073D01*
G75*
G02*
X112917678Y-60227627I-176777J-176777D01*
G01*
X112564125Y-60581180D01*
G75*
G02*
X112210571Y-60581180I-176777J176777D01*
G01*
G37*
G36*
G01*
X113554073Y-59237678D02*
X112882322Y-58565927D01*
G75*
G02*
X112882322Y-58212373I176777J176777D01*
G01*
X113235875Y-57858820D01*
G75*
G02*
X113589429Y-57858820I176777J-176777D01*
G01*
X114261180Y-58530571D01*
G75*
G02*
X114261180Y-58884125I-176777J-176777D01*
G01*
X113907627Y-59237678D01*
G75*
G02*
X113554073Y-59237678I-176777J176777D01*
G01*
G37*
%TD*%
%TO.C,C15*%
G36*
G01*
X113139429Y-114848820D02*
X113811180Y-115520571D01*
G75*
G02*
X113811180Y-115874125I-176777J-176777D01*
G01*
X113457627Y-116227678D01*
G75*
G02*
X113104073Y-116227678I-176777J176777D01*
G01*
X112432322Y-115555927D01*
G75*
G02*
X112432322Y-115202373I176777J176777D01*
G01*
X112785875Y-114848820D01*
G75*
G02*
X113139429Y-114848820I176777J-176777D01*
G01*
G37*
G36*
G01*
X111795927Y-116192322D02*
X112467678Y-116864073D01*
G75*
G02*
X112467678Y-117217627I-176777J-176777D01*
G01*
X112114125Y-117571180D01*
G75*
G02*
X111760571Y-117571180I-176777J176777D01*
G01*
X111088820Y-116899429D01*
G75*
G02*
X111088820Y-116545875I176777J176777D01*
G01*
X111442373Y-116192322D01*
G75*
G02*
X111795927Y-116192322I176777J-176777D01*
G01*
G37*
%TD*%
%TO.C,C15*%
G36*
G01*
X113139429Y-91828820D02*
X113811180Y-92500571D01*
G75*
G02*
X113811180Y-92854125I-176777J-176777D01*
G01*
X113457627Y-93207678D01*
G75*
G02*
X113104073Y-93207678I-176777J176777D01*
G01*
X112432322Y-92535927D01*
G75*
G02*
X112432322Y-92182373I176777J176777D01*
G01*
X112785875Y-91828820D01*
G75*
G02*
X113139429Y-91828820I176777J-176777D01*
G01*
G37*
G36*
G01*
X111795927Y-93172322D02*
X112467678Y-93844073D01*
G75*
G02*
X112467678Y-94197627I-176777J-176777D01*
G01*
X112114125Y-94551180D01*
G75*
G02*
X111760571Y-94551180I-176777J176777D01*
G01*
X111088820Y-93879429D01*
G75*
G02*
X111088820Y-93525875I176777J176777D01*
G01*
X111442373Y-93172322D01*
G75*
G02*
X111795927Y-93172322I176777J-176777D01*
G01*
G37*
%TD*%
%TO.C,C15*%
G36*
G01*
X113139429Y-68808820D02*
X113811180Y-69480571D01*
G75*
G02*
X113811180Y-69834125I-176777J-176777D01*
G01*
X113457627Y-70187678D01*
G75*
G02*
X113104073Y-70187678I-176777J176777D01*
G01*
X112432322Y-69515927D01*
G75*
G02*
X112432322Y-69162373I176777J176777D01*
G01*
X112785875Y-68808820D01*
G75*
G02*
X113139429Y-68808820I176777J-176777D01*
G01*
G37*
G36*
G01*
X111795927Y-70152322D02*
X112467678Y-70824073D01*
G75*
G02*
X112467678Y-71177627I-176777J-176777D01*
G01*
X112114125Y-71531180D01*
G75*
G02*
X111760571Y-71531180I-176777J176777D01*
G01*
X111088820Y-70859429D01*
G75*
G02*
X111088820Y-70505875I176777J176777D01*
G01*
X111442373Y-70152322D01*
G75*
G02*
X111795927Y-70152322I176777J-176777D01*
G01*
G37*
%TD*%
%TO.C,C10*%
G36*
G01*
X103639429Y-103298820D02*
X104311180Y-103970571D01*
G75*
G02*
X104311180Y-104324125I-176777J-176777D01*
G01*
X103957627Y-104677678D01*
G75*
G02*
X103604073Y-104677678I-176777J176777D01*
G01*
X102932322Y-104005927D01*
G75*
G02*
X102932322Y-103652373I176777J176777D01*
G01*
X103285875Y-103298820D01*
G75*
G02*
X103639429Y-103298820I176777J-176777D01*
G01*
G37*
G36*
G01*
X102295927Y-104642322D02*
X102967678Y-105314073D01*
G75*
G02*
X102967678Y-105667627I-176777J-176777D01*
G01*
X102614125Y-106021180D01*
G75*
G02*
X102260571Y-106021180I-176777J176777D01*
G01*
X101588820Y-105349429D01*
G75*
G02*
X101588820Y-104995875I176777J176777D01*
G01*
X101942373Y-104642322D01*
G75*
G02*
X102295927Y-104642322I176777J-176777D01*
G01*
G37*
%TD*%
%TO.C,C10*%
G36*
G01*
X103639429Y-80278820D02*
X104311180Y-80950571D01*
G75*
G02*
X104311180Y-81304125I-176777J-176777D01*
G01*
X103957627Y-81657678D01*
G75*
G02*
X103604073Y-81657678I-176777J176777D01*
G01*
X102932322Y-80985927D01*
G75*
G02*
X102932322Y-80632373I176777J176777D01*
G01*
X103285875Y-80278820D01*
G75*
G02*
X103639429Y-80278820I176777J-176777D01*
G01*
G37*
G36*
G01*
X102295927Y-81622322D02*
X102967678Y-82294073D01*
G75*
G02*
X102967678Y-82647627I-176777J-176777D01*
G01*
X102614125Y-83001180D01*
G75*
G02*
X102260571Y-83001180I-176777J176777D01*
G01*
X101588820Y-82329429D01*
G75*
G02*
X101588820Y-81975875I176777J176777D01*
G01*
X101942373Y-81622322D01*
G75*
G02*
X102295927Y-81622322I176777J-176777D01*
G01*
G37*
%TD*%
%TO.C,C10*%
G36*
G01*
X103639429Y-57258820D02*
X104311180Y-57930571D01*
G75*
G02*
X104311180Y-58284125I-176777J-176777D01*
G01*
X103957627Y-58637678D01*
G75*
G02*
X103604073Y-58637678I-176777J176777D01*
G01*
X102932322Y-57965927D01*
G75*
G02*
X102932322Y-57612373I176777J176777D01*
G01*
X103285875Y-57258820D01*
G75*
G02*
X103639429Y-57258820I176777J-176777D01*
G01*
G37*
G36*
G01*
X102295927Y-58602322D02*
X102967678Y-59274073D01*
G75*
G02*
X102967678Y-59627627I-176777J-176777D01*
G01*
X102614125Y-59981180D01*
G75*
G02*
X102260571Y-59981180I-176777J176777D01*
G01*
X101588820Y-59309429D01*
G75*
G02*
X101588820Y-58955875I176777J176777D01*
G01*
X101942373Y-58602322D01*
G75*
G02*
X102295927Y-58602322I176777J-176777D01*
G01*
G37*
%TD*%
%TO.C,C1*%
G36*
G01*
X55850000Y-114135000D02*
X55850000Y-113185000D01*
G75*
G02*
X56100000Y-112935000I250000J0D01*
G01*
X56600000Y-112935000D01*
G75*
G02*
X56850000Y-113185000I0J-250000D01*
G01*
X56850000Y-114135000D01*
G75*
G02*
X56600000Y-114385000I-250000J0D01*
G01*
X56100000Y-114385000D01*
G75*
G02*
X55850000Y-114135000I0J250000D01*
G01*
G37*
G36*
G01*
X57750000Y-114135000D02*
X57750000Y-113185000D01*
G75*
G02*
X58000000Y-112935000I250000J0D01*
G01*
X58500000Y-112935000D01*
G75*
G02*
X58750000Y-113185000I0J-250000D01*
G01*
X58750000Y-114135000D01*
G75*
G02*
X58500000Y-114385000I-250000J0D01*
G01*
X58000000Y-114385000D01*
G75*
G02*
X57750000Y-114135000I0J250000D01*
G01*
G37*
%TD*%
%TO.C,C1*%
G36*
G01*
X55850000Y-91115000D02*
X55850000Y-90165000D01*
G75*
G02*
X56100000Y-89915000I250000J0D01*
G01*
X56600000Y-89915000D01*
G75*
G02*
X56850000Y-90165000I0J-250000D01*
G01*
X56850000Y-91115000D01*
G75*
G02*
X56600000Y-91365000I-250000J0D01*
G01*
X56100000Y-91365000D01*
G75*
G02*
X55850000Y-91115000I0J250000D01*
G01*
G37*
G36*
G01*
X57750000Y-91115000D02*
X57750000Y-90165000D01*
G75*
G02*
X58000000Y-89915000I250000J0D01*
G01*
X58500000Y-89915000D01*
G75*
G02*
X58750000Y-90165000I0J-250000D01*
G01*
X58750000Y-91115000D01*
G75*
G02*
X58500000Y-91365000I-250000J0D01*
G01*
X58000000Y-91365000D01*
G75*
G02*
X57750000Y-91115000I0J250000D01*
G01*
G37*
%TD*%
%TO.C,C1*%
G36*
G01*
X55850000Y-68095000D02*
X55850000Y-67145000D01*
G75*
G02*
X56100000Y-66895000I250000J0D01*
G01*
X56600000Y-66895000D01*
G75*
G02*
X56850000Y-67145000I0J-250000D01*
G01*
X56850000Y-68095000D01*
G75*
G02*
X56600000Y-68345000I-250000J0D01*
G01*
X56100000Y-68345000D01*
G75*
G02*
X55850000Y-68095000I0J250000D01*
G01*
G37*
G36*
G01*
X57750000Y-68095000D02*
X57750000Y-67145000D01*
G75*
G02*
X58000000Y-66895000I250000J0D01*
G01*
X58500000Y-66895000D01*
G75*
G02*
X58750000Y-67145000I0J-250000D01*
G01*
X58750000Y-68095000D01*
G75*
G02*
X58500000Y-68345000I-250000J0D01*
G01*
X58000000Y-68345000D01*
G75*
G02*
X57750000Y-68095000I0J250000D01*
G01*
G37*
%TD*%
%TO.C,D3*%
G36*
G01*
X67875000Y-111153750D02*
X67875000Y-112066250D01*
G75*
G02*
X67631250Y-112310000I-243750J0D01*
G01*
X67143750Y-112310000D01*
G75*
G02*
X66900000Y-112066250I0J243750D01*
G01*
X66900000Y-111153750D01*
G75*
G02*
X67143750Y-110910000I243750J0D01*
G01*
X67631250Y-110910000D01*
G75*
G02*
X67875000Y-111153750I0J-243750D01*
G01*
G37*
G36*
G01*
X66000000Y-111153750D02*
X66000000Y-112066250D01*
G75*
G02*
X65756250Y-112310000I-243750J0D01*
G01*
X65268750Y-112310000D01*
G75*
G02*
X65025000Y-112066250I0J243750D01*
G01*
X65025000Y-111153750D01*
G75*
G02*
X65268750Y-110910000I243750J0D01*
G01*
X65756250Y-110910000D01*
G75*
G02*
X66000000Y-111153750I0J-243750D01*
G01*
G37*
%TD*%
%TO.C,D3*%
G36*
G01*
X67875000Y-88133750D02*
X67875000Y-89046250D01*
G75*
G02*
X67631250Y-89290000I-243750J0D01*
G01*
X67143750Y-89290000D01*
G75*
G02*
X66900000Y-89046250I0J243750D01*
G01*
X66900000Y-88133750D01*
G75*
G02*
X67143750Y-87890000I243750J0D01*
G01*
X67631250Y-87890000D01*
G75*
G02*
X67875000Y-88133750I0J-243750D01*
G01*
G37*
G36*
G01*
X66000000Y-88133750D02*
X66000000Y-89046250D01*
G75*
G02*
X65756250Y-89290000I-243750J0D01*
G01*
X65268750Y-89290000D01*
G75*
G02*
X65025000Y-89046250I0J243750D01*
G01*
X65025000Y-88133750D01*
G75*
G02*
X65268750Y-87890000I243750J0D01*
G01*
X65756250Y-87890000D01*
G75*
G02*
X66000000Y-88133750I0J-243750D01*
G01*
G37*
%TD*%
%TO.C,D3*%
G36*
G01*
X67875000Y-65113750D02*
X67875000Y-66026250D01*
G75*
G02*
X67631250Y-66270000I-243750J0D01*
G01*
X67143750Y-66270000D01*
G75*
G02*
X66900000Y-66026250I0J243750D01*
G01*
X66900000Y-65113750D01*
G75*
G02*
X67143750Y-64870000I243750J0D01*
G01*
X67631250Y-64870000D01*
G75*
G02*
X67875000Y-65113750I0J-243750D01*
G01*
G37*
G36*
G01*
X66000000Y-65113750D02*
X66000000Y-66026250D01*
G75*
G02*
X65756250Y-66270000I-243750J0D01*
G01*
X65268750Y-66270000D01*
G75*
G02*
X65025000Y-66026250I0J243750D01*
G01*
X65025000Y-65113750D01*
G75*
G02*
X65268750Y-64870000I243750J0D01*
G01*
X65756250Y-64870000D01*
G75*
G02*
X66000000Y-65113750I0J-243750D01*
G01*
G37*
%TD*%
%TO.C,C2*%
G36*
G01*
X64150000Y-118885000D02*
X64150000Y-119835000D01*
G75*
G02*
X63900000Y-120085000I-250000J0D01*
G01*
X63400000Y-120085000D01*
G75*
G02*
X63150000Y-119835000I0J250000D01*
G01*
X63150000Y-118885000D01*
G75*
G02*
X63400000Y-118635000I250000J0D01*
G01*
X63900000Y-118635000D01*
G75*
G02*
X64150000Y-118885000I0J-250000D01*
G01*
G37*
G36*
G01*
X62250000Y-118885000D02*
X62250000Y-119835000D01*
G75*
G02*
X62000000Y-120085000I-250000J0D01*
G01*
X61500000Y-120085000D01*
G75*
G02*
X61250000Y-119835000I0J250000D01*
G01*
X61250000Y-118885000D01*
G75*
G02*
X61500000Y-118635000I250000J0D01*
G01*
X62000000Y-118635000D01*
G75*
G02*
X62250000Y-118885000I0J-250000D01*
G01*
G37*
%TD*%
%TO.C,C2*%
G36*
G01*
X64150000Y-95865000D02*
X64150000Y-96815000D01*
G75*
G02*
X63900000Y-97065000I-250000J0D01*
G01*
X63400000Y-97065000D01*
G75*
G02*
X63150000Y-96815000I0J250000D01*
G01*
X63150000Y-95865000D01*
G75*
G02*
X63400000Y-95615000I250000J0D01*
G01*
X63900000Y-95615000D01*
G75*
G02*
X64150000Y-95865000I0J-250000D01*
G01*
G37*
G36*
G01*
X62250000Y-95865000D02*
X62250000Y-96815000D01*
G75*
G02*
X62000000Y-97065000I-250000J0D01*
G01*
X61500000Y-97065000D01*
G75*
G02*
X61250000Y-96815000I0J250000D01*
G01*
X61250000Y-95865000D01*
G75*
G02*
X61500000Y-95615000I250000J0D01*
G01*
X62000000Y-95615000D01*
G75*
G02*
X62250000Y-95865000I0J-250000D01*
G01*
G37*
%TD*%
%TO.C,C2*%
G36*
G01*
X64150000Y-72845000D02*
X64150000Y-73795000D01*
G75*
G02*
X63900000Y-74045000I-250000J0D01*
G01*
X63400000Y-74045000D01*
G75*
G02*
X63150000Y-73795000I0J250000D01*
G01*
X63150000Y-72845000D01*
G75*
G02*
X63400000Y-72595000I250000J0D01*
G01*
X63900000Y-72595000D01*
G75*
G02*
X64150000Y-72845000I0J-250000D01*
G01*
G37*
G36*
G01*
X62250000Y-72845000D02*
X62250000Y-73795000D01*
G75*
G02*
X62000000Y-74045000I-250000J0D01*
G01*
X61500000Y-74045000D01*
G75*
G02*
X61250000Y-73795000I0J250000D01*
G01*
X61250000Y-72845000D01*
G75*
G02*
X61500000Y-72595000I250000J0D01*
G01*
X62000000Y-72595000D01*
G75*
G02*
X62250000Y-72845000I0J-250000D01*
G01*
G37*
%TD*%
%TO.C,C4*%
G36*
G01*
X61475000Y-104610000D02*
X62425000Y-104610000D01*
G75*
G02*
X62675000Y-104860000I0J-250000D01*
G01*
X62675000Y-105360000D01*
G75*
G02*
X62425000Y-105610000I-250000J0D01*
G01*
X61475000Y-105610000D01*
G75*
G02*
X61225000Y-105360000I0J250000D01*
G01*
X61225000Y-104860000D01*
G75*
G02*
X61475000Y-104610000I250000J0D01*
G01*
G37*
G36*
G01*
X61475000Y-106510000D02*
X62425000Y-106510000D01*
G75*
G02*
X62675000Y-106760000I0J-250000D01*
G01*
X62675000Y-107260000D01*
G75*
G02*
X62425000Y-107510000I-250000J0D01*
G01*
X61475000Y-107510000D01*
G75*
G02*
X61225000Y-107260000I0J250000D01*
G01*
X61225000Y-106760000D01*
G75*
G02*
X61475000Y-106510000I250000J0D01*
G01*
G37*
%TD*%
%TO.C,C4*%
G36*
G01*
X61475000Y-81590000D02*
X62425000Y-81590000D01*
G75*
G02*
X62675000Y-81840000I0J-250000D01*
G01*
X62675000Y-82340000D01*
G75*
G02*
X62425000Y-82590000I-250000J0D01*
G01*
X61475000Y-82590000D01*
G75*
G02*
X61225000Y-82340000I0J250000D01*
G01*
X61225000Y-81840000D01*
G75*
G02*
X61475000Y-81590000I250000J0D01*
G01*
G37*
G36*
G01*
X61475000Y-83490000D02*
X62425000Y-83490000D01*
G75*
G02*
X62675000Y-83740000I0J-250000D01*
G01*
X62675000Y-84240000D01*
G75*
G02*
X62425000Y-84490000I-250000J0D01*
G01*
X61475000Y-84490000D01*
G75*
G02*
X61225000Y-84240000I0J250000D01*
G01*
X61225000Y-83740000D01*
G75*
G02*
X61475000Y-83490000I250000J0D01*
G01*
G37*
%TD*%
%TO.C,C4*%
G36*
G01*
X61475000Y-58570000D02*
X62425000Y-58570000D01*
G75*
G02*
X62675000Y-58820000I0J-250000D01*
G01*
X62675000Y-59320000D01*
G75*
G02*
X62425000Y-59570000I-250000J0D01*
G01*
X61475000Y-59570000D01*
G75*
G02*
X61225000Y-59320000I0J250000D01*
G01*
X61225000Y-58820000D01*
G75*
G02*
X61475000Y-58570000I250000J0D01*
G01*
G37*
G36*
G01*
X61475000Y-60470000D02*
X62425000Y-60470000D01*
G75*
G02*
X62675000Y-60720000I0J-250000D01*
G01*
X62675000Y-61220000D01*
G75*
G02*
X62425000Y-61470000I-250000J0D01*
G01*
X61475000Y-61470000D01*
G75*
G02*
X61225000Y-61220000I0J250000D01*
G01*
X61225000Y-60720000D01*
G75*
G02*
X61475000Y-60470000I250000J0D01*
G01*
G37*
%TD*%
%TO.C,C17*%
G36*
G01*
X97910571Y-108271180D02*
X97238820Y-107599429D01*
G75*
G02*
X97238820Y-107245875I176777J176777D01*
G01*
X97592373Y-106892322D01*
G75*
G02*
X97945927Y-106892322I176777J-176777D01*
G01*
X98617678Y-107564073D01*
G75*
G02*
X98617678Y-107917627I-176777J-176777D01*
G01*
X98264125Y-108271180D01*
G75*
G02*
X97910571Y-108271180I-176777J176777D01*
G01*
G37*
G36*
G01*
X99254073Y-106927678D02*
X98582322Y-106255927D01*
G75*
G02*
X98582322Y-105902373I176777J176777D01*
G01*
X98935875Y-105548820D01*
G75*
G02*
X99289429Y-105548820I176777J-176777D01*
G01*
X99961180Y-106220571D01*
G75*
G02*
X99961180Y-106574125I-176777J-176777D01*
G01*
X99607627Y-106927678D01*
G75*
G02*
X99254073Y-106927678I-176777J176777D01*
G01*
G37*
%TD*%
%TO.C,C17*%
G36*
G01*
X97910571Y-85251180D02*
X97238820Y-84579429D01*
G75*
G02*
X97238820Y-84225875I176777J176777D01*
G01*
X97592373Y-83872322D01*
G75*
G02*
X97945927Y-83872322I176777J-176777D01*
G01*
X98617678Y-84544073D01*
G75*
G02*
X98617678Y-84897627I-176777J-176777D01*
G01*
X98264125Y-85251180D01*
G75*
G02*
X97910571Y-85251180I-176777J176777D01*
G01*
G37*
G36*
G01*
X99254073Y-83907678D02*
X98582322Y-83235927D01*
G75*
G02*
X98582322Y-82882373I176777J176777D01*
G01*
X98935875Y-82528820D01*
G75*
G02*
X99289429Y-82528820I176777J-176777D01*
G01*
X99961180Y-83200571D01*
G75*
G02*
X99961180Y-83554125I-176777J-176777D01*
G01*
X99607627Y-83907678D01*
G75*
G02*
X99254073Y-83907678I-176777J176777D01*
G01*
G37*
%TD*%
%TO.C,C17*%
G36*
G01*
X97910571Y-62231180D02*
X97238820Y-61559429D01*
G75*
G02*
X97238820Y-61205875I176777J176777D01*
G01*
X97592373Y-60852322D01*
G75*
G02*
X97945927Y-60852322I176777J-176777D01*
G01*
X98617678Y-61524073D01*
G75*
G02*
X98617678Y-61877627I-176777J-176777D01*
G01*
X98264125Y-62231180D01*
G75*
G02*
X97910571Y-62231180I-176777J176777D01*
G01*
G37*
G36*
G01*
X99254073Y-60887678D02*
X98582322Y-60215927D01*
G75*
G02*
X98582322Y-59862373I176777J176777D01*
G01*
X98935875Y-59508820D01*
G75*
G02*
X99289429Y-59508820I176777J-176777D01*
G01*
X99961180Y-60180571D01*
G75*
G02*
X99961180Y-60534125I-176777J-176777D01*
G01*
X99607627Y-60887678D01*
G75*
G02*
X99254073Y-60887678I-176777J176777D01*
G01*
G37*
%TD*%
%TO.C,C18*%
G36*
G01*
X97188820Y-110370571D02*
X97860571Y-109698820D01*
G75*
G02*
X98214125Y-109698820I176777J-176777D01*
G01*
X98567678Y-110052373D01*
G75*
G02*
X98567678Y-110405927I-176777J-176777D01*
G01*
X97895927Y-111077678D01*
G75*
G02*
X97542373Y-111077678I-176777J176777D01*
G01*
X97188820Y-110724125D01*
G75*
G02*
X97188820Y-110370571I176777J176777D01*
G01*
G37*
G36*
G01*
X98532322Y-111714073D02*
X99204073Y-111042322D01*
G75*
G02*
X99557627Y-111042322I176777J-176777D01*
G01*
X99911180Y-111395875D01*
G75*
G02*
X99911180Y-111749429I-176777J-176777D01*
G01*
X99239429Y-112421180D01*
G75*
G02*
X98885875Y-112421180I-176777J176777D01*
G01*
X98532322Y-112067627D01*
G75*
G02*
X98532322Y-111714073I176777J176777D01*
G01*
G37*
%TD*%
%TO.C,C18*%
G36*
G01*
X97188820Y-87350571D02*
X97860571Y-86678820D01*
G75*
G02*
X98214125Y-86678820I176777J-176777D01*
G01*
X98567678Y-87032373D01*
G75*
G02*
X98567678Y-87385927I-176777J-176777D01*
G01*
X97895927Y-88057678D01*
G75*
G02*
X97542373Y-88057678I-176777J176777D01*
G01*
X97188820Y-87704125D01*
G75*
G02*
X97188820Y-87350571I176777J176777D01*
G01*
G37*
G36*
G01*
X98532322Y-88694073D02*
X99204073Y-88022322D01*
G75*
G02*
X99557627Y-88022322I176777J-176777D01*
G01*
X99911180Y-88375875D01*
G75*
G02*
X99911180Y-88729429I-176777J-176777D01*
G01*
X99239429Y-89401180D01*
G75*
G02*
X98885875Y-89401180I-176777J176777D01*
G01*
X98532322Y-89047627D01*
G75*
G02*
X98532322Y-88694073I176777J176777D01*
G01*
G37*
%TD*%
%TO.C,C18*%
G36*
G01*
X97188820Y-64330571D02*
X97860571Y-63658820D01*
G75*
G02*
X98214125Y-63658820I176777J-176777D01*
G01*
X98567678Y-64012373D01*
G75*
G02*
X98567678Y-64365927I-176777J-176777D01*
G01*
X97895927Y-65037678D01*
G75*
G02*
X97542373Y-65037678I-176777J176777D01*
G01*
X97188820Y-64684125D01*
G75*
G02*
X97188820Y-64330571I176777J176777D01*
G01*
G37*
G36*
G01*
X98532322Y-65674073D02*
X99204073Y-65002322D01*
G75*
G02*
X99557627Y-65002322I176777J-176777D01*
G01*
X99911180Y-65355875D01*
G75*
G02*
X99911180Y-65709429I-176777J-176777D01*
G01*
X99239429Y-66381180D01*
G75*
G02*
X98885875Y-66381180I-176777J176777D01*
G01*
X98532322Y-66027627D01*
G75*
G02*
X98532322Y-65674073I176777J176777D01*
G01*
G37*
%TD*%
D17*
%TO.C,USB1*%
X57000000Y-101670000D03*
X57000000Y-107450000D03*
D18*
X58445000Y-104310000D03*
X58445000Y-104810000D03*
X58445000Y-105310000D03*
X58445000Y-103810000D03*
X58445000Y-105810000D03*
X58445000Y-103310000D03*
X58445000Y-106310000D03*
X58445000Y-102810000D03*
D19*
X58445000Y-102110000D03*
X58445000Y-107010000D03*
X58445000Y-101335000D03*
X58445000Y-107785000D03*
%TD*%
D17*
%TO.C,USB1*%
X57000000Y-78650000D03*
X57000000Y-84430000D03*
D18*
X58445000Y-81290000D03*
X58445000Y-81790000D03*
X58445000Y-82290000D03*
X58445000Y-80790000D03*
X58445000Y-82790000D03*
X58445000Y-80290000D03*
X58445000Y-83290000D03*
X58445000Y-79790000D03*
D19*
X58445000Y-79090000D03*
X58445000Y-83990000D03*
X58445000Y-78315000D03*
X58445000Y-84765000D03*
%TD*%
D17*
%TO.C,USB1*%
X57000000Y-55630000D03*
X57000000Y-61410000D03*
D18*
X58445000Y-58270000D03*
X58445000Y-58770000D03*
X58445000Y-59270000D03*
X58445000Y-57770000D03*
X58445000Y-59770000D03*
X58445000Y-57270000D03*
X58445000Y-60270000D03*
X58445000Y-56770000D03*
D19*
X58445000Y-56070000D03*
X58445000Y-60970000D03*
X58445000Y-55295000D03*
X58445000Y-61745000D03*
%TD*%
%TO.C,R4*%
G36*
G01*
X64975000Y-110010001D02*
X64975000Y-109109999D01*
G75*
G02*
X65224999Y-108860000I249999J0D01*
G01*
X65750001Y-108860000D01*
G75*
G02*
X66000000Y-109109999I0J-249999D01*
G01*
X66000000Y-110010001D01*
G75*
G02*
X65750001Y-110260000I-249999J0D01*
G01*
X65224999Y-110260000D01*
G75*
G02*
X64975000Y-110010001I0J249999D01*
G01*
G37*
G36*
G01*
X66800000Y-110010001D02*
X66800000Y-109109999D01*
G75*
G02*
X67049999Y-108860000I249999J0D01*
G01*
X67575001Y-108860000D01*
G75*
G02*
X67825000Y-109109999I0J-249999D01*
G01*
X67825000Y-110010001D01*
G75*
G02*
X67575001Y-110260000I-249999J0D01*
G01*
X67049999Y-110260000D01*
G75*
G02*
X66800000Y-110010001I0J249999D01*
G01*
G37*
%TD*%
%TO.C,R4*%
G36*
G01*
X64975000Y-86990001D02*
X64975000Y-86089999D01*
G75*
G02*
X65224999Y-85840000I249999J0D01*
G01*
X65750001Y-85840000D01*
G75*
G02*
X66000000Y-86089999I0J-249999D01*
G01*
X66000000Y-86990001D01*
G75*
G02*
X65750001Y-87240000I-249999J0D01*
G01*
X65224999Y-87240000D01*
G75*
G02*
X64975000Y-86990001I0J249999D01*
G01*
G37*
G36*
G01*
X66800000Y-86990001D02*
X66800000Y-86089999D01*
G75*
G02*
X67049999Y-85840000I249999J0D01*
G01*
X67575001Y-85840000D01*
G75*
G02*
X67825000Y-86089999I0J-249999D01*
G01*
X67825000Y-86990001D01*
G75*
G02*
X67575001Y-87240000I-249999J0D01*
G01*
X67049999Y-87240000D01*
G75*
G02*
X66800000Y-86990001I0J249999D01*
G01*
G37*
%TD*%
%TO.C,R4*%
G36*
G01*
X64975000Y-63970001D02*
X64975000Y-63069999D01*
G75*
G02*
X65224999Y-62820000I249999J0D01*
G01*
X65750001Y-62820000D01*
G75*
G02*
X66000000Y-63069999I0J-249999D01*
G01*
X66000000Y-63970001D01*
G75*
G02*
X65750001Y-64220000I-249999J0D01*
G01*
X65224999Y-64220000D01*
G75*
G02*
X64975000Y-63970001I0J249999D01*
G01*
G37*
G36*
G01*
X66800000Y-63970001D02*
X66800000Y-63069999D01*
G75*
G02*
X67049999Y-62820000I249999J0D01*
G01*
X67575001Y-62820000D01*
G75*
G02*
X67825000Y-63069999I0J-249999D01*
G01*
X67825000Y-63970001D01*
G75*
G02*
X67575001Y-64220000I-249999J0D01*
G01*
X67049999Y-64220000D01*
G75*
G02*
X66800000Y-63970001I0J249999D01*
G01*
G37*
%TD*%
D20*
%TO.C,U3*%
X75350000Y-116310000D03*
D21*
X81650000Y-116310000D03*
X81650000Y-114010000D03*
X81650000Y-118610000D03*
%TD*%
D20*
%TO.C,U3*%
X75350000Y-93290000D03*
D21*
X81650000Y-93290000D03*
X81650000Y-90990000D03*
X81650000Y-95590000D03*
%TD*%
D20*
%TO.C,U3*%
X75350000Y-70270000D03*
D21*
X81650000Y-70270000D03*
X81650000Y-67970000D03*
X81650000Y-72570000D03*
%TD*%
D22*
%TO.C,J3*%
X86260000Y-100900000D03*
D23*
X88800000Y-100900000D03*
X91340000Y-100900000D03*
X93880000Y-100900000D03*
X96420000Y-100900000D03*
X98960000Y-100900000D03*
X101500000Y-100900000D03*
X104040000Y-100900000D03*
X106580000Y-100900000D03*
X109120000Y-100900000D03*
X111660000Y-100900000D03*
X114200000Y-100900000D03*
X116740000Y-100900000D03*
X119280000Y-100900000D03*
X121820000Y-100900000D03*
X124360000Y-100900000D03*
X126900000Y-100900000D03*
%TD*%
D22*
%TO.C,J3*%
X86260000Y-77880000D03*
D23*
X88800000Y-77880000D03*
X91340000Y-77880000D03*
X93880000Y-77880000D03*
X96420000Y-77880000D03*
X98960000Y-77880000D03*
X101500000Y-77880000D03*
X104040000Y-77880000D03*
X106580000Y-77880000D03*
X109120000Y-77880000D03*
X111660000Y-77880000D03*
X114200000Y-77880000D03*
X116740000Y-77880000D03*
X119280000Y-77880000D03*
X121820000Y-77880000D03*
X124360000Y-77880000D03*
X126900000Y-77880000D03*
%TD*%
D22*
%TO.C,J3*%
X86260000Y-54860000D03*
D23*
X88800000Y-54860000D03*
X91340000Y-54860000D03*
X93880000Y-54860000D03*
X96420000Y-54860000D03*
X98960000Y-54860000D03*
X101500000Y-54860000D03*
X104040000Y-54860000D03*
X106580000Y-54860000D03*
X109120000Y-54860000D03*
X111660000Y-54860000D03*
X114200000Y-54860000D03*
X116740000Y-54860000D03*
X119280000Y-54860000D03*
X121820000Y-54860000D03*
X124360000Y-54860000D03*
X126900000Y-54860000D03*
%TD*%
D22*
%TO.C,J1*%
X62930000Y-121220000D03*
D23*
X65470000Y-121220000D03*
X68010000Y-121220000D03*
X70550000Y-121220000D03*
X73090000Y-121220000D03*
X75630000Y-121220000D03*
X78170000Y-121220000D03*
X80710000Y-121220000D03*
X83250000Y-121220000D03*
%TD*%
D22*
%TO.C,J1*%
X62930000Y-98200000D03*
D23*
X65470000Y-98200000D03*
X68010000Y-98200000D03*
X70550000Y-98200000D03*
X73090000Y-98200000D03*
X75630000Y-98200000D03*
X78170000Y-98200000D03*
X80710000Y-98200000D03*
X83250000Y-98200000D03*
%TD*%
D22*
%TO.C,J1*%
X62930000Y-75180000D03*
D23*
X65470000Y-75180000D03*
X68010000Y-75180000D03*
X70550000Y-75180000D03*
X73090000Y-75180000D03*
X75630000Y-75180000D03*
X78170000Y-75180000D03*
X80710000Y-75180000D03*
X83250000Y-75180000D03*
%TD*%
D22*
%TO.C,J2*%
X98960000Y-121220000D03*
D23*
X101500000Y-121220000D03*
X104040000Y-121220000D03*
X106580000Y-121220000D03*
X109120000Y-121220000D03*
X111660000Y-121220000D03*
X114200000Y-121220000D03*
X116740000Y-121220000D03*
X119280000Y-121220000D03*
X121820000Y-121220000D03*
X124360000Y-121220000D03*
X126900000Y-121220000D03*
%TD*%
D22*
%TO.C,J2*%
X98960000Y-98200000D03*
D23*
X101500000Y-98200000D03*
X104040000Y-98200000D03*
X106580000Y-98200000D03*
X109120000Y-98200000D03*
X111660000Y-98200000D03*
X114200000Y-98200000D03*
X116740000Y-98200000D03*
X119280000Y-98200000D03*
X121820000Y-98200000D03*
X124360000Y-98200000D03*
X126900000Y-98200000D03*
%TD*%
D22*
%TO.C,J2*%
X98960000Y-75180000D03*
D23*
X101500000Y-75180000D03*
X104040000Y-75180000D03*
X106580000Y-75180000D03*
X109120000Y-75180000D03*
X111660000Y-75180000D03*
X114200000Y-75180000D03*
X116740000Y-75180000D03*
X119280000Y-75180000D03*
X121820000Y-75180000D03*
X124360000Y-75180000D03*
X126900000Y-75180000D03*
%TD*%
D10*
%TO.C,U4*%
G36*
X106445138Y-105703666D02*
G01*
X106834047Y-105314757D01*
X107965418Y-106446128D01*
X107576509Y-106835037D01*
X106445138Y-105703666D01*
G37*
G36*
X105879453Y-106269352D02*
G01*
X106268362Y-105880443D01*
X107399733Y-107011814D01*
X107010824Y-107400723D01*
X105879453Y-106269352D01*
G37*
G36*
X105313767Y-106835037D02*
G01*
X105702676Y-106446128D01*
X106834047Y-107577499D01*
X106445138Y-107966408D01*
X105313767Y-106835037D01*
G37*
G36*
X104748082Y-107400722D02*
G01*
X105136991Y-107011813D01*
X106268362Y-108143184D01*
X105879453Y-108532093D01*
X104748082Y-107400722D01*
G37*
G36*
X104182396Y-107966408D02*
G01*
X104571305Y-107577499D01*
X105702676Y-108708870D01*
X105313767Y-109097779D01*
X104182396Y-107966408D01*
G37*
G36*
X103616711Y-108532093D02*
G01*
X104005620Y-108143184D01*
X105136991Y-109274555D01*
X104748082Y-109663464D01*
X103616711Y-108532093D01*
G37*
G36*
X103051026Y-109097779D02*
G01*
X103439935Y-108708870D01*
X104571306Y-109840241D01*
X104182397Y-110229150D01*
X103051026Y-109097779D01*
G37*
G36*
X102485340Y-109663464D02*
G01*
X102874249Y-109274555D01*
X104005620Y-110405926D01*
X103616711Y-110794835D01*
X102485340Y-109663464D01*
G37*
G36*
X102874249Y-112845445D02*
G01*
X102485340Y-112456536D01*
X103616711Y-111325165D01*
X104005620Y-111714074D01*
X102874249Y-112845445D01*
G37*
G36*
X103439935Y-113411130D02*
G01*
X103051026Y-113022221D01*
X104182397Y-111890850D01*
X104571306Y-112279759D01*
X103439935Y-113411130D01*
G37*
G36*
X104005620Y-113976816D02*
G01*
X103616711Y-113587907D01*
X104748082Y-112456536D01*
X105136991Y-112845445D01*
X104005620Y-113976816D01*
G37*
G36*
X104571305Y-114542501D02*
G01*
X104182396Y-114153592D01*
X105313767Y-113022221D01*
X105702676Y-113411130D01*
X104571305Y-114542501D01*
G37*
G36*
X105136991Y-115108187D02*
G01*
X104748082Y-114719278D01*
X105879453Y-113587907D01*
X106268362Y-113976816D01*
X105136991Y-115108187D01*
G37*
G36*
X105702676Y-115673872D02*
G01*
X105313767Y-115284963D01*
X106445138Y-114153592D01*
X106834047Y-114542501D01*
X105702676Y-115673872D01*
G37*
G36*
X106268362Y-116239557D02*
G01*
X105879453Y-115850648D01*
X107010824Y-114719277D01*
X107399733Y-115108186D01*
X106268362Y-116239557D01*
G37*
G36*
X106834047Y-116805243D02*
G01*
X106445138Y-116416334D01*
X107576509Y-115284963D01*
X107965418Y-115673872D01*
X106834047Y-116805243D01*
G37*
G36*
X108495748Y-115673872D02*
G01*
X108884657Y-115284963D01*
X110016028Y-116416334D01*
X109627119Y-116805243D01*
X108495748Y-115673872D01*
G37*
G36*
X109061433Y-115108186D02*
G01*
X109450342Y-114719277D01*
X110581713Y-115850648D01*
X110192804Y-116239557D01*
X109061433Y-115108186D01*
G37*
G36*
X109627119Y-114542501D02*
G01*
X110016028Y-114153592D01*
X111147399Y-115284963D01*
X110758490Y-115673872D01*
X109627119Y-114542501D01*
G37*
G36*
X110192804Y-113976816D02*
G01*
X110581713Y-113587907D01*
X111713084Y-114719278D01*
X111324175Y-115108187D01*
X110192804Y-113976816D01*
G37*
G36*
X110758490Y-113411130D02*
G01*
X111147399Y-113022221D01*
X112278770Y-114153592D01*
X111889861Y-114542501D01*
X110758490Y-113411130D01*
G37*
G36*
X111324175Y-112845445D02*
G01*
X111713084Y-112456536D01*
X112844455Y-113587907D01*
X112455546Y-113976816D01*
X111324175Y-112845445D01*
G37*
G36*
X111889860Y-112279759D02*
G01*
X112278769Y-111890850D01*
X113410140Y-113022221D01*
X113021231Y-113411130D01*
X111889860Y-112279759D01*
G37*
G36*
X112455546Y-111714074D02*
G01*
X112844455Y-111325165D01*
X113975826Y-112456536D01*
X113586917Y-112845445D01*
X112455546Y-111714074D01*
G37*
G36*
X112844455Y-110794835D02*
G01*
X112455546Y-110405926D01*
X113586917Y-109274555D01*
X113975826Y-109663464D01*
X112844455Y-110794835D01*
G37*
G36*
X112278769Y-110229150D02*
G01*
X111889860Y-109840241D01*
X113021231Y-108708870D01*
X113410140Y-109097779D01*
X112278769Y-110229150D01*
G37*
G36*
X111713084Y-109663464D02*
G01*
X111324175Y-109274555D01*
X112455546Y-108143184D01*
X112844455Y-108532093D01*
X111713084Y-109663464D01*
G37*
G36*
X111147399Y-109097779D02*
G01*
X110758490Y-108708870D01*
X111889861Y-107577499D01*
X112278770Y-107966408D01*
X111147399Y-109097779D01*
G37*
G36*
X110581713Y-108532093D02*
G01*
X110192804Y-108143184D01*
X111324175Y-107011813D01*
X111713084Y-107400722D01*
X110581713Y-108532093D01*
G37*
G36*
X110016028Y-107966408D02*
G01*
X109627119Y-107577499D01*
X110758490Y-106446128D01*
X111147399Y-106835037D01*
X110016028Y-107966408D01*
G37*
G36*
X109450342Y-107400723D02*
G01*
X109061433Y-107011814D01*
X110192804Y-105880443D01*
X110581713Y-106269352D01*
X109450342Y-107400723D01*
G37*
G36*
X108884657Y-106835037D02*
G01*
X108495748Y-106446128D01*
X109627119Y-105314757D01*
X110016028Y-105703666D01*
X108884657Y-106835037D01*
G37*
%TD*%
%TO.C,U4*%
G36*
X106445138Y-82683666D02*
G01*
X106834047Y-82294757D01*
X107965418Y-83426128D01*
X107576509Y-83815037D01*
X106445138Y-82683666D01*
G37*
G36*
X105879453Y-83249352D02*
G01*
X106268362Y-82860443D01*
X107399733Y-83991814D01*
X107010824Y-84380723D01*
X105879453Y-83249352D01*
G37*
G36*
X105313767Y-83815037D02*
G01*
X105702676Y-83426128D01*
X106834047Y-84557499D01*
X106445138Y-84946408D01*
X105313767Y-83815037D01*
G37*
G36*
X104748082Y-84380722D02*
G01*
X105136991Y-83991813D01*
X106268362Y-85123184D01*
X105879453Y-85512093D01*
X104748082Y-84380722D01*
G37*
G36*
X104182396Y-84946408D02*
G01*
X104571305Y-84557499D01*
X105702676Y-85688870D01*
X105313767Y-86077779D01*
X104182396Y-84946408D01*
G37*
G36*
X103616711Y-85512093D02*
G01*
X104005620Y-85123184D01*
X105136991Y-86254555D01*
X104748082Y-86643464D01*
X103616711Y-85512093D01*
G37*
G36*
X103051026Y-86077779D02*
G01*
X103439935Y-85688870D01*
X104571306Y-86820241D01*
X104182397Y-87209150D01*
X103051026Y-86077779D01*
G37*
G36*
X102485340Y-86643464D02*
G01*
X102874249Y-86254555D01*
X104005620Y-87385926D01*
X103616711Y-87774835D01*
X102485340Y-86643464D01*
G37*
G36*
X102874249Y-89825445D02*
G01*
X102485340Y-89436536D01*
X103616711Y-88305165D01*
X104005620Y-88694074D01*
X102874249Y-89825445D01*
G37*
G36*
X103439935Y-90391130D02*
G01*
X103051026Y-90002221D01*
X104182397Y-88870850D01*
X104571306Y-89259759D01*
X103439935Y-90391130D01*
G37*
G36*
X104005620Y-90956816D02*
G01*
X103616711Y-90567907D01*
X104748082Y-89436536D01*
X105136991Y-89825445D01*
X104005620Y-90956816D01*
G37*
G36*
X104571305Y-91522501D02*
G01*
X104182396Y-91133592D01*
X105313767Y-90002221D01*
X105702676Y-90391130D01*
X104571305Y-91522501D01*
G37*
G36*
X105136991Y-92088187D02*
G01*
X104748082Y-91699278D01*
X105879453Y-90567907D01*
X106268362Y-90956816D01*
X105136991Y-92088187D01*
G37*
G36*
X105702676Y-92653872D02*
G01*
X105313767Y-92264963D01*
X106445138Y-91133592D01*
X106834047Y-91522501D01*
X105702676Y-92653872D01*
G37*
G36*
X106268362Y-93219557D02*
G01*
X105879453Y-92830648D01*
X107010824Y-91699277D01*
X107399733Y-92088186D01*
X106268362Y-93219557D01*
G37*
G36*
X106834047Y-93785243D02*
G01*
X106445138Y-93396334D01*
X107576509Y-92264963D01*
X107965418Y-92653872D01*
X106834047Y-93785243D01*
G37*
G36*
X108495748Y-92653872D02*
G01*
X108884657Y-92264963D01*
X110016028Y-93396334D01*
X109627119Y-93785243D01*
X108495748Y-92653872D01*
G37*
G36*
X109061433Y-92088186D02*
G01*
X109450342Y-91699277D01*
X110581713Y-92830648D01*
X110192804Y-93219557D01*
X109061433Y-92088186D01*
G37*
G36*
X109627119Y-91522501D02*
G01*
X110016028Y-91133592D01*
X111147399Y-92264963D01*
X110758490Y-92653872D01*
X109627119Y-91522501D01*
G37*
G36*
X110192804Y-90956816D02*
G01*
X110581713Y-90567907D01*
X111713084Y-91699278D01*
X111324175Y-92088187D01*
X110192804Y-90956816D01*
G37*
G36*
X110758490Y-90391130D02*
G01*
X111147399Y-90002221D01*
X112278770Y-91133592D01*
X111889861Y-91522501D01*
X110758490Y-90391130D01*
G37*
G36*
X111324175Y-89825445D02*
G01*
X111713084Y-89436536D01*
X112844455Y-90567907D01*
X112455546Y-90956816D01*
X111324175Y-89825445D01*
G37*
G36*
X111889860Y-89259759D02*
G01*
X112278769Y-88870850D01*
X113410140Y-90002221D01*
X113021231Y-90391130D01*
X111889860Y-89259759D01*
G37*
G36*
X112455546Y-88694074D02*
G01*
X112844455Y-88305165D01*
X113975826Y-89436536D01*
X113586917Y-89825445D01*
X112455546Y-88694074D01*
G37*
G36*
X112844455Y-87774835D02*
G01*
X112455546Y-87385926D01*
X113586917Y-86254555D01*
X113975826Y-86643464D01*
X112844455Y-87774835D01*
G37*
G36*
X112278769Y-87209150D02*
G01*
X111889860Y-86820241D01*
X113021231Y-85688870D01*
X113410140Y-86077779D01*
X112278769Y-87209150D01*
G37*
G36*
X111713084Y-86643464D02*
G01*
X111324175Y-86254555D01*
X112455546Y-85123184D01*
X112844455Y-85512093D01*
X111713084Y-86643464D01*
G37*
G36*
X111147399Y-86077779D02*
G01*
X110758490Y-85688870D01*
X111889861Y-84557499D01*
X112278770Y-84946408D01*
X111147399Y-86077779D01*
G37*
G36*
X110581713Y-85512093D02*
G01*
X110192804Y-85123184D01*
X111324175Y-83991813D01*
X111713084Y-84380722D01*
X110581713Y-85512093D01*
G37*
G36*
X110016028Y-84946408D02*
G01*
X109627119Y-84557499D01*
X110758490Y-83426128D01*
X111147399Y-83815037D01*
X110016028Y-84946408D01*
G37*
G36*
X109450342Y-84380723D02*
G01*
X109061433Y-83991814D01*
X110192804Y-82860443D01*
X110581713Y-83249352D01*
X109450342Y-84380723D01*
G37*
G36*
X108884657Y-83815037D02*
G01*
X108495748Y-83426128D01*
X109627119Y-82294757D01*
X110016028Y-82683666D01*
X108884657Y-83815037D01*
G37*
%TD*%
%TO.C,U4*%
G36*
X106445138Y-59663666D02*
G01*
X106834047Y-59274757D01*
X107965418Y-60406128D01*
X107576509Y-60795037D01*
X106445138Y-59663666D01*
G37*
G36*
X105879453Y-60229352D02*
G01*
X106268362Y-59840443D01*
X107399733Y-60971814D01*
X107010824Y-61360723D01*
X105879453Y-60229352D01*
G37*
G36*
X105313767Y-60795037D02*
G01*
X105702676Y-60406128D01*
X106834047Y-61537499D01*
X106445138Y-61926408D01*
X105313767Y-60795037D01*
G37*
G36*
X104748082Y-61360722D02*
G01*
X105136991Y-60971813D01*
X106268362Y-62103184D01*
X105879453Y-62492093D01*
X104748082Y-61360722D01*
G37*
G36*
X104182396Y-61926408D02*
G01*
X104571305Y-61537499D01*
X105702676Y-62668870D01*
X105313767Y-63057779D01*
X104182396Y-61926408D01*
G37*
G36*
X103616711Y-62492093D02*
G01*
X104005620Y-62103184D01*
X105136991Y-63234555D01*
X104748082Y-63623464D01*
X103616711Y-62492093D01*
G37*
G36*
X103051026Y-63057779D02*
G01*
X103439935Y-62668870D01*
X104571306Y-63800241D01*
X104182397Y-64189150D01*
X103051026Y-63057779D01*
G37*
G36*
X102485340Y-63623464D02*
G01*
X102874249Y-63234555D01*
X104005620Y-64365926D01*
X103616711Y-64754835D01*
X102485340Y-63623464D01*
G37*
G36*
X102874249Y-66805445D02*
G01*
X102485340Y-66416536D01*
X103616711Y-65285165D01*
X104005620Y-65674074D01*
X102874249Y-66805445D01*
G37*
G36*
X103439935Y-67371130D02*
G01*
X103051026Y-66982221D01*
X104182397Y-65850850D01*
X104571306Y-66239759D01*
X103439935Y-67371130D01*
G37*
G36*
X104005620Y-67936816D02*
G01*
X103616711Y-67547907D01*
X104748082Y-66416536D01*
X105136991Y-66805445D01*
X104005620Y-67936816D01*
G37*
G36*
X104571305Y-68502501D02*
G01*
X104182396Y-68113592D01*
X105313767Y-66982221D01*
X105702676Y-67371130D01*
X104571305Y-68502501D01*
G37*
G36*
X105136991Y-69068187D02*
G01*
X104748082Y-68679278D01*
X105879453Y-67547907D01*
X106268362Y-67936816D01*
X105136991Y-69068187D01*
G37*
G36*
X105702676Y-69633872D02*
G01*
X105313767Y-69244963D01*
X106445138Y-68113592D01*
X106834047Y-68502501D01*
X105702676Y-69633872D01*
G37*
G36*
X106268362Y-70199557D02*
G01*
X105879453Y-69810648D01*
X107010824Y-68679277D01*
X107399733Y-69068186D01*
X106268362Y-70199557D01*
G37*
G36*
X106834047Y-70765243D02*
G01*
X106445138Y-70376334D01*
X107576509Y-69244963D01*
X107965418Y-69633872D01*
X106834047Y-70765243D01*
G37*
G36*
X108495748Y-69633872D02*
G01*
X108884657Y-69244963D01*
X110016028Y-70376334D01*
X109627119Y-70765243D01*
X108495748Y-69633872D01*
G37*
G36*
X109061433Y-69068186D02*
G01*
X109450342Y-68679277D01*
X110581713Y-69810648D01*
X110192804Y-70199557D01*
X109061433Y-69068186D01*
G37*
G36*
X109627119Y-68502501D02*
G01*
X110016028Y-68113592D01*
X111147399Y-69244963D01*
X110758490Y-69633872D01*
X109627119Y-68502501D01*
G37*
G36*
X110192804Y-67936816D02*
G01*
X110581713Y-67547907D01*
X111713084Y-68679278D01*
X111324175Y-69068187D01*
X110192804Y-67936816D01*
G37*
G36*
X110758490Y-67371130D02*
G01*
X111147399Y-66982221D01*
X112278770Y-68113592D01*
X111889861Y-68502501D01*
X110758490Y-67371130D01*
G37*
G36*
X111324175Y-66805445D02*
G01*
X111713084Y-66416536D01*
X112844455Y-67547907D01*
X112455546Y-67936816D01*
X111324175Y-66805445D01*
G37*
G36*
X111889860Y-66239759D02*
G01*
X112278769Y-65850850D01*
X113410140Y-66982221D01*
X113021231Y-67371130D01*
X111889860Y-66239759D01*
G37*
G36*
X112455546Y-65674074D02*
G01*
X112844455Y-65285165D01*
X113975826Y-66416536D01*
X113586917Y-66805445D01*
X112455546Y-65674074D01*
G37*
G36*
X112844455Y-64754835D02*
G01*
X112455546Y-64365926D01*
X113586917Y-63234555D01*
X113975826Y-63623464D01*
X112844455Y-64754835D01*
G37*
G36*
X112278769Y-64189150D02*
G01*
X111889860Y-63800241D01*
X113021231Y-62668870D01*
X113410140Y-63057779D01*
X112278769Y-64189150D01*
G37*
G36*
X111713084Y-63623464D02*
G01*
X111324175Y-63234555D01*
X112455546Y-62103184D01*
X112844455Y-62492093D01*
X111713084Y-63623464D01*
G37*
G36*
X111147399Y-63057779D02*
G01*
X110758490Y-62668870D01*
X111889861Y-61537499D01*
X112278770Y-61926408D01*
X111147399Y-63057779D01*
G37*
G36*
X110581713Y-62492093D02*
G01*
X110192804Y-62103184D01*
X111324175Y-60971813D01*
X111713084Y-61360722D01*
X110581713Y-62492093D01*
G37*
G36*
X110016028Y-61926408D02*
G01*
X109627119Y-61537499D01*
X110758490Y-60406128D01*
X111147399Y-60795037D01*
X110016028Y-61926408D01*
G37*
G36*
X109450342Y-61360723D02*
G01*
X109061433Y-60971814D01*
X110192804Y-59840443D01*
X110581713Y-60229352D01*
X109450342Y-61360723D01*
G37*
G36*
X108884657Y-60795037D02*
G01*
X108495748Y-60406128D01*
X109627119Y-59274757D01*
X110016028Y-59663666D01*
X108884657Y-60795037D01*
G37*
%TD*%
%TO.C,C11*%
G36*
G01*
X121399153Y-114827431D02*
X122100295Y-116753801D01*
G75*
G02*
X121950877Y-117074229I-234923J-85505D01*
G01*
X120470861Y-117612911D01*
G75*
G02*
X120150433Y-117463493I-85505J234923D01*
G01*
X119449291Y-115537123D01*
G75*
G02*
X119598709Y-115216695I234923J85505D01*
G01*
X121078725Y-114678013D01*
G75*
G02*
X121399153Y-114827431I85505J-234923D01*
G01*
G37*
G36*
G01*
X115549567Y-116956507D02*
X116250709Y-118882877D01*
G75*
G02*
X116101291Y-119203305I-234923J-85505D01*
G01*
X114621275Y-119741987D01*
G75*
G02*
X114300847Y-119592569I-85505J234923D01*
G01*
X113599705Y-117666199D01*
G75*
G02*
X113749123Y-117345771I234923J85505D01*
G01*
X115229139Y-116807089D01*
G75*
G02*
X115549567Y-116956507I85505J-234923D01*
G01*
G37*
%TD*%
%TO.C,C11*%
G36*
G01*
X121399153Y-91807431D02*
X122100295Y-93733801D01*
G75*
G02*
X121950877Y-94054229I-234923J-85505D01*
G01*
X120470861Y-94592911D01*
G75*
G02*
X120150433Y-94443493I-85505J234923D01*
G01*
X119449291Y-92517123D01*
G75*
G02*
X119598709Y-92196695I234923J85505D01*
G01*
X121078725Y-91658013D01*
G75*
G02*
X121399153Y-91807431I85505J-234923D01*
G01*
G37*
G36*
G01*
X115549567Y-93936507D02*
X116250709Y-95862877D01*
G75*
G02*
X116101291Y-96183305I-234923J-85505D01*
G01*
X114621275Y-96721987D01*
G75*
G02*
X114300847Y-96572569I-85505J234923D01*
G01*
X113599705Y-94646199D01*
G75*
G02*
X113749123Y-94325771I234923J85505D01*
G01*
X115229139Y-93787089D01*
G75*
G02*
X115549567Y-93936507I85505J-234923D01*
G01*
G37*
%TD*%
%TO.C,C11*%
G36*
G01*
X121399153Y-68787431D02*
X122100295Y-70713801D01*
G75*
G02*
X121950877Y-71034229I-234923J-85505D01*
G01*
X120470861Y-71572911D01*
G75*
G02*
X120150433Y-71423493I-85505J234923D01*
G01*
X119449291Y-69497123D01*
G75*
G02*
X119598709Y-69176695I234923J85505D01*
G01*
X121078725Y-68638013D01*
G75*
G02*
X121399153Y-68787431I85505J-234923D01*
G01*
G37*
G36*
G01*
X115549567Y-70916507D02*
X116250709Y-72842877D01*
G75*
G02*
X116101291Y-73163305I-234923J-85505D01*
G01*
X114621275Y-73701987D01*
G75*
G02*
X114300847Y-73552569I-85505J234923D01*
G01*
X113599705Y-71626199D01*
G75*
G02*
X113749123Y-71305771I234923J85505D01*
G01*
X115229139Y-70767089D01*
G75*
G02*
X115549567Y-70916507I85505J-234923D01*
G01*
G37*
%TD*%
D24*
%TO.C,U5*%
X95250000Y-106460000D03*
X93980000Y-106460000D03*
X92710000Y-106460000D03*
X91440000Y-106460000D03*
X90170000Y-106460000D03*
X88900000Y-106460000D03*
X87630000Y-106460000D03*
X86360000Y-106460000D03*
%TD*%
%TO.C,U5*%
X95250000Y-83440000D03*
X93980000Y-83440000D03*
X92710000Y-83440000D03*
X91440000Y-83440000D03*
X90170000Y-83440000D03*
X88900000Y-83440000D03*
X87630000Y-83440000D03*
X86360000Y-83440000D03*
%TD*%
%TO.C,U5*%
X95250000Y-60420000D03*
X93980000Y-60420000D03*
X92710000Y-60420000D03*
X91440000Y-60420000D03*
X90170000Y-60420000D03*
X88900000Y-60420000D03*
X87630000Y-60420000D03*
X86360000Y-60420000D03*
%TD*%
%TO.C,C14*%
G36*
G01*
X104889429Y-104598820D02*
X105561180Y-105270571D01*
G75*
G02*
X105561180Y-105624125I-176777J-176777D01*
G01*
X105207627Y-105977678D01*
G75*
G02*
X104854073Y-105977678I-176777J176777D01*
G01*
X104182322Y-105305927D01*
G75*
G02*
X104182322Y-104952373I176777J176777D01*
G01*
X104535875Y-104598820D01*
G75*
G02*
X104889429Y-104598820I176777J-176777D01*
G01*
G37*
G36*
G01*
X103545927Y-105942322D02*
X104217678Y-106614073D01*
G75*
G02*
X104217678Y-106967627I-176777J-176777D01*
G01*
X103864125Y-107321180D01*
G75*
G02*
X103510571Y-107321180I-176777J176777D01*
G01*
X102838820Y-106649429D01*
G75*
G02*
X102838820Y-106295875I176777J176777D01*
G01*
X103192373Y-105942322D01*
G75*
G02*
X103545927Y-105942322I176777J-176777D01*
G01*
G37*
%TD*%
%TO.C,C14*%
G36*
G01*
X104889429Y-81578820D02*
X105561180Y-82250571D01*
G75*
G02*
X105561180Y-82604125I-176777J-176777D01*
G01*
X105207627Y-82957678D01*
G75*
G02*
X104854073Y-82957678I-176777J176777D01*
G01*
X104182322Y-82285927D01*
G75*
G02*
X104182322Y-81932373I176777J176777D01*
G01*
X104535875Y-81578820D01*
G75*
G02*
X104889429Y-81578820I176777J-176777D01*
G01*
G37*
G36*
G01*
X103545927Y-82922322D02*
X104217678Y-83594073D01*
G75*
G02*
X104217678Y-83947627I-176777J-176777D01*
G01*
X103864125Y-84301180D01*
G75*
G02*
X103510571Y-84301180I-176777J176777D01*
G01*
X102838820Y-83629429D01*
G75*
G02*
X102838820Y-83275875I176777J176777D01*
G01*
X103192373Y-82922322D01*
G75*
G02*
X103545927Y-82922322I176777J-176777D01*
G01*
G37*
%TD*%
%TO.C,C14*%
G36*
G01*
X104889429Y-58558820D02*
X105561180Y-59230571D01*
G75*
G02*
X105561180Y-59584125I-176777J-176777D01*
G01*
X105207627Y-59937678D01*
G75*
G02*
X104854073Y-59937678I-176777J176777D01*
G01*
X104182322Y-59265927D01*
G75*
G02*
X104182322Y-58912373I176777J176777D01*
G01*
X104535875Y-58558820D01*
G75*
G02*
X104889429Y-58558820I176777J-176777D01*
G01*
G37*
G36*
G01*
X103545927Y-59902322D02*
X104217678Y-60574073D01*
G75*
G02*
X104217678Y-60927627I-176777J-176777D01*
G01*
X103864125Y-61281180D01*
G75*
G02*
X103510571Y-61281180I-176777J176777D01*
G01*
X102838820Y-60609429D01*
G75*
G02*
X102838820Y-60255875I176777J176777D01*
G01*
X103192373Y-59902322D01*
G75*
G02*
X103545927Y-59902322I176777J-176777D01*
G01*
G37*
%TD*%
%TO.C,C16*%
G36*
G01*
X94775000Y-102410000D02*
X95725000Y-102410000D01*
G75*
G02*
X95975000Y-102660000I0J-250000D01*
G01*
X95975000Y-103160000D01*
G75*
G02*
X95725000Y-103410000I-250000J0D01*
G01*
X94775000Y-103410000D01*
G75*
G02*
X94525000Y-103160000I0J250000D01*
G01*
X94525000Y-102660000D01*
G75*
G02*
X94775000Y-102410000I250000J0D01*
G01*
G37*
G36*
G01*
X94775000Y-104310000D02*
X95725000Y-104310000D01*
G75*
G02*
X95975000Y-104560000I0J-250000D01*
G01*
X95975000Y-105060000D01*
G75*
G02*
X95725000Y-105310000I-250000J0D01*
G01*
X94775000Y-105310000D01*
G75*
G02*
X94525000Y-105060000I0J250000D01*
G01*
X94525000Y-104560000D01*
G75*
G02*
X94775000Y-104310000I250000J0D01*
G01*
G37*
%TD*%
%TO.C,C16*%
G36*
G01*
X94775000Y-79390000D02*
X95725000Y-79390000D01*
G75*
G02*
X95975000Y-79640000I0J-250000D01*
G01*
X95975000Y-80140000D01*
G75*
G02*
X95725000Y-80390000I-250000J0D01*
G01*
X94775000Y-80390000D01*
G75*
G02*
X94525000Y-80140000I0J250000D01*
G01*
X94525000Y-79640000D01*
G75*
G02*
X94775000Y-79390000I250000J0D01*
G01*
G37*
G36*
G01*
X94775000Y-81290000D02*
X95725000Y-81290000D01*
G75*
G02*
X95975000Y-81540000I0J-250000D01*
G01*
X95975000Y-82040000D01*
G75*
G02*
X95725000Y-82290000I-250000J0D01*
G01*
X94775000Y-82290000D01*
G75*
G02*
X94525000Y-82040000I0J250000D01*
G01*
X94525000Y-81540000D01*
G75*
G02*
X94775000Y-81290000I250000J0D01*
G01*
G37*
%TD*%
%TO.C,C16*%
G36*
G01*
X94775000Y-56370000D02*
X95725000Y-56370000D01*
G75*
G02*
X95975000Y-56620000I0J-250000D01*
G01*
X95975000Y-57120000D01*
G75*
G02*
X95725000Y-57370000I-250000J0D01*
G01*
X94775000Y-57370000D01*
G75*
G02*
X94525000Y-57120000I0J250000D01*
G01*
X94525000Y-56620000D01*
G75*
G02*
X94775000Y-56370000I250000J0D01*
G01*
G37*
G36*
G01*
X94775000Y-58270000D02*
X95725000Y-58270000D01*
G75*
G02*
X95975000Y-58520000I0J-250000D01*
G01*
X95975000Y-59020000D01*
G75*
G02*
X95725000Y-59270000I-250000J0D01*
G01*
X94775000Y-59270000D01*
G75*
G02*
X94525000Y-59020000I0J250000D01*
G01*
X94525000Y-58520000D01*
G75*
G02*
X94775000Y-58270000I250000J0D01*
G01*
G37*
%TD*%
%TO.C,F1*%
G36*
G01*
X65050000Y-100359999D02*
X65050000Y-103260001D01*
G75*
G02*
X64800001Y-103510000I-249999J0D01*
G01*
X64174999Y-103510000D01*
G75*
G02*
X63925000Y-103260001I0J249999D01*
G01*
X63925000Y-100359999D01*
G75*
G02*
X64174999Y-100110000I249999J0D01*
G01*
X64800001Y-100110000D01*
G75*
G02*
X65050000Y-100359999I0J-249999D01*
G01*
G37*
G36*
G01*
X60775000Y-100359999D02*
X60775000Y-103260001D01*
G75*
G02*
X60525001Y-103510000I-249999J0D01*
G01*
X59899999Y-103510000D01*
G75*
G02*
X59650000Y-103260001I0J249999D01*
G01*
X59650000Y-100359999D01*
G75*
G02*
X59899999Y-100110000I249999J0D01*
G01*
X60525001Y-100110000D01*
G75*
G02*
X60775000Y-100359999I0J-249999D01*
G01*
G37*
%TD*%
%TO.C,F1*%
G36*
G01*
X65050000Y-77339999D02*
X65050000Y-80240001D01*
G75*
G02*
X64800001Y-80490000I-249999J0D01*
G01*
X64174999Y-80490000D01*
G75*
G02*
X63925000Y-80240001I0J249999D01*
G01*
X63925000Y-77339999D01*
G75*
G02*
X64174999Y-77090000I249999J0D01*
G01*
X64800001Y-77090000D01*
G75*
G02*
X65050000Y-77339999I0J-249999D01*
G01*
G37*
G36*
G01*
X60775000Y-77339999D02*
X60775000Y-80240001D01*
G75*
G02*
X60525001Y-80490000I-249999J0D01*
G01*
X59899999Y-80490000D01*
G75*
G02*
X59650000Y-80240001I0J249999D01*
G01*
X59650000Y-77339999D01*
G75*
G02*
X59899999Y-77090000I249999J0D01*
G01*
X60525001Y-77090000D01*
G75*
G02*
X60775000Y-77339999I0J-249999D01*
G01*
G37*
%TD*%
%TO.C,F1*%
G36*
G01*
X65050000Y-54319999D02*
X65050000Y-57220001D01*
G75*
G02*
X64800001Y-57470000I-249999J0D01*
G01*
X64174999Y-57470000D01*
G75*
G02*
X63925000Y-57220001I0J249999D01*
G01*
X63925000Y-54319999D01*
G75*
G02*
X64174999Y-54070000I249999J0D01*
G01*
X64800001Y-54070000D01*
G75*
G02*
X65050000Y-54319999I0J-249999D01*
G01*
G37*
G36*
G01*
X60775000Y-54319999D02*
X60775000Y-57220001D01*
G75*
G02*
X60525001Y-57470000I-249999J0D01*
G01*
X59899999Y-57470000D01*
G75*
G02*
X59650000Y-57220001I0J249999D01*
G01*
X59650000Y-54319999D01*
G75*
G02*
X59899999Y-54070000I249999J0D01*
G01*
X60525001Y-54070000D01*
G75*
G02*
X60775000Y-54319999I0J-249999D01*
G01*
G37*
%TD*%
%TO.C,F2*%
G36*
G01*
X125636010Y-115001240D02*
X122910899Y-115993099D01*
G75*
G02*
X122590472Y-115843682I-85505J234922D01*
G01*
X122376709Y-115256373D01*
G75*
G02*
X122526126Y-114935946I234922J85505D01*
G01*
X125251237Y-113944087D01*
G75*
G02*
X125571664Y-114093504I85505J-234922D01*
G01*
X125785427Y-114680813D01*
G75*
G02*
X125636010Y-115001240I-234922J-85505D01*
G01*
G37*
G36*
G01*
X124173874Y-110984054D02*
X121448763Y-111975913D01*
G75*
G02*
X121128336Y-111826496I-85505J234922D01*
G01*
X120914573Y-111239187D01*
G75*
G02*
X121063990Y-110918760I234922J85505D01*
G01*
X123789101Y-109926901D01*
G75*
G02*
X124109528Y-110076318I85505J-234922D01*
G01*
X124323291Y-110663627D01*
G75*
G02*
X124173874Y-110984054I-234922J-85505D01*
G01*
G37*
%TD*%
%TO.C,F2*%
G36*
G01*
X125636010Y-91981240D02*
X122910899Y-92973099D01*
G75*
G02*
X122590472Y-92823682I-85505J234922D01*
G01*
X122376709Y-92236373D01*
G75*
G02*
X122526126Y-91915946I234922J85505D01*
G01*
X125251237Y-90924087D01*
G75*
G02*
X125571664Y-91073504I85505J-234922D01*
G01*
X125785427Y-91660813D01*
G75*
G02*
X125636010Y-91981240I-234922J-85505D01*
G01*
G37*
G36*
G01*
X124173874Y-87964054D02*
X121448763Y-88955913D01*
G75*
G02*
X121128336Y-88806496I-85505J234922D01*
G01*
X120914573Y-88219187D01*
G75*
G02*
X121063990Y-87898760I234922J85505D01*
G01*
X123789101Y-86906901D01*
G75*
G02*
X124109528Y-87056318I85505J-234922D01*
G01*
X124323291Y-87643627D01*
G75*
G02*
X124173874Y-87964054I-234922J-85505D01*
G01*
G37*
%TD*%
%TO.C,F2*%
G36*
G01*
X125636010Y-68961240D02*
X122910899Y-69953099D01*
G75*
G02*
X122590472Y-69803682I-85505J234922D01*
G01*
X122376709Y-69216373D01*
G75*
G02*
X122526126Y-68895946I234922J85505D01*
G01*
X125251237Y-67904087D01*
G75*
G02*
X125571664Y-68053504I85505J-234922D01*
G01*
X125785427Y-68640813D01*
G75*
G02*
X125636010Y-68961240I-234922J-85505D01*
G01*
G37*
G36*
G01*
X124173874Y-64944054D02*
X121448763Y-65935913D01*
G75*
G02*
X121128336Y-65786496I-85505J234922D01*
G01*
X120914573Y-65199187D01*
G75*
G02*
X121063990Y-64878760I234922J85505D01*
G01*
X123789101Y-63886901D01*
G75*
G02*
X124109528Y-64036318I85505J-234922D01*
G01*
X124323291Y-64623627D01*
G75*
G02*
X124173874Y-64944054I-234922J-85505D01*
G01*
G37*
%TD*%
D19*
%TO.C,USB1*%
X58445000Y-38725000D03*
X58445000Y-32275000D03*
X58445000Y-37950000D03*
X58445000Y-33050000D03*
D18*
X58445000Y-33750000D03*
X58445000Y-37250000D03*
X58445000Y-34250000D03*
X58445000Y-36750000D03*
X58445000Y-34750000D03*
X58445000Y-36250000D03*
X58445000Y-35750000D03*
X58445000Y-35250000D03*
D17*
X57000000Y-38390000D03*
X57000000Y-32610000D03*
%TD*%
D24*
%TO.C,U5*%
X86360000Y-37400000D03*
X87630000Y-37400000D03*
X88900000Y-37400000D03*
X90170000Y-37400000D03*
X91440000Y-37400000D03*
X92710000Y-37400000D03*
X93980000Y-37400000D03*
X95250000Y-37400000D03*
%TD*%
%TO.C,C11*%
G36*
G01*
X115549567Y-47896507D02*
X116250709Y-49822877D01*
G75*
G02*
X116101291Y-50143305I-234923J-85505D01*
G01*
X114621275Y-50681987D01*
G75*
G02*
X114300847Y-50532569I-85505J234923D01*
G01*
X113599705Y-48606199D01*
G75*
G02*
X113749123Y-48285771I234923J85505D01*
G01*
X115229139Y-47747089D01*
G75*
G02*
X115549567Y-47896507I85505J-234923D01*
G01*
G37*
G36*
G01*
X121399153Y-45767431D02*
X122100295Y-47693801D01*
G75*
G02*
X121950877Y-48014229I-234923J-85505D01*
G01*
X120470861Y-48552911D01*
G75*
G02*
X120150433Y-48403493I-85505J234923D01*
G01*
X119449291Y-46477123D01*
G75*
G02*
X119598709Y-46156695I234923J85505D01*
G01*
X121078725Y-45618013D01*
G75*
G02*
X121399153Y-45767431I85505J-234923D01*
G01*
G37*
%TD*%
D23*
%TO.C,J1*%
X83250000Y-52160000D03*
X80710000Y-52160000D03*
X78170000Y-52160000D03*
X75630000Y-52160000D03*
X73090000Y-52160000D03*
X70550000Y-52160000D03*
X68010000Y-52160000D03*
X65470000Y-52160000D03*
D22*
X62930000Y-52160000D03*
%TD*%
D10*
%TO.C,U4*%
G36*
X108884657Y-37775037D02*
G01*
X108495748Y-37386128D01*
X109627119Y-36254757D01*
X110016028Y-36643666D01*
X108884657Y-37775037D01*
G37*
G36*
X109450342Y-38340723D02*
G01*
X109061433Y-37951814D01*
X110192804Y-36820443D01*
X110581713Y-37209352D01*
X109450342Y-38340723D01*
G37*
G36*
X110016028Y-38906408D02*
G01*
X109627119Y-38517499D01*
X110758490Y-37386128D01*
X111147399Y-37775037D01*
X110016028Y-38906408D01*
G37*
G36*
X110581713Y-39472093D02*
G01*
X110192804Y-39083184D01*
X111324175Y-37951813D01*
X111713084Y-38340722D01*
X110581713Y-39472093D01*
G37*
G36*
X111147399Y-40037779D02*
G01*
X110758490Y-39648870D01*
X111889861Y-38517499D01*
X112278770Y-38906408D01*
X111147399Y-40037779D01*
G37*
G36*
X111713084Y-40603464D02*
G01*
X111324175Y-40214555D01*
X112455546Y-39083184D01*
X112844455Y-39472093D01*
X111713084Y-40603464D01*
G37*
G36*
X112278769Y-41169150D02*
G01*
X111889860Y-40780241D01*
X113021231Y-39648870D01*
X113410140Y-40037779D01*
X112278769Y-41169150D01*
G37*
G36*
X112844455Y-41734835D02*
G01*
X112455546Y-41345926D01*
X113586917Y-40214555D01*
X113975826Y-40603464D01*
X112844455Y-41734835D01*
G37*
G36*
X112455546Y-42654074D02*
G01*
X112844455Y-42265165D01*
X113975826Y-43396536D01*
X113586917Y-43785445D01*
X112455546Y-42654074D01*
G37*
G36*
X111889860Y-43219759D02*
G01*
X112278769Y-42830850D01*
X113410140Y-43962221D01*
X113021231Y-44351130D01*
X111889860Y-43219759D01*
G37*
G36*
X111324175Y-43785445D02*
G01*
X111713084Y-43396536D01*
X112844455Y-44527907D01*
X112455546Y-44916816D01*
X111324175Y-43785445D01*
G37*
G36*
X110758490Y-44351130D02*
G01*
X111147399Y-43962221D01*
X112278770Y-45093592D01*
X111889861Y-45482501D01*
X110758490Y-44351130D01*
G37*
G36*
X110192804Y-44916816D02*
G01*
X110581713Y-44527907D01*
X111713084Y-45659278D01*
X111324175Y-46048187D01*
X110192804Y-44916816D01*
G37*
G36*
X109627119Y-45482501D02*
G01*
X110016028Y-45093592D01*
X111147399Y-46224963D01*
X110758490Y-46613872D01*
X109627119Y-45482501D01*
G37*
G36*
X109061433Y-46048186D02*
G01*
X109450342Y-45659277D01*
X110581713Y-46790648D01*
X110192804Y-47179557D01*
X109061433Y-46048186D01*
G37*
G36*
X108495748Y-46613872D02*
G01*
X108884657Y-46224963D01*
X110016028Y-47356334D01*
X109627119Y-47745243D01*
X108495748Y-46613872D01*
G37*
G36*
X106834047Y-47745243D02*
G01*
X106445138Y-47356334D01*
X107576509Y-46224963D01*
X107965418Y-46613872D01*
X106834047Y-47745243D01*
G37*
G36*
X106268362Y-47179557D02*
G01*
X105879453Y-46790648D01*
X107010824Y-45659277D01*
X107399733Y-46048186D01*
X106268362Y-47179557D01*
G37*
G36*
X105702676Y-46613872D02*
G01*
X105313767Y-46224963D01*
X106445138Y-45093592D01*
X106834047Y-45482501D01*
X105702676Y-46613872D01*
G37*
G36*
X105136991Y-46048187D02*
G01*
X104748082Y-45659278D01*
X105879453Y-44527907D01*
X106268362Y-44916816D01*
X105136991Y-46048187D01*
G37*
G36*
X104571305Y-45482501D02*
G01*
X104182396Y-45093592D01*
X105313767Y-43962221D01*
X105702676Y-44351130D01*
X104571305Y-45482501D01*
G37*
G36*
X104005620Y-44916816D02*
G01*
X103616711Y-44527907D01*
X104748082Y-43396536D01*
X105136991Y-43785445D01*
X104005620Y-44916816D01*
G37*
G36*
X103439935Y-44351130D02*
G01*
X103051026Y-43962221D01*
X104182397Y-42830850D01*
X104571306Y-43219759D01*
X103439935Y-44351130D01*
G37*
G36*
X102874249Y-43785445D02*
G01*
X102485340Y-43396536D01*
X103616711Y-42265165D01*
X104005620Y-42654074D01*
X102874249Y-43785445D01*
G37*
G36*
X102485340Y-40603464D02*
G01*
X102874249Y-40214555D01*
X104005620Y-41345926D01*
X103616711Y-41734835D01*
X102485340Y-40603464D01*
G37*
G36*
X103051026Y-40037779D02*
G01*
X103439935Y-39648870D01*
X104571306Y-40780241D01*
X104182397Y-41169150D01*
X103051026Y-40037779D01*
G37*
G36*
X103616711Y-39472093D02*
G01*
X104005620Y-39083184D01*
X105136991Y-40214555D01*
X104748082Y-40603464D01*
X103616711Y-39472093D01*
G37*
G36*
X104182396Y-38906408D02*
G01*
X104571305Y-38517499D01*
X105702676Y-39648870D01*
X105313767Y-40037779D01*
X104182396Y-38906408D01*
G37*
G36*
X104748082Y-38340722D02*
G01*
X105136991Y-37951813D01*
X106268362Y-39083184D01*
X105879453Y-39472093D01*
X104748082Y-38340722D01*
G37*
G36*
X105313767Y-37775037D02*
G01*
X105702676Y-37386128D01*
X106834047Y-38517499D01*
X106445138Y-38906408D01*
X105313767Y-37775037D01*
G37*
G36*
X105879453Y-37209352D02*
G01*
X106268362Y-36820443D01*
X107399733Y-37951814D01*
X107010824Y-38340723D01*
X105879453Y-37209352D01*
G37*
G36*
X106445138Y-36643666D02*
G01*
X106834047Y-36254757D01*
X107965418Y-37386128D01*
X107576509Y-37775037D01*
X106445138Y-36643666D01*
G37*
%TD*%
D23*
%TO.C,J3*%
X126900000Y-31840000D03*
X124360000Y-31840000D03*
X121820000Y-31840000D03*
X119280000Y-31840000D03*
X116740000Y-31840000D03*
X114200000Y-31840000D03*
X111660000Y-31840000D03*
X109120000Y-31840000D03*
X106580000Y-31840000D03*
X104040000Y-31840000D03*
X101500000Y-31840000D03*
X98960000Y-31840000D03*
X96420000Y-31840000D03*
X93880000Y-31840000D03*
X91340000Y-31840000D03*
X88800000Y-31840000D03*
D22*
X86260000Y-31840000D03*
%TD*%
D23*
%TO.C,J2*%
X126900000Y-52160000D03*
X124360000Y-52160000D03*
X121820000Y-52160000D03*
X119280000Y-52160000D03*
X116740000Y-52160000D03*
X114200000Y-52160000D03*
X111660000Y-52160000D03*
X109120000Y-52160000D03*
X106580000Y-52160000D03*
X104040000Y-52160000D03*
X101500000Y-52160000D03*
D22*
X98960000Y-52160000D03*
%TD*%
D21*
%TO.C,U3*%
X81650000Y-49550000D03*
X81650000Y-44950000D03*
X81650000Y-47250000D03*
D20*
X75350000Y-47250000D03*
%TD*%
%TO.C,R4*%
G36*
G01*
X66800000Y-40950001D02*
X66800000Y-40049999D01*
G75*
G02*
X67049999Y-39800000I249999J0D01*
G01*
X67575001Y-39800000D01*
G75*
G02*
X67825000Y-40049999I0J-249999D01*
G01*
X67825000Y-40950001D01*
G75*
G02*
X67575001Y-41200000I-249999J0D01*
G01*
X67049999Y-41200000D01*
G75*
G02*
X66800000Y-40950001I0J249999D01*
G01*
G37*
G36*
G01*
X64975000Y-40950001D02*
X64975000Y-40049999D01*
G75*
G02*
X65224999Y-39800000I249999J0D01*
G01*
X65750001Y-39800000D01*
G75*
G02*
X66000000Y-40049999I0J-249999D01*
G01*
X66000000Y-40950001D01*
G75*
G02*
X65750001Y-41200000I-249999J0D01*
G01*
X65224999Y-41200000D01*
G75*
G02*
X64975000Y-40950001I0J249999D01*
G01*
G37*
%TD*%
%TO.C,F2*%
G36*
G01*
X124173874Y-41924054D02*
X121448763Y-42915913D01*
G75*
G02*
X121128336Y-42766496I-85505J234922D01*
G01*
X120914573Y-42179187D01*
G75*
G02*
X121063990Y-41858760I234922J85505D01*
G01*
X123789101Y-40866901D01*
G75*
G02*
X124109528Y-41016318I85505J-234922D01*
G01*
X124323291Y-41603627D01*
G75*
G02*
X124173874Y-41924054I-234922J-85505D01*
G01*
G37*
G36*
G01*
X125636010Y-45941240D02*
X122910899Y-46933099D01*
G75*
G02*
X122590472Y-46783682I-85505J234922D01*
G01*
X122376709Y-46196373D01*
G75*
G02*
X122526126Y-45875946I234922J85505D01*
G01*
X125251237Y-44884087D01*
G75*
G02*
X125571664Y-45033504I85505J-234922D01*
G01*
X125785427Y-45620813D01*
G75*
G02*
X125636010Y-45941240I-234922J-85505D01*
G01*
G37*
%TD*%
%TO.C,F1*%
G36*
G01*
X60775000Y-31299999D02*
X60775000Y-34200001D01*
G75*
G02*
X60525001Y-34450000I-249999J0D01*
G01*
X59899999Y-34450000D01*
G75*
G02*
X59650000Y-34200001I0J249999D01*
G01*
X59650000Y-31299999D01*
G75*
G02*
X59899999Y-31050000I249999J0D01*
G01*
X60525001Y-31050000D01*
G75*
G02*
X60775000Y-31299999I0J-249999D01*
G01*
G37*
G36*
G01*
X65050000Y-31299999D02*
X65050000Y-34200001D01*
G75*
G02*
X64800001Y-34450000I-249999J0D01*
G01*
X64174999Y-34450000D01*
G75*
G02*
X63925000Y-34200001I0J249999D01*
G01*
X63925000Y-31299999D01*
G75*
G02*
X64174999Y-31050000I249999J0D01*
G01*
X64800001Y-31050000D01*
G75*
G02*
X65050000Y-31299999I0J-249999D01*
G01*
G37*
%TD*%
%TO.C,C16*%
G36*
G01*
X94775000Y-35250000D02*
X95725000Y-35250000D01*
G75*
G02*
X95975000Y-35500000I0J-250000D01*
G01*
X95975000Y-36000000D01*
G75*
G02*
X95725000Y-36250000I-250000J0D01*
G01*
X94775000Y-36250000D01*
G75*
G02*
X94525000Y-36000000I0J250000D01*
G01*
X94525000Y-35500000D01*
G75*
G02*
X94775000Y-35250000I250000J0D01*
G01*
G37*
G36*
G01*
X94775000Y-33350000D02*
X95725000Y-33350000D01*
G75*
G02*
X95975000Y-33600000I0J-250000D01*
G01*
X95975000Y-34100000D01*
G75*
G02*
X95725000Y-34350000I-250000J0D01*
G01*
X94775000Y-34350000D01*
G75*
G02*
X94525000Y-34100000I0J250000D01*
G01*
X94525000Y-33600000D01*
G75*
G02*
X94775000Y-33350000I250000J0D01*
G01*
G37*
%TD*%
%TO.C,C14*%
G36*
G01*
X103545927Y-36882322D02*
X104217678Y-37554073D01*
G75*
G02*
X104217678Y-37907627I-176777J-176777D01*
G01*
X103864125Y-38261180D01*
G75*
G02*
X103510571Y-38261180I-176777J176777D01*
G01*
X102838820Y-37589429D01*
G75*
G02*
X102838820Y-37235875I176777J176777D01*
G01*
X103192373Y-36882322D01*
G75*
G02*
X103545927Y-36882322I176777J-176777D01*
G01*
G37*
G36*
G01*
X104889429Y-35538820D02*
X105561180Y-36210571D01*
G75*
G02*
X105561180Y-36564125I-176777J-176777D01*
G01*
X105207627Y-36917678D01*
G75*
G02*
X104854073Y-36917678I-176777J176777D01*
G01*
X104182322Y-36245927D01*
G75*
G02*
X104182322Y-35892373I176777J176777D01*
G01*
X104535875Y-35538820D01*
G75*
G02*
X104889429Y-35538820I176777J-176777D01*
G01*
G37*
%TD*%
%TO.C,C9*%
G36*
G01*
X67575000Y-45425000D02*
X67575000Y-47475000D01*
G75*
G02*
X67325000Y-47725000I-250000J0D01*
G01*
X65750000Y-47725000D01*
G75*
G02*
X65500000Y-47475000I0J250000D01*
G01*
X65500000Y-45425000D01*
G75*
G02*
X65750000Y-45175000I250000J0D01*
G01*
X67325000Y-45175000D01*
G75*
G02*
X67575000Y-45425000I0J-250000D01*
G01*
G37*
G36*
G01*
X73800000Y-45425000D02*
X73800000Y-47475000D01*
G75*
G02*
X73550000Y-47725000I-250000J0D01*
G01*
X71975000Y-47725000D01*
G75*
G02*
X71725000Y-47475000I0J250000D01*
G01*
X71725000Y-45425000D01*
G75*
G02*
X71975000Y-45175000I250000J0D01*
G01*
X73550000Y-45175000D01*
G75*
G02*
X73800000Y-45425000I0J-250000D01*
G01*
G37*
%TD*%
%TO.C,C7*%
G36*
G01*
X66850000Y-39175000D02*
X66850000Y-38225000D01*
G75*
G02*
X67100000Y-37975000I250000J0D01*
G01*
X67600000Y-37975000D01*
G75*
G02*
X67850000Y-38225000I0J-250000D01*
G01*
X67850000Y-39175000D01*
G75*
G02*
X67600000Y-39425000I-250000J0D01*
G01*
X67100000Y-39425000D01*
G75*
G02*
X66850000Y-39175000I0J250000D01*
G01*
G37*
G36*
G01*
X64950000Y-39175000D02*
X64950000Y-38225000D01*
G75*
G02*
X65200000Y-37975000I250000J0D01*
G01*
X65700000Y-37975000D01*
G75*
G02*
X65950000Y-38225000I0J-250000D01*
G01*
X65950000Y-39175000D01*
G75*
G02*
X65700000Y-39425000I-250000J0D01*
G01*
X65200000Y-39425000D01*
G75*
G02*
X64950000Y-39175000I0J250000D01*
G01*
G37*
%TD*%
%TO.C,C5*%
G36*
G01*
X67575000Y-32425000D02*
X67575000Y-34475000D01*
G75*
G02*
X67325000Y-34725000I-250000J0D01*
G01*
X65750000Y-34725000D01*
G75*
G02*
X65500000Y-34475000I0J250000D01*
G01*
X65500000Y-32425000D01*
G75*
G02*
X65750000Y-32175000I250000J0D01*
G01*
X67325000Y-32175000D01*
G75*
G02*
X67575000Y-32425000I0J-250000D01*
G01*
G37*
G36*
G01*
X73800000Y-32425000D02*
X73800000Y-34475000D01*
G75*
G02*
X73550000Y-34725000I-250000J0D01*
G01*
X71975000Y-34725000D01*
G75*
G02*
X71725000Y-34475000I0J250000D01*
G01*
X71725000Y-32425000D01*
G75*
G02*
X71975000Y-32175000I250000J0D01*
G01*
X73550000Y-32175000D01*
G75*
G02*
X73800000Y-32425000I0J-250000D01*
G01*
G37*
%TD*%
D10*
%TO.C,Y1*%
G36*
X101849569Y-38753984D02*
G01*
X102698097Y-39602512D01*
X101708147Y-40592462D01*
X100859619Y-39743934D01*
X101849569Y-38753984D01*
G37*
G36*
X100293934Y-40309619D02*
G01*
X101142462Y-41158147D01*
X100152512Y-42148097D01*
X99303984Y-41299569D01*
X100293934Y-40309619D01*
G37*
G36*
X99091853Y-39107538D02*
G01*
X99940381Y-39956066D01*
X98950431Y-40946016D01*
X98101903Y-40097488D01*
X99091853Y-39107538D01*
G37*
G36*
X100647488Y-37551903D02*
G01*
X101496016Y-38400431D01*
X100506066Y-39390381D01*
X99657538Y-38541853D01*
X100647488Y-37551903D01*
G37*
%TD*%
D12*
%TO.C,U2*%
X71800000Y-40350000D03*
G36*
G01*
X73300000Y-38595000D02*
X73300000Y-38295000D01*
G75*
G02*
X73450000Y-38145000I150000J0D01*
G01*
X75100000Y-38145000D01*
G75*
G02*
X75250000Y-38295000I0J-150000D01*
G01*
X75250000Y-38595000D01*
G75*
G02*
X75100000Y-38745000I-150000J0D01*
G01*
X73450000Y-38745000D01*
G75*
G02*
X73300000Y-38595000I0J150000D01*
G01*
G37*
G36*
G01*
X73300000Y-39865000D02*
X73300000Y-39565000D01*
G75*
G02*
X73450000Y-39415000I150000J0D01*
G01*
X75100000Y-39415000D01*
G75*
G02*
X75250000Y-39565000I0J-150000D01*
G01*
X75250000Y-39865000D01*
G75*
G02*
X75100000Y-40015000I-150000J0D01*
G01*
X73450000Y-40015000D01*
G75*
G02*
X73300000Y-39865000I0J150000D01*
G01*
G37*
G36*
G01*
X73300000Y-41135000D02*
X73300000Y-40835000D01*
G75*
G02*
X73450000Y-40685000I150000J0D01*
G01*
X75100000Y-40685000D01*
G75*
G02*
X75250000Y-40835000I0J-150000D01*
G01*
X75250000Y-41135000D01*
G75*
G02*
X75100000Y-41285000I-150000J0D01*
G01*
X73450000Y-41285000D01*
G75*
G02*
X73300000Y-41135000I0J150000D01*
G01*
G37*
G36*
G01*
X73300000Y-42405000D02*
X73300000Y-42105000D01*
G75*
G02*
X73450000Y-41955000I150000J0D01*
G01*
X75100000Y-41955000D01*
G75*
G02*
X75250000Y-42105000I0J-150000D01*
G01*
X75250000Y-42405000D01*
G75*
G02*
X75100000Y-42555000I-150000J0D01*
G01*
X73450000Y-42555000D01*
G75*
G02*
X73300000Y-42405000I0J150000D01*
G01*
G37*
G36*
G01*
X68350000Y-42405000D02*
X68350000Y-42105000D01*
G75*
G02*
X68500000Y-41955000I150000J0D01*
G01*
X70150000Y-41955000D01*
G75*
G02*
X70300000Y-42105000I0J-150000D01*
G01*
X70300000Y-42405000D01*
G75*
G02*
X70150000Y-42555000I-150000J0D01*
G01*
X68500000Y-42555000D01*
G75*
G02*
X68350000Y-42405000I0J150000D01*
G01*
G37*
G36*
G01*
X68350000Y-41135000D02*
X68350000Y-40835000D01*
G75*
G02*
X68500000Y-40685000I150000J0D01*
G01*
X70150000Y-40685000D01*
G75*
G02*
X70300000Y-40835000I0J-150000D01*
G01*
X70300000Y-41135000D01*
G75*
G02*
X70150000Y-41285000I-150000J0D01*
G01*
X68500000Y-41285000D01*
G75*
G02*
X68350000Y-41135000I0J150000D01*
G01*
G37*
G36*
G01*
X68350000Y-39865000D02*
X68350000Y-39565000D01*
G75*
G02*
X68500000Y-39415000I150000J0D01*
G01*
X70150000Y-39415000D01*
G75*
G02*
X70300000Y-39565000I0J-150000D01*
G01*
X70300000Y-39865000D01*
G75*
G02*
X70150000Y-40015000I-150000J0D01*
G01*
X68500000Y-40015000D01*
G75*
G02*
X68350000Y-39865000I0J150000D01*
G01*
G37*
G36*
G01*
X68350000Y-38595000D02*
X68350000Y-38295000D01*
G75*
G02*
X68500000Y-38145000I150000J0D01*
G01*
X70150000Y-38145000D01*
G75*
G02*
X70300000Y-38295000I0J-150000D01*
G01*
X70300000Y-38595000D01*
G75*
G02*
X70150000Y-38745000I-150000J0D01*
G01*
X68500000Y-38745000D01*
G75*
G02*
X68350000Y-38595000I0J150000D01*
G01*
G37*
%TD*%
%TO.C,U1*%
G36*
G01*
X60495000Y-50750000D02*
X60795000Y-50750000D01*
G75*
G02*
X60945000Y-50900000I0J-150000D01*
G01*
X60945000Y-52550000D01*
G75*
G02*
X60795000Y-52700000I-150000J0D01*
G01*
X60495000Y-52700000D01*
G75*
G02*
X60345000Y-52550000I0J150000D01*
G01*
X60345000Y-50900000D01*
G75*
G02*
X60495000Y-50750000I150000J0D01*
G01*
G37*
G36*
G01*
X59225000Y-50750000D02*
X59525000Y-50750000D01*
G75*
G02*
X59675000Y-50900000I0J-150000D01*
G01*
X59675000Y-52550000D01*
G75*
G02*
X59525000Y-52700000I-150000J0D01*
G01*
X59225000Y-52700000D01*
G75*
G02*
X59075000Y-52550000I0J150000D01*
G01*
X59075000Y-50900000D01*
G75*
G02*
X59225000Y-50750000I150000J0D01*
G01*
G37*
G36*
G01*
X57955000Y-50750000D02*
X58255000Y-50750000D01*
G75*
G02*
X58405000Y-50900000I0J-150000D01*
G01*
X58405000Y-52550000D01*
G75*
G02*
X58255000Y-52700000I-150000J0D01*
G01*
X57955000Y-52700000D01*
G75*
G02*
X57805000Y-52550000I0J150000D01*
G01*
X57805000Y-50900000D01*
G75*
G02*
X57955000Y-50750000I150000J0D01*
G01*
G37*
G36*
G01*
X56685000Y-50750000D02*
X56985000Y-50750000D01*
G75*
G02*
X57135000Y-50900000I0J-150000D01*
G01*
X57135000Y-52550000D01*
G75*
G02*
X56985000Y-52700000I-150000J0D01*
G01*
X56685000Y-52700000D01*
G75*
G02*
X56535000Y-52550000I0J150000D01*
G01*
X56535000Y-50900000D01*
G75*
G02*
X56685000Y-50750000I150000J0D01*
G01*
G37*
G36*
G01*
X55415000Y-50750000D02*
X55715000Y-50750000D01*
G75*
G02*
X55865000Y-50900000I0J-150000D01*
G01*
X55865000Y-52550000D01*
G75*
G02*
X55715000Y-52700000I-150000J0D01*
G01*
X55415000Y-52700000D01*
G75*
G02*
X55265000Y-52550000I0J150000D01*
G01*
X55265000Y-50900000D01*
G75*
G02*
X55415000Y-50750000I150000J0D01*
G01*
G37*
G36*
G01*
X54145000Y-50750000D02*
X54445000Y-50750000D01*
G75*
G02*
X54595000Y-50900000I0J-150000D01*
G01*
X54595000Y-52550000D01*
G75*
G02*
X54445000Y-52700000I-150000J0D01*
G01*
X54145000Y-52700000D01*
G75*
G02*
X53995000Y-52550000I0J150000D01*
G01*
X53995000Y-50900000D01*
G75*
G02*
X54145000Y-50750000I150000J0D01*
G01*
G37*
G36*
G01*
X52875000Y-50750000D02*
X53175000Y-50750000D01*
G75*
G02*
X53325000Y-50900000I0J-150000D01*
G01*
X53325000Y-52550000D01*
G75*
G02*
X53175000Y-52700000I-150000J0D01*
G01*
X52875000Y-52700000D01*
G75*
G02*
X52725000Y-52550000I0J150000D01*
G01*
X52725000Y-50900000D01*
G75*
G02*
X52875000Y-50750000I150000J0D01*
G01*
G37*
G36*
G01*
X51605000Y-50750000D02*
X51905000Y-50750000D01*
G75*
G02*
X52055000Y-50900000I0J-150000D01*
G01*
X52055000Y-52550000D01*
G75*
G02*
X51905000Y-52700000I-150000J0D01*
G01*
X51605000Y-52700000D01*
G75*
G02*
X51455000Y-52550000I0J150000D01*
G01*
X51455000Y-50900000D01*
G75*
G02*
X51605000Y-50750000I150000J0D01*
G01*
G37*
G36*
G01*
X51605000Y-45800000D02*
X51905000Y-45800000D01*
G75*
G02*
X52055000Y-45950000I0J-150000D01*
G01*
X52055000Y-47600000D01*
G75*
G02*
X51905000Y-47750000I-150000J0D01*
G01*
X51605000Y-47750000D01*
G75*
G02*
X51455000Y-47600000I0J150000D01*
G01*
X51455000Y-45950000D01*
G75*
G02*
X51605000Y-45800000I150000J0D01*
G01*
G37*
G36*
G01*
X52875000Y-45800000D02*
X53175000Y-45800000D01*
G75*
G02*
X53325000Y-45950000I0J-150000D01*
G01*
X53325000Y-47600000D01*
G75*
G02*
X53175000Y-47750000I-150000J0D01*
G01*
X52875000Y-47750000D01*
G75*
G02*
X52725000Y-47600000I0J150000D01*
G01*
X52725000Y-45950000D01*
G75*
G02*
X52875000Y-45800000I150000J0D01*
G01*
G37*
G36*
G01*
X54145000Y-45800000D02*
X54445000Y-45800000D01*
G75*
G02*
X54595000Y-45950000I0J-150000D01*
G01*
X54595000Y-47600000D01*
G75*
G02*
X54445000Y-47750000I-150000J0D01*
G01*
X54145000Y-47750000D01*
G75*
G02*
X53995000Y-47600000I0J150000D01*
G01*
X53995000Y-45950000D01*
G75*
G02*
X54145000Y-45800000I150000J0D01*
G01*
G37*
G36*
G01*
X55415000Y-45800000D02*
X55715000Y-45800000D01*
G75*
G02*
X55865000Y-45950000I0J-150000D01*
G01*
X55865000Y-47600000D01*
G75*
G02*
X55715000Y-47750000I-150000J0D01*
G01*
X55415000Y-47750000D01*
G75*
G02*
X55265000Y-47600000I0J150000D01*
G01*
X55265000Y-45950000D01*
G75*
G02*
X55415000Y-45800000I150000J0D01*
G01*
G37*
G36*
G01*
X56685000Y-45800000D02*
X56985000Y-45800000D01*
G75*
G02*
X57135000Y-45950000I0J-150000D01*
G01*
X57135000Y-47600000D01*
G75*
G02*
X56985000Y-47750000I-150000J0D01*
G01*
X56685000Y-47750000D01*
G75*
G02*
X56535000Y-47600000I0J150000D01*
G01*
X56535000Y-45950000D01*
G75*
G02*
X56685000Y-45800000I150000J0D01*
G01*
G37*
G36*
G01*
X57955000Y-45800000D02*
X58255000Y-45800000D01*
G75*
G02*
X58405000Y-45950000I0J-150000D01*
G01*
X58405000Y-47600000D01*
G75*
G02*
X58255000Y-47750000I-150000J0D01*
G01*
X57955000Y-47750000D01*
G75*
G02*
X57805000Y-47600000I0J150000D01*
G01*
X57805000Y-45950000D01*
G75*
G02*
X57955000Y-45800000I150000J0D01*
G01*
G37*
G36*
G01*
X59225000Y-45800000D02*
X59525000Y-45800000D01*
G75*
G02*
X59675000Y-45950000I0J-150000D01*
G01*
X59675000Y-47600000D01*
G75*
G02*
X59525000Y-47750000I-150000J0D01*
G01*
X59225000Y-47750000D01*
G75*
G02*
X59075000Y-47600000I0J150000D01*
G01*
X59075000Y-45950000D01*
G75*
G02*
X59225000Y-45800000I150000J0D01*
G01*
G37*
G36*
G01*
X60495000Y-45800000D02*
X60795000Y-45800000D01*
G75*
G02*
X60945000Y-45950000I0J-150000D01*
G01*
X60945000Y-47600000D01*
G75*
G02*
X60795000Y-47750000I-150000J0D01*
G01*
X60495000Y-47750000D01*
G75*
G02*
X60345000Y-47600000I0J150000D01*
G01*
X60345000Y-45950000D01*
G75*
G02*
X60495000Y-45800000I150000J0D01*
G01*
G37*
%TD*%
D10*
%TO.C,SW2*%
G36*
X121447056Y-39757716D02*
G01*
X122507716Y-38697056D01*
X123568376Y-39757716D01*
X122507716Y-40818376D01*
X121447056Y-39757716D01*
G37*
G36*
X115931624Y-34242284D02*
G01*
X116992284Y-33181624D01*
X118052944Y-34242284D01*
X116992284Y-35302944D01*
X115931624Y-34242284D01*
G37*
%TD*%
D11*
%TO.C,SW1*%
X83200000Y-32750000D03*
X75400000Y-32750000D03*
%TD*%
%TO.C,R1*%
G36*
G01*
X98450000Y-48249999D02*
X98450000Y-49150001D01*
G75*
G02*
X98200001Y-49400000I-249999J0D01*
G01*
X97674999Y-49400000D01*
G75*
G02*
X97425000Y-49150001I0J249999D01*
G01*
X97425000Y-48249999D01*
G75*
G02*
X97674999Y-48000000I249999J0D01*
G01*
X98200001Y-48000000D01*
G75*
G02*
X98450000Y-48249999I0J-249999D01*
G01*
G37*
G36*
G01*
X100275000Y-48249999D02*
X100275000Y-49150001D01*
G75*
G02*
X100025001Y-49400000I-249999J0D01*
G01*
X99499999Y-49400000D01*
G75*
G02*
X99250000Y-49150001I0J249999D01*
G01*
X99250000Y-48249999D01*
G75*
G02*
X99499999Y-48000000I249999J0D01*
G01*
X100025001Y-48000000D01*
G75*
G02*
X100275000Y-48249999I0J-249999D01*
G01*
G37*
%TD*%
%TO.C,R9*%
G36*
G01*
X108548958Y-34914644D02*
X109185356Y-35551042D01*
G75*
G02*
X109185356Y-35904594I-176776J-176776D01*
G01*
X108814124Y-36275826D01*
G75*
G02*
X108460572Y-36275826I-176776J176776D01*
G01*
X107824174Y-35639428D01*
G75*
G02*
X107824174Y-35285876I176776J176776D01*
G01*
X108195406Y-34914644D01*
G75*
G02*
X108548958Y-34914644I176776J-176776D01*
G01*
G37*
G36*
G01*
X109839428Y-33624174D02*
X110475826Y-34260572D01*
G75*
G02*
X110475826Y-34614124I-176776J-176776D01*
G01*
X110104594Y-34985356D01*
G75*
G02*
X109751042Y-34985356I-176776J176776D01*
G01*
X109114644Y-34348958D01*
G75*
G02*
X109114644Y-33995406I176776J176776D01*
G01*
X109485876Y-33624174D01*
G75*
G02*
X109839428Y-33624174I176776J-176776D01*
G01*
G37*
%TD*%
%TO.C,R8*%
G36*
G01*
X111048958Y-34814644D02*
X111685356Y-35451042D01*
G75*
G02*
X111685356Y-35804594I-176776J-176776D01*
G01*
X111314124Y-36175826D01*
G75*
G02*
X110960572Y-36175826I-176776J176776D01*
G01*
X110324174Y-35539428D01*
G75*
G02*
X110324174Y-35185876I176776J176776D01*
G01*
X110695406Y-34814644D01*
G75*
G02*
X111048958Y-34814644I176776J-176776D01*
G01*
G37*
G36*
G01*
X112339428Y-33524174D02*
X112975826Y-34160572D01*
G75*
G02*
X112975826Y-34514124I-176776J-176776D01*
G01*
X112604594Y-34885356D01*
G75*
G02*
X112251042Y-34885356I-176776J176776D01*
G01*
X111614644Y-34248958D01*
G75*
G02*
X111614644Y-33895406I176776J176776D01*
G01*
X111985876Y-33524174D01*
G75*
G02*
X112339428Y-33524174I176776J-176776D01*
G01*
G37*
%TD*%
%TO.C,R7*%
G36*
G01*
X115035356Y-34248958D02*
X114398958Y-34885356D01*
G75*
G02*
X114045406Y-34885356I-176776J176776D01*
G01*
X113674174Y-34514124D01*
G75*
G02*
X113674174Y-34160572I176776J176776D01*
G01*
X114310572Y-33524174D01*
G75*
G02*
X114664124Y-33524174I176776J-176776D01*
G01*
X115035356Y-33895406D01*
G75*
G02*
X115035356Y-34248958I-176776J-176776D01*
G01*
G37*
G36*
G01*
X116325826Y-35539428D02*
X115689428Y-36175826D01*
G75*
G02*
X115335876Y-36175826I-176776J176776D01*
G01*
X114964644Y-35804594D01*
G75*
G02*
X114964644Y-35451042I176776J176776D01*
G01*
X115601042Y-34814644D01*
G75*
G02*
X115954594Y-34814644I176776J-176776D01*
G01*
X116325826Y-35185876D01*
G75*
G02*
X116325826Y-35539428I-176776J-176776D01*
G01*
G37*
%TD*%
%TO.C,R2*%
G36*
G01*
X98450000Y-46049999D02*
X98450000Y-46950001D01*
G75*
G02*
X98200001Y-47200000I-249999J0D01*
G01*
X97674999Y-47200000D01*
G75*
G02*
X97425000Y-46950001I0J249999D01*
G01*
X97425000Y-46049999D01*
G75*
G02*
X97674999Y-45800000I249999J0D01*
G01*
X98200001Y-45800000D01*
G75*
G02*
X98450000Y-46049999I0J-249999D01*
G01*
G37*
G36*
G01*
X100275000Y-46049999D02*
X100275000Y-46950001D01*
G75*
G02*
X100025001Y-47200000I-249999J0D01*
G01*
X99499999Y-47200000D01*
G75*
G02*
X99250000Y-46950001I0J249999D01*
G01*
X99250000Y-46049999D01*
G75*
G02*
X99499999Y-45800000I249999J0D01*
G01*
X100025001Y-45800000D01*
G75*
G02*
X100275000Y-46049999I0J-249999D01*
G01*
G37*
%TD*%
%TO.C,R6*%
G36*
G01*
X78050000Y-43250001D02*
X78050000Y-42349999D01*
G75*
G02*
X78299999Y-42100000I249999J0D01*
G01*
X78825001Y-42100000D01*
G75*
G02*
X79075000Y-42349999I0J-249999D01*
G01*
X79075000Y-43250001D01*
G75*
G02*
X78825001Y-43500000I-249999J0D01*
G01*
X78299999Y-43500000D01*
G75*
G02*
X78050000Y-43250001I0J249999D01*
G01*
G37*
G36*
G01*
X76225000Y-43250001D02*
X76225000Y-42349999D01*
G75*
G02*
X76474999Y-42100000I249999J0D01*
G01*
X77000001Y-42100000D01*
G75*
G02*
X77250000Y-42349999I0J-249999D01*
G01*
X77250000Y-43250001D01*
G75*
G02*
X77000001Y-43500000I-249999J0D01*
G01*
X76474999Y-43500000D01*
G75*
G02*
X76225000Y-43250001I0J249999D01*
G01*
G37*
%TD*%
%TO.C,R5*%
G36*
G01*
X74849999Y-35600000D02*
X75750001Y-35600000D01*
G75*
G02*
X76000000Y-35849999I0J-249999D01*
G01*
X76000000Y-36375001D01*
G75*
G02*
X75750001Y-36625000I-249999J0D01*
G01*
X74849999Y-36625000D01*
G75*
G02*
X74600000Y-36375001I0J249999D01*
G01*
X74600000Y-35849999D01*
G75*
G02*
X74849999Y-35600000I249999J0D01*
G01*
G37*
G36*
G01*
X74849999Y-33775000D02*
X75750001Y-33775000D01*
G75*
G02*
X76000000Y-34024999I0J-249999D01*
G01*
X76000000Y-34550001D01*
G75*
G02*
X75750001Y-34800000I-249999J0D01*
G01*
X74849999Y-34800000D01*
G75*
G02*
X74600000Y-34550001I0J249999D01*
G01*
X74600000Y-34024999D01*
G75*
G02*
X74849999Y-33775000I249999J0D01*
G01*
G37*
%TD*%
%TO.C,R3*%
G36*
G01*
X64300001Y-36650000D02*
X63399999Y-36650000D01*
G75*
G02*
X63150000Y-36400001I0J249999D01*
G01*
X63150000Y-35874999D01*
G75*
G02*
X63399999Y-35625000I249999J0D01*
G01*
X64300001Y-35625000D01*
G75*
G02*
X64550000Y-35874999I0J-249999D01*
G01*
X64550000Y-36400001D01*
G75*
G02*
X64300001Y-36650000I-249999J0D01*
G01*
G37*
G36*
G01*
X64300001Y-38475000D02*
X63399999Y-38475000D01*
G75*
G02*
X63150000Y-38225001I0J249999D01*
G01*
X63150000Y-37699999D01*
G75*
G02*
X63399999Y-37450000I249999J0D01*
G01*
X64300001Y-37450000D01*
G75*
G02*
X64550000Y-37699999I0J-249999D01*
G01*
X64550000Y-38225001D01*
G75*
G02*
X64300001Y-38475000I-249999J0D01*
G01*
G37*
%TD*%
D13*
%TO.C,L1*%
X80750000Y-40625000D03*
X80750000Y-36475000D03*
%TD*%
%TO.C,D2*%
G36*
G01*
X101550000Y-46043750D02*
X101550000Y-46956250D01*
G75*
G02*
X101306250Y-47200000I-243750J0D01*
G01*
X100818750Y-47200000D01*
G75*
G02*
X100575000Y-46956250I0J243750D01*
G01*
X100575000Y-46043750D01*
G75*
G02*
X100818750Y-45800000I243750J0D01*
G01*
X101306250Y-45800000D01*
G75*
G02*
X101550000Y-46043750I0J-243750D01*
G01*
G37*
G36*
G01*
X103425000Y-46043750D02*
X103425000Y-46956250D01*
G75*
G02*
X103181250Y-47200000I-243750J0D01*
G01*
X102693750Y-47200000D01*
G75*
G02*
X102450000Y-46956250I0J243750D01*
G01*
X102450000Y-46043750D01*
G75*
G02*
X102693750Y-45800000I243750J0D01*
G01*
X103181250Y-45800000D01*
G75*
G02*
X103425000Y-46043750I0J-243750D01*
G01*
G37*
%TD*%
%TO.C,D3*%
G36*
G01*
X66000000Y-42093750D02*
X66000000Y-43006250D01*
G75*
G02*
X65756250Y-43250000I-243750J0D01*
G01*
X65268750Y-43250000D01*
G75*
G02*
X65025000Y-43006250I0J243750D01*
G01*
X65025000Y-42093750D01*
G75*
G02*
X65268750Y-41850000I243750J0D01*
G01*
X65756250Y-41850000D01*
G75*
G02*
X66000000Y-42093750I0J-243750D01*
G01*
G37*
G36*
G01*
X67875000Y-42093750D02*
X67875000Y-43006250D01*
G75*
G02*
X67631250Y-43250000I-243750J0D01*
G01*
X67143750Y-43250000D01*
G75*
G02*
X66900000Y-43006250I0J243750D01*
G01*
X66900000Y-42093750D01*
G75*
G02*
X67143750Y-41850000I243750J0D01*
G01*
X67631250Y-41850000D01*
G75*
G02*
X67875000Y-42093750I0J-243750D01*
G01*
G37*
%TD*%
%TO.C,D1*%
G36*
G01*
X101550000Y-48293750D02*
X101550000Y-49206250D01*
G75*
G02*
X101306250Y-49450000I-243750J0D01*
G01*
X100818750Y-49450000D01*
G75*
G02*
X100575000Y-49206250I0J243750D01*
G01*
X100575000Y-48293750D01*
G75*
G02*
X100818750Y-48050000I243750J0D01*
G01*
X101306250Y-48050000D01*
G75*
G02*
X101550000Y-48293750I0J-243750D01*
G01*
G37*
G36*
G01*
X103425000Y-48293750D02*
X103425000Y-49206250D01*
G75*
G02*
X103181250Y-49450000I-243750J0D01*
G01*
X102693750Y-49450000D01*
G75*
G02*
X102450000Y-49206250I0J243750D01*
G01*
X102450000Y-48293750D01*
G75*
G02*
X102693750Y-48050000I243750J0D01*
G01*
X103181250Y-48050000D01*
G75*
G02*
X103425000Y-48293750I0J-243750D01*
G01*
G37*
%TD*%
%TO.C,C18*%
G36*
G01*
X98532322Y-42654073D02*
X99204073Y-41982322D01*
G75*
G02*
X99557627Y-41982322I176777J-176777D01*
G01*
X99911180Y-42335875D01*
G75*
G02*
X99911180Y-42689429I-176777J-176777D01*
G01*
X99239429Y-43361180D01*
G75*
G02*
X98885875Y-43361180I-176777J176777D01*
G01*
X98532322Y-43007627D01*
G75*
G02*
X98532322Y-42654073I176777J176777D01*
G01*
G37*
G36*
G01*
X97188820Y-41310571D02*
X97860571Y-40638820D01*
G75*
G02*
X98214125Y-40638820I176777J-176777D01*
G01*
X98567678Y-40992373D01*
G75*
G02*
X98567678Y-41345927I-176777J-176777D01*
G01*
X97895927Y-42017678D01*
G75*
G02*
X97542373Y-42017678I-176777J176777D01*
G01*
X97188820Y-41664125D01*
G75*
G02*
X97188820Y-41310571I176777J176777D01*
G01*
G37*
%TD*%
%TO.C,C17*%
G36*
G01*
X99254073Y-37867678D02*
X98582322Y-37195927D01*
G75*
G02*
X98582322Y-36842373I176777J176777D01*
G01*
X98935875Y-36488820D01*
G75*
G02*
X99289429Y-36488820I176777J-176777D01*
G01*
X99961180Y-37160571D01*
G75*
G02*
X99961180Y-37514125I-176777J-176777D01*
G01*
X99607627Y-37867678D01*
G75*
G02*
X99254073Y-37867678I-176777J176777D01*
G01*
G37*
G36*
G01*
X97910571Y-39211180D02*
X97238820Y-38539429D01*
G75*
G02*
X97238820Y-38185875I176777J176777D01*
G01*
X97592373Y-37832322D01*
G75*
G02*
X97945927Y-37832322I176777J-176777D01*
G01*
X98617678Y-38504073D01*
G75*
G02*
X98617678Y-38857627I-176777J-176777D01*
G01*
X98264125Y-39211180D01*
G75*
G02*
X97910571Y-39211180I-176777J176777D01*
G01*
G37*
%TD*%
%TO.C,C12*%
G36*
G01*
X73300000Y-50175000D02*
X73300000Y-49225000D01*
G75*
G02*
X73550000Y-48975000I250000J0D01*
G01*
X74050000Y-48975000D01*
G75*
G02*
X74300000Y-49225000I0J-250000D01*
G01*
X74300000Y-50175000D01*
G75*
G02*
X74050000Y-50425000I-250000J0D01*
G01*
X73550000Y-50425000D01*
G75*
G02*
X73300000Y-50175000I0J250000D01*
G01*
G37*
G36*
G01*
X71400000Y-50175000D02*
X71400000Y-49225000D01*
G75*
G02*
X71650000Y-48975000I250000J0D01*
G01*
X72150000Y-48975000D01*
G75*
G02*
X72400000Y-49225000I0J-250000D01*
G01*
X72400000Y-50175000D01*
G75*
G02*
X72150000Y-50425000I-250000J0D01*
G01*
X71650000Y-50425000D01*
G75*
G02*
X71400000Y-50175000I0J250000D01*
G01*
G37*
%TD*%
%TO.C,C15*%
G36*
G01*
X111795927Y-47132322D02*
X112467678Y-47804073D01*
G75*
G02*
X112467678Y-48157627I-176777J-176777D01*
G01*
X112114125Y-48511180D01*
G75*
G02*
X111760571Y-48511180I-176777J176777D01*
G01*
X111088820Y-47839429D01*
G75*
G02*
X111088820Y-47485875I176777J176777D01*
G01*
X111442373Y-47132322D01*
G75*
G02*
X111795927Y-47132322I176777J-176777D01*
G01*
G37*
G36*
G01*
X113139429Y-45788820D02*
X113811180Y-46460571D01*
G75*
G02*
X113811180Y-46814125I-176777J-176777D01*
G01*
X113457627Y-47167678D01*
G75*
G02*
X113104073Y-47167678I-176777J176777D01*
G01*
X112432322Y-46495927D01*
G75*
G02*
X112432322Y-46142373I176777J176777D01*
G01*
X112785875Y-45788820D01*
G75*
G02*
X113139429Y-45788820I176777J-176777D01*
G01*
G37*
%TD*%
%TO.C,C10*%
G36*
G01*
X102295927Y-35582322D02*
X102967678Y-36254073D01*
G75*
G02*
X102967678Y-36607627I-176777J-176777D01*
G01*
X102614125Y-36961180D01*
G75*
G02*
X102260571Y-36961180I-176777J176777D01*
G01*
X101588820Y-36289429D01*
G75*
G02*
X101588820Y-35935875I176777J176777D01*
G01*
X101942373Y-35582322D01*
G75*
G02*
X102295927Y-35582322I176777J-176777D01*
G01*
G37*
G36*
G01*
X103639429Y-34238820D02*
X104311180Y-34910571D01*
G75*
G02*
X104311180Y-35264125I-176777J-176777D01*
G01*
X103957627Y-35617678D01*
G75*
G02*
X103604073Y-35617678I-176777J176777D01*
G01*
X102932322Y-34945927D01*
G75*
G02*
X102932322Y-34592373I176777J176777D01*
G01*
X103285875Y-34238820D01*
G75*
G02*
X103639429Y-34238820I176777J-176777D01*
G01*
G37*
%TD*%
%TO.C,C8*%
G36*
G01*
X84075000Y-44700000D02*
X83125000Y-44700000D01*
G75*
G02*
X82875000Y-44450000I0J250000D01*
G01*
X82875000Y-43950000D01*
G75*
G02*
X83125000Y-43700000I250000J0D01*
G01*
X84075000Y-43700000D01*
G75*
G02*
X84325000Y-43950000I0J-250000D01*
G01*
X84325000Y-44450000D01*
G75*
G02*
X84075000Y-44700000I-250000J0D01*
G01*
G37*
G36*
G01*
X84075000Y-46600000D02*
X83125000Y-46600000D01*
G75*
G02*
X82875000Y-46350000I0J250000D01*
G01*
X82875000Y-45850000D01*
G75*
G02*
X83125000Y-45600000I250000J0D01*
G01*
X84075000Y-45600000D01*
G75*
G02*
X84325000Y-45850000I0J-250000D01*
G01*
X84325000Y-46350000D01*
G75*
G02*
X84075000Y-46600000I-250000J0D01*
G01*
G37*
%TD*%
%TO.C,C6*%
G36*
G01*
X66900000Y-37325000D02*
X66900000Y-36375000D01*
G75*
G02*
X67150000Y-36125000I250000J0D01*
G01*
X67650000Y-36125000D01*
G75*
G02*
X67900000Y-36375000I0J-250000D01*
G01*
X67900000Y-37325000D01*
G75*
G02*
X67650000Y-37575000I-250000J0D01*
G01*
X67150000Y-37575000D01*
G75*
G02*
X66900000Y-37325000I0J250000D01*
G01*
G37*
G36*
G01*
X65000000Y-37325000D02*
X65000000Y-36375000D01*
G75*
G02*
X65250000Y-36125000I250000J0D01*
G01*
X65750000Y-36125000D01*
G75*
G02*
X66000000Y-36375000I0J-250000D01*
G01*
X66000000Y-37325000D01*
G75*
G02*
X65750000Y-37575000I-250000J0D01*
G01*
X65250000Y-37575000D01*
G75*
G02*
X65000000Y-37325000I0J250000D01*
G01*
G37*
%TD*%
%TO.C,C4*%
G36*
G01*
X61475000Y-37450000D02*
X62425000Y-37450000D01*
G75*
G02*
X62675000Y-37700000I0J-250000D01*
G01*
X62675000Y-38200000D01*
G75*
G02*
X62425000Y-38450000I-250000J0D01*
G01*
X61475000Y-38450000D01*
G75*
G02*
X61225000Y-38200000I0J250000D01*
G01*
X61225000Y-37700000D01*
G75*
G02*
X61475000Y-37450000I250000J0D01*
G01*
G37*
G36*
G01*
X61475000Y-35550000D02*
X62425000Y-35550000D01*
G75*
G02*
X62675000Y-35800000I0J-250000D01*
G01*
X62675000Y-36300000D01*
G75*
G02*
X62425000Y-36550000I-250000J0D01*
G01*
X61475000Y-36550000D01*
G75*
G02*
X61225000Y-36300000I0J250000D01*
G01*
X61225000Y-35800000D01*
G75*
G02*
X61475000Y-35550000I250000J0D01*
G01*
G37*
%TD*%
%TO.C,C3*%
G36*
G01*
X113554073Y-36217678D02*
X112882322Y-35545927D01*
G75*
G02*
X112882322Y-35192373I176777J176777D01*
G01*
X113235875Y-34838820D01*
G75*
G02*
X113589429Y-34838820I176777J-176777D01*
G01*
X114261180Y-35510571D01*
G75*
G02*
X114261180Y-35864125I-176777J-176777D01*
G01*
X113907627Y-36217678D01*
G75*
G02*
X113554073Y-36217678I-176777J176777D01*
G01*
G37*
G36*
G01*
X112210571Y-37561180D02*
X111538820Y-36889429D01*
G75*
G02*
X111538820Y-36535875I176777J176777D01*
G01*
X111892373Y-36182322D01*
G75*
G02*
X112245927Y-36182322I176777J-176777D01*
G01*
X112917678Y-36854073D01*
G75*
G02*
X112917678Y-37207627I-176777J-176777D01*
G01*
X112564125Y-37561180D01*
G75*
G02*
X112210571Y-37561180I-176777J176777D01*
G01*
G37*
%TD*%
%TO.C,C2*%
G36*
G01*
X62250000Y-49825000D02*
X62250000Y-50775000D01*
G75*
G02*
X62000000Y-51025000I-250000J0D01*
G01*
X61500000Y-51025000D01*
G75*
G02*
X61250000Y-50775000I0J250000D01*
G01*
X61250000Y-49825000D01*
G75*
G02*
X61500000Y-49575000I250000J0D01*
G01*
X62000000Y-49575000D01*
G75*
G02*
X62250000Y-49825000I0J-250000D01*
G01*
G37*
G36*
G01*
X64150000Y-49825000D02*
X64150000Y-50775000D01*
G75*
G02*
X63900000Y-51025000I-250000J0D01*
G01*
X63400000Y-51025000D01*
G75*
G02*
X63150000Y-50775000I0J250000D01*
G01*
X63150000Y-49825000D01*
G75*
G02*
X63400000Y-49575000I250000J0D01*
G01*
X63900000Y-49575000D01*
G75*
G02*
X64150000Y-49825000I0J-250000D01*
G01*
G37*
%TD*%
%TO.C,C1*%
G36*
G01*
X57750000Y-45075000D02*
X57750000Y-44125000D01*
G75*
G02*
X58000000Y-43875000I250000J0D01*
G01*
X58500000Y-43875000D01*
G75*
G02*
X58750000Y-44125000I0J-250000D01*
G01*
X58750000Y-45075000D01*
G75*
G02*
X58500000Y-45325000I-250000J0D01*
G01*
X58000000Y-45325000D01*
G75*
G02*
X57750000Y-45075000I0J250000D01*
G01*
G37*
G36*
G01*
X55850000Y-45075000D02*
X55850000Y-44125000D01*
G75*
G02*
X56100000Y-43875000I250000J0D01*
G01*
X56600000Y-43875000D01*
G75*
G02*
X56850000Y-44125000I0J-250000D01*
G01*
X56850000Y-45075000D01*
G75*
G02*
X56600000Y-45325000I-250000J0D01*
G01*
X56100000Y-45325000D01*
G75*
G02*
X55850000Y-45075000I0J250000D01*
G01*
G37*
%TD*%
D16*
%TO.C,BT1*%
X61636000Y-42000000D03*
X117255000Y-42000000D03*
D15*
X125900000Y-42000000D03*
D14*
X53000000Y-42000000D03*
%TD*%
M02*
