%TF.GenerationSoftware,KiCad,Pcbnew,(5.1.9)-1*%
%TF.CreationDate,2021-03-26T17:47:29+08:00*%
%TF.ProjectId,final project,66696e61-6c20-4707-926f-6a6563742e6b,rev?*%
%TF.SameCoordinates,Original*%
%TF.FileFunction,Paste,Top*%
%TF.FilePolarity,Positive*%
%FSLAX46Y46*%
G04 Gerber Fmt 4.6, Leading zero omitted, Abs format (unit mm)*
G04 Created by KiCad (PCBNEW (5.1.9)-1) date 2021-03-26 17:47:29*
%MOMM*%
%LPD*%
G01*
G04 APERTURE LIST*
%ADD10R,1.000000X2.000000*%
%ADD11R,0.600000X1.450000*%
%ADD12R,0.300000X1.450000*%
%ADD13R,1.500000X1.500000*%
%ADD14R,0.550000X1.600000*%
%ADD15R,1.600000X0.550000*%
%ADD16R,2.350000X5.100000*%
G04 APERTURE END LIST*
D10*
%TO.C,U6*%
X119010000Y-51100000D03*
X120280000Y-51100000D03*
X121550000Y-51100000D03*
X122820000Y-51100000D03*
X124090000Y-51100000D03*
X125360000Y-51100000D03*
X126630000Y-51100000D03*
X127900000Y-51100000D03*
%TD*%
D11*
%TO.C,USB1*%
X135825000Y-57145000D03*
X142275000Y-57145000D03*
X136600000Y-57145000D03*
X141500000Y-57145000D03*
D12*
X140800000Y-57145000D03*
X137300000Y-57145000D03*
X140300000Y-57145000D03*
X137800000Y-57145000D03*
X139800000Y-57145000D03*
X138300000Y-57145000D03*
X138800000Y-57145000D03*
X139300000Y-57145000D03*
%TD*%
%TO.C,U2*%
G36*
G01*
X162270000Y-54035000D02*
X162270000Y-53265000D01*
G75*
G02*
X162510000Y-53025000I240000J0D01*
G01*
X162990000Y-53025000D01*
G75*
G02*
X163230000Y-53265000I0J-240000D01*
G01*
X163230000Y-54035000D01*
G75*
G02*
X162990000Y-54275000I-240000J0D01*
G01*
X162510000Y-54275000D01*
G75*
G02*
X162270000Y-54035000I0J240000D01*
G01*
G37*
G36*
G01*
X162270000Y-52535000D02*
X162270000Y-51765000D01*
G75*
G02*
X162510000Y-51525000I240000J0D01*
G01*
X162990000Y-51525000D01*
G75*
G02*
X163230000Y-51765000I0J-240000D01*
G01*
X163230000Y-52535000D01*
G75*
G02*
X162990000Y-52775000I-240000J0D01*
G01*
X162510000Y-52775000D01*
G75*
G02*
X162270000Y-52535000I0J240000D01*
G01*
G37*
G36*
G01*
X161130000Y-54035000D02*
X161130000Y-53265000D01*
G75*
G02*
X161370000Y-53025000I240000J0D01*
G01*
X161850000Y-53025000D01*
G75*
G02*
X162090000Y-53265000I0J-240000D01*
G01*
X162090000Y-54035000D01*
G75*
G02*
X161850000Y-54275000I-240000J0D01*
G01*
X161370000Y-54275000D01*
G75*
G02*
X161130000Y-54035000I0J240000D01*
G01*
G37*
G36*
G01*
X161130000Y-52535000D02*
X161130000Y-51765000D01*
G75*
G02*
X161370000Y-51525000I240000J0D01*
G01*
X161850000Y-51525000D01*
G75*
G02*
X162090000Y-51765000I0J-240000D01*
G01*
X162090000Y-52535000D01*
G75*
G02*
X161850000Y-52775000I-240000J0D01*
G01*
X161370000Y-52775000D01*
G75*
G02*
X161130000Y-52535000I0J240000D01*
G01*
G37*
G36*
G01*
X163680000Y-51145000D02*
X163680000Y-50845000D01*
G75*
G02*
X163830000Y-50695000I150000J0D01*
G01*
X165480000Y-50695000D01*
G75*
G02*
X165630000Y-50845000I0J-150000D01*
G01*
X165630000Y-51145000D01*
G75*
G02*
X165480000Y-51295000I-150000J0D01*
G01*
X163830000Y-51295000D01*
G75*
G02*
X163680000Y-51145000I0J150000D01*
G01*
G37*
G36*
G01*
X163680000Y-52415000D02*
X163680000Y-52115000D01*
G75*
G02*
X163830000Y-51965000I150000J0D01*
G01*
X165480000Y-51965000D01*
G75*
G02*
X165630000Y-52115000I0J-150000D01*
G01*
X165630000Y-52415000D01*
G75*
G02*
X165480000Y-52565000I-150000J0D01*
G01*
X163830000Y-52565000D01*
G75*
G02*
X163680000Y-52415000I0J150000D01*
G01*
G37*
G36*
G01*
X163680000Y-53685000D02*
X163680000Y-53385000D01*
G75*
G02*
X163830000Y-53235000I150000J0D01*
G01*
X165480000Y-53235000D01*
G75*
G02*
X165630000Y-53385000I0J-150000D01*
G01*
X165630000Y-53685000D01*
G75*
G02*
X165480000Y-53835000I-150000J0D01*
G01*
X163830000Y-53835000D01*
G75*
G02*
X163680000Y-53685000I0J150000D01*
G01*
G37*
G36*
G01*
X163680000Y-54955000D02*
X163680000Y-54655000D01*
G75*
G02*
X163830000Y-54505000I150000J0D01*
G01*
X165480000Y-54505000D01*
G75*
G02*
X165630000Y-54655000I0J-150000D01*
G01*
X165630000Y-54955000D01*
G75*
G02*
X165480000Y-55105000I-150000J0D01*
G01*
X163830000Y-55105000D01*
G75*
G02*
X163680000Y-54955000I0J150000D01*
G01*
G37*
G36*
G01*
X158730000Y-54955000D02*
X158730000Y-54655000D01*
G75*
G02*
X158880000Y-54505000I150000J0D01*
G01*
X160530000Y-54505000D01*
G75*
G02*
X160680000Y-54655000I0J-150000D01*
G01*
X160680000Y-54955000D01*
G75*
G02*
X160530000Y-55105000I-150000J0D01*
G01*
X158880000Y-55105000D01*
G75*
G02*
X158730000Y-54955000I0J150000D01*
G01*
G37*
G36*
G01*
X158730000Y-53685000D02*
X158730000Y-53385000D01*
G75*
G02*
X158880000Y-53235000I150000J0D01*
G01*
X160530000Y-53235000D01*
G75*
G02*
X160680000Y-53385000I0J-150000D01*
G01*
X160680000Y-53685000D01*
G75*
G02*
X160530000Y-53835000I-150000J0D01*
G01*
X158880000Y-53835000D01*
G75*
G02*
X158730000Y-53685000I0J150000D01*
G01*
G37*
G36*
G01*
X158730000Y-52415000D02*
X158730000Y-52115000D01*
G75*
G02*
X158880000Y-51965000I150000J0D01*
G01*
X160530000Y-51965000D01*
G75*
G02*
X160680000Y-52115000I0J-150000D01*
G01*
X160680000Y-52415000D01*
G75*
G02*
X160530000Y-52565000I-150000J0D01*
G01*
X158880000Y-52565000D01*
G75*
G02*
X158730000Y-52415000I0J150000D01*
G01*
G37*
G36*
G01*
X158730000Y-51145000D02*
X158730000Y-50845000D01*
G75*
G02*
X158880000Y-50695000I150000J0D01*
G01*
X160530000Y-50695000D01*
G75*
G02*
X160680000Y-50845000I0J-150000D01*
G01*
X160680000Y-51145000D01*
G75*
G02*
X160530000Y-51295000I-150000J0D01*
G01*
X158880000Y-51295000D01*
G75*
G02*
X158730000Y-51145000I0J150000D01*
G01*
G37*
%TD*%
D13*
%TO.C,SW2*%
X154600000Y-51650000D03*
X146800000Y-51650000D03*
%TD*%
%TO.C,SW1*%
X173700000Y-67050000D03*
X165900000Y-67050000D03*
%TD*%
D14*
%TO.C,U5*%
X140150000Y-68350000D03*
X139350000Y-68350000D03*
X138550000Y-68350000D03*
X137750000Y-68350000D03*
X136950000Y-68350000D03*
X136150000Y-68350000D03*
X135350000Y-68350000D03*
X134550000Y-68350000D03*
D15*
X133100000Y-66900000D03*
X133100000Y-66100000D03*
X133100000Y-65300000D03*
X133100000Y-64500000D03*
X133100000Y-63700000D03*
X133100000Y-62900000D03*
X133100000Y-62100000D03*
X133100000Y-61300000D03*
D14*
X134550000Y-59850000D03*
X135350000Y-59850000D03*
X136150000Y-59850000D03*
X136950000Y-59850000D03*
X137750000Y-59850000D03*
X138550000Y-59850000D03*
X139350000Y-59850000D03*
X140150000Y-59850000D03*
D15*
X141600000Y-61300000D03*
X141600000Y-62100000D03*
X141600000Y-62900000D03*
X141600000Y-63700000D03*
X141600000Y-64500000D03*
X141600000Y-65300000D03*
X141600000Y-66100000D03*
X141600000Y-66900000D03*
%TD*%
%TO.C,R5*%
G36*
G01*
X168850001Y-58650000D02*
X167949999Y-58650000D01*
G75*
G02*
X167700000Y-58400001I0J249999D01*
G01*
X167700000Y-57874999D01*
G75*
G02*
X167949999Y-57625000I249999J0D01*
G01*
X168850001Y-57625000D01*
G75*
G02*
X169100000Y-57874999I0J-249999D01*
G01*
X169100000Y-58400001D01*
G75*
G02*
X168850001Y-58650000I-249999J0D01*
G01*
G37*
G36*
G01*
X168850001Y-60475000D02*
X167949999Y-60475000D01*
G75*
G02*
X167700000Y-60225001I0J249999D01*
G01*
X167700000Y-59699999D01*
G75*
G02*
X167949999Y-59450000I249999J0D01*
G01*
X168850001Y-59450000D01*
G75*
G02*
X169100000Y-59699999I0J-249999D01*
G01*
X169100000Y-60225001D01*
G75*
G02*
X168850001Y-60475000I-249999J0D01*
G01*
G37*
%TD*%
%TO.C,R4*%
G36*
G01*
X148225000Y-66650001D02*
X148225000Y-65749999D01*
G75*
G02*
X148474999Y-65500000I249999J0D01*
G01*
X149000001Y-65500000D01*
G75*
G02*
X149250000Y-65749999I0J-249999D01*
G01*
X149250000Y-66650001D01*
G75*
G02*
X149000001Y-66900000I-249999J0D01*
G01*
X148474999Y-66900000D01*
G75*
G02*
X148225000Y-66650001I0J249999D01*
G01*
G37*
G36*
G01*
X146400000Y-66650001D02*
X146400000Y-65749999D01*
G75*
G02*
X146649999Y-65500000I249999J0D01*
G01*
X147175001Y-65500000D01*
G75*
G02*
X147425000Y-65749999I0J-249999D01*
G01*
X147425000Y-66650001D01*
G75*
G02*
X147175001Y-66900000I-249999J0D01*
G01*
X146649999Y-66900000D01*
G75*
G02*
X146400000Y-66650001I0J249999D01*
G01*
G37*
%TD*%
%TO.C,R2*%
G36*
G01*
X163550001Y-66800000D02*
X162649999Y-66800000D01*
G75*
G02*
X162400000Y-66550001I0J249999D01*
G01*
X162400000Y-66024999D01*
G75*
G02*
X162649999Y-65775000I249999J0D01*
G01*
X163550001Y-65775000D01*
G75*
G02*
X163800000Y-66024999I0J-249999D01*
G01*
X163800000Y-66550001D01*
G75*
G02*
X163550001Y-66800000I-249999J0D01*
G01*
G37*
G36*
G01*
X163550001Y-68625000D02*
X162649999Y-68625000D01*
G75*
G02*
X162400000Y-68375001I0J249999D01*
G01*
X162400000Y-67849999D01*
G75*
G02*
X162649999Y-67600000I249999J0D01*
G01*
X163550001Y-67600000D01*
G75*
G02*
X163800000Y-67849999I0J-249999D01*
G01*
X163800000Y-68375001D01*
G75*
G02*
X163550001Y-68625000I-249999J0D01*
G01*
G37*
%TD*%
D16*
%TO.C,L1*%
X172775000Y-52550000D03*
X168625000Y-52550000D03*
%TD*%
%TO.C,D7*%
G36*
G01*
X115198750Y-57690000D02*
X116111250Y-57690000D01*
G75*
G02*
X116355000Y-57933750I0J-243750D01*
G01*
X116355000Y-58421250D01*
G75*
G02*
X116111250Y-58665000I-243750J0D01*
G01*
X115198750Y-58665000D01*
G75*
G02*
X114955000Y-58421250I0J243750D01*
G01*
X114955000Y-57933750D01*
G75*
G02*
X115198750Y-57690000I243750J0D01*
G01*
G37*
G36*
G01*
X115198750Y-55815000D02*
X116111250Y-55815000D01*
G75*
G02*
X116355000Y-56058750I0J-243750D01*
G01*
X116355000Y-56546250D01*
G75*
G02*
X116111250Y-56790000I-243750J0D01*
G01*
X115198750Y-56790000D01*
G75*
G02*
X114955000Y-56546250I0J243750D01*
G01*
X114955000Y-56058750D01*
G75*
G02*
X115198750Y-55815000I243750J0D01*
G01*
G37*
%TD*%
%TO.C,D6*%
G36*
G01*
X168856250Y-62150000D02*
X167943750Y-62150000D01*
G75*
G02*
X167700000Y-61906250I0J243750D01*
G01*
X167700000Y-61418750D01*
G75*
G02*
X167943750Y-61175000I243750J0D01*
G01*
X168856250Y-61175000D01*
G75*
G02*
X169100000Y-61418750I0J-243750D01*
G01*
X169100000Y-61906250D01*
G75*
G02*
X168856250Y-62150000I-243750J0D01*
G01*
G37*
G36*
G01*
X168856250Y-64025000D02*
X167943750Y-64025000D01*
G75*
G02*
X167700000Y-63781250I0J243750D01*
G01*
X167700000Y-63293750D01*
G75*
G02*
X167943750Y-63050000I243750J0D01*
G01*
X168856250Y-63050000D01*
G75*
G02*
X169100000Y-63293750I0J-243750D01*
G01*
X169100000Y-63781250D01*
G75*
G02*
X168856250Y-64025000I-243750J0D01*
G01*
G37*
%TD*%
%TO.C,D5*%
G36*
G01*
X154343750Y-56100000D02*
X155256250Y-56100000D01*
G75*
G02*
X155500000Y-56343750I0J-243750D01*
G01*
X155500000Y-56831250D01*
G75*
G02*
X155256250Y-57075000I-243750J0D01*
G01*
X154343750Y-57075000D01*
G75*
G02*
X154100000Y-56831250I0J243750D01*
G01*
X154100000Y-56343750D01*
G75*
G02*
X154343750Y-56100000I243750J0D01*
G01*
G37*
G36*
G01*
X154343750Y-54225000D02*
X155256250Y-54225000D01*
G75*
G02*
X155500000Y-54468750I0J-243750D01*
G01*
X155500000Y-54956250D01*
G75*
G02*
X155256250Y-55200000I-243750J0D01*
G01*
X154343750Y-55200000D01*
G75*
G02*
X154100000Y-54956250I0J243750D01*
G01*
X154100000Y-54468750D01*
G75*
G02*
X154343750Y-54225000I243750J0D01*
G01*
G37*
%TD*%
%TO.C,D4*%
G36*
G01*
X152806250Y-55200000D02*
X151893750Y-55200000D01*
G75*
G02*
X151650000Y-54956250I0J243750D01*
G01*
X151650000Y-54468750D01*
G75*
G02*
X151893750Y-54225000I243750J0D01*
G01*
X152806250Y-54225000D01*
G75*
G02*
X153050000Y-54468750I0J-243750D01*
G01*
X153050000Y-54956250D01*
G75*
G02*
X152806250Y-55200000I-243750J0D01*
G01*
G37*
G36*
G01*
X152806250Y-57075000D02*
X151893750Y-57075000D01*
G75*
G02*
X151650000Y-56831250I0J243750D01*
G01*
X151650000Y-56343750D01*
G75*
G02*
X151893750Y-56100000I243750J0D01*
G01*
X152806250Y-56100000D01*
G75*
G02*
X153050000Y-56343750I0J-243750D01*
G01*
X153050000Y-56831250D01*
G75*
G02*
X152806250Y-57075000I-243750J0D01*
G01*
G37*
%TD*%
%TO.C,D3*%
G36*
G01*
X149443750Y-56150000D02*
X150356250Y-56150000D01*
G75*
G02*
X150600000Y-56393750I0J-243750D01*
G01*
X150600000Y-56881250D01*
G75*
G02*
X150356250Y-57125000I-243750J0D01*
G01*
X149443750Y-57125000D01*
G75*
G02*
X149200000Y-56881250I0J243750D01*
G01*
X149200000Y-56393750D01*
G75*
G02*
X149443750Y-56150000I243750J0D01*
G01*
G37*
G36*
G01*
X149443750Y-54275000D02*
X150356250Y-54275000D01*
G75*
G02*
X150600000Y-54518750I0J-243750D01*
G01*
X150600000Y-55006250D01*
G75*
G02*
X150356250Y-55250000I-243750J0D01*
G01*
X149443750Y-55250000D01*
G75*
G02*
X149200000Y-55006250I0J243750D01*
G01*
X149200000Y-54518750D01*
G75*
G02*
X149443750Y-54275000I243750J0D01*
G01*
G37*
%TD*%
%TO.C,D2*%
G36*
G01*
X147806250Y-55200000D02*
X146893750Y-55200000D01*
G75*
G02*
X146650000Y-54956250I0J243750D01*
G01*
X146650000Y-54468750D01*
G75*
G02*
X146893750Y-54225000I243750J0D01*
G01*
X147806250Y-54225000D01*
G75*
G02*
X148050000Y-54468750I0J-243750D01*
G01*
X148050000Y-54956250D01*
G75*
G02*
X147806250Y-55200000I-243750J0D01*
G01*
G37*
G36*
G01*
X147806250Y-57075000D02*
X146893750Y-57075000D01*
G75*
G02*
X146650000Y-56831250I0J243750D01*
G01*
X146650000Y-56343750D01*
G75*
G02*
X146893750Y-56100000I243750J0D01*
G01*
X147806250Y-56100000D01*
G75*
G02*
X148050000Y-56343750I0J-243750D01*
G01*
X148050000Y-56831250D01*
G75*
G02*
X147806250Y-57075000I-243750J0D01*
G01*
G37*
%TD*%
%TO.C,D1*%
G36*
G01*
X132393750Y-52150000D02*
X133306250Y-52150000D01*
G75*
G02*
X133550000Y-52393750I0J-243750D01*
G01*
X133550000Y-52881250D01*
G75*
G02*
X133306250Y-53125000I-243750J0D01*
G01*
X132393750Y-53125000D01*
G75*
G02*
X132150000Y-52881250I0J243750D01*
G01*
X132150000Y-52393750D01*
G75*
G02*
X132393750Y-52150000I243750J0D01*
G01*
G37*
G36*
G01*
X132393750Y-50275000D02*
X133306250Y-50275000D01*
G75*
G02*
X133550000Y-50518750I0J-243750D01*
G01*
X133550000Y-51006250D01*
G75*
G02*
X133306250Y-51250000I-243750J0D01*
G01*
X132393750Y-51250000D01*
G75*
G02*
X132150000Y-51006250I0J243750D01*
G01*
X132150000Y-50518750D01*
G75*
G02*
X132393750Y-50275000I243750J0D01*
G01*
G37*
%TD*%
%TO.C,C21*%
G36*
G01*
X146525000Y-61250000D02*
X145575000Y-61250000D01*
G75*
G02*
X145325000Y-61000000I0J250000D01*
G01*
X145325000Y-60500000D01*
G75*
G02*
X145575000Y-60250000I250000J0D01*
G01*
X146525000Y-60250000D01*
G75*
G02*
X146775000Y-60500000I0J-250000D01*
G01*
X146775000Y-61000000D01*
G75*
G02*
X146525000Y-61250000I-250000J0D01*
G01*
G37*
G36*
G01*
X146525000Y-63150000D02*
X145575000Y-63150000D01*
G75*
G02*
X145325000Y-62900000I0J250000D01*
G01*
X145325000Y-62400000D01*
G75*
G02*
X145575000Y-62150000I250000J0D01*
G01*
X146525000Y-62150000D01*
G75*
G02*
X146775000Y-62400000I0J-250000D01*
G01*
X146775000Y-62900000D01*
G75*
G02*
X146525000Y-63150000I-250000J0D01*
G01*
G37*
%TD*%
%TO.C,C20*%
G36*
G01*
X143375000Y-62150000D02*
X144325000Y-62150000D01*
G75*
G02*
X144575000Y-62400000I0J-250000D01*
G01*
X144575000Y-62900000D01*
G75*
G02*
X144325000Y-63150000I-250000J0D01*
G01*
X143375000Y-63150000D01*
G75*
G02*
X143125000Y-62900000I0J250000D01*
G01*
X143125000Y-62400000D01*
G75*
G02*
X143375000Y-62150000I250000J0D01*
G01*
G37*
G36*
G01*
X143375000Y-60250000D02*
X144325000Y-60250000D01*
G75*
G02*
X144575000Y-60500000I0J-250000D01*
G01*
X144575000Y-61000000D01*
G75*
G02*
X144325000Y-61250000I-250000J0D01*
G01*
X143375000Y-61250000D01*
G75*
G02*
X143125000Y-61000000I0J250000D01*
G01*
X143125000Y-60500000D01*
G75*
G02*
X143375000Y-60250000I250000J0D01*
G01*
G37*
%TD*%
%TO.C,C14*%
G36*
G01*
X151950000Y-63275000D02*
X151950000Y-62325000D01*
G75*
G02*
X152200000Y-62075000I250000J0D01*
G01*
X152700000Y-62075000D01*
G75*
G02*
X152950000Y-62325000I0J-250000D01*
G01*
X152950000Y-63275000D01*
G75*
G02*
X152700000Y-63525000I-250000J0D01*
G01*
X152200000Y-63525000D01*
G75*
G02*
X151950000Y-63275000I0J250000D01*
G01*
G37*
G36*
G01*
X150050000Y-63275000D02*
X150050000Y-62325000D01*
G75*
G02*
X150300000Y-62075000I250000J0D01*
G01*
X150800000Y-62075000D01*
G75*
G02*
X151050000Y-62325000I0J-250000D01*
G01*
X151050000Y-63275000D01*
G75*
G02*
X150800000Y-63525000I-250000J0D01*
G01*
X150300000Y-63525000D01*
G75*
G02*
X150050000Y-63275000I0J250000D01*
G01*
G37*
%TD*%
%TO.C,C13*%
G36*
G01*
X172500000Y-64225000D02*
X172500000Y-63275000D01*
G75*
G02*
X172750000Y-63025000I250000J0D01*
G01*
X173250000Y-63025000D01*
G75*
G02*
X173500000Y-63275000I0J-250000D01*
G01*
X173500000Y-64225000D01*
G75*
G02*
X173250000Y-64475000I-250000J0D01*
G01*
X172750000Y-64475000D01*
G75*
G02*
X172500000Y-64225000I0J250000D01*
G01*
G37*
G36*
G01*
X170600000Y-64225000D02*
X170600000Y-63275000D01*
G75*
G02*
X170850000Y-63025000I250000J0D01*
G01*
X171350000Y-63025000D01*
G75*
G02*
X171600000Y-63275000I0J-250000D01*
G01*
X171600000Y-64225000D01*
G75*
G02*
X171350000Y-64475000I-250000J0D01*
G01*
X170850000Y-64475000D01*
G75*
G02*
X170600000Y-64225000I0J250000D01*
G01*
G37*
%TD*%
%TO.C,C10*%
G36*
G01*
X157100000Y-63375000D02*
X157100000Y-62425000D01*
G75*
G02*
X157350000Y-62175000I250000J0D01*
G01*
X157850000Y-62175000D01*
G75*
G02*
X158100000Y-62425000I0J-250000D01*
G01*
X158100000Y-63375000D01*
G75*
G02*
X157850000Y-63625000I-250000J0D01*
G01*
X157350000Y-63625000D01*
G75*
G02*
X157100000Y-63375000I0J250000D01*
G01*
G37*
G36*
G01*
X155200000Y-63375000D02*
X155200000Y-62425000D01*
G75*
G02*
X155450000Y-62175000I250000J0D01*
G01*
X155950000Y-62175000D01*
G75*
G02*
X156200000Y-62425000I0J-250000D01*
G01*
X156200000Y-63375000D01*
G75*
G02*
X155950000Y-63625000I-250000J0D01*
G01*
X155450000Y-63625000D01*
G75*
G02*
X155200000Y-63375000I0J250000D01*
G01*
G37*
%TD*%
%TO.C,C8*%
G36*
G01*
X155350000Y-65025000D02*
X155350000Y-65975000D01*
G75*
G02*
X155100000Y-66225000I-250000J0D01*
G01*
X154600000Y-66225000D01*
G75*
G02*
X154350000Y-65975000I0J250000D01*
G01*
X154350000Y-65025000D01*
G75*
G02*
X154600000Y-64775000I250000J0D01*
G01*
X155100000Y-64775000D01*
G75*
G02*
X155350000Y-65025000I0J-250000D01*
G01*
G37*
G36*
G01*
X157250000Y-65025000D02*
X157250000Y-65975000D01*
G75*
G02*
X157000000Y-66225000I-250000J0D01*
G01*
X156500000Y-66225000D01*
G75*
G02*
X156250000Y-65975000I0J250000D01*
G01*
X156250000Y-65025000D01*
G75*
G02*
X156500000Y-64775000I250000J0D01*
G01*
X157000000Y-64775000D01*
G75*
G02*
X157250000Y-65025000I0J-250000D01*
G01*
G37*
%TD*%
M02*
