%TF.GenerationSoftware,KiCad,Pcbnew,(5.1.9)-1*%
%TF.CreationDate,2021-03-26T17:47:29+08:00*%
%TF.ProjectId,final project,66696e61-6c20-4707-926f-6a6563742e6b,rev?*%
%TF.SameCoordinates,Original*%
%TF.FileFunction,Copper,L2,Bot*%
%TF.FilePolarity,Positive*%
%FSLAX46Y46*%
G04 Gerber Fmt 4.6, Leading zero omitted, Abs format (unit mm)*
G04 Created by KiCad (PCBNEW (5.1.9)-1) date 2021-03-26 17:47:29*
%MOMM*%
%LPD*%
G01*
G04 APERTURE LIST*
%TA.AperFunction,ComponentPad*%
%ADD10O,1.000000X2.100000*%
%TD*%
%TA.AperFunction,ComponentPad*%
%ADD11O,1.000000X1.600000*%
%TD*%
%TA.AperFunction,ComponentPad*%
%ADD12R,3.500000X3.500000*%
%TD*%
%TA.AperFunction,ComponentPad*%
%ADD13C,3.500000*%
%TD*%
%TA.AperFunction,ComponentPad*%
%ADD14O,1.700000X1.700000*%
%TD*%
%TA.AperFunction,ComponentPad*%
%ADD15R,1.700000X1.700000*%
%TD*%
%TA.AperFunction,SMDPad,CuDef*%
%ADD16R,1.800000X2.500000*%
%TD*%
%TA.AperFunction,ComponentPad*%
%ADD17C,0.500000*%
%TD*%
%TA.AperFunction,SMDPad,CuDef*%
%ADD18R,1.400000X1.200000*%
%TD*%
%TA.AperFunction,SMDPad,CuDef*%
%ADD19R,1.500000X2.000000*%
%TD*%
%TA.AperFunction,SMDPad,CuDef*%
%ADD20R,3.800000X2.000000*%
%TD*%
%TA.AperFunction,SMDPad,CuDef*%
%ADD21R,0.300000X1.400000*%
%TD*%
%TA.AperFunction,SMDPad,CuDef*%
%ADD22R,0.800000X0.900000*%
%TD*%
%TA.AperFunction,ViaPad*%
%ADD23C,0.800000*%
%TD*%
%TA.AperFunction,ViaPad*%
%ADD24C,1.000000*%
%TD*%
%TA.AperFunction,ViaPad*%
%ADD25C,0.600000*%
%TD*%
%TA.AperFunction,ViaPad*%
%ADD26C,0.400000*%
%TD*%
%TA.AperFunction,Conductor*%
%ADD27C,0.800000*%
%TD*%
%TA.AperFunction,Conductor*%
%ADD28C,1.600000*%
%TD*%
%TA.AperFunction,Conductor*%
%ADD29C,0.400000*%
%TD*%
%TA.AperFunction,Conductor*%
%ADD30C,0.600000*%
%TD*%
%TA.AperFunction,Conductor*%
%ADD31C,0.200000*%
%TD*%
%TA.AperFunction,Conductor*%
%ADD32C,1.000000*%
%TD*%
%TA.AperFunction,Conductor*%
%ADD33C,0.127000*%
%TD*%
%TA.AperFunction,Conductor*%
%ADD34C,0.100000*%
%TD*%
G04 APERTURE END LIST*
D10*
%TO.P,USB1,13*%
%TO.N,GNDA*%
X143370000Y-56230000D03*
X134730000Y-56230000D03*
D11*
X143370000Y-52050000D03*
X134730000Y-52050000D03*
%TD*%
D12*
%TO.P,BT1,1*%
%TO.N,Net-(BT1-Pad1)*%
X172150000Y-59450000D03*
D13*
%TO.P,BT1,2*%
%TO.N,GND*%
X99250000Y-59450000D03*
%TD*%
D14*
%TO.P,J1,12*%
%TO.N,GNDA*%
X100425000Y-67015000D03*
%TO.P,J1,11*%
X100425000Y-64475000D03*
%TO.P,J1,10*%
%TO.N,/A5*%
X102965000Y-67015000D03*
%TO.P,J1,9*%
%TO.N,/A4*%
X102965000Y-64475000D03*
%TO.P,J1,8*%
%TO.N,/A3*%
X105505000Y-67015000D03*
%TO.P,J1,7*%
%TO.N,/A2*%
X105505000Y-64475000D03*
%TO.P,J1,6*%
%TO.N,/A1*%
X108045000Y-67015000D03*
%TO.P,J1,5*%
%TO.N,/A0*%
X108045000Y-64475000D03*
%TO.P,J1,4*%
%TO.N,/D4*%
X110585000Y-67015000D03*
%TO.P,J1,3*%
%TO.N,/D3*%
X110585000Y-64475000D03*
%TO.P,J1,2*%
%TO.N,/D2*%
X113125000Y-67015000D03*
D15*
%TO.P,J1,1*%
%TO.N,+5V*%
X113125000Y-64475000D03*
%TD*%
D16*
%TO.P,U2,9*%
%TO.N,GND*%
X162180000Y-52900000D03*
D17*
X162830000Y-53900000D03*
X161530000Y-53900000D03*
X162830000Y-52900000D03*
X161530000Y-52900000D03*
X162830000Y-51900000D03*
X161530000Y-51900000D03*
%TD*%
D18*
%TO.P,Y1,4*%
%TO.N,Net-(C21-Pad2)*%
X146050000Y-60850000D03*
%TO.P,Y1,3*%
%TO.N,GNDA*%
X143850000Y-60850000D03*
%TO.P,Y1,2*%
%TO.N,Net-(C20-Pad2)*%
X143850000Y-62550000D03*
%TO.P,Y1,1*%
%TO.N,GNDA*%
X146050000Y-62550000D03*
%TD*%
%TO.P,U3,16*%
%TO.N,/OUTA*%
%TA.AperFunction,SMDPad,CuDef*%
G36*
G01*
X158645000Y-63900000D02*
X158345000Y-63900000D01*
G75*
G02*
X158195000Y-63750000I0J150000D01*
G01*
X158195000Y-62100000D01*
G75*
G02*
X158345000Y-61950000I150000J0D01*
G01*
X158645000Y-61950000D01*
G75*
G02*
X158795000Y-62100000I0J-150000D01*
G01*
X158795000Y-63750000D01*
G75*
G02*
X158645000Y-63900000I-150000J0D01*
G01*
G37*
%TD.AperFunction*%
%TO.P,U3,15*%
%TO.N,GND*%
%TA.AperFunction,SMDPad,CuDef*%
G36*
G01*
X157375000Y-63900000D02*
X157075000Y-63900000D01*
G75*
G02*
X156925000Y-63750000I0J150000D01*
G01*
X156925000Y-62100000D01*
G75*
G02*
X157075000Y-61950000I150000J0D01*
G01*
X157375000Y-61950000D01*
G75*
G02*
X157525000Y-62100000I0J-150000D01*
G01*
X157525000Y-63750000D01*
G75*
G02*
X157375000Y-63900000I-150000J0D01*
G01*
G37*
%TD.AperFunction*%
%TO.P,U3,14*%
%TO.N,GNDA*%
%TA.AperFunction,SMDPad,CuDef*%
G36*
G01*
X156105000Y-63900000D02*
X155805000Y-63900000D01*
G75*
G02*
X155655000Y-63750000I0J150000D01*
G01*
X155655000Y-62100000D01*
G75*
G02*
X155805000Y-61950000I150000J0D01*
G01*
X156105000Y-61950000D01*
G75*
G02*
X156255000Y-62100000I0J-150000D01*
G01*
X156255000Y-63750000D01*
G75*
G02*
X156105000Y-63900000I-150000J0D01*
G01*
G37*
%TD.AperFunction*%
%TO.P,U3,13*%
%TO.N,/OUTB*%
%TA.AperFunction,SMDPad,CuDef*%
G36*
G01*
X154835000Y-63900000D02*
X154535000Y-63900000D01*
G75*
G02*
X154385000Y-63750000I0J150000D01*
G01*
X154385000Y-62100000D01*
G75*
G02*
X154535000Y-61950000I150000J0D01*
G01*
X154835000Y-61950000D01*
G75*
G02*
X154985000Y-62100000I0J-150000D01*
G01*
X154985000Y-63750000D01*
G75*
G02*
X154835000Y-63900000I-150000J0D01*
G01*
G37*
%TD.AperFunction*%
%TO.P,U3,12*%
%TO.N,/OUTC*%
%TA.AperFunction,SMDPad,CuDef*%
G36*
G01*
X153565000Y-63900000D02*
X153265000Y-63900000D01*
G75*
G02*
X153115000Y-63750000I0J150000D01*
G01*
X153115000Y-62100000D01*
G75*
G02*
X153265000Y-61950000I150000J0D01*
G01*
X153565000Y-61950000D01*
G75*
G02*
X153715000Y-62100000I0J-150000D01*
G01*
X153715000Y-63750000D01*
G75*
G02*
X153565000Y-63900000I-150000J0D01*
G01*
G37*
%TD.AperFunction*%
%TO.P,U3,11*%
%TO.N,GND*%
%TA.AperFunction,SMDPad,CuDef*%
G36*
G01*
X152295000Y-63900000D02*
X151995000Y-63900000D01*
G75*
G02*
X151845000Y-63750000I0J150000D01*
G01*
X151845000Y-62100000D01*
G75*
G02*
X151995000Y-61950000I150000J0D01*
G01*
X152295000Y-61950000D01*
G75*
G02*
X152445000Y-62100000I0J-150000D01*
G01*
X152445000Y-63750000D01*
G75*
G02*
X152295000Y-63900000I-150000J0D01*
G01*
G37*
%TD.AperFunction*%
%TO.P,U3,10*%
%TO.N,GNDA*%
%TA.AperFunction,SMDPad,CuDef*%
G36*
G01*
X151025000Y-63900000D02*
X150725000Y-63900000D01*
G75*
G02*
X150575000Y-63750000I0J150000D01*
G01*
X150575000Y-62100000D01*
G75*
G02*
X150725000Y-61950000I150000J0D01*
G01*
X151025000Y-61950000D01*
G75*
G02*
X151175000Y-62100000I0J-150000D01*
G01*
X151175000Y-63750000D01*
G75*
G02*
X151025000Y-63900000I-150000J0D01*
G01*
G37*
%TD.AperFunction*%
%TO.P,U3,9*%
%TO.N,/OUTD*%
%TA.AperFunction,SMDPad,CuDef*%
G36*
G01*
X149755000Y-63900000D02*
X149455000Y-63900000D01*
G75*
G02*
X149305000Y-63750000I0J150000D01*
G01*
X149305000Y-62100000D01*
G75*
G02*
X149455000Y-61950000I150000J0D01*
G01*
X149755000Y-61950000D01*
G75*
G02*
X149905000Y-62100000I0J-150000D01*
G01*
X149905000Y-63750000D01*
G75*
G02*
X149755000Y-63900000I-150000J0D01*
G01*
G37*
%TD.AperFunction*%
%TO.P,U3,8*%
%TO.N,+5V*%
%TA.AperFunction,SMDPad,CuDef*%
G36*
G01*
X149755000Y-68850000D02*
X149455000Y-68850000D01*
G75*
G02*
X149305000Y-68700000I0J150000D01*
G01*
X149305000Y-67050000D01*
G75*
G02*
X149455000Y-66900000I150000J0D01*
G01*
X149755000Y-66900000D01*
G75*
G02*
X149905000Y-67050000I0J-150000D01*
G01*
X149905000Y-68700000D01*
G75*
G02*
X149755000Y-68850000I-150000J0D01*
G01*
G37*
%TD.AperFunction*%
%TO.P,U3,7*%
%TO.N,/IND*%
%TA.AperFunction,SMDPad,CuDef*%
G36*
G01*
X151025000Y-68850000D02*
X150725000Y-68850000D01*
G75*
G02*
X150575000Y-68700000I0J150000D01*
G01*
X150575000Y-67050000D01*
G75*
G02*
X150725000Y-66900000I150000J0D01*
G01*
X151025000Y-66900000D01*
G75*
G02*
X151175000Y-67050000I0J-150000D01*
G01*
X151175000Y-68700000D01*
G75*
G02*
X151025000Y-68850000I-150000J0D01*
G01*
G37*
%TD.AperFunction*%
%TO.P,U3,6*%
%TO.N,/INC*%
%TA.AperFunction,SMDPad,CuDef*%
G36*
G01*
X152295000Y-68850000D02*
X151995000Y-68850000D01*
G75*
G02*
X151845000Y-68700000I0J150000D01*
G01*
X151845000Y-67050000D01*
G75*
G02*
X151995000Y-66900000I150000J0D01*
G01*
X152295000Y-66900000D01*
G75*
G02*
X152445000Y-67050000I0J-150000D01*
G01*
X152445000Y-68700000D01*
G75*
G02*
X152295000Y-68850000I-150000J0D01*
G01*
G37*
%TD.AperFunction*%
%TO.P,U3,5*%
%TO.N,Net-(U3-Pad5)*%
%TA.AperFunction,SMDPad,CuDef*%
G36*
G01*
X153565000Y-68850000D02*
X153265000Y-68850000D01*
G75*
G02*
X153115000Y-68700000I0J150000D01*
G01*
X153115000Y-67050000D01*
G75*
G02*
X153265000Y-66900000I150000J0D01*
G01*
X153565000Y-66900000D01*
G75*
G02*
X153715000Y-67050000I0J-150000D01*
G01*
X153715000Y-68700000D01*
G75*
G02*
X153565000Y-68850000I-150000J0D01*
G01*
G37*
%TD.AperFunction*%
%TO.P,U3,4*%
%TO.N,+5V*%
%TA.AperFunction,SMDPad,CuDef*%
G36*
G01*
X154835000Y-68850000D02*
X154535000Y-68850000D01*
G75*
G02*
X154385000Y-68700000I0J150000D01*
G01*
X154385000Y-67050000D01*
G75*
G02*
X154535000Y-66900000I150000J0D01*
G01*
X154835000Y-66900000D01*
G75*
G02*
X154985000Y-67050000I0J-150000D01*
G01*
X154985000Y-68700000D01*
G75*
G02*
X154835000Y-68850000I-150000J0D01*
G01*
G37*
%TD.AperFunction*%
%TO.P,U3,3*%
%TO.N,/INB*%
%TA.AperFunction,SMDPad,CuDef*%
G36*
G01*
X156105000Y-68850000D02*
X155805000Y-68850000D01*
G75*
G02*
X155655000Y-68700000I0J150000D01*
G01*
X155655000Y-67050000D01*
G75*
G02*
X155805000Y-66900000I150000J0D01*
G01*
X156105000Y-66900000D01*
G75*
G02*
X156255000Y-67050000I0J-150000D01*
G01*
X156255000Y-68700000D01*
G75*
G02*
X156105000Y-68850000I-150000J0D01*
G01*
G37*
%TD.AperFunction*%
%TO.P,U3,2*%
%TO.N,/INA*%
%TA.AperFunction,SMDPad,CuDef*%
G36*
G01*
X157375000Y-68850000D02*
X157075000Y-68850000D01*
G75*
G02*
X156925000Y-68700000I0J150000D01*
G01*
X156925000Y-67050000D01*
G75*
G02*
X157075000Y-66900000I150000J0D01*
G01*
X157375000Y-66900000D01*
G75*
G02*
X157525000Y-67050000I0J-150000D01*
G01*
X157525000Y-68700000D01*
G75*
G02*
X157375000Y-68850000I-150000J0D01*
G01*
G37*
%TD.AperFunction*%
%TO.P,U3,1*%
%TO.N,Net-(U3-Pad1)*%
%TA.AperFunction,SMDPad,CuDef*%
G36*
G01*
X158645000Y-68850000D02*
X158345000Y-68850000D01*
G75*
G02*
X158195000Y-68700000I0J150000D01*
G01*
X158195000Y-67050000D01*
G75*
G02*
X158345000Y-66900000I150000J0D01*
G01*
X158645000Y-66900000D01*
G75*
G02*
X158795000Y-67050000I0J-150000D01*
G01*
X158795000Y-68700000D01*
G75*
G02*
X158645000Y-68850000I-150000J0D01*
G01*
G37*
%TD.AperFunction*%
%TD*%
%TO.P,R10,2*%
%TO.N,VCC*%
%TA.AperFunction,SMDPad,CuDef*%
G36*
G01*
X132349999Y-53950000D02*
X133250001Y-53950000D01*
G75*
G02*
X133500000Y-54199999I0J-249999D01*
G01*
X133500000Y-54725001D01*
G75*
G02*
X133250001Y-54975000I-249999J0D01*
G01*
X132349999Y-54975000D01*
G75*
G02*
X132100000Y-54725001I0J249999D01*
G01*
X132100000Y-54199999D01*
G75*
G02*
X132349999Y-53950000I249999J0D01*
G01*
G37*
%TD.AperFunction*%
%TO.P,R10,1*%
%TO.N,Net-(D1-Pad2)*%
%TA.AperFunction,SMDPad,CuDef*%
G36*
G01*
X132349999Y-52125000D02*
X133250001Y-52125000D01*
G75*
G02*
X133500000Y-52374999I0J-249999D01*
G01*
X133500000Y-52900001D01*
G75*
G02*
X133250001Y-53150000I-249999J0D01*
G01*
X132349999Y-53150000D01*
G75*
G02*
X132100000Y-52900001I0J249999D01*
G01*
X132100000Y-52374999D01*
G75*
G02*
X132349999Y-52125000I249999J0D01*
G01*
G37*
%TD.AperFunction*%
%TD*%
D19*
%TO.P,U4,1*%
%TO.N,GNDA*%
X121050000Y-55220000D03*
%TO.P,U4,3*%
%TO.N,+5V*%
X125650000Y-55220000D03*
%TO.P,U4,2*%
%TO.N,+3V3*%
X123350000Y-55220000D03*
D20*
X123350000Y-61520000D03*
%TD*%
D21*
%TO.P,U1,10*%
%TO.N,Net-(C1-Pad1)*%
X138300000Y-61500000D03*
%TO.P,U1,9*%
%TO.N,/TX*%
X138800000Y-61500000D03*
%TO.P,U1,8*%
%TO.N,/RX*%
X139300000Y-61500000D03*
%TO.P,U1,7*%
%TO.N,VCC*%
X139800000Y-61500000D03*
%TO.P,U1,6*%
%TO.N,Net-(Q1-Pad1)*%
X140300000Y-61500000D03*
%TO.P,U1,5*%
%TO.N,Net-(U1-Pad5)*%
X140300000Y-57100000D03*
%TO.P,U1,4*%
%TO.N,Net-(C3-Pad2)*%
X139800000Y-57100000D03*
%TO.P,U1,3*%
%TO.N,GNDA*%
X139300000Y-57100000D03*
%TO.P,U1,2*%
%TO.N,Net-(U1-Pad2)*%
X138800000Y-57100000D03*
%TO.P,U1,1*%
%TO.N,Net-(U1-Pad1)*%
X138300000Y-57100000D03*
%TD*%
%TO.P,R9,2*%
%TO.N,Net-(R9-Pad2)*%
%TA.AperFunction,SMDPad,CuDef*%
G36*
G01*
X137149999Y-65250000D02*
X138050001Y-65250000D01*
G75*
G02*
X138300000Y-65499999I0J-249999D01*
G01*
X138300000Y-66025001D01*
G75*
G02*
X138050001Y-66275000I-249999J0D01*
G01*
X137149999Y-66275000D01*
G75*
G02*
X136900000Y-66025001I0J249999D01*
G01*
X136900000Y-65499999D01*
G75*
G02*
X137149999Y-65250000I249999J0D01*
G01*
G37*
%TD.AperFunction*%
%TO.P,R9,1*%
%TO.N,/TX*%
%TA.AperFunction,SMDPad,CuDef*%
G36*
G01*
X137149999Y-63425000D02*
X138050001Y-63425000D01*
G75*
G02*
X138300000Y-63674999I0J-249999D01*
G01*
X138300000Y-64200001D01*
G75*
G02*
X138050001Y-64450000I-249999J0D01*
G01*
X137149999Y-64450000D01*
G75*
G02*
X136900000Y-64200001I0J249999D01*
G01*
X136900000Y-63674999D01*
G75*
G02*
X137149999Y-63425000I249999J0D01*
G01*
G37*
%TD.AperFunction*%
%TD*%
%TO.P,R8,2*%
%TO.N,Net-(R8-Pad2)*%
%TA.AperFunction,SMDPad,CuDef*%
G36*
G01*
X139149999Y-65250000D02*
X140050001Y-65250000D01*
G75*
G02*
X140300000Y-65499999I0J-249999D01*
G01*
X140300000Y-66025001D01*
G75*
G02*
X140050001Y-66275000I-249999J0D01*
G01*
X139149999Y-66275000D01*
G75*
G02*
X138900000Y-66025001I0J249999D01*
G01*
X138900000Y-65499999D01*
G75*
G02*
X139149999Y-65250000I249999J0D01*
G01*
G37*
%TD.AperFunction*%
%TO.P,R8,1*%
%TO.N,/RX*%
%TA.AperFunction,SMDPad,CuDef*%
G36*
G01*
X139149999Y-63425000D02*
X140050001Y-63425000D01*
G75*
G02*
X140300000Y-63674999I0J-249999D01*
G01*
X140300000Y-64200001D01*
G75*
G02*
X140050001Y-64450000I-249999J0D01*
G01*
X139149999Y-64450000D01*
G75*
G02*
X138900000Y-64200001I0J249999D01*
G01*
X138900000Y-63674999D01*
G75*
G02*
X139149999Y-63425000I249999J0D01*
G01*
G37*
%TD.AperFunction*%
%TD*%
%TO.P,R7,2*%
%TO.N,+3V3*%
%TA.AperFunction,SMDPad,CuDef*%
G36*
G01*
X115199999Y-59500000D02*
X116100001Y-59500000D01*
G75*
G02*
X116350000Y-59749999I0J-249999D01*
G01*
X116350000Y-60275001D01*
G75*
G02*
X116100001Y-60525000I-249999J0D01*
G01*
X115199999Y-60525000D01*
G75*
G02*
X114950000Y-60275001I0J249999D01*
G01*
X114950000Y-59749999D01*
G75*
G02*
X115199999Y-59500000I249999J0D01*
G01*
G37*
%TD.AperFunction*%
%TO.P,R7,1*%
%TO.N,Net-(D7-Pad2)*%
%TA.AperFunction,SMDPad,CuDef*%
G36*
G01*
X115199999Y-57675000D02*
X116100001Y-57675000D01*
G75*
G02*
X116350000Y-57924999I0J-249999D01*
G01*
X116350000Y-58450001D01*
G75*
G02*
X116100001Y-58700000I-249999J0D01*
G01*
X115199999Y-58700000D01*
G75*
G02*
X114950000Y-58450001I0J249999D01*
G01*
X114950000Y-57924999D01*
G75*
G02*
X115199999Y-57675000I249999J0D01*
G01*
G37*
%TD.AperFunction*%
%TD*%
%TO.P,R6,2*%
%TO.N,+5V*%
%TA.AperFunction,SMDPad,CuDef*%
G36*
G01*
X146349999Y-52850000D02*
X147250001Y-52850000D01*
G75*
G02*
X147500000Y-53099999I0J-249999D01*
G01*
X147500000Y-53625001D01*
G75*
G02*
X147250001Y-53875000I-249999J0D01*
G01*
X146349999Y-53875000D01*
G75*
G02*
X146100000Y-53625001I0J249999D01*
G01*
X146100000Y-53099999D01*
G75*
G02*
X146349999Y-52850000I249999J0D01*
G01*
G37*
%TD.AperFunction*%
%TO.P,R6,1*%
%TO.N,/Reset*%
%TA.AperFunction,SMDPad,CuDef*%
G36*
G01*
X146349999Y-51025000D02*
X147250001Y-51025000D01*
G75*
G02*
X147500000Y-51274999I0J-249999D01*
G01*
X147500000Y-51800001D01*
G75*
G02*
X147250001Y-52050000I-249999J0D01*
G01*
X146349999Y-52050000D01*
G75*
G02*
X146100000Y-51800001I0J249999D01*
G01*
X146100000Y-51274999D01*
G75*
G02*
X146349999Y-51025000I249999J0D01*
G01*
G37*
%TD.AperFunction*%
%TD*%
%TO.P,R3,2*%
%TO.N,Net-(BT1-Pad1)*%
%TA.AperFunction,SMDPad,CuDef*%
G36*
G01*
X171450001Y-62700000D02*
X170549999Y-62700000D01*
G75*
G02*
X170300000Y-62450001I0J249999D01*
G01*
X170300000Y-61924999D01*
G75*
G02*
X170549999Y-61675000I249999J0D01*
G01*
X171450001Y-61675000D01*
G75*
G02*
X171700000Y-61924999I0J-249999D01*
G01*
X171700000Y-62450001D01*
G75*
G02*
X171450001Y-62700000I-249999J0D01*
G01*
G37*
%TD.AperFunction*%
%TO.P,R3,1*%
%TO.N,Net-(C13-Pad1)*%
%TA.AperFunction,SMDPad,CuDef*%
G36*
G01*
X171450001Y-64525000D02*
X170549999Y-64525000D01*
G75*
G02*
X170300000Y-64275001I0J249999D01*
G01*
X170300000Y-63749999D01*
G75*
G02*
X170549999Y-63500000I249999J0D01*
G01*
X171450001Y-63500000D01*
G75*
G02*
X171700000Y-63749999I0J-249999D01*
G01*
X171700000Y-64275001D01*
G75*
G02*
X171450001Y-64525000I-249999J0D01*
G01*
G37*
%TD.AperFunction*%
%TD*%
%TO.P,R1,2*%
%TO.N,VCC*%
%TA.AperFunction,SMDPad,CuDef*%
G36*
G01*
X157050001Y-51600000D02*
X156149999Y-51600000D01*
G75*
G02*
X155900000Y-51350001I0J249999D01*
G01*
X155900000Y-50824999D01*
G75*
G02*
X156149999Y-50575000I249999J0D01*
G01*
X157050001Y-50575000D01*
G75*
G02*
X157300000Y-50824999I0J-249999D01*
G01*
X157300000Y-51350001D01*
G75*
G02*
X157050001Y-51600000I-249999J0D01*
G01*
G37*
%TD.AperFunction*%
%TO.P,R1,1*%
%TO.N,Net-(C4-Pad2)*%
%TA.AperFunction,SMDPad,CuDef*%
G36*
G01*
X157050001Y-53425000D02*
X156149999Y-53425000D01*
G75*
G02*
X155900000Y-53175001I0J249999D01*
G01*
X155900000Y-52649999D01*
G75*
G02*
X156149999Y-52400000I249999J0D01*
G01*
X157050001Y-52400000D01*
G75*
G02*
X157300000Y-52649999I0J-249999D01*
G01*
X157300000Y-53175001D01*
G75*
G02*
X157050001Y-53425000I-249999J0D01*
G01*
G37*
%TD.AperFunction*%
%TD*%
D22*
%TO.P,Q1,3*%
%TO.N,Net-(D1-Pad1)*%
X139300000Y-50250000D03*
%TO.P,Q1,2*%
%TO.N,GNDA*%
X138350000Y-52250000D03*
%TO.P,Q1,1*%
%TO.N,Net-(Q1-Pad1)*%
X140250000Y-52250000D03*
%TD*%
D14*
%TO.P,M2,2*%
%TO.N,/OUTD*%
X149610000Y-59650000D03*
D15*
%TO.P,M2,1*%
%TO.N,/OUTC*%
X152150000Y-59650000D03*
%TD*%
D14*
%TO.P,M1,2*%
%TO.N,/OUTB*%
X155810000Y-59650000D03*
D15*
%TO.P,M1,1*%
%TO.N,/OUTA*%
X158350000Y-59650000D03*
%TD*%
D14*
%TO.P,J2,6*%
%TO.N,GNDA*%
X111750000Y-51600000D03*
%TO.P,J2,5*%
%TO.N,/Reset*%
X109210000Y-51600000D03*
%TO.P,J2,4*%
%TO.N,/MISO*%
X106670000Y-51600000D03*
%TO.P,J2,3*%
%TO.N,/MOSI*%
X104130000Y-51600000D03*
%TO.P,J2,2*%
%TO.N,/SCK*%
X101590000Y-51600000D03*
D15*
%TO.P,J2,1*%
%TO.N,+5V*%
X99050000Y-51600000D03*
%TD*%
%TO.P,C19,2*%
%TO.N,+3V3*%
%TA.AperFunction,SMDPad,CuDef*%
G36*
G01*
X114150000Y-55775000D02*
X114150000Y-56725000D01*
G75*
G02*
X113900000Y-56975000I-250000J0D01*
G01*
X113400000Y-56975000D01*
G75*
G02*
X113150000Y-56725000I0J250000D01*
G01*
X113150000Y-55775000D01*
G75*
G02*
X113400000Y-55525000I250000J0D01*
G01*
X113900000Y-55525000D01*
G75*
G02*
X114150000Y-55775000I0J-250000D01*
G01*
G37*
%TD.AperFunction*%
%TO.P,C19,1*%
%TO.N,GNDA*%
%TA.AperFunction,SMDPad,CuDef*%
G36*
G01*
X116050000Y-55775000D02*
X116050000Y-56725000D01*
G75*
G02*
X115800000Y-56975000I-250000J0D01*
G01*
X115300000Y-56975000D01*
G75*
G02*
X115050000Y-56725000I0J250000D01*
G01*
X115050000Y-55775000D01*
G75*
G02*
X115300000Y-55525000I250000J0D01*
G01*
X115800000Y-55525000D01*
G75*
G02*
X116050000Y-55775000I0J-250000D01*
G01*
G37*
%TD.AperFunction*%
%TD*%
%TO.P,C18,2*%
%TO.N,Net-(C18-Pad2)*%
%TA.AperFunction,SMDPad,CuDef*%
G36*
G01*
X136075000Y-64400000D02*
X135125000Y-64400000D01*
G75*
G02*
X134875000Y-64150000I0J250000D01*
G01*
X134875000Y-63650000D01*
G75*
G02*
X135125000Y-63400000I250000J0D01*
G01*
X136075000Y-63400000D01*
G75*
G02*
X136325000Y-63650000I0J-250000D01*
G01*
X136325000Y-64150000D01*
G75*
G02*
X136075000Y-64400000I-250000J0D01*
G01*
G37*
%TD.AperFunction*%
%TO.P,C18,1*%
%TO.N,GNDA*%
%TA.AperFunction,SMDPad,CuDef*%
G36*
G01*
X136075000Y-66300000D02*
X135125000Y-66300000D01*
G75*
G02*
X134875000Y-66050000I0J250000D01*
G01*
X134875000Y-65550000D01*
G75*
G02*
X135125000Y-65300000I250000J0D01*
G01*
X136075000Y-65300000D01*
G75*
G02*
X136325000Y-65550000I0J-250000D01*
G01*
X136325000Y-66050000D01*
G75*
G02*
X136075000Y-66300000I-250000J0D01*
G01*
G37*
%TD.AperFunction*%
%TD*%
%TO.P,C17,2*%
%TO.N,+5V*%
%TA.AperFunction,SMDPad,CuDef*%
G36*
G01*
X142225000Y-63600000D02*
X141275000Y-63600000D01*
G75*
G02*
X141025000Y-63350000I0J250000D01*
G01*
X141025000Y-62850000D01*
G75*
G02*
X141275000Y-62600000I250000J0D01*
G01*
X142225000Y-62600000D01*
G75*
G02*
X142475000Y-62850000I0J-250000D01*
G01*
X142475000Y-63350000D01*
G75*
G02*
X142225000Y-63600000I-250000J0D01*
G01*
G37*
%TD.AperFunction*%
%TO.P,C17,1*%
%TO.N,GNDA*%
%TA.AperFunction,SMDPad,CuDef*%
G36*
G01*
X142225000Y-65500000D02*
X141275000Y-65500000D01*
G75*
G02*
X141025000Y-65250000I0J250000D01*
G01*
X141025000Y-64750000D01*
G75*
G02*
X141275000Y-64500000I250000J0D01*
G01*
X142225000Y-64500000D01*
G75*
G02*
X142475000Y-64750000I0J-250000D01*
G01*
X142475000Y-65250000D01*
G75*
G02*
X142225000Y-65500000I-250000J0D01*
G01*
G37*
%TD.AperFunction*%
%TD*%
%TO.P,C16,2*%
%TO.N,+3V3*%
%TA.AperFunction,SMDPad,CuDef*%
G36*
G01*
X118175000Y-57550000D02*
X119125000Y-57550000D01*
G75*
G02*
X119375000Y-57800000I0J-250000D01*
G01*
X119375000Y-58300000D01*
G75*
G02*
X119125000Y-58550000I-250000J0D01*
G01*
X118175000Y-58550000D01*
G75*
G02*
X117925000Y-58300000I0J250000D01*
G01*
X117925000Y-57800000D01*
G75*
G02*
X118175000Y-57550000I250000J0D01*
G01*
G37*
%TD.AperFunction*%
%TO.P,C16,1*%
%TO.N,GNDA*%
%TA.AperFunction,SMDPad,CuDef*%
G36*
G01*
X118175000Y-55650000D02*
X119125000Y-55650000D01*
G75*
G02*
X119375000Y-55900000I0J-250000D01*
G01*
X119375000Y-56400000D01*
G75*
G02*
X119125000Y-56650000I-250000J0D01*
G01*
X118175000Y-56650000D01*
G75*
G02*
X117925000Y-56400000I0J250000D01*
G01*
X117925000Y-55900000D01*
G75*
G02*
X118175000Y-55650000I250000J0D01*
G01*
G37*
%TD.AperFunction*%
%TD*%
%TO.P,C15,2*%
%TO.N,GND*%
%TA.AperFunction,SMDPad,CuDef*%
G36*
G01*
X172575000Y-63550000D02*
X173525000Y-63550000D01*
G75*
G02*
X173775000Y-63800000I0J-250000D01*
G01*
X173775000Y-64300000D01*
G75*
G02*
X173525000Y-64550000I-250000J0D01*
G01*
X172575000Y-64550000D01*
G75*
G02*
X172325000Y-64300000I0J250000D01*
G01*
X172325000Y-63800000D01*
G75*
G02*
X172575000Y-63550000I250000J0D01*
G01*
G37*
%TD.AperFunction*%
%TO.P,C15,1*%
%TO.N,Net-(BT1-Pad1)*%
%TA.AperFunction,SMDPad,CuDef*%
G36*
G01*
X172575000Y-61650000D02*
X173525000Y-61650000D01*
G75*
G02*
X173775000Y-61900000I0J-250000D01*
G01*
X173775000Y-62400000D01*
G75*
G02*
X173525000Y-62650000I-250000J0D01*
G01*
X172575000Y-62650000D01*
G75*
G02*
X172325000Y-62400000I0J250000D01*
G01*
X172325000Y-61900000D01*
G75*
G02*
X172575000Y-61650000I250000J0D01*
G01*
G37*
%TD.AperFunction*%
%TD*%
%TO.P,C12,2*%
%TO.N,+5V*%
%TA.AperFunction,SMDPad,CuDef*%
G36*
G01*
X128525000Y-56700000D02*
X127575000Y-56700000D01*
G75*
G02*
X127325000Y-56450000I0J250000D01*
G01*
X127325000Y-55950000D01*
G75*
G02*
X127575000Y-55700000I250000J0D01*
G01*
X128525000Y-55700000D01*
G75*
G02*
X128775000Y-55950000I0J-250000D01*
G01*
X128775000Y-56450000D01*
G75*
G02*
X128525000Y-56700000I-250000J0D01*
G01*
G37*
%TD.AperFunction*%
%TO.P,C12,1*%
%TO.N,GNDA*%
%TA.AperFunction,SMDPad,CuDef*%
G36*
G01*
X128525000Y-58600000D02*
X127575000Y-58600000D01*
G75*
G02*
X127325000Y-58350000I0J250000D01*
G01*
X127325000Y-57850000D01*
G75*
G02*
X127575000Y-57600000I250000J0D01*
G01*
X128525000Y-57600000D01*
G75*
G02*
X128775000Y-57850000I0J-250000D01*
G01*
X128775000Y-58350000D01*
G75*
G02*
X128525000Y-58600000I-250000J0D01*
G01*
G37*
%TD.AperFunction*%
%TD*%
%TO.P,C11,2*%
%TO.N,+5V*%
%TA.AperFunction,SMDPad,CuDef*%
G36*
G01*
X164500000Y-50025000D02*
X164500000Y-50975000D01*
G75*
G02*
X164250000Y-51225000I-250000J0D01*
G01*
X163750000Y-51225000D01*
G75*
G02*
X163500000Y-50975000I0J250000D01*
G01*
X163500000Y-50025000D01*
G75*
G02*
X163750000Y-49775000I250000J0D01*
G01*
X164250000Y-49775000D01*
G75*
G02*
X164500000Y-50025000I0J-250000D01*
G01*
G37*
%TD.AperFunction*%
%TO.P,C11,1*%
%TO.N,GND*%
%TA.AperFunction,SMDPad,CuDef*%
G36*
G01*
X166400000Y-50025000D02*
X166400000Y-50975000D01*
G75*
G02*
X166150000Y-51225000I-250000J0D01*
G01*
X165650000Y-51225000D01*
G75*
G02*
X165400000Y-50975000I0J250000D01*
G01*
X165400000Y-50025000D01*
G75*
G02*
X165650000Y-49775000I250000J0D01*
G01*
X166150000Y-49775000D01*
G75*
G02*
X166400000Y-50025000I0J-250000D01*
G01*
G37*
%TD.AperFunction*%
%TD*%
%TO.P,C9,2*%
%TO.N,+5V*%
%TA.AperFunction,SMDPad,CuDef*%
G36*
G01*
X161900000Y-50975000D02*
X161900000Y-50025000D01*
G75*
G02*
X162150000Y-49775000I250000J0D01*
G01*
X162650000Y-49775000D01*
G75*
G02*
X162900000Y-50025000I0J-250000D01*
G01*
X162900000Y-50975000D01*
G75*
G02*
X162650000Y-51225000I-250000J0D01*
G01*
X162150000Y-51225000D01*
G75*
G02*
X161900000Y-50975000I0J250000D01*
G01*
G37*
%TD.AperFunction*%
%TO.P,C9,1*%
%TO.N,GND*%
%TA.AperFunction,SMDPad,CuDef*%
G36*
G01*
X160000000Y-50975000D02*
X160000000Y-50025000D01*
G75*
G02*
X160250000Y-49775000I250000J0D01*
G01*
X160750000Y-49775000D01*
G75*
G02*
X161000000Y-50025000I0J-250000D01*
G01*
X161000000Y-50975000D01*
G75*
G02*
X160750000Y-51225000I-250000J0D01*
G01*
X160250000Y-51225000D01*
G75*
G02*
X160000000Y-50975000I0J250000D01*
G01*
G37*
%TD.AperFunction*%
%TD*%
%TO.P,C7,2*%
%TO.N,+5V*%
%TA.AperFunction,SMDPad,CuDef*%
G36*
G01*
X164925000Y-53000000D02*
X163975000Y-53000000D01*
G75*
G02*
X163725000Y-52750000I0J250000D01*
G01*
X163725000Y-52250000D01*
G75*
G02*
X163975000Y-52000000I250000J0D01*
G01*
X164925000Y-52000000D01*
G75*
G02*
X165175000Y-52250000I0J-250000D01*
G01*
X165175000Y-52750000D01*
G75*
G02*
X164925000Y-53000000I-250000J0D01*
G01*
G37*
%TD.AperFunction*%
%TO.P,C7,1*%
%TO.N,GND*%
%TA.AperFunction,SMDPad,CuDef*%
G36*
G01*
X164925000Y-54900000D02*
X163975000Y-54900000D01*
G75*
G02*
X163725000Y-54650000I0J250000D01*
G01*
X163725000Y-54150000D01*
G75*
G02*
X163975000Y-53900000I250000J0D01*
G01*
X164925000Y-53900000D01*
G75*
G02*
X165175000Y-54150000I0J-250000D01*
G01*
X165175000Y-54650000D01*
G75*
G02*
X164925000Y-54900000I-250000J0D01*
G01*
G37*
%TD.AperFunction*%
%TD*%
%TO.P,C6,2*%
%TO.N,+5V*%
%TA.AperFunction,SMDPad,CuDef*%
G36*
G01*
X167025000Y-53000000D02*
X166075000Y-53000000D01*
G75*
G02*
X165825000Y-52750000I0J250000D01*
G01*
X165825000Y-52250000D01*
G75*
G02*
X166075000Y-52000000I250000J0D01*
G01*
X167025000Y-52000000D01*
G75*
G02*
X167275000Y-52250000I0J-250000D01*
G01*
X167275000Y-52750000D01*
G75*
G02*
X167025000Y-53000000I-250000J0D01*
G01*
G37*
%TD.AperFunction*%
%TO.P,C6,1*%
%TO.N,GND*%
%TA.AperFunction,SMDPad,CuDef*%
G36*
G01*
X167025000Y-54900000D02*
X166075000Y-54900000D01*
G75*
G02*
X165825000Y-54650000I0J250000D01*
G01*
X165825000Y-54150000D01*
G75*
G02*
X166075000Y-53900000I250000J0D01*
G01*
X167025000Y-53900000D01*
G75*
G02*
X167275000Y-54150000I0J-250000D01*
G01*
X167275000Y-54650000D01*
G75*
G02*
X167025000Y-54900000I-250000J0D01*
G01*
G37*
%TD.AperFunction*%
%TD*%
%TO.P,C5,2*%
%TO.N,VCC*%
%TA.AperFunction,SMDPad,CuDef*%
G36*
G01*
X159125000Y-51550000D02*
X158175000Y-51550000D01*
G75*
G02*
X157925000Y-51300000I0J250000D01*
G01*
X157925000Y-50800000D01*
G75*
G02*
X158175000Y-50550000I250000J0D01*
G01*
X159125000Y-50550000D01*
G75*
G02*
X159375000Y-50800000I0J-250000D01*
G01*
X159375000Y-51300000D01*
G75*
G02*
X159125000Y-51550000I-250000J0D01*
G01*
G37*
%TD.AperFunction*%
%TO.P,C5,1*%
%TO.N,GND*%
%TA.AperFunction,SMDPad,CuDef*%
G36*
G01*
X159125000Y-53450000D02*
X158175000Y-53450000D01*
G75*
G02*
X157925000Y-53200000I0J250000D01*
G01*
X157925000Y-52700000D01*
G75*
G02*
X158175000Y-52450000I250000J0D01*
G01*
X159125000Y-52450000D01*
G75*
G02*
X159375000Y-52700000I0J-250000D01*
G01*
X159375000Y-53200000D01*
G75*
G02*
X159125000Y-53450000I-250000J0D01*
G01*
G37*
%TD.AperFunction*%
%TD*%
%TO.P,C4,2*%
%TO.N,Net-(C4-Pad2)*%
%TA.AperFunction,SMDPad,CuDef*%
G36*
G01*
X157950000Y-55625000D02*
X157950000Y-56575000D01*
G75*
G02*
X157700000Y-56825000I-250000J0D01*
G01*
X157200000Y-56825000D01*
G75*
G02*
X156950000Y-56575000I0J250000D01*
G01*
X156950000Y-55625000D01*
G75*
G02*
X157200000Y-55375000I250000J0D01*
G01*
X157700000Y-55375000D01*
G75*
G02*
X157950000Y-55625000I0J-250000D01*
G01*
G37*
%TD.AperFunction*%
%TO.P,C4,1*%
%TO.N,GND*%
%TA.AperFunction,SMDPad,CuDef*%
G36*
G01*
X159850000Y-55625000D02*
X159850000Y-56575000D01*
G75*
G02*
X159600000Y-56825000I-250000J0D01*
G01*
X159100000Y-56825000D01*
G75*
G02*
X158850000Y-56575000I0J250000D01*
G01*
X158850000Y-55625000D01*
G75*
G02*
X159100000Y-55375000I250000J0D01*
G01*
X159600000Y-55375000D01*
G75*
G02*
X159850000Y-55625000I0J-250000D01*
G01*
G37*
%TD.AperFunction*%
%TD*%
%TO.P,C3,2*%
%TO.N,Net-(C3-Pad2)*%
%TA.AperFunction,SMDPad,CuDef*%
G36*
G01*
X140650000Y-53575000D02*
X140650000Y-54525000D01*
G75*
G02*
X140400000Y-54775000I-250000J0D01*
G01*
X139900000Y-54775000D01*
G75*
G02*
X139650000Y-54525000I0J250000D01*
G01*
X139650000Y-53575000D01*
G75*
G02*
X139900000Y-53325000I250000J0D01*
G01*
X140400000Y-53325000D01*
G75*
G02*
X140650000Y-53575000I0J-250000D01*
G01*
G37*
%TD.AperFunction*%
%TO.P,C3,1*%
%TO.N,/Reset*%
%TA.AperFunction,SMDPad,CuDef*%
G36*
G01*
X142550000Y-53575000D02*
X142550000Y-54525000D01*
G75*
G02*
X142300000Y-54775000I-250000J0D01*
G01*
X141800000Y-54775000D01*
G75*
G02*
X141550000Y-54525000I0J250000D01*
G01*
X141550000Y-53575000D01*
G75*
G02*
X141800000Y-53325000I250000J0D01*
G01*
X142300000Y-53325000D01*
G75*
G02*
X142550000Y-53575000I0J-250000D01*
G01*
G37*
%TD.AperFunction*%
%TD*%
%TO.P,C2,2*%
%TO.N,VCC*%
%TA.AperFunction,SMDPad,CuDef*%
G36*
G01*
X137050000Y-53575000D02*
X137050000Y-54525000D01*
G75*
G02*
X136800000Y-54775000I-250000J0D01*
G01*
X136300000Y-54775000D01*
G75*
G02*
X136050000Y-54525000I0J250000D01*
G01*
X136050000Y-53575000D01*
G75*
G02*
X136300000Y-53325000I250000J0D01*
G01*
X136800000Y-53325000D01*
G75*
G02*
X137050000Y-53575000I0J-250000D01*
G01*
G37*
%TD.AperFunction*%
%TO.P,C2,1*%
%TO.N,GNDA*%
%TA.AperFunction,SMDPad,CuDef*%
G36*
G01*
X138950000Y-53575000D02*
X138950000Y-54525000D01*
G75*
G02*
X138700000Y-54775000I-250000J0D01*
G01*
X138200000Y-54775000D01*
G75*
G02*
X137950000Y-54525000I0J250000D01*
G01*
X137950000Y-53575000D01*
G75*
G02*
X138200000Y-53325000I250000J0D01*
G01*
X138700000Y-53325000D01*
G75*
G02*
X138950000Y-53575000I0J-250000D01*
G01*
G37*
%TD.AperFunction*%
%TD*%
%TO.P,C1,2*%
%TO.N,GNDA*%
%TA.AperFunction,SMDPad,CuDef*%
G36*
G01*
X136925000Y-60850000D02*
X135975000Y-60850000D01*
G75*
G02*
X135725000Y-60600000I0J250000D01*
G01*
X135725000Y-60100000D01*
G75*
G02*
X135975000Y-59850000I250000J0D01*
G01*
X136925000Y-59850000D01*
G75*
G02*
X137175000Y-60100000I0J-250000D01*
G01*
X137175000Y-60600000D01*
G75*
G02*
X136925000Y-60850000I-250000J0D01*
G01*
G37*
%TD.AperFunction*%
%TO.P,C1,1*%
%TO.N,Net-(C1-Pad1)*%
%TA.AperFunction,SMDPad,CuDef*%
G36*
G01*
X136925000Y-62750000D02*
X135975000Y-62750000D01*
G75*
G02*
X135725000Y-62500000I0J250000D01*
G01*
X135725000Y-62000000D01*
G75*
G02*
X135975000Y-61750000I250000J0D01*
G01*
X136925000Y-61750000D01*
G75*
G02*
X137175000Y-62000000I0J-250000D01*
G01*
X137175000Y-62500000D01*
G75*
G02*
X136925000Y-62750000I-250000J0D01*
G01*
G37*
%TD.AperFunction*%
%TD*%
D23*
%TO.N,GND*%
X168425000Y-63500000D03*
D24*
X173700000Y-67025000D03*
D23*
X156750000Y-65250000D03*
X173000000Y-63850000D03*
D25*
X151850000Y-64450000D03*
X152700000Y-64450000D03*
X152275000Y-65125000D03*
X153125000Y-65100000D03*
X153625000Y-64450000D03*
X158600000Y-66100000D03*
X155875000Y-64850000D03*
%TO.N,+5V*%
X142225000Y-62900000D03*
X164550000Y-51000000D03*
D23*
X154900000Y-65550000D03*
D25*
X168350000Y-58100000D03*
X141200000Y-62900000D03*
X131949998Y-62100000D03*
%TO.N,GNDA*%
X138400000Y-52250000D03*
X154650000Y-51625000D03*
D23*
X146800000Y-65900000D03*
D25*
X126625000Y-50125000D03*
X126650000Y-52100000D03*
X132625000Y-64500000D03*
X133600000Y-64475000D03*
D23*
X115675000Y-56300000D03*
D25*
X141600000Y-65300000D03*
D23*
X146100000Y-62400000D03*
X143850000Y-60900000D03*
D25*
X138450000Y-54050000D03*
D23*
%TO.N,/Reset*%
X146850000Y-51550000D03*
D26*
X138600000Y-65227010D03*
D25*
%TO.N,VCC*%
X159250000Y-51000000D03*
X136562500Y-54037500D03*
D23*
%TO.N,Net-(C13-Pad1)*%
X171050000Y-63800000D03*
D24*
%TO.N,+3V3*%
X127900000Y-51150000D03*
D25*
%TO.N,Net-(C18-Pad2)*%
X135550000Y-63850000D03*
D23*
%TO.N,Net-(C20-Pad2)*%
X143850000Y-62400000D03*
%TO.N,Net-(C21-Pad2)*%
X146100000Y-60950000D03*
%TO.N,Net-(D1-Pad1)*%
X139300000Y-50250000D03*
D25*
%TO.N,Net-(D7-Pad2)*%
X115700000Y-58250000D03*
D26*
%TO.N,/D4*%
X141575000Y-66125000D03*
%TO.N,/D2*%
X140150000Y-67675000D03*
%TO.N,/D3*%
X141575000Y-66900000D03*
%TO.N,/SCK*%
X133050000Y-61300000D03*
X129891826Y-58141812D03*
D25*
%TO.N,Net-(R8-Pad2)*%
X139650000Y-65750000D03*
%TO.N,Net-(R9-Pad2)*%
X137600000Y-65750000D03*
D26*
%TO.N,Net-(U1-Pad2)*%
X138800000Y-57650000D03*
%TO.N,Net-(U1-Pad1)*%
X138300000Y-56650000D03*
D25*
%TO.N,/IND*%
X150900000Y-67900000D03*
D26*
X141550000Y-60450000D03*
X136150000Y-59500000D03*
D25*
%TO.N,/INC*%
X152150000Y-67900000D03*
D26*
X141550000Y-59900000D03*
X136950000Y-59072990D03*
D25*
%TO.N,/INB*%
X155950000Y-67900000D03*
%TO.N,/INA*%
X157250000Y-67900000D03*
D23*
%TO.N,Net-(D1-Pad2)*%
X132850000Y-52650000D03*
%TD*%
D27*
%TO.N,Net-(BT1-Pad1)*%
X173012500Y-62187500D02*
X173050000Y-62150000D01*
X171000000Y-62187500D02*
X173012500Y-62187500D01*
X171000000Y-60600000D02*
X171000000Y-62187500D01*
X172150000Y-59450000D02*
X171000000Y-60600000D01*
X173050000Y-60350000D02*
X172150000Y-59450000D01*
X173050000Y-62150000D02*
X173050000Y-60350000D01*
%TO.N,GND*%
X157225000Y-64775000D02*
X156750000Y-65250000D01*
X157225000Y-62925000D02*
X157225000Y-64775000D01*
X156122999Y-64622999D02*
X156750000Y-65250000D01*
X152867999Y-64622999D02*
X156122999Y-64622999D01*
X152145000Y-63900000D02*
X152867999Y-64622999D01*
X152145000Y-62925000D02*
X152145000Y-63900000D01*
D28*
X148737500Y-66203388D02*
X148737500Y-66200000D01*
X145892898Y-69047990D02*
X148737500Y-66203388D01*
X99047990Y-69047990D02*
X145892898Y-69047990D01*
X98075000Y-68075000D02*
X99047990Y-69047990D01*
X98075000Y-60625000D02*
X98075000Y-68075000D01*
X99250000Y-59450000D02*
X98075000Y-60625000D01*
D29*
%TO.N,Net-(C1-Pad1)*%
X138300000Y-62050000D02*
X138300000Y-62685236D01*
X138300000Y-62685236D02*
X138035236Y-62950000D01*
X137150000Y-62950000D02*
X136450000Y-62250000D01*
X138035236Y-62950000D02*
X137150000Y-62950000D01*
D27*
%TO.N,+5V*%
X164450000Y-52500000D02*
X166550000Y-52500000D01*
X167023861Y-55749999D02*
X161523861Y-55749999D01*
X167802010Y-54971850D02*
X167023861Y-55749999D01*
X167802010Y-53752010D02*
X167802010Y-54971850D01*
X166550000Y-52500000D02*
X167802010Y-53752010D01*
D29*
X167023861Y-56773861D02*
X168350000Y-58100000D01*
X167023861Y-55749999D02*
X167023861Y-56773861D01*
D27*
X154685000Y-66900000D02*
X154685000Y-67875000D01*
X155212010Y-66372990D02*
X154685000Y-66900000D01*
X156979448Y-66372990D02*
X155212010Y-66372990D01*
X159804999Y-63547439D02*
X156979448Y-66372990D01*
X159804999Y-57468861D02*
X159804999Y-63547439D01*
X160186930Y-57086930D02*
X159804999Y-57468861D01*
X161523861Y-55749999D02*
X160186930Y-57086930D01*
X155212010Y-65862010D02*
X154900000Y-65550000D01*
X155212010Y-66372990D02*
X155212010Y-65862010D01*
X164000000Y-50450000D02*
X162400000Y-50450000D01*
X164550000Y-51000000D02*
X164000000Y-50450000D01*
D30*
X166000000Y-52500000D02*
X166550000Y-52500000D01*
X164000000Y-50500000D02*
X166000000Y-52500000D01*
X164000000Y-52050000D02*
X164450000Y-52500000D01*
X164000000Y-50500000D02*
X164000000Y-52050000D01*
D27*
X149605000Y-67212562D02*
X149605000Y-67875000D01*
X150444572Y-66372990D02*
X149605000Y-67212562D01*
X155212010Y-66372990D02*
X150444572Y-66372990D01*
X142600000Y-63950000D02*
X141750000Y-63100000D01*
X147025000Y-63950000D02*
X142600000Y-63950000D01*
X148000000Y-62975000D02*
X147025000Y-63950000D01*
X148000000Y-59075000D02*
X148000000Y-62975000D01*
X149225000Y-57850000D02*
X148000000Y-59075000D01*
D29*
X146800000Y-55425000D02*
X149225000Y-57850000D01*
X146800000Y-53362500D02*
X146800000Y-55425000D01*
D30*
X127070000Y-55220000D02*
X128050000Y-56200000D01*
X125650000Y-55220000D02*
X127070000Y-55220000D01*
D27*
X149675000Y-57400000D02*
X149225000Y-57850000D01*
X159873860Y-57400000D02*
X149675000Y-57400000D01*
X160186930Y-57086930D02*
X159873860Y-57400000D01*
D30*
X129222999Y-59373001D02*
X131949998Y-62100000D01*
X128050000Y-56200000D02*
X129222999Y-57372999D01*
X129222999Y-57372999D02*
X129222999Y-59373001D01*
D31*
%TO.N,GNDA*%
X138450000Y-55350000D02*
X138450000Y-54050000D01*
X139300000Y-56200000D02*
X138450000Y-55350000D01*
X139300000Y-57100000D02*
X139300000Y-56200000D01*
X138450000Y-54050000D02*
X138450000Y-54050000D01*
D29*
X150875000Y-58636398D02*
X150875000Y-62925000D01*
X151211398Y-58300000D02*
X150875000Y-58636398D01*
X156201962Y-58300000D02*
X151211398Y-58300000D01*
X156987001Y-59085039D02*
X156201962Y-58300000D01*
X156987001Y-60214961D02*
X156987001Y-59085039D01*
X155955000Y-61246962D02*
X156987001Y-60214961D01*
X155955000Y-62925000D02*
X155955000Y-61246962D01*
X150050000Y-64725000D02*
X147975000Y-64725000D01*
X147975000Y-64725000D02*
X146800000Y-65900000D01*
X150875000Y-63900000D02*
X150050000Y-64725000D01*
X150875000Y-62925000D02*
X150875000Y-63900000D01*
D31*
%TO.N,Net-(C3-Pad2)*%
X139800000Y-54400000D02*
X139800000Y-57100000D01*
X140150000Y-54050000D02*
X139800000Y-54400000D01*
D27*
%TO.N,/Reset*%
X143122411Y-54050000D02*
X145622411Y-51550000D01*
X142050000Y-54050000D02*
X143122411Y-54050000D01*
X146787500Y-51550000D02*
X146800000Y-51537500D01*
X145622411Y-51550000D02*
X146787500Y-51550000D01*
D31*
X109210000Y-51600000D02*
X109210000Y-54959596D01*
X116331353Y-66543967D02*
X138205629Y-66543967D01*
X138600000Y-66149596D02*
X138600000Y-65227010D01*
X115625000Y-65837614D02*
X116331353Y-66543967D01*
X115625000Y-61300000D02*
X115625000Y-65837614D01*
X115077010Y-60752010D02*
X115625000Y-61300000D01*
X138205629Y-66543967D02*
X138600000Y-66149596D01*
X109210000Y-54959596D02*
X115002414Y-60752010D01*
X115002414Y-60752010D02*
X115077010Y-60752010D01*
X142642990Y-54642990D02*
X142642990Y-57259462D01*
X142879022Y-57495494D02*
X142879022Y-61070904D01*
X138927010Y-64900000D02*
X138600000Y-65227010D01*
X141295978Y-61854022D02*
X140527010Y-62622990D01*
X142879022Y-61070904D02*
X142095904Y-61854022D01*
X142095904Y-61854022D02*
X141295978Y-61854022D01*
X140527010Y-64397586D02*
X140024596Y-64900000D01*
X140527010Y-62622990D02*
X140527010Y-64397586D01*
X140024596Y-64900000D02*
X138927010Y-64900000D01*
X142050000Y-54050000D02*
X142642990Y-54642990D01*
X142642990Y-57259462D02*
X142879022Y-57495494D01*
D27*
%TO.N,Net-(C4-Pad2)*%
X157450000Y-53800000D02*
X156550000Y-52900000D01*
X157450000Y-56100000D02*
X157450000Y-53800000D01*
D32*
%TO.N,VCC*%
X136137500Y-54462500D02*
X136550000Y-54050000D01*
X132800000Y-54462500D02*
X136137500Y-54462500D01*
D27*
X155400000Y-49950000D02*
X156500000Y-51050000D01*
X143717589Y-49950000D02*
X155400000Y-49950000D01*
X142440588Y-51227001D02*
X143717589Y-49950000D01*
X137574397Y-51227001D02*
X142440588Y-51227001D01*
X136550000Y-52251398D02*
X137574397Y-51227001D01*
X136550000Y-54050000D02*
X136550000Y-52251398D01*
D30*
X156637500Y-51050000D02*
X156600000Y-51087500D01*
X158650000Y-51050000D02*
X156637500Y-51050000D01*
D31*
X140524596Y-53025000D02*
X137575000Y-53025000D01*
X140950000Y-56491398D02*
X140950000Y-53450404D01*
X142225000Y-57766398D02*
X140950000Y-56491398D01*
X141825000Y-61200000D02*
X142225000Y-60800000D01*
X141275000Y-61200000D02*
X141825000Y-61200000D01*
X140950000Y-53450404D02*
X140524596Y-53025000D01*
X139975000Y-60425000D02*
X140500000Y-60425000D01*
X139800000Y-60600000D02*
X139975000Y-60425000D01*
X137575000Y-53025000D02*
X136562500Y-54037500D01*
X142225000Y-60800000D02*
X142225000Y-57766398D01*
X140500000Y-60425000D02*
X141275000Y-61200000D01*
X139800000Y-61500000D02*
X139800000Y-60600000D01*
X136562500Y-54037500D02*
X136550000Y-54050000D01*
D32*
%TO.N,/OUTA*%
X158495000Y-59795000D02*
X158350000Y-59650000D01*
X158495000Y-62925000D02*
X158495000Y-59795000D01*
%TO.N,/OUTB*%
X154685000Y-60775000D02*
X155810000Y-59650000D01*
X154685000Y-62925000D02*
X154685000Y-60775000D01*
%TO.N,/OUTC*%
X153415000Y-60915000D02*
X152150000Y-59650000D01*
X153415000Y-62925000D02*
X153415000Y-60915000D01*
%TO.N,/OUTD*%
X149605000Y-59655000D02*
X149610000Y-59650000D01*
X149605000Y-62925000D02*
X149605000Y-59655000D01*
D27*
%TO.N,+3V3*%
X125550000Y-51150000D02*
X127900000Y-51150000D01*
X123350000Y-53350000D02*
X125550000Y-51150000D01*
X123350000Y-55220000D02*
X123350000Y-53350000D01*
D28*
X123350000Y-55220000D02*
X123350000Y-61520000D01*
D27*
X123350000Y-57020000D02*
X123350000Y-55220000D01*
X122320000Y-58050000D02*
X123350000Y-57020000D01*
X118650000Y-58050000D02*
X122320000Y-58050000D01*
X120357500Y-60012500D02*
X123350000Y-57020000D01*
X115650000Y-60012500D02*
X120357500Y-60012500D01*
X115312500Y-60012500D02*
X115650000Y-60012500D01*
X113650000Y-58350000D02*
X115312500Y-60012500D01*
X113650000Y-56250000D02*
X113650000Y-58350000D01*
D31*
%TO.N,/D4*%
X109507999Y-63442001D02*
X109507999Y-65937999D01*
X109925000Y-63025000D02*
X109507999Y-63442001D01*
X109507999Y-65937999D02*
X110585000Y-67015000D01*
X115175000Y-65850076D02*
X115175000Y-63525000D01*
X141575000Y-66125000D02*
X140900000Y-66800000D01*
X140900000Y-66800000D02*
X140150000Y-66800000D01*
X114675000Y-63025000D02*
X109925000Y-63025000D01*
X140150000Y-66800000D02*
X140079022Y-66870978D01*
X140079022Y-66870978D02*
X116195902Y-66870978D01*
X116195902Y-66870978D02*
X115175000Y-65850076D01*
X115175000Y-63525000D02*
X114675000Y-63025000D01*
%TO.N,/D2*%
X113635000Y-67525000D02*
X140025000Y-67525000D01*
X113125000Y-67015000D02*
X113635000Y-67525000D01*
X140150000Y-67650000D02*
X140025000Y-67525000D01*
X140150000Y-67675000D02*
X140150000Y-67650000D01*
%TO.N,/D3*%
X111935000Y-65825000D02*
X110585000Y-64475000D01*
X141277011Y-67197989D02*
X116060450Y-67197989D01*
X116060450Y-67197989D02*
X114687462Y-65825000D01*
X141575000Y-66900000D02*
X141277011Y-67197989D01*
X114687462Y-65825000D02*
X111935000Y-65825000D01*
%TO.N,/SCK*%
X129891826Y-58141826D02*
X129891826Y-58141812D01*
X133050000Y-61300000D02*
X129891826Y-58141826D01*
%TO.N,Net-(Q1-Pad1)*%
X142552011Y-60935452D02*
X141960452Y-61527011D01*
X142552011Y-57630946D02*
X142552011Y-60935452D01*
X141960452Y-61527011D02*
X140327011Y-61527011D01*
X141300000Y-56378935D02*
X142552011Y-57630946D01*
X140327011Y-61527011D02*
X140300000Y-61500000D01*
X141300000Y-53300000D02*
X141300000Y-56378935D01*
X140250000Y-52250000D02*
X141300000Y-53300000D01*
%TO.N,/RX*%
X139300000Y-63637500D02*
X139600000Y-63937500D01*
X139300000Y-62050000D02*
X139300000Y-63637500D01*
%TO.N,/TX*%
X137651618Y-63937500D02*
X137600000Y-63937500D01*
X138800000Y-62789118D02*
X137651618Y-63937500D01*
X138800000Y-62050000D02*
X138800000Y-62789118D01*
%TO.N,/IND*%
X141267158Y-60450000D02*
X141550000Y-60450000D01*
X140317158Y-59500000D02*
X141267158Y-60450000D01*
X136150000Y-59500000D02*
X140317158Y-59500000D01*
%TO.N,/INC*%
X141550000Y-59900000D02*
X140722990Y-59072990D01*
X140722990Y-59072990D02*
X136950000Y-59072990D01*
%TD*%
D33*
%TO.N,GND*%
X174409501Y-69739447D02*
X174407829Y-69756503D01*
X174405941Y-69762755D01*
X174402877Y-69768518D01*
X174398747Y-69773582D01*
X174393718Y-69777743D01*
X174387967Y-69780852D01*
X174381729Y-69782783D01*
X174365391Y-69784500D01*
X148040500Y-69784500D01*
X148040500Y-65211751D01*
X148136751Y-65115500D01*
X150030822Y-65115500D01*
X150050000Y-65117389D01*
X150069178Y-65115500D01*
X150126551Y-65109849D01*
X150200161Y-65087520D01*
X150268000Y-65051260D01*
X150327461Y-65002461D01*
X150339690Y-64987560D01*
X151137560Y-64189690D01*
X151152461Y-64177461D01*
X151201260Y-64118000D01*
X151237520Y-64050161D01*
X151251665Y-64003531D01*
X151266421Y-63991421D01*
X151308881Y-63939683D01*
X151340432Y-63880656D01*
X151359861Y-63816608D01*
X151366421Y-63750000D01*
X151366421Y-62100000D01*
X151359861Y-62033392D01*
X151340432Y-61969344D01*
X151308881Y-61910317D01*
X151266421Y-61858579D01*
X151265500Y-61857823D01*
X151265500Y-60688023D01*
X151300000Y-60691421D01*
X152214908Y-60691421D01*
X152724501Y-61201015D01*
X152724500Y-62958921D01*
X152734491Y-63060361D01*
X152773975Y-63190520D01*
X152838092Y-63310476D01*
X152923579Y-63414643D01*
X152923579Y-63750000D01*
X152930139Y-63816608D01*
X152949568Y-63880656D01*
X152981119Y-63939683D01*
X153023579Y-63991421D01*
X153075317Y-64033881D01*
X153134344Y-64065432D01*
X153198392Y-64084861D01*
X153265000Y-64091421D01*
X153565000Y-64091421D01*
X153631608Y-64084861D01*
X153695656Y-64065432D01*
X153754683Y-64033881D01*
X153806421Y-63991421D01*
X153848881Y-63939683D01*
X153880432Y-63880656D01*
X153899861Y-63816608D01*
X153906421Y-63750000D01*
X153906421Y-63414643D01*
X153991908Y-63310477D01*
X154050000Y-63201793D01*
X154108092Y-63310476D01*
X154193579Y-63414643D01*
X154193579Y-63750000D01*
X154200139Y-63816608D01*
X154219568Y-63880656D01*
X154251119Y-63939683D01*
X154293579Y-63991421D01*
X154345317Y-64033881D01*
X154404344Y-64065432D01*
X154468392Y-64084861D01*
X154535000Y-64091421D01*
X154835000Y-64091421D01*
X154901608Y-64084861D01*
X154965656Y-64065432D01*
X155024683Y-64033881D01*
X155076421Y-63991421D01*
X155118881Y-63939683D01*
X155150432Y-63880656D01*
X155169861Y-63816608D01*
X155176421Y-63750000D01*
X155176421Y-63414643D01*
X155261908Y-63310477D01*
X155326025Y-63190521D01*
X155365509Y-63060362D01*
X155375500Y-62958922D01*
X155375500Y-61061013D01*
X155746014Y-60690500D01*
X155912480Y-60690500D01*
X155970815Y-60678897D01*
X155692436Y-60957276D01*
X155677540Y-60969501D01*
X155628741Y-61028962D01*
X155622563Y-61040521D01*
X155592480Y-61096802D01*
X155570151Y-61170411D01*
X155562611Y-61246962D01*
X155564501Y-61266150D01*
X155564501Y-61857823D01*
X155563579Y-61858579D01*
X155521119Y-61910317D01*
X155489568Y-61969344D01*
X155470139Y-62033392D01*
X155463579Y-62100000D01*
X155463579Y-63750000D01*
X155470139Y-63816608D01*
X155489568Y-63880656D01*
X155521119Y-63939683D01*
X155563579Y-63991421D01*
X155615317Y-64033881D01*
X155674344Y-64065432D01*
X155738392Y-64084861D01*
X155805000Y-64091421D01*
X156105000Y-64091421D01*
X156171608Y-64084861D01*
X156235656Y-64065432D01*
X156294683Y-64033881D01*
X156346421Y-63991421D01*
X156388881Y-63939683D01*
X156420432Y-63880656D01*
X156439861Y-63816608D01*
X156446421Y-63750000D01*
X156446421Y-62100000D01*
X156439861Y-62033392D01*
X156420432Y-61969344D01*
X156388881Y-61910317D01*
X156346421Y-61858579D01*
X156345500Y-61857823D01*
X156345500Y-61408712D01*
X157249567Y-60504646D01*
X157264462Y-60492422D01*
X157308579Y-60438666D01*
X157308579Y-60500000D01*
X157312257Y-60537344D01*
X157323150Y-60573254D01*
X157340839Y-60606348D01*
X157364645Y-60635355D01*
X157393652Y-60659161D01*
X157426746Y-60676850D01*
X157462656Y-60687743D01*
X157500000Y-60691421D01*
X157804501Y-60691421D01*
X157804500Y-62958921D01*
X157814491Y-63060361D01*
X157853975Y-63190520D01*
X157918092Y-63310476D01*
X158003579Y-63414643D01*
X158003579Y-63750000D01*
X158010139Y-63816608D01*
X158029568Y-63880656D01*
X158061119Y-63939683D01*
X158103579Y-63991421D01*
X158155317Y-64033881D01*
X158214344Y-64065432D01*
X158278392Y-64084861D01*
X158345000Y-64091421D01*
X158425924Y-64091421D01*
X156734856Y-65782490D01*
X155797535Y-65782490D01*
X155793966Y-65746252D01*
X155760200Y-65634942D01*
X155705368Y-65532359D01*
X155631577Y-65442443D01*
X155609038Y-65423946D01*
X155358673Y-65173581D01*
X155358671Y-65173578D01*
X155276422Y-65091329D01*
X155252179Y-65075130D01*
X155229651Y-65056642D01*
X155203949Y-65042904D01*
X155179707Y-65026706D01*
X155152770Y-65015548D01*
X155127067Y-65001810D01*
X155099177Y-64993350D01*
X155072242Y-64982193D01*
X155043647Y-64976505D01*
X155015758Y-64968045D01*
X154986755Y-64965188D01*
X154958159Y-64959500D01*
X154929005Y-64959500D01*
X154900000Y-64956643D01*
X154870995Y-64959500D01*
X154841841Y-64959500D01*
X154813245Y-64965188D01*
X154784242Y-64968045D01*
X154756353Y-64976505D01*
X154727758Y-64982193D01*
X154700823Y-64993350D01*
X154672933Y-65001810D01*
X154647230Y-65015548D01*
X154620293Y-65026706D01*
X154596051Y-65042904D01*
X154570349Y-65056642D01*
X154547822Y-65075130D01*
X154523578Y-65091329D01*
X154502959Y-65111948D01*
X154480434Y-65130434D01*
X154461948Y-65152959D01*
X154441329Y-65173578D01*
X154425130Y-65197822D01*
X154406642Y-65220349D01*
X154392904Y-65246051D01*
X154376706Y-65270293D01*
X154365548Y-65297230D01*
X154351810Y-65322933D01*
X154343350Y-65350823D01*
X154332193Y-65377758D01*
X154326505Y-65406353D01*
X154318045Y-65434242D01*
X154315188Y-65463245D01*
X154309500Y-65491841D01*
X154309500Y-65520995D01*
X154306643Y-65550000D01*
X154309500Y-65579005D01*
X154309500Y-65608159D01*
X154315188Y-65636755D01*
X154318045Y-65665758D01*
X154326505Y-65693647D01*
X154332193Y-65722242D01*
X154343350Y-65749177D01*
X154351810Y-65777067D01*
X154354709Y-65782490D01*
X150473577Y-65782490D01*
X150444571Y-65779633D01*
X150415566Y-65782490D01*
X150415564Y-65782490D01*
X150328814Y-65791034D01*
X150221958Y-65823449D01*
X150217504Y-65824800D01*
X150114920Y-65879632D01*
X150090102Y-65900000D01*
X150025005Y-65953423D01*
X150006513Y-65975956D01*
X149207972Y-66774498D01*
X149185433Y-66792995D01*
X149138640Y-66850014D01*
X149111642Y-66882911D01*
X149091187Y-66921180D01*
X149056810Y-66985495D01*
X149023044Y-67096805D01*
X149014500Y-67183554D01*
X149011643Y-67212562D01*
X149014500Y-67241567D01*
X149014500Y-67904008D01*
X149023044Y-67990758D01*
X149056810Y-68102068D01*
X149111643Y-68204651D01*
X149113579Y-68207010D01*
X149113579Y-68700000D01*
X149120139Y-68766608D01*
X149139568Y-68830656D01*
X149171119Y-68889683D01*
X149213579Y-68941421D01*
X149265317Y-68983881D01*
X149324344Y-69015432D01*
X149388392Y-69034861D01*
X149455000Y-69041421D01*
X149755000Y-69041421D01*
X149821608Y-69034861D01*
X149885656Y-69015432D01*
X149944683Y-68983881D01*
X149996421Y-68941421D01*
X150038881Y-68889683D01*
X150070432Y-68830656D01*
X150089861Y-68766608D01*
X150096421Y-68700000D01*
X150096421Y-68207011D01*
X150098358Y-68204651D01*
X150153190Y-68102068D01*
X150186956Y-67990758D01*
X150195500Y-67904008D01*
X150195500Y-67457154D01*
X150383579Y-67269075D01*
X150383579Y-68700000D01*
X150390139Y-68766608D01*
X150409568Y-68830656D01*
X150441119Y-68889683D01*
X150483579Y-68941421D01*
X150535317Y-68983881D01*
X150594344Y-69015432D01*
X150658392Y-69034861D01*
X150725000Y-69041421D01*
X151025000Y-69041421D01*
X151091608Y-69034861D01*
X151155656Y-69015432D01*
X151214683Y-68983881D01*
X151266421Y-68941421D01*
X151308881Y-68889683D01*
X151340432Y-68830656D01*
X151359861Y-68766608D01*
X151366421Y-68700000D01*
X151366421Y-68055697D01*
X151371650Y-68043073D01*
X151390500Y-67948310D01*
X151390500Y-67851690D01*
X151371650Y-67756927D01*
X151366421Y-67744303D01*
X151366421Y-67050000D01*
X151359861Y-66983392D01*
X151353824Y-66963490D01*
X151666176Y-66963490D01*
X151660139Y-66983392D01*
X151653579Y-67050000D01*
X151653579Y-68700000D01*
X151660139Y-68766608D01*
X151679568Y-68830656D01*
X151711119Y-68889683D01*
X151753579Y-68941421D01*
X151805317Y-68983881D01*
X151864344Y-69015432D01*
X151928392Y-69034861D01*
X151995000Y-69041421D01*
X152295000Y-69041421D01*
X152361608Y-69034861D01*
X152425656Y-69015432D01*
X152484683Y-68983881D01*
X152536421Y-68941421D01*
X152578881Y-68889683D01*
X152610432Y-68830656D01*
X152629861Y-68766608D01*
X152636421Y-68700000D01*
X152636421Y-67968816D01*
X152640500Y-67948310D01*
X152640500Y-67851690D01*
X152636421Y-67831184D01*
X152636421Y-67050000D01*
X152629861Y-66983392D01*
X152623824Y-66963490D01*
X152936176Y-66963490D01*
X152930139Y-66983392D01*
X152923579Y-67050000D01*
X152923579Y-68700000D01*
X152930139Y-68766608D01*
X152949568Y-68830656D01*
X152981119Y-68889683D01*
X153023579Y-68941421D01*
X153075317Y-68983881D01*
X153134344Y-69015432D01*
X153198392Y-69034861D01*
X153265000Y-69041421D01*
X153565000Y-69041421D01*
X153631608Y-69034861D01*
X153695656Y-69015432D01*
X153754683Y-68983881D01*
X153806421Y-68941421D01*
X153848881Y-68889683D01*
X153880432Y-68830656D01*
X153899861Y-68766608D01*
X153906421Y-68700000D01*
X153906421Y-67050000D01*
X153899861Y-66983392D01*
X153893824Y-66963490D01*
X154094500Y-66963490D01*
X154094501Y-67904008D01*
X154103045Y-67990758D01*
X154136811Y-68102068D01*
X154191643Y-68204651D01*
X154193579Y-68207010D01*
X154193579Y-68700000D01*
X154200139Y-68766608D01*
X154219568Y-68830656D01*
X154251119Y-68889683D01*
X154293579Y-68941421D01*
X154345317Y-68983881D01*
X154404344Y-69015432D01*
X154468392Y-69034861D01*
X154535000Y-69041421D01*
X154835000Y-69041421D01*
X154901608Y-69034861D01*
X154965656Y-69015432D01*
X155024683Y-68983881D01*
X155076421Y-68941421D01*
X155118881Y-68889683D01*
X155150432Y-68830656D01*
X155169861Y-68766608D01*
X155176421Y-68700000D01*
X155176421Y-68207011D01*
X155178358Y-68204651D01*
X155233190Y-68102068D01*
X155266956Y-67990758D01*
X155275500Y-67904008D01*
X155275500Y-67144592D01*
X155456603Y-66963490D01*
X155476176Y-66963490D01*
X155470139Y-66983392D01*
X155463579Y-67050000D01*
X155463579Y-67831184D01*
X155459500Y-67851690D01*
X155459500Y-67948310D01*
X155463579Y-67968816D01*
X155463579Y-68700000D01*
X155470139Y-68766608D01*
X155489568Y-68830656D01*
X155521119Y-68889683D01*
X155563579Y-68941421D01*
X155615317Y-68983881D01*
X155674344Y-69015432D01*
X155738392Y-69034861D01*
X155805000Y-69041421D01*
X156105000Y-69041421D01*
X156171608Y-69034861D01*
X156235656Y-69015432D01*
X156294683Y-68983881D01*
X156346421Y-68941421D01*
X156388881Y-68889683D01*
X156420432Y-68830656D01*
X156439861Y-68766608D01*
X156446421Y-68700000D01*
X156446421Y-67050000D01*
X156439861Y-66983392D01*
X156433824Y-66963490D01*
X156746176Y-66963490D01*
X156740139Y-66983392D01*
X156733579Y-67050000D01*
X156733579Y-68700000D01*
X156740139Y-68766608D01*
X156759568Y-68830656D01*
X156791119Y-68889683D01*
X156833579Y-68941421D01*
X156885317Y-68983881D01*
X156944344Y-69015432D01*
X157008392Y-69034861D01*
X157075000Y-69041421D01*
X157375000Y-69041421D01*
X157441608Y-69034861D01*
X157505656Y-69015432D01*
X157564683Y-68983881D01*
X157616421Y-68941421D01*
X157658881Y-68889683D01*
X157690432Y-68830656D01*
X157709861Y-68766608D01*
X157716421Y-68700000D01*
X157716421Y-68055697D01*
X157721650Y-68043073D01*
X157740500Y-67948310D01*
X157740500Y-67851690D01*
X157721650Y-67756927D01*
X157716421Y-67744303D01*
X157716421Y-67050000D01*
X158003579Y-67050000D01*
X158003579Y-68700000D01*
X158010139Y-68766608D01*
X158029568Y-68830656D01*
X158061119Y-68889683D01*
X158103579Y-68941421D01*
X158155317Y-68983881D01*
X158214344Y-69015432D01*
X158278392Y-69034861D01*
X158345000Y-69041421D01*
X158645000Y-69041421D01*
X158711608Y-69034861D01*
X158775656Y-69015432D01*
X158834683Y-68983881D01*
X158886421Y-68941421D01*
X158928881Y-68889683D01*
X158960432Y-68830656D01*
X158979861Y-68766608D01*
X158986421Y-68700000D01*
X158986421Y-67050000D01*
X158979861Y-66983392D01*
X158960432Y-66919344D01*
X158928881Y-66860317D01*
X158886421Y-66808579D01*
X158834683Y-66766119D01*
X158775656Y-66734568D01*
X158711608Y-66715139D01*
X158645000Y-66708579D01*
X158345000Y-66708579D01*
X158278392Y-66715139D01*
X158214344Y-66734568D01*
X158155317Y-66766119D01*
X158103579Y-66808579D01*
X158061119Y-66860317D01*
X158029568Y-66919344D01*
X158010139Y-66983392D01*
X158003579Y-67050000D01*
X157716421Y-67050000D01*
X157709861Y-66983392D01*
X157690432Y-66919344D01*
X157658881Y-66860317D01*
X157616421Y-66808579D01*
X157564683Y-66766119D01*
X157505656Y-66734568D01*
X157465226Y-66722304D01*
X160202033Y-63985498D01*
X160224566Y-63967006D01*
X160295431Y-63880656D01*
X160298357Y-63877091D01*
X160353189Y-63774507D01*
X160360623Y-63750000D01*
X160360623Y-63749999D01*
X170108579Y-63749999D01*
X170108579Y-64275001D01*
X170117061Y-64361118D01*
X170142180Y-64443925D01*
X170182972Y-64520241D01*
X170237868Y-64587132D01*
X170304759Y-64642028D01*
X170381075Y-64682820D01*
X170463882Y-64707939D01*
X170549999Y-64716421D01*
X171450001Y-64716421D01*
X171536118Y-64707939D01*
X171618925Y-64682820D01*
X171695241Y-64642028D01*
X171762132Y-64587132D01*
X171817028Y-64520241D01*
X171857820Y-64443925D01*
X171882939Y-64361118D01*
X171891421Y-64275001D01*
X171891421Y-63749999D01*
X171882939Y-63663882D01*
X171857820Y-63581075D01*
X171817028Y-63504759D01*
X171762132Y-63437868D01*
X171695241Y-63382972D01*
X171618925Y-63342180D01*
X171536118Y-63317061D01*
X171450001Y-63308579D01*
X171377408Y-63308579D01*
X171329707Y-63276706D01*
X171222242Y-63232193D01*
X171108159Y-63209500D01*
X170991841Y-63209500D01*
X170877758Y-63232193D01*
X170770293Y-63276706D01*
X170722592Y-63308579D01*
X170549999Y-63308579D01*
X170463882Y-63317061D01*
X170381075Y-63342180D01*
X170304759Y-63382972D01*
X170237868Y-63437868D01*
X170182972Y-63504759D01*
X170142180Y-63581075D01*
X170117061Y-63663882D01*
X170108579Y-63749999D01*
X160360623Y-63749999D01*
X160386955Y-63663197D01*
X160395499Y-63576447D01*
X160395499Y-63576445D01*
X160398356Y-63547439D01*
X160395499Y-63518434D01*
X160395499Y-60470938D01*
X160612924Y-60995847D01*
X160970074Y-61530360D01*
X161424640Y-61984926D01*
X161959153Y-62342076D01*
X162553072Y-62588086D01*
X163183573Y-62713500D01*
X163826427Y-62713500D01*
X164456928Y-62588086D01*
X165050847Y-62342076D01*
X165585360Y-61984926D01*
X165645287Y-61924999D01*
X170108579Y-61924999D01*
X170108579Y-62450001D01*
X170117061Y-62536118D01*
X170142180Y-62618925D01*
X170182972Y-62695241D01*
X170237868Y-62762132D01*
X170304759Y-62817028D01*
X170381075Y-62857820D01*
X170463882Y-62882939D01*
X170549999Y-62891421D01*
X171450001Y-62891421D01*
X171536118Y-62882939D01*
X171618925Y-62857820D01*
X171695241Y-62817028D01*
X171742797Y-62778000D01*
X172350287Y-62778000D01*
X172406075Y-62807820D01*
X172488883Y-62832939D01*
X172575000Y-62841421D01*
X173525000Y-62841421D01*
X173611117Y-62832939D01*
X173693925Y-62807820D01*
X173770240Y-62767028D01*
X173837132Y-62712132D01*
X173892028Y-62645240D01*
X173932820Y-62568925D01*
X173957939Y-62486117D01*
X173966421Y-62400000D01*
X173966421Y-61900000D01*
X173957939Y-61813883D01*
X173932820Y-61731075D01*
X173892028Y-61654760D01*
X173837132Y-61587868D01*
X173770240Y-61532972D01*
X173693925Y-61492180D01*
X173640500Y-61475974D01*
X173640500Y-61391421D01*
X173900000Y-61391421D01*
X173937344Y-61387743D01*
X173973254Y-61376850D01*
X174006348Y-61359161D01*
X174035355Y-61335355D01*
X174059161Y-61306348D01*
X174076850Y-61273254D01*
X174087743Y-61237344D01*
X174091421Y-61200000D01*
X174091421Y-57700000D01*
X174087743Y-57662656D01*
X174076850Y-57626746D01*
X174059161Y-57593652D01*
X174035355Y-57564645D01*
X174006348Y-57540839D01*
X173973254Y-57523150D01*
X173937344Y-57512257D01*
X173900000Y-57508579D01*
X170400000Y-57508579D01*
X170362656Y-57512257D01*
X170326746Y-57523150D01*
X170293652Y-57540839D01*
X170264645Y-57564645D01*
X170240839Y-57593652D01*
X170223150Y-57626746D01*
X170212257Y-57662656D01*
X170208579Y-57700000D01*
X170208579Y-61200000D01*
X170212257Y-61237344D01*
X170223150Y-61273254D01*
X170240839Y-61306348D01*
X170264645Y-61335355D01*
X170293652Y-61359161D01*
X170326746Y-61376850D01*
X170362656Y-61387743D01*
X170400000Y-61391421D01*
X170409500Y-61391421D01*
X170409501Y-61508557D01*
X170381075Y-61517180D01*
X170304759Y-61557972D01*
X170237868Y-61612868D01*
X170182972Y-61679759D01*
X170142180Y-61756075D01*
X170117061Y-61838882D01*
X170108579Y-61924999D01*
X165645287Y-61924999D01*
X166039926Y-61530360D01*
X166397076Y-60995847D01*
X166643086Y-60401928D01*
X166768500Y-59771427D01*
X166768500Y-59128573D01*
X166643086Y-58498072D01*
X166397076Y-57904153D01*
X166039926Y-57369640D01*
X165585360Y-56915074D01*
X165050847Y-56557924D01*
X164525938Y-56340499D01*
X166633362Y-56340499D01*
X166633362Y-56754673D01*
X166631472Y-56773861D01*
X166639012Y-56850412D01*
X166661341Y-56924021D01*
X166661342Y-56924022D01*
X166697602Y-56991861D01*
X166746401Y-57051322D01*
X166761297Y-57063547D01*
X167862838Y-58165088D01*
X167878350Y-58243073D01*
X167915325Y-58332339D01*
X167969004Y-58412675D01*
X168037325Y-58480996D01*
X168117661Y-58534675D01*
X168206927Y-58571650D01*
X168301690Y-58590500D01*
X168398310Y-58590500D01*
X168493073Y-58571650D01*
X168582339Y-58534675D01*
X168662675Y-58480996D01*
X168730996Y-58412675D01*
X168784675Y-58332339D01*
X168821650Y-58243073D01*
X168840500Y-58148310D01*
X168840500Y-58051690D01*
X168821650Y-57956927D01*
X168784675Y-57867661D01*
X168730996Y-57787325D01*
X168662675Y-57719004D01*
X168582339Y-57665325D01*
X168493073Y-57628350D01*
X168415088Y-57612838D01*
X167414361Y-56612111D01*
X167414361Y-56193420D01*
X167443428Y-56169566D01*
X167461925Y-56147027D01*
X167745452Y-55863500D01*
X174375000Y-55863500D01*
X174387388Y-55862280D01*
X174399300Y-55858666D01*
X174409500Y-55853214D01*
X174409501Y-69739447D01*
%TA.AperFunction,Conductor*%
D34*
G36*
X174409501Y-69739447D02*
G01*
X174407829Y-69756503D01*
X174405941Y-69762755D01*
X174402877Y-69768518D01*
X174398747Y-69773582D01*
X174393718Y-69777743D01*
X174387967Y-69780852D01*
X174381729Y-69782783D01*
X174365391Y-69784500D01*
X148040500Y-69784500D01*
X148040500Y-65211751D01*
X148136751Y-65115500D01*
X150030822Y-65115500D01*
X150050000Y-65117389D01*
X150069178Y-65115500D01*
X150126551Y-65109849D01*
X150200161Y-65087520D01*
X150268000Y-65051260D01*
X150327461Y-65002461D01*
X150339690Y-64987560D01*
X151137560Y-64189690D01*
X151152461Y-64177461D01*
X151201260Y-64118000D01*
X151237520Y-64050161D01*
X151251665Y-64003531D01*
X151266421Y-63991421D01*
X151308881Y-63939683D01*
X151340432Y-63880656D01*
X151359861Y-63816608D01*
X151366421Y-63750000D01*
X151366421Y-62100000D01*
X151359861Y-62033392D01*
X151340432Y-61969344D01*
X151308881Y-61910317D01*
X151266421Y-61858579D01*
X151265500Y-61857823D01*
X151265500Y-60688023D01*
X151300000Y-60691421D01*
X152214908Y-60691421D01*
X152724501Y-61201015D01*
X152724500Y-62958921D01*
X152734491Y-63060361D01*
X152773975Y-63190520D01*
X152838092Y-63310476D01*
X152923579Y-63414643D01*
X152923579Y-63750000D01*
X152930139Y-63816608D01*
X152949568Y-63880656D01*
X152981119Y-63939683D01*
X153023579Y-63991421D01*
X153075317Y-64033881D01*
X153134344Y-64065432D01*
X153198392Y-64084861D01*
X153265000Y-64091421D01*
X153565000Y-64091421D01*
X153631608Y-64084861D01*
X153695656Y-64065432D01*
X153754683Y-64033881D01*
X153806421Y-63991421D01*
X153848881Y-63939683D01*
X153880432Y-63880656D01*
X153899861Y-63816608D01*
X153906421Y-63750000D01*
X153906421Y-63414643D01*
X153991908Y-63310477D01*
X154050000Y-63201793D01*
X154108092Y-63310476D01*
X154193579Y-63414643D01*
X154193579Y-63750000D01*
X154200139Y-63816608D01*
X154219568Y-63880656D01*
X154251119Y-63939683D01*
X154293579Y-63991421D01*
X154345317Y-64033881D01*
X154404344Y-64065432D01*
X154468392Y-64084861D01*
X154535000Y-64091421D01*
X154835000Y-64091421D01*
X154901608Y-64084861D01*
X154965656Y-64065432D01*
X155024683Y-64033881D01*
X155076421Y-63991421D01*
X155118881Y-63939683D01*
X155150432Y-63880656D01*
X155169861Y-63816608D01*
X155176421Y-63750000D01*
X155176421Y-63414643D01*
X155261908Y-63310477D01*
X155326025Y-63190521D01*
X155365509Y-63060362D01*
X155375500Y-62958922D01*
X155375500Y-61061013D01*
X155746014Y-60690500D01*
X155912480Y-60690500D01*
X155970815Y-60678897D01*
X155692436Y-60957276D01*
X155677540Y-60969501D01*
X155628741Y-61028962D01*
X155622563Y-61040521D01*
X155592480Y-61096802D01*
X155570151Y-61170411D01*
X155562611Y-61246962D01*
X155564501Y-61266150D01*
X155564501Y-61857823D01*
X155563579Y-61858579D01*
X155521119Y-61910317D01*
X155489568Y-61969344D01*
X155470139Y-62033392D01*
X155463579Y-62100000D01*
X155463579Y-63750000D01*
X155470139Y-63816608D01*
X155489568Y-63880656D01*
X155521119Y-63939683D01*
X155563579Y-63991421D01*
X155615317Y-64033881D01*
X155674344Y-64065432D01*
X155738392Y-64084861D01*
X155805000Y-64091421D01*
X156105000Y-64091421D01*
X156171608Y-64084861D01*
X156235656Y-64065432D01*
X156294683Y-64033881D01*
X156346421Y-63991421D01*
X156388881Y-63939683D01*
X156420432Y-63880656D01*
X156439861Y-63816608D01*
X156446421Y-63750000D01*
X156446421Y-62100000D01*
X156439861Y-62033392D01*
X156420432Y-61969344D01*
X156388881Y-61910317D01*
X156346421Y-61858579D01*
X156345500Y-61857823D01*
X156345500Y-61408712D01*
X157249567Y-60504646D01*
X157264462Y-60492422D01*
X157308579Y-60438666D01*
X157308579Y-60500000D01*
X157312257Y-60537344D01*
X157323150Y-60573254D01*
X157340839Y-60606348D01*
X157364645Y-60635355D01*
X157393652Y-60659161D01*
X157426746Y-60676850D01*
X157462656Y-60687743D01*
X157500000Y-60691421D01*
X157804501Y-60691421D01*
X157804500Y-62958921D01*
X157814491Y-63060361D01*
X157853975Y-63190520D01*
X157918092Y-63310476D01*
X158003579Y-63414643D01*
X158003579Y-63750000D01*
X158010139Y-63816608D01*
X158029568Y-63880656D01*
X158061119Y-63939683D01*
X158103579Y-63991421D01*
X158155317Y-64033881D01*
X158214344Y-64065432D01*
X158278392Y-64084861D01*
X158345000Y-64091421D01*
X158425924Y-64091421D01*
X156734856Y-65782490D01*
X155797535Y-65782490D01*
X155793966Y-65746252D01*
X155760200Y-65634942D01*
X155705368Y-65532359D01*
X155631577Y-65442443D01*
X155609038Y-65423946D01*
X155358673Y-65173581D01*
X155358671Y-65173578D01*
X155276422Y-65091329D01*
X155252179Y-65075130D01*
X155229651Y-65056642D01*
X155203949Y-65042904D01*
X155179707Y-65026706D01*
X155152770Y-65015548D01*
X155127067Y-65001810D01*
X155099177Y-64993350D01*
X155072242Y-64982193D01*
X155043647Y-64976505D01*
X155015758Y-64968045D01*
X154986755Y-64965188D01*
X154958159Y-64959500D01*
X154929005Y-64959500D01*
X154900000Y-64956643D01*
X154870995Y-64959500D01*
X154841841Y-64959500D01*
X154813245Y-64965188D01*
X154784242Y-64968045D01*
X154756353Y-64976505D01*
X154727758Y-64982193D01*
X154700823Y-64993350D01*
X154672933Y-65001810D01*
X154647230Y-65015548D01*
X154620293Y-65026706D01*
X154596051Y-65042904D01*
X154570349Y-65056642D01*
X154547822Y-65075130D01*
X154523578Y-65091329D01*
X154502959Y-65111948D01*
X154480434Y-65130434D01*
X154461948Y-65152959D01*
X154441329Y-65173578D01*
X154425130Y-65197822D01*
X154406642Y-65220349D01*
X154392904Y-65246051D01*
X154376706Y-65270293D01*
X154365548Y-65297230D01*
X154351810Y-65322933D01*
X154343350Y-65350823D01*
X154332193Y-65377758D01*
X154326505Y-65406353D01*
X154318045Y-65434242D01*
X154315188Y-65463245D01*
X154309500Y-65491841D01*
X154309500Y-65520995D01*
X154306643Y-65550000D01*
X154309500Y-65579005D01*
X154309500Y-65608159D01*
X154315188Y-65636755D01*
X154318045Y-65665758D01*
X154326505Y-65693647D01*
X154332193Y-65722242D01*
X154343350Y-65749177D01*
X154351810Y-65777067D01*
X154354709Y-65782490D01*
X150473577Y-65782490D01*
X150444571Y-65779633D01*
X150415566Y-65782490D01*
X150415564Y-65782490D01*
X150328814Y-65791034D01*
X150221958Y-65823449D01*
X150217504Y-65824800D01*
X150114920Y-65879632D01*
X150090102Y-65900000D01*
X150025005Y-65953423D01*
X150006513Y-65975956D01*
X149207972Y-66774498D01*
X149185433Y-66792995D01*
X149138640Y-66850014D01*
X149111642Y-66882911D01*
X149091187Y-66921180D01*
X149056810Y-66985495D01*
X149023044Y-67096805D01*
X149014500Y-67183554D01*
X149011643Y-67212562D01*
X149014500Y-67241567D01*
X149014500Y-67904008D01*
X149023044Y-67990758D01*
X149056810Y-68102068D01*
X149111643Y-68204651D01*
X149113579Y-68207010D01*
X149113579Y-68700000D01*
X149120139Y-68766608D01*
X149139568Y-68830656D01*
X149171119Y-68889683D01*
X149213579Y-68941421D01*
X149265317Y-68983881D01*
X149324344Y-69015432D01*
X149388392Y-69034861D01*
X149455000Y-69041421D01*
X149755000Y-69041421D01*
X149821608Y-69034861D01*
X149885656Y-69015432D01*
X149944683Y-68983881D01*
X149996421Y-68941421D01*
X150038881Y-68889683D01*
X150070432Y-68830656D01*
X150089861Y-68766608D01*
X150096421Y-68700000D01*
X150096421Y-68207011D01*
X150098358Y-68204651D01*
X150153190Y-68102068D01*
X150186956Y-67990758D01*
X150195500Y-67904008D01*
X150195500Y-67457154D01*
X150383579Y-67269075D01*
X150383579Y-68700000D01*
X150390139Y-68766608D01*
X150409568Y-68830656D01*
X150441119Y-68889683D01*
X150483579Y-68941421D01*
X150535317Y-68983881D01*
X150594344Y-69015432D01*
X150658392Y-69034861D01*
X150725000Y-69041421D01*
X151025000Y-69041421D01*
X151091608Y-69034861D01*
X151155656Y-69015432D01*
X151214683Y-68983881D01*
X151266421Y-68941421D01*
X151308881Y-68889683D01*
X151340432Y-68830656D01*
X151359861Y-68766608D01*
X151366421Y-68700000D01*
X151366421Y-68055697D01*
X151371650Y-68043073D01*
X151390500Y-67948310D01*
X151390500Y-67851690D01*
X151371650Y-67756927D01*
X151366421Y-67744303D01*
X151366421Y-67050000D01*
X151359861Y-66983392D01*
X151353824Y-66963490D01*
X151666176Y-66963490D01*
X151660139Y-66983392D01*
X151653579Y-67050000D01*
X151653579Y-68700000D01*
X151660139Y-68766608D01*
X151679568Y-68830656D01*
X151711119Y-68889683D01*
X151753579Y-68941421D01*
X151805317Y-68983881D01*
X151864344Y-69015432D01*
X151928392Y-69034861D01*
X151995000Y-69041421D01*
X152295000Y-69041421D01*
X152361608Y-69034861D01*
X152425656Y-69015432D01*
X152484683Y-68983881D01*
X152536421Y-68941421D01*
X152578881Y-68889683D01*
X152610432Y-68830656D01*
X152629861Y-68766608D01*
X152636421Y-68700000D01*
X152636421Y-67968816D01*
X152640500Y-67948310D01*
X152640500Y-67851690D01*
X152636421Y-67831184D01*
X152636421Y-67050000D01*
X152629861Y-66983392D01*
X152623824Y-66963490D01*
X152936176Y-66963490D01*
X152930139Y-66983392D01*
X152923579Y-67050000D01*
X152923579Y-68700000D01*
X152930139Y-68766608D01*
X152949568Y-68830656D01*
X152981119Y-68889683D01*
X153023579Y-68941421D01*
X153075317Y-68983881D01*
X153134344Y-69015432D01*
X153198392Y-69034861D01*
X153265000Y-69041421D01*
X153565000Y-69041421D01*
X153631608Y-69034861D01*
X153695656Y-69015432D01*
X153754683Y-68983881D01*
X153806421Y-68941421D01*
X153848881Y-68889683D01*
X153880432Y-68830656D01*
X153899861Y-68766608D01*
X153906421Y-68700000D01*
X153906421Y-67050000D01*
X153899861Y-66983392D01*
X153893824Y-66963490D01*
X154094500Y-66963490D01*
X154094501Y-67904008D01*
X154103045Y-67990758D01*
X154136811Y-68102068D01*
X154191643Y-68204651D01*
X154193579Y-68207010D01*
X154193579Y-68700000D01*
X154200139Y-68766608D01*
X154219568Y-68830656D01*
X154251119Y-68889683D01*
X154293579Y-68941421D01*
X154345317Y-68983881D01*
X154404344Y-69015432D01*
X154468392Y-69034861D01*
X154535000Y-69041421D01*
X154835000Y-69041421D01*
X154901608Y-69034861D01*
X154965656Y-69015432D01*
X155024683Y-68983881D01*
X155076421Y-68941421D01*
X155118881Y-68889683D01*
X155150432Y-68830656D01*
X155169861Y-68766608D01*
X155176421Y-68700000D01*
X155176421Y-68207011D01*
X155178358Y-68204651D01*
X155233190Y-68102068D01*
X155266956Y-67990758D01*
X155275500Y-67904008D01*
X155275500Y-67144592D01*
X155456603Y-66963490D01*
X155476176Y-66963490D01*
X155470139Y-66983392D01*
X155463579Y-67050000D01*
X155463579Y-67831184D01*
X155459500Y-67851690D01*
X155459500Y-67948310D01*
X155463579Y-67968816D01*
X155463579Y-68700000D01*
X155470139Y-68766608D01*
X155489568Y-68830656D01*
X155521119Y-68889683D01*
X155563579Y-68941421D01*
X155615317Y-68983881D01*
X155674344Y-69015432D01*
X155738392Y-69034861D01*
X155805000Y-69041421D01*
X156105000Y-69041421D01*
X156171608Y-69034861D01*
X156235656Y-69015432D01*
X156294683Y-68983881D01*
X156346421Y-68941421D01*
X156388881Y-68889683D01*
X156420432Y-68830656D01*
X156439861Y-68766608D01*
X156446421Y-68700000D01*
X156446421Y-67050000D01*
X156439861Y-66983392D01*
X156433824Y-66963490D01*
X156746176Y-66963490D01*
X156740139Y-66983392D01*
X156733579Y-67050000D01*
X156733579Y-68700000D01*
X156740139Y-68766608D01*
X156759568Y-68830656D01*
X156791119Y-68889683D01*
X156833579Y-68941421D01*
X156885317Y-68983881D01*
X156944344Y-69015432D01*
X157008392Y-69034861D01*
X157075000Y-69041421D01*
X157375000Y-69041421D01*
X157441608Y-69034861D01*
X157505656Y-69015432D01*
X157564683Y-68983881D01*
X157616421Y-68941421D01*
X157658881Y-68889683D01*
X157690432Y-68830656D01*
X157709861Y-68766608D01*
X157716421Y-68700000D01*
X157716421Y-68055697D01*
X157721650Y-68043073D01*
X157740500Y-67948310D01*
X157740500Y-67851690D01*
X157721650Y-67756927D01*
X157716421Y-67744303D01*
X157716421Y-67050000D01*
X158003579Y-67050000D01*
X158003579Y-68700000D01*
X158010139Y-68766608D01*
X158029568Y-68830656D01*
X158061119Y-68889683D01*
X158103579Y-68941421D01*
X158155317Y-68983881D01*
X158214344Y-69015432D01*
X158278392Y-69034861D01*
X158345000Y-69041421D01*
X158645000Y-69041421D01*
X158711608Y-69034861D01*
X158775656Y-69015432D01*
X158834683Y-68983881D01*
X158886421Y-68941421D01*
X158928881Y-68889683D01*
X158960432Y-68830656D01*
X158979861Y-68766608D01*
X158986421Y-68700000D01*
X158986421Y-67050000D01*
X158979861Y-66983392D01*
X158960432Y-66919344D01*
X158928881Y-66860317D01*
X158886421Y-66808579D01*
X158834683Y-66766119D01*
X158775656Y-66734568D01*
X158711608Y-66715139D01*
X158645000Y-66708579D01*
X158345000Y-66708579D01*
X158278392Y-66715139D01*
X158214344Y-66734568D01*
X158155317Y-66766119D01*
X158103579Y-66808579D01*
X158061119Y-66860317D01*
X158029568Y-66919344D01*
X158010139Y-66983392D01*
X158003579Y-67050000D01*
X157716421Y-67050000D01*
X157709861Y-66983392D01*
X157690432Y-66919344D01*
X157658881Y-66860317D01*
X157616421Y-66808579D01*
X157564683Y-66766119D01*
X157505656Y-66734568D01*
X157465226Y-66722304D01*
X160202033Y-63985498D01*
X160224566Y-63967006D01*
X160295431Y-63880656D01*
X160298357Y-63877091D01*
X160353189Y-63774507D01*
X160360623Y-63750000D01*
X160360623Y-63749999D01*
X170108579Y-63749999D01*
X170108579Y-64275001D01*
X170117061Y-64361118D01*
X170142180Y-64443925D01*
X170182972Y-64520241D01*
X170237868Y-64587132D01*
X170304759Y-64642028D01*
X170381075Y-64682820D01*
X170463882Y-64707939D01*
X170549999Y-64716421D01*
X171450001Y-64716421D01*
X171536118Y-64707939D01*
X171618925Y-64682820D01*
X171695241Y-64642028D01*
X171762132Y-64587132D01*
X171817028Y-64520241D01*
X171857820Y-64443925D01*
X171882939Y-64361118D01*
X171891421Y-64275001D01*
X171891421Y-63749999D01*
X171882939Y-63663882D01*
X171857820Y-63581075D01*
X171817028Y-63504759D01*
X171762132Y-63437868D01*
X171695241Y-63382972D01*
X171618925Y-63342180D01*
X171536118Y-63317061D01*
X171450001Y-63308579D01*
X171377408Y-63308579D01*
X171329707Y-63276706D01*
X171222242Y-63232193D01*
X171108159Y-63209500D01*
X170991841Y-63209500D01*
X170877758Y-63232193D01*
X170770293Y-63276706D01*
X170722592Y-63308579D01*
X170549999Y-63308579D01*
X170463882Y-63317061D01*
X170381075Y-63342180D01*
X170304759Y-63382972D01*
X170237868Y-63437868D01*
X170182972Y-63504759D01*
X170142180Y-63581075D01*
X170117061Y-63663882D01*
X170108579Y-63749999D01*
X160360623Y-63749999D01*
X160386955Y-63663197D01*
X160395499Y-63576447D01*
X160395499Y-63576445D01*
X160398356Y-63547439D01*
X160395499Y-63518434D01*
X160395499Y-60470938D01*
X160612924Y-60995847D01*
X160970074Y-61530360D01*
X161424640Y-61984926D01*
X161959153Y-62342076D01*
X162553072Y-62588086D01*
X163183573Y-62713500D01*
X163826427Y-62713500D01*
X164456928Y-62588086D01*
X165050847Y-62342076D01*
X165585360Y-61984926D01*
X165645287Y-61924999D01*
X170108579Y-61924999D01*
X170108579Y-62450001D01*
X170117061Y-62536118D01*
X170142180Y-62618925D01*
X170182972Y-62695241D01*
X170237868Y-62762132D01*
X170304759Y-62817028D01*
X170381075Y-62857820D01*
X170463882Y-62882939D01*
X170549999Y-62891421D01*
X171450001Y-62891421D01*
X171536118Y-62882939D01*
X171618925Y-62857820D01*
X171695241Y-62817028D01*
X171742797Y-62778000D01*
X172350287Y-62778000D01*
X172406075Y-62807820D01*
X172488883Y-62832939D01*
X172575000Y-62841421D01*
X173525000Y-62841421D01*
X173611117Y-62832939D01*
X173693925Y-62807820D01*
X173770240Y-62767028D01*
X173837132Y-62712132D01*
X173892028Y-62645240D01*
X173932820Y-62568925D01*
X173957939Y-62486117D01*
X173966421Y-62400000D01*
X173966421Y-61900000D01*
X173957939Y-61813883D01*
X173932820Y-61731075D01*
X173892028Y-61654760D01*
X173837132Y-61587868D01*
X173770240Y-61532972D01*
X173693925Y-61492180D01*
X173640500Y-61475974D01*
X173640500Y-61391421D01*
X173900000Y-61391421D01*
X173937344Y-61387743D01*
X173973254Y-61376850D01*
X174006348Y-61359161D01*
X174035355Y-61335355D01*
X174059161Y-61306348D01*
X174076850Y-61273254D01*
X174087743Y-61237344D01*
X174091421Y-61200000D01*
X174091421Y-57700000D01*
X174087743Y-57662656D01*
X174076850Y-57626746D01*
X174059161Y-57593652D01*
X174035355Y-57564645D01*
X174006348Y-57540839D01*
X173973254Y-57523150D01*
X173937344Y-57512257D01*
X173900000Y-57508579D01*
X170400000Y-57508579D01*
X170362656Y-57512257D01*
X170326746Y-57523150D01*
X170293652Y-57540839D01*
X170264645Y-57564645D01*
X170240839Y-57593652D01*
X170223150Y-57626746D01*
X170212257Y-57662656D01*
X170208579Y-57700000D01*
X170208579Y-61200000D01*
X170212257Y-61237344D01*
X170223150Y-61273254D01*
X170240839Y-61306348D01*
X170264645Y-61335355D01*
X170293652Y-61359161D01*
X170326746Y-61376850D01*
X170362656Y-61387743D01*
X170400000Y-61391421D01*
X170409500Y-61391421D01*
X170409501Y-61508557D01*
X170381075Y-61517180D01*
X170304759Y-61557972D01*
X170237868Y-61612868D01*
X170182972Y-61679759D01*
X170142180Y-61756075D01*
X170117061Y-61838882D01*
X170108579Y-61924999D01*
X165645287Y-61924999D01*
X166039926Y-61530360D01*
X166397076Y-60995847D01*
X166643086Y-60401928D01*
X166768500Y-59771427D01*
X166768500Y-59128573D01*
X166643086Y-58498072D01*
X166397076Y-57904153D01*
X166039926Y-57369640D01*
X165585360Y-56915074D01*
X165050847Y-56557924D01*
X164525938Y-56340499D01*
X166633362Y-56340499D01*
X166633362Y-56754673D01*
X166631472Y-56773861D01*
X166639012Y-56850412D01*
X166661341Y-56924021D01*
X166661342Y-56924022D01*
X166697602Y-56991861D01*
X166746401Y-57051322D01*
X166761297Y-57063547D01*
X167862838Y-58165088D01*
X167878350Y-58243073D01*
X167915325Y-58332339D01*
X167969004Y-58412675D01*
X168037325Y-58480996D01*
X168117661Y-58534675D01*
X168206927Y-58571650D01*
X168301690Y-58590500D01*
X168398310Y-58590500D01*
X168493073Y-58571650D01*
X168582339Y-58534675D01*
X168662675Y-58480996D01*
X168730996Y-58412675D01*
X168784675Y-58332339D01*
X168821650Y-58243073D01*
X168840500Y-58148310D01*
X168840500Y-58051690D01*
X168821650Y-57956927D01*
X168784675Y-57867661D01*
X168730996Y-57787325D01*
X168662675Y-57719004D01*
X168582339Y-57665325D01*
X168493073Y-57628350D01*
X168415088Y-57612838D01*
X167414361Y-56612111D01*
X167414361Y-56193420D01*
X167443428Y-56169566D01*
X167461925Y-56147027D01*
X167745452Y-55863500D01*
X174375000Y-55863500D01*
X174387388Y-55862280D01*
X174399300Y-55858666D01*
X174409500Y-55853214D01*
X174409501Y-69739447D01*
G37*
%TD.AperFunction*%
D33*
X167211500Y-49150000D02*
X167211500Y-51851574D01*
X167193925Y-51842180D01*
X167111117Y-51817061D01*
X167025000Y-51808579D01*
X166075000Y-51808579D01*
X166008774Y-51815102D01*
X165137859Y-50944188D01*
X165131954Y-50884241D01*
X165098189Y-50772932D01*
X165043357Y-50670347D01*
X164988057Y-50602964D01*
X164691421Y-50306329D01*
X164691421Y-50025000D01*
X164682939Y-49938883D01*
X164657820Y-49856075D01*
X164617028Y-49779760D01*
X164562132Y-49712868D01*
X164495240Y-49657972D01*
X164418925Y-49617180D01*
X164336117Y-49592061D01*
X164250000Y-49583579D01*
X163750000Y-49583579D01*
X163663883Y-49592061D01*
X163581075Y-49617180D01*
X163504760Y-49657972D01*
X163437868Y-49712868D01*
X163382972Y-49779760D01*
X163342180Y-49856075D01*
X163341141Y-49859500D01*
X163058859Y-49859500D01*
X163057820Y-49856075D01*
X163017028Y-49779760D01*
X162962132Y-49712868D01*
X162895240Y-49657972D01*
X162818925Y-49617180D01*
X162736117Y-49592061D01*
X162650000Y-49583579D01*
X162150000Y-49583579D01*
X162063883Y-49592061D01*
X161981075Y-49617180D01*
X161904760Y-49657972D01*
X161837868Y-49712868D01*
X161782972Y-49779760D01*
X161742180Y-49856075D01*
X161717061Y-49938883D01*
X161708579Y-50025000D01*
X161708579Y-50975000D01*
X161717061Y-51061117D01*
X161742180Y-51143925D01*
X161782972Y-51220240D01*
X161837868Y-51287132D01*
X161904760Y-51342028D01*
X161981075Y-51382820D01*
X162063883Y-51407939D01*
X162150000Y-51416421D01*
X162650000Y-51416421D01*
X162736117Y-51407939D01*
X162818925Y-51382820D01*
X162895240Y-51342028D01*
X162962132Y-51287132D01*
X163017028Y-51220240D01*
X163057820Y-51143925D01*
X163082939Y-51061117D01*
X163084970Y-51040500D01*
X163315030Y-51040500D01*
X163317061Y-51061117D01*
X163342180Y-51143925D01*
X163382972Y-51220240D01*
X163437868Y-51287132D01*
X163504760Y-51342028D01*
X163509501Y-51344562D01*
X163509501Y-52025898D01*
X163507127Y-52050000D01*
X163510125Y-52080433D01*
X163516598Y-52146155D01*
X163535535Y-52208579D01*
X163537138Y-52213864D01*
X163533579Y-52250000D01*
X163533579Y-52750000D01*
X163542061Y-52836117D01*
X163567180Y-52918925D01*
X163607972Y-52995240D01*
X163662868Y-53062132D01*
X163729760Y-53117028D01*
X163806075Y-53157820D01*
X163888883Y-53182939D01*
X163975000Y-53191421D01*
X164925000Y-53191421D01*
X165011117Y-53182939D01*
X165093925Y-53157820D01*
X165170240Y-53117028D01*
X165202565Y-53090500D01*
X165797435Y-53090500D01*
X165829760Y-53117028D01*
X165906075Y-53157820D01*
X165988883Y-53182939D01*
X166075000Y-53191421D01*
X166406329Y-53191421D01*
X167211500Y-53996593D01*
X167211500Y-54727267D01*
X166779269Y-55159499D01*
X161552866Y-55159499D01*
X161523861Y-55156642D01*
X161494855Y-55159499D01*
X161494853Y-55159499D01*
X161408103Y-55168043D01*
X161306323Y-55198918D01*
X161296793Y-55201809D01*
X161194209Y-55256641D01*
X161172034Y-55274840D01*
X161104294Y-55330432D01*
X161085802Y-55352965D01*
X159789896Y-56648872D01*
X159629268Y-56809500D01*
X158072769Y-56809500D01*
X158107820Y-56743925D01*
X158132939Y-56661117D01*
X158141421Y-56575000D01*
X158141421Y-55625000D01*
X158132939Y-55538883D01*
X158107820Y-55456075D01*
X158067028Y-55379760D01*
X158040500Y-55347435D01*
X158040500Y-53829005D01*
X158043357Y-53799999D01*
X158038630Y-53752010D01*
X158031956Y-53684242D01*
X157998190Y-53572932D01*
X157943358Y-53470348D01*
X157888058Y-53402965D01*
X157869567Y-53380433D01*
X157847033Y-53361940D01*
X157491421Y-53006328D01*
X157491421Y-52649999D01*
X157482939Y-52563882D01*
X157457820Y-52481075D01*
X157417028Y-52404759D01*
X157362132Y-52337868D01*
X157295241Y-52282972D01*
X157218925Y-52242180D01*
X157136118Y-52217061D01*
X157050001Y-52208579D01*
X156965500Y-52208579D01*
X156965500Y-51791421D01*
X157050001Y-51791421D01*
X157136118Y-51782939D01*
X157218925Y-51757820D01*
X157295241Y-51717028D01*
X157362132Y-51662132D01*
X157417028Y-51595241D01*
X157446288Y-51540500D01*
X157805438Y-51540500D01*
X157807972Y-51545240D01*
X157862868Y-51612132D01*
X157929760Y-51667028D01*
X158006075Y-51707820D01*
X158088883Y-51732939D01*
X158175000Y-51741421D01*
X159125000Y-51741421D01*
X159211117Y-51732939D01*
X159293925Y-51707820D01*
X159370240Y-51667028D01*
X159437132Y-51612132D01*
X159492028Y-51545240D01*
X159532820Y-51468925D01*
X159557939Y-51386117D01*
X159558145Y-51384023D01*
X159562675Y-51380996D01*
X159630996Y-51312675D01*
X159684675Y-51232339D01*
X159721650Y-51143073D01*
X159740500Y-51048310D01*
X159740500Y-50951690D01*
X159721650Y-50856927D01*
X159684675Y-50767661D01*
X159630996Y-50687325D01*
X159562675Y-50619004D01*
X159506196Y-50581266D01*
X159492028Y-50554760D01*
X159437132Y-50487868D01*
X159370240Y-50432972D01*
X159293925Y-50392180D01*
X159211117Y-50367061D01*
X159125000Y-50358579D01*
X158175000Y-50358579D01*
X158088883Y-50367061D01*
X158006075Y-50392180D01*
X157929760Y-50432972D01*
X157862868Y-50487868D01*
X157807972Y-50554760D01*
X157805438Y-50559500D01*
X157400402Y-50559500D01*
X157362132Y-50512868D01*
X157295241Y-50457972D01*
X157218925Y-50417180D01*
X157136118Y-50392061D01*
X157050001Y-50383579D01*
X156965500Y-50383579D01*
X156965500Y-49140500D01*
X167212436Y-49140500D01*
X167211500Y-49150000D01*
%TA.AperFunction,Conductor*%
D34*
G36*
X167211500Y-49150000D02*
G01*
X167211500Y-51851574D01*
X167193925Y-51842180D01*
X167111117Y-51817061D01*
X167025000Y-51808579D01*
X166075000Y-51808579D01*
X166008774Y-51815102D01*
X165137859Y-50944188D01*
X165131954Y-50884241D01*
X165098189Y-50772932D01*
X165043357Y-50670347D01*
X164988057Y-50602964D01*
X164691421Y-50306329D01*
X164691421Y-50025000D01*
X164682939Y-49938883D01*
X164657820Y-49856075D01*
X164617028Y-49779760D01*
X164562132Y-49712868D01*
X164495240Y-49657972D01*
X164418925Y-49617180D01*
X164336117Y-49592061D01*
X164250000Y-49583579D01*
X163750000Y-49583579D01*
X163663883Y-49592061D01*
X163581075Y-49617180D01*
X163504760Y-49657972D01*
X163437868Y-49712868D01*
X163382972Y-49779760D01*
X163342180Y-49856075D01*
X163341141Y-49859500D01*
X163058859Y-49859500D01*
X163057820Y-49856075D01*
X163017028Y-49779760D01*
X162962132Y-49712868D01*
X162895240Y-49657972D01*
X162818925Y-49617180D01*
X162736117Y-49592061D01*
X162650000Y-49583579D01*
X162150000Y-49583579D01*
X162063883Y-49592061D01*
X161981075Y-49617180D01*
X161904760Y-49657972D01*
X161837868Y-49712868D01*
X161782972Y-49779760D01*
X161742180Y-49856075D01*
X161717061Y-49938883D01*
X161708579Y-50025000D01*
X161708579Y-50975000D01*
X161717061Y-51061117D01*
X161742180Y-51143925D01*
X161782972Y-51220240D01*
X161837868Y-51287132D01*
X161904760Y-51342028D01*
X161981075Y-51382820D01*
X162063883Y-51407939D01*
X162150000Y-51416421D01*
X162650000Y-51416421D01*
X162736117Y-51407939D01*
X162818925Y-51382820D01*
X162895240Y-51342028D01*
X162962132Y-51287132D01*
X163017028Y-51220240D01*
X163057820Y-51143925D01*
X163082939Y-51061117D01*
X163084970Y-51040500D01*
X163315030Y-51040500D01*
X163317061Y-51061117D01*
X163342180Y-51143925D01*
X163382972Y-51220240D01*
X163437868Y-51287132D01*
X163504760Y-51342028D01*
X163509501Y-51344562D01*
X163509501Y-52025898D01*
X163507127Y-52050000D01*
X163510125Y-52080433D01*
X163516598Y-52146155D01*
X163535535Y-52208579D01*
X163537138Y-52213864D01*
X163533579Y-52250000D01*
X163533579Y-52750000D01*
X163542061Y-52836117D01*
X163567180Y-52918925D01*
X163607972Y-52995240D01*
X163662868Y-53062132D01*
X163729760Y-53117028D01*
X163806075Y-53157820D01*
X163888883Y-53182939D01*
X163975000Y-53191421D01*
X164925000Y-53191421D01*
X165011117Y-53182939D01*
X165093925Y-53157820D01*
X165170240Y-53117028D01*
X165202565Y-53090500D01*
X165797435Y-53090500D01*
X165829760Y-53117028D01*
X165906075Y-53157820D01*
X165988883Y-53182939D01*
X166075000Y-53191421D01*
X166406329Y-53191421D01*
X167211500Y-53996593D01*
X167211500Y-54727267D01*
X166779269Y-55159499D01*
X161552866Y-55159499D01*
X161523861Y-55156642D01*
X161494855Y-55159499D01*
X161494853Y-55159499D01*
X161408103Y-55168043D01*
X161306323Y-55198918D01*
X161296793Y-55201809D01*
X161194209Y-55256641D01*
X161172034Y-55274840D01*
X161104294Y-55330432D01*
X161085802Y-55352965D01*
X159789896Y-56648872D01*
X159629268Y-56809500D01*
X158072769Y-56809500D01*
X158107820Y-56743925D01*
X158132939Y-56661117D01*
X158141421Y-56575000D01*
X158141421Y-55625000D01*
X158132939Y-55538883D01*
X158107820Y-55456075D01*
X158067028Y-55379760D01*
X158040500Y-55347435D01*
X158040500Y-53829005D01*
X158043357Y-53799999D01*
X158038630Y-53752010D01*
X158031956Y-53684242D01*
X157998190Y-53572932D01*
X157943358Y-53470348D01*
X157888058Y-53402965D01*
X157869567Y-53380433D01*
X157847033Y-53361940D01*
X157491421Y-53006328D01*
X157491421Y-52649999D01*
X157482939Y-52563882D01*
X157457820Y-52481075D01*
X157417028Y-52404759D01*
X157362132Y-52337868D01*
X157295241Y-52282972D01*
X157218925Y-52242180D01*
X157136118Y-52217061D01*
X157050001Y-52208579D01*
X156965500Y-52208579D01*
X156965500Y-51791421D01*
X157050001Y-51791421D01*
X157136118Y-51782939D01*
X157218925Y-51757820D01*
X157295241Y-51717028D01*
X157362132Y-51662132D01*
X157417028Y-51595241D01*
X157446288Y-51540500D01*
X157805438Y-51540500D01*
X157807972Y-51545240D01*
X157862868Y-51612132D01*
X157929760Y-51667028D01*
X158006075Y-51707820D01*
X158088883Y-51732939D01*
X158175000Y-51741421D01*
X159125000Y-51741421D01*
X159211117Y-51732939D01*
X159293925Y-51707820D01*
X159370240Y-51667028D01*
X159437132Y-51612132D01*
X159492028Y-51545240D01*
X159532820Y-51468925D01*
X159557939Y-51386117D01*
X159558145Y-51384023D01*
X159562675Y-51380996D01*
X159630996Y-51312675D01*
X159684675Y-51232339D01*
X159721650Y-51143073D01*
X159740500Y-51048310D01*
X159740500Y-50951690D01*
X159721650Y-50856927D01*
X159684675Y-50767661D01*
X159630996Y-50687325D01*
X159562675Y-50619004D01*
X159506196Y-50581266D01*
X159492028Y-50554760D01*
X159437132Y-50487868D01*
X159370240Y-50432972D01*
X159293925Y-50392180D01*
X159211117Y-50367061D01*
X159125000Y-50358579D01*
X158175000Y-50358579D01*
X158088883Y-50367061D01*
X158006075Y-50392180D01*
X157929760Y-50432972D01*
X157862868Y-50487868D01*
X157807972Y-50554760D01*
X157805438Y-50559500D01*
X157400402Y-50559500D01*
X157362132Y-50512868D01*
X157295241Y-50457972D01*
X157218925Y-50417180D01*
X157136118Y-50392061D01*
X157050001Y-50383579D01*
X156965500Y-50383579D01*
X156965500Y-49140500D01*
X167212436Y-49140500D01*
X167211500Y-49150000D01*
G37*
%TD.AperFunction*%
%TD*%
D33*
%TO.N,GNDA*%
X156711500Y-50383579D02*
X156668672Y-50383579D01*
X155838064Y-49552972D01*
X155819567Y-49530433D01*
X155729651Y-49456642D01*
X155627068Y-49401810D01*
X155515758Y-49368044D01*
X155429008Y-49359500D01*
X155429005Y-49359500D01*
X155400000Y-49356643D01*
X155370995Y-49359500D01*
X143746594Y-49359500D01*
X143717588Y-49356643D01*
X143688583Y-49359500D01*
X143688581Y-49359500D01*
X143601831Y-49368044D01*
X143530729Y-49389613D01*
X143490521Y-49401810D01*
X143387937Y-49456642D01*
X143336060Y-49499217D01*
X143298022Y-49530433D01*
X143279529Y-49552967D01*
X142195996Y-50636501D01*
X139891421Y-50636501D01*
X139891421Y-49800000D01*
X139887743Y-49762656D01*
X139876850Y-49726746D01*
X139859161Y-49693652D01*
X139835355Y-49664645D01*
X139806348Y-49640839D01*
X139773254Y-49623150D01*
X139737344Y-49612257D01*
X139700000Y-49608579D01*
X138900000Y-49608579D01*
X138862656Y-49612257D01*
X138826746Y-49623150D01*
X138793652Y-49640839D01*
X138764645Y-49664645D01*
X138740839Y-49693652D01*
X138723150Y-49726746D01*
X138712257Y-49762656D01*
X138708579Y-49800000D01*
X138708579Y-50636501D01*
X137603402Y-50636501D01*
X137574396Y-50633644D01*
X137545391Y-50636501D01*
X137545389Y-50636501D01*
X137458639Y-50645045D01*
X137354136Y-50676746D01*
X137347329Y-50678811D01*
X137244745Y-50733643D01*
X137196479Y-50773254D01*
X137154830Y-50807434D01*
X137136338Y-50829967D01*
X136152967Y-51813339D01*
X136130434Y-51831831D01*
X136111942Y-51854364D01*
X136056642Y-51921747D01*
X136001810Y-52024331D01*
X135968045Y-52135640D01*
X135956643Y-52251398D01*
X135959501Y-52280413D01*
X135959500Y-53297435D01*
X135932972Y-53329760D01*
X135892180Y-53406075D01*
X135867061Y-53488883D01*
X135858579Y-53575000D01*
X135858579Y-53764908D01*
X135851487Y-53772000D01*
X133352400Y-53772000D01*
X133336118Y-53767061D01*
X133250001Y-53758579D01*
X132349999Y-53758579D01*
X132263882Y-53767061D01*
X132181075Y-53792180D01*
X132104759Y-53832972D01*
X132037868Y-53887868D01*
X131982972Y-53954759D01*
X131942180Y-54031075D01*
X131917061Y-54113882D01*
X131908579Y-54199999D01*
X131908579Y-54725001D01*
X131917061Y-54811118D01*
X131942180Y-54893925D01*
X131982972Y-54970241D01*
X132037868Y-55037132D01*
X132104759Y-55092028D01*
X132181075Y-55132820D01*
X132263882Y-55157939D01*
X132349999Y-55166421D01*
X133250001Y-55166421D01*
X133336118Y-55157939D01*
X133352400Y-55153000D01*
X136103581Y-55153000D01*
X136137500Y-55156341D01*
X136171419Y-55153000D01*
X136171422Y-55153000D01*
X136272862Y-55143009D01*
X136403021Y-55103525D01*
X136522977Y-55039408D01*
X136611913Y-54966421D01*
X136800000Y-54966421D01*
X136886117Y-54957939D01*
X136968925Y-54932820D01*
X137045240Y-54892028D01*
X137112132Y-54837132D01*
X137167028Y-54770240D01*
X137207820Y-54693925D01*
X137232939Y-54611117D01*
X137241421Y-54525000D01*
X137241421Y-54074570D01*
X137243841Y-54050001D01*
X137241421Y-54025432D01*
X137241421Y-53769407D01*
X137695329Y-53315500D01*
X139544675Y-53315500D01*
X139532972Y-53329760D01*
X139492180Y-53406075D01*
X139467061Y-53488883D01*
X139458579Y-53575000D01*
X139458579Y-54525000D01*
X139467061Y-54611117D01*
X139492180Y-54693925D01*
X139509500Y-54726328D01*
X139509501Y-56270913D01*
X139490839Y-56293652D01*
X139473150Y-56326746D01*
X139462257Y-56362656D01*
X139458579Y-56400000D01*
X139458579Y-57800000D01*
X139462257Y-57837344D01*
X139473150Y-57873254D01*
X139490839Y-57906348D01*
X139514645Y-57935355D01*
X139543652Y-57959161D01*
X139576746Y-57976850D01*
X139612656Y-57987743D01*
X139650000Y-57991421D01*
X139950000Y-57991421D01*
X139987344Y-57987743D01*
X140023254Y-57976850D01*
X140050000Y-57962554D01*
X140076746Y-57976850D01*
X140112656Y-57987743D01*
X140150000Y-57991421D01*
X140450000Y-57991421D01*
X140487344Y-57987743D01*
X140523254Y-57976850D01*
X140556348Y-57959161D01*
X140585355Y-57935355D01*
X140609161Y-57906348D01*
X140626850Y-57873254D01*
X140637743Y-57837344D01*
X140641421Y-57800000D01*
X140641421Y-56400000D01*
X140637743Y-56362656D01*
X140626850Y-56326746D01*
X140609161Y-56293652D01*
X140585355Y-56264645D01*
X140556348Y-56240839D01*
X140523254Y-56223150D01*
X140487344Y-56212257D01*
X140450000Y-56208579D01*
X140150000Y-56208579D01*
X140112656Y-56212257D01*
X140090500Y-56218978D01*
X140090500Y-54966421D01*
X140400000Y-54966421D01*
X140486117Y-54957939D01*
X140568925Y-54932820D01*
X140645240Y-54892028D01*
X140659501Y-54880325D01*
X140659500Y-56477141D01*
X140658096Y-56491398D01*
X140659500Y-56505655D01*
X140659500Y-56505662D01*
X140663704Y-56548345D01*
X140680315Y-56603104D01*
X140707290Y-56653571D01*
X140743592Y-56697806D01*
X140754678Y-56706904D01*
X141934501Y-57886728D01*
X141934500Y-59831377D01*
X141925493Y-59786095D01*
X141896056Y-59715029D01*
X141853321Y-59651071D01*
X141798929Y-59596679D01*
X141734971Y-59553944D01*
X141663905Y-59524507D01*
X141588461Y-59509500D01*
X141570329Y-59509500D01*
X140938496Y-58877668D01*
X140929398Y-58866582D01*
X140885164Y-58830280D01*
X140834697Y-58803305D01*
X140779938Y-58786694D01*
X140737255Y-58782490D01*
X140737247Y-58782490D01*
X140722990Y-58781086D01*
X140708733Y-58782490D01*
X137211750Y-58782490D01*
X137198929Y-58769669D01*
X137134971Y-58726934D01*
X137063905Y-58697497D01*
X136988461Y-58682490D01*
X136911539Y-58682490D01*
X136836095Y-58697497D01*
X136765029Y-58726934D01*
X136701071Y-58769669D01*
X136646679Y-58824061D01*
X136603944Y-58888019D01*
X136574507Y-58959085D01*
X136559500Y-59034529D01*
X136559500Y-59111451D01*
X136574507Y-59186895D01*
X136583870Y-59209500D01*
X136411750Y-59209500D01*
X136398929Y-59196679D01*
X136334971Y-59153944D01*
X136263905Y-59124507D01*
X136188461Y-59109500D01*
X136111539Y-59109500D01*
X136036095Y-59124507D01*
X135965029Y-59153944D01*
X135901071Y-59196679D01*
X135846679Y-59251071D01*
X135803944Y-59315029D01*
X135774507Y-59386095D01*
X135759500Y-59461539D01*
X135759500Y-59538461D01*
X135774507Y-59613905D01*
X135803944Y-59684971D01*
X135846679Y-59748929D01*
X135901071Y-59803321D01*
X135965029Y-59846056D01*
X136036095Y-59875493D01*
X136111539Y-59890500D01*
X136188461Y-59890500D01*
X136263905Y-59875493D01*
X136334971Y-59846056D01*
X136398929Y-59803321D01*
X136411750Y-59790500D01*
X140196830Y-59790500D01*
X140543732Y-60137402D01*
X140514265Y-60134500D01*
X140514257Y-60134500D01*
X140500000Y-60133096D01*
X140485743Y-60134500D01*
X139989254Y-60134500D01*
X139974999Y-60133096D01*
X139960744Y-60134500D01*
X139960735Y-60134500D01*
X139918052Y-60138704D01*
X139863293Y-60155315D01*
X139812826Y-60182290D01*
X139768592Y-60218592D01*
X139759494Y-60229678D01*
X139604674Y-60384498D01*
X139593593Y-60393592D01*
X139584499Y-60404673D01*
X139557290Y-60437827D01*
X139530316Y-60488293D01*
X139513704Y-60543053D01*
X139508096Y-60600000D01*
X139509501Y-60614267D01*
X139509501Y-60618978D01*
X139487344Y-60612257D01*
X139450000Y-60608579D01*
X139150000Y-60608579D01*
X139112656Y-60612257D01*
X139076746Y-60623150D01*
X139050000Y-60637446D01*
X139023254Y-60623150D01*
X138987344Y-60612257D01*
X138950000Y-60608579D01*
X138650000Y-60608579D01*
X138612656Y-60612257D01*
X138576746Y-60623150D01*
X138550000Y-60637446D01*
X138523254Y-60623150D01*
X138487344Y-60612257D01*
X138450000Y-60608579D01*
X138150000Y-60608579D01*
X138112656Y-60612257D01*
X138076746Y-60623150D01*
X138043652Y-60640839D01*
X138014645Y-60664645D01*
X137990839Y-60693652D01*
X137973150Y-60726746D01*
X137962257Y-60762656D01*
X137958579Y-60800000D01*
X137958579Y-61860366D01*
X137937480Y-61899840D01*
X137915151Y-61973450D01*
X137909500Y-62030823D01*
X137909501Y-62523485D01*
X137873486Y-62559500D01*
X137360561Y-62559500D01*
X137366421Y-62500000D01*
X137366421Y-62000000D01*
X137357939Y-61913883D01*
X137332820Y-61831075D01*
X137292028Y-61754760D01*
X137237132Y-61687868D01*
X137170240Y-61632972D01*
X137093925Y-61592180D01*
X137011117Y-61567061D01*
X136925000Y-61558579D01*
X135975000Y-61558579D01*
X135888883Y-61567061D01*
X135806075Y-61592180D01*
X135729760Y-61632972D01*
X135662868Y-61687868D01*
X135607972Y-61754760D01*
X135567180Y-61831075D01*
X135542061Y-61913883D01*
X135533579Y-62000000D01*
X135533579Y-62500000D01*
X135542061Y-62586117D01*
X135567180Y-62668925D01*
X135607972Y-62745240D01*
X135662868Y-62812132D01*
X135729760Y-62867028D01*
X135806075Y-62907820D01*
X135888883Y-62932939D01*
X135975000Y-62941421D01*
X136589171Y-62941421D01*
X136860310Y-63212560D01*
X136872539Y-63227461D01*
X136932000Y-63276260D01*
X136948044Y-63284836D01*
X136904759Y-63307972D01*
X136837868Y-63362868D01*
X136782972Y-63429759D01*
X136742180Y-63506075D01*
X136717061Y-63588882D01*
X136708579Y-63674999D01*
X136708579Y-64200001D01*
X136717061Y-64286118D01*
X136742180Y-64368925D01*
X136782972Y-64445241D01*
X136837868Y-64512132D01*
X136904759Y-64567028D01*
X136981075Y-64607820D01*
X137063882Y-64632939D01*
X137149999Y-64641421D01*
X138050001Y-64641421D01*
X138136118Y-64632939D01*
X138218925Y-64607820D01*
X138295241Y-64567028D01*
X138362132Y-64512132D01*
X138417028Y-64445241D01*
X138457820Y-64368925D01*
X138482939Y-64286118D01*
X138491421Y-64200001D01*
X138491421Y-63674999D01*
X138482939Y-63588882D01*
X138466211Y-63533736D01*
X138995327Y-63004620D01*
X139006408Y-62995526D01*
X139009501Y-62991758D01*
X139009501Y-63258557D01*
X138981075Y-63267180D01*
X138904759Y-63307972D01*
X138837868Y-63362868D01*
X138782972Y-63429759D01*
X138742180Y-63506075D01*
X138717061Y-63588882D01*
X138708579Y-63674999D01*
X138708579Y-64200001D01*
X138717061Y-64286118D01*
X138742180Y-64368925D01*
X138782972Y-64445241D01*
X138837868Y-64512132D01*
X138904759Y-64567028D01*
X138981075Y-64607820D01*
X138986613Y-64609500D01*
X138941275Y-64609500D01*
X138927010Y-64608095D01*
X138912745Y-64609500D01*
X138870062Y-64613704D01*
X138815303Y-64630315D01*
X138764836Y-64657290D01*
X138720602Y-64693592D01*
X138711508Y-64704673D01*
X138579671Y-64836510D01*
X138561539Y-64836510D01*
X138486095Y-64851517D01*
X138415029Y-64880954D01*
X138351071Y-64923689D01*
X138296679Y-64978081D01*
X138253944Y-65042039D01*
X138230592Y-65098416D01*
X138218925Y-65092180D01*
X138136118Y-65067061D01*
X138050001Y-65058579D01*
X137149999Y-65058579D01*
X137063882Y-65067061D01*
X136981075Y-65092180D01*
X136904759Y-65132972D01*
X136837868Y-65187868D01*
X136782972Y-65254759D01*
X136742180Y-65331075D01*
X136717061Y-65413882D01*
X136708579Y-65499999D01*
X136708579Y-66025001D01*
X136717061Y-66111118D01*
X136742180Y-66193925D01*
X136774006Y-66253467D01*
X129813500Y-66253467D01*
X129813500Y-63650000D01*
X134683579Y-63650000D01*
X134683579Y-64150000D01*
X134692061Y-64236117D01*
X134717180Y-64318925D01*
X134757972Y-64395240D01*
X134812868Y-64462132D01*
X134879760Y-64517028D01*
X134956075Y-64557820D01*
X135038883Y-64582939D01*
X135125000Y-64591421D01*
X136075000Y-64591421D01*
X136161117Y-64582939D01*
X136243925Y-64557820D01*
X136320240Y-64517028D01*
X136387132Y-64462132D01*
X136442028Y-64395240D01*
X136482820Y-64318925D01*
X136507939Y-64236117D01*
X136516421Y-64150000D01*
X136516421Y-63650000D01*
X136507939Y-63563883D01*
X136482820Y-63481075D01*
X136442028Y-63404760D01*
X136387132Y-63337868D01*
X136320240Y-63282972D01*
X136243925Y-63242180D01*
X136161117Y-63217061D01*
X136075000Y-63208579D01*
X135125000Y-63208579D01*
X135038883Y-63217061D01*
X134956075Y-63242180D01*
X134879760Y-63282972D01*
X134812868Y-63337868D01*
X134757972Y-63404760D01*
X134717180Y-63481075D01*
X134692061Y-63563883D01*
X134683579Y-63650000D01*
X129813500Y-63650000D01*
X129813500Y-62450000D01*
X129812280Y-62437612D01*
X129808666Y-62425700D01*
X129802798Y-62414721D01*
X129794901Y-62405099D01*
X129785279Y-62397202D01*
X129774300Y-62391334D01*
X129762388Y-62387720D01*
X129750000Y-62386500D01*
X125441421Y-62386500D01*
X125441421Y-60520000D01*
X125437743Y-60482656D01*
X125426850Y-60446746D01*
X125409161Y-60413652D01*
X125385355Y-60384645D01*
X125356348Y-60360839D01*
X125323254Y-60343150D01*
X125287344Y-60332257D01*
X125250000Y-60328579D01*
X124340500Y-60328579D01*
X124340500Y-55171345D01*
X124326168Y-55025828D01*
X124291421Y-54911283D01*
X124291421Y-54220000D01*
X124708579Y-54220000D01*
X124708579Y-56220000D01*
X124712257Y-56257344D01*
X124723150Y-56293254D01*
X124740839Y-56326348D01*
X124764645Y-56355355D01*
X124793652Y-56379161D01*
X124826746Y-56396850D01*
X124862656Y-56407743D01*
X124900000Y-56411421D01*
X126400000Y-56411421D01*
X126437344Y-56407743D01*
X126473254Y-56396850D01*
X126506348Y-56379161D01*
X126535355Y-56355355D01*
X126559161Y-56326348D01*
X126576850Y-56293254D01*
X126587743Y-56257344D01*
X126591421Y-56220000D01*
X126591421Y-55710500D01*
X126866829Y-55710500D01*
X127133579Y-55977250D01*
X127133579Y-56450000D01*
X127142061Y-56536117D01*
X127167180Y-56618925D01*
X127207972Y-56695240D01*
X127262868Y-56762132D01*
X127329760Y-56817028D01*
X127406075Y-56857820D01*
X127488883Y-56882939D01*
X127575000Y-56891421D01*
X128047750Y-56891421D01*
X128732499Y-57576171D01*
X128732500Y-59348899D01*
X128730126Y-59373001D01*
X128737026Y-59443052D01*
X128739597Y-59469156D01*
X128751836Y-59509500D01*
X128767645Y-59561615D01*
X128813190Y-59646826D01*
X128844495Y-59684971D01*
X128874486Y-59721515D01*
X128893201Y-59736874D01*
X131620199Y-62463873D01*
X131620205Y-62463878D01*
X131637323Y-62480996D01*
X131657452Y-62494446D01*
X131676172Y-62509809D01*
X131697527Y-62521223D01*
X131717659Y-62534675D01*
X131740034Y-62543943D01*
X131761383Y-62555354D01*
X131784548Y-62562381D01*
X131806925Y-62571650D01*
X131830678Y-62576375D01*
X131853843Y-62583402D01*
X131877934Y-62585775D01*
X131901688Y-62590500D01*
X131925906Y-62590500D01*
X131949998Y-62592873D01*
X131974090Y-62590500D01*
X131998308Y-62590500D01*
X132022063Y-62585775D01*
X132046152Y-62583402D01*
X132069315Y-62576376D01*
X132093071Y-62571650D01*
X132115451Y-62562380D01*
X132138612Y-62555354D01*
X132159958Y-62543945D01*
X132182337Y-62534675D01*
X132202473Y-62521221D01*
X132223823Y-62509809D01*
X132242537Y-62494450D01*
X132262673Y-62480996D01*
X132279800Y-62463869D01*
X132298511Y-62448513D01*
X132313867Y-62429802D01*
X132330994Y-62412675D01*
X132344448Y-62392539D01*
X132359807Y-62373825D01*
X132371219Y-62352475D01*
X132384673Y-62332339D01*
X132393943Y-62309960D01*
X132405352Y-62288614D01*
X132412378Y-62265453D01*
X132421648Y-62243073D01*
X132426374Y-62219317D01*
X132433400Y-62196154D01*
X132435773Y-62172065D01*
X132440498Y-62148310D01*
X132440498Y-62124092D01*
X132442871Y-62100000D01*
X132440498Y-62075908D01*
X132440498Y-62051690D01*
X132435773Y-62027936D01*
X132433400Y-62003845D01*
X132426373Y-61980680D01*
X132421648Y-61956927D01*
X132412379Y-61934550D01*
X132405352Y-61911385D01*
X132393941Y-61890036D01*
X132384673Y-61867661D01*
X132371221Y-61847529D01*
X132359807Y-61826174D01*
X132344444Y-61807454D01*
X132330994Y-61787325D01*
X132313876Y-61770207D01*
X132313871Y-61770201D01*
X129713499Y-59169830D01*
X129713499Y-58490620D01*
X129777921Y-58517305D01*
X129853365Y-58532312D01*
X129871484Y-58532312D01*
X132659500Y-61320329D01*
X132659500Y-61338461D01*
X132674507Y-61413905D01*
X132703944Y-61484971D01*
X132746679Y-61548929D01*
X132801071Y-61603321D01*
X132865029Y-61646056D01*
X132936095Y-61675493D01*
X133011539Y-61690500D01*
X133088461Y-61690500D01*
X133163905Y-61675493D01*
X133234971Y-61646056D01*
X133298929Y-61603321D01*
X133353321Y-61548929D01*
X133396056Y-61484971D01*
X133425493Y-61413905D01*
X133440500Y-61338461D01*
X133440500Y-61261539D01*
X133425493Y-61186095D01*
X133396056Y-61115029D01*
X133353321Y-61051071D01*
X133298929Y-60996679D01*
X133234971Y-60953944D01*
X133163905Y-60924507D01*
X133088461Y-60909500D01*
X133070329Y-60909500D01*
X130282326Y-58121498D01*
X130282326Y-58103351D01*
X130267319Y-58027907D01*
X130237882Y-57956841D01*
X130195147Y-57892883D01*
X130140755Y-57838491D01*
X130076797Y-57795756D01*
X130005731Y-57766319D01*
X129930287Y-57751312D01*
X129853365Y-57751312D01*
X129777921Y-57766319D01*
X129713499Y-57793004D01*
X129713499Y-57397090D01*
X129715872Y-57372998D01*
X129712889Y-57342710D01*
X129706402Y-57276844D01*
X129678354Y-57184385D01*
X129632808Y-57099173D01*
X129571513Y-57024485D01*
X129552798Y-57009126D01*
X129155211Y-56611539D01*
X137909500Y-56611539D01*
X137909500Y-56688461D01*
X137924507Y-56763905D01*
X137953944Y-56834971D01*
X137958579Y-56841908D01*
X137958579Y-57800000D01*
X137962257Y-57837344D01*
X137973150Y-57873254D01*
X137990839Y-57906348D01*
X138014645Y-57935355D01*
X138043652Y-57959161D01*
X138076746Y-57976850D01*
X138112656Y-57987743D01*
X138150000Y-57991421D01*
X138450000Y-57991421D01*
X138487344Y-57987743D01*
X138523254Y-57976850D01*
X138550000Y-57962554D01*
X138576746Y-57976850D01*
X138594216Y-57982149D01*
X138615029Y-57996056D01*
X138686095Y-58025493D01*
X138761539Y-58040500D01*
X138838461Y-58040500D01*
X138913905Y-58025493D01*
X138984971Y-57996056D01*
X139005784Y-57982149D01*
X139023254Y-57976850D01*
X139056348Y-57959161D01*
X139085355Y-57935355D01*
X139109161Y-57906348D01*
X139126850Y-57873254D01*
X139132149Y-57855784D01*
X139146056Y-57834971D01*
X139175493Y-57763905D01*
X139190500Y-57688461D01*
X139190500Y-57611539D01*
X139175493Y-57536095D01*
X139146056Y-57465029D01*
X139141421Y-57458092D01*
X139141421Y-56400000D01*
X139137743Y-56362656D01*
X139126850Y-56326746D01*
X139109161Y-56293652D01*
X139085355Y-56264645D01*
X139056348Y-56240839D01*
X139023254Y-56223150D01*
X138987344Y-56212257D01*
X138950000Y-56208579D01*
X138650000Y-56208579D01*
X138612656Y-56212257D01*
X138576746Y-56223150D01*
X138550000Y-56237446D01*
X138523254Y-56223150D01*
X138487344Y-56212257D01*
X138450000Y-56208579D01*
X138150000Y-56208579D01*
X138112656Y-56212257D01*
X138076746Y-56223150D01*
X138043652Y-56240839D01*
X138014645Y-56264645D01*
X137990839Y-56293652D01*
X137973150Y-56326746D01*
X137962257Y-56362656D01*
X137958579Y-56400000D01*
X137958579Y-56458092D01*
X137953944Y-56465029D01*
X137924507Y-56536095D01*
X137909500Y-56611539D01*
X129155211Y-56611539D01*
X128966421Y-56422750D01*
X128966421Y-55950000D01*
X128957939Y-55863883D01*
X128932820Y-55781075D01*
X128892028Y-55704760D01*
X128846455Y-55649228D01*
X135644500Y-55649228D01*
X135644500Y-55750772D01*
X135664311Y-55850366D01*
X135703170Y-55944181D01*
X135759585Y-56028612D01*
X135831388Y-56100415D01*
X135915819Y-56156830D01*
X136009634Y-56195689D01*
X136109228Y-56215500D01*
X136210772Y-56215500D01*
X136310366Y-56195689D01*
X136404181Y-56156830D01*
X136488612Y-56100415D01*
X136560415Y-56028612D01*
X136616830Y-55944181D01*
X136655689Y-55850366D01*
X136675500Y-55750772D01*
X136675500Y-55649228D01*
X136655689Y-55549634D01*
X136616830Y-55455819D01*
X136560415Y-55371388D01*
X136488612Y-55299585D01*
X136404181Y-55243170D01*
X136310366Y-55204311D01*
X136210772Y-55184500D01*
X136109228Y-55184500D01*
X136009634Y-55204311D01*
X135915819Y-55243170D01*
X135831388Y-55299585D01*
X135759585Y-55371388D01*
X135703170Y-55455819D01*
X135664311Y-55549634D01*
X135644500Y-55649228D01*
X128846455Y-55649228D01*
X128837132Y-55637868D01*
X128770240Y-55582972D01*
X128693925Y-55542180D01*
X128611117Y-55517061D01*
X128525000Y-55508579D01*
X128052251Y-55508579D01*
X127433878Y-54890207D01*
X127418514Y-54871486D01*
X127343826Y-54810191D01*
X127258614Y-54764645D01*
X127166155Y-54736597D01*
X127094095Y-54729500D01*
X127094092Y-54729500D01*
X127070000Y-54727127D01*
X127045908Y-54729500D01*
X126591421Y-54729500D01*
X126591421Y-54220000D01*
X126587743Y-54182656D01*
X126576850Y-54146746D01*
X126559161Y-54113652D01*
X126535355Y-54084645D01*
X126506348Y-54060839D01*
X126473254Y-54043150D01*
X126437344Y-54032257D01*
X126400000Y-54028579D01*
X124900000Y-54028579D01*
X124862656Y-54032257D01*
X124826746Y-54043150D01*
X124793652Y-54060839D01*
X124764645Y-54084645D01*
X124740839Y-54113652D01*
X124723150Y-54146746D01*
X124712257Y-54182656D01*
X124708579Y-54220000D01*
X124291421Y-54220000D01*
X124287743Y-54182656D01*
X124276850Y-54146746D01*
X124259161Y-54113652D01*
X124235355Y-54084645D01*
X124206348Y-54060839D01*
X124173254Y-54043150D01*
X124137344Y-54032257D01*
X124100000Y-54028579D01*
X123940500Y-54028579D01*
X123940500Y-53594592D01*
X125160093Y-52374999D01*
X131908579Y-52374999D01*
X131908579Y-52900001D01*
X131917061Y-52986118D01*
X131942180Y-53068925D01*
X131982972Y-53145241D01*
X132037868Y-53212132D01*
X132104759Y-53267028D01*
X132181075Y-53307820D01*
X132263882Y-53332939D01*
X132349999Y-53341421D01*
X133250001Y-53341421D01*
X133336118Y-53332939D01*
X133418925Y-53307820D01*
X133495241Y-53267028D01*
X133562132Y-53212132D01*
X133617028Y-53145241D01*
X133657820Y-53068925D01*
X133682939Y-52986118D01*
X133691421Y-52900001D01*
X133691421Y-52374999D01*
X133682939Y-52288882D01*
X133657820Y-52206075D01*
X133617028Y-52129759D01*
X133562132Y-52062868D01*
X133495241Y-52007972D01*
X133418925Y-51967180D01*
X133336118Y-51942061D01*
X133250001Y-51933579D01*
X132349999Y-51933579D01*
X132263882Y-51942061D01*
X132181075Y-51967180D01*
X132104759Y-52007972D01*
X132037868Y-52062868D01*
X131982972Y-52129759D01*
X131942180Y-52206075D01*
X131917061Y-52288882D01*
X131908579Y-52374999D01*
X125160093Y-52374999D01*
X125794593Y-51740500D01*
X127540879Y-51740500D01*
X127572926Y-51761913D01*
X127698589Y-51813964D01*
X127831992Y-51840500D01*
X127968008Y-51840500D01*
X128101411Y-51813964D01*
X128227074Y-51761913D01*
X128340168Y-51686346D01*
X128436346Y-51590168D01*
X128511913Y-51477074D01*
X128563964Y-51351411D01*
X128590500Y-51218008D01*
X128590500Y-51081992D01*
X128563964Y-50948589D01*
X128511913Y-50822926D01*
X128436346Y-50709832D01*
X128340168Y-50613654D01*
X128227074Y-50538087D01*
X128101411Y-50486036D01*
X127968008Y-50459500D01*
X127831992Y-50459500D01*
X127698589Y-50486036D01*
X127572926Y-50538087D01*
X127540879Y-50559500D01*
X125579005Y-50559500D01*
X125550000Y-50556643D01*
X125520994Y-50559500D01*
X125520992Y-50559500D01*
X125434242Y-50568044D01*
X125322932Y-50601810D01*
X125220348Y-50656642D01*
X125184421Y-50686127D01*
X125130433Y-50730433D01*
X125111941Y-50752966D01*
X122952967Y-52911941D01*
X122930434Y-52930433D01*
X122911942Y-52952966D01*
X122856642Y-53020349D01*
X122801810Y-53122933D01*
X122768045Y-53234242D01*
X122756643Y-53350000D01*
X122759501Y-53379015D01*
X122759501Y-54028579D01*
X122600000Y-54028579D01*
X122562656Y-54032257D01*
X122526746Y-54043150D01*
X122493652Y-54060839D01*
X122464645Y-54084645D01*
X122440839Y-54113652D01*
X122423150Y-54146746D01*
X122412257Y-54182656D01*
X122408579Y-54220000D01*
X122408579Y-54911284D01*
X122373832Y-55025829D01*
X122359500Y-55171346D01*
X122359500Y-57175407D01*
X122075407Y-57459500D01*
X119402565Y-57459500D01*
X119370240Y-57432972D01*
X119293925Y-57392180D01*
X119211117Y-57367061D01*
X119125000Y-57358579D01*
X118175000Y-57358579D01*
X118088883Y-57367061D01*
X118006075Y-57392180D01*
X117929760Y-57432972D01*
X117862868Y-57487868D01*
X117807972Y-57554760D01*
X117767180Y-57631075D01*
X117742061Y-57713883D01*
X117733579Y-57800000D01*
X117733579Y-58300000D01*
X117742061Y-58386117D01*
X117767180Y-58468925D01*
X117807972Y-58545240D01*
X117862868Y-58612132D01*
X117929760Y-58667028D01*
X118006075Y-58707820D01*
X118088883Y-58732939D01*
X118175000Y-58741421D01*
X119125000Y-58741421D01*
X119211117Y-58732939D01*
X119293925Y-58707820D01*
X119370240Y-58667028D01*
X119402565Y-58640500D01*
X120894408Y-58640500D01*
X120112908Y-59422000D01*
X116392797Y-59422000D01*
X116345241Y-59382972D01*
X116268925Y-59342180D01*
X116186118Y-59317061D01*
X116100001Y-59308579D01*
X115443672Y-59308579D01*
X114940045Y-58804953D01*
X114954759Y-58817028D01*
X115031075Y-58857820D01*
X115113882Y-58882939D01*
X115199999Y-58891421D01*
X116100001Y-58891421D01*
X116186118Y-58882939D01*
X116268925Y-58857820D01*
X116345241Y-58817028D01*
X116412132Y-58762132D01*
X116467028Y-58695241D01*
X116507820Y-58618925D01*
X116532939Y-58536118D01*
X116541421Y-58450001D01*
X116541421Y-57924999D01*
X116532939Y-57838882D01*
X116507820Y-57756075D01*
X116467028Y-57679759D01*
X116412132Y-57612868D01*
X116345241Y-57557972D01*
X116268925Y-57517180D01*
X116186118Y-57492061D01*
X116100001Y-57483579D01*
X115199999Y-57483579D01*
X115113882Y-57492061D01*
X115031075Y-57517180D01*
X114954759Y-57557972D01*
X114887868Y-57612868D01*
X114832972Y-57679759D01*
X114792180Y-57756075D01*
X114767061Y-57838882D01*
X114758579Y-57924999D01*
X114758579Y-58450001D01*
X114767061Y-58536118D01*
X114792180Y-58618925D01*
X114832972Y-58695241D01*
X114845047Y-58709955D01*
X114240500Y-58105408D01*
X114240500Y-57002565D01*
X114267028Y-56970240D01*
X114307820Y-56893925D01*
X114332939Y-56811117D01*
X114341421Y-56725000D01*
X114341421Y-55775000D01*
X114332939Y-55688883D01*
X114307820Y-55606075D01*
X114267028Y-55529760D01*
X114212132Y-55462868D01*
X114145240Y-55407972D01*
X114068925Y-55367180D01*
X113986117Y-55342061D01*
X113900000Y-55333579D01*
X113400000Y-55333579D01*
X113313883Y-55342061D01*
X113231075Y-55367180D01*
X113154760Y-55407972D01*
X113087868Y-55462868D01*
X113032972Y-55529760D01*
X112992180Y-55606075D01*
X112967061Y-55688883D01*
X112958579Y-55775000D01*
X112958579Y-56725000D01*
X112967061Y-56811117D01*
X112992180Y-56893925D01*
X113032972Y-56970240D01*
X113059500Y-57002565D01*
X113059501Y-58320985D01*
X113056643Y-58350000D01*
X113061605Y-58400372D01*
X109500500Y-54839268D01*
X109500500Y-52603101D01*
X109513503Y-52600515D01*
X109702862Y-52522080D01*
X109873280Y-52408209D01*
X110018209Y-52263280D01*
X110132080Y-52092862D01*
X110210515Y-51903503D01*
X110250500Y-51702480D01*
X110250500Y-51497520D01*
X110210515Y-51296497D01*
X110132080Y-51107138D01*
X110018209Y-50936720D01*
X109873280Y-50791791D01*
X109702862Y-50677920D01*
X109513503Y-50599485D01*
X109312480Y-50559500D01*
X109107520Y-50559500D01*
X108906497Y-50599485D01*
X108717138Y-50677920D01*
X108546720Y-50791791D01*
X108401791Y-50936720D01*
X108287920Y-51107138D01*
X108209485Y-51296497D01*
X108169500Y-51497520D01*
X108169500Y-51702480D01*
X108209485Y-51903503D01*
X108287920Y-52092862D01*
X108401791Y-52263280D01*
X108546720Y-52408209D01*
X108717138Y-52522080D01*
X108906497Y-52600515D01*
X108919500Y-52603101D01*
X108919501Y-54945329D01*
X108918096Y-54959596D01*
X108923704Y-55016543D01*
X108940316Y-55071303D01*
X108967290Y-55121769D01*
X108978406Y-55135314D01*
X109003593Y-55166004D01*
X109014674Y-55175098D01*
X114786912Y-60947337D01*
X114796006Y-60958418D01*
X114840240Y-60994720D01*
X114890707Y-61021695D01*
X114945466Y-61038306D01*
X114953244Y-61039072D01*
X115334500Y-61420329D01*
X115334500Y-63273672D01*
X114890506Y-62829678D01*
X114881408Y-62818592D01*
X114837174Y-62782290D01*
X114786707Y-62755315D01*
X114731948Y-62738704D01*
X114689265Y-62734500D01*
X114689257Y-62734500D01*
X114675000Y-62733096D01*
X114660743Y-62734500D01*
X109939254Y-62734500D01*
X109924999Y-62733096D01*
X109910744Y-62734500D01*
X109910735Y-62734500D01*
X109868052Y-62738704D01*
X109813293Y-62755315D01*
X109762826Y-62782290D01*
X109718592Y-62818592D01*
X109709498Y-62829673D01*
X109312677Y-63226495D01*
X109301591Y-63235593D01*
X109265289Y-63279828D01*
X109238314Y-63330295D01*
X109221703Y-63385054D01*
X109217499Y-63427737D01*
X109217499Y-63427744D01*
X109216095Y-63442001D01*
X109217499Y-63456258D01*
X109217500Y-65923732D01*
X109216095Y-65937999D01*
X109221703Y-65994946D01*
X109238315Y-66049706D01*
X109265289Y-66100172D01*
X109285666Y-66125001D01*
X109301592Y-66144407D01*
X109312673Y-66153501D01*
X109670286Y-66511114D01*
X109662920Y-66522138D01*
X109584485Y-66711497D01*
X109544500Y-66912520D01*
X109544500Y-67117480D01*
X109584485Y-67318503D01*
X109662920Y-67507862D01*
X109776791Y-67678280D01*
X109921720Y-67823209D01*
X110092138Y-67937080D01*
X110281497Y-68015515D01*
X110482520Y-68055500D01*
X110687480Y-68055500D01*
X110888503Y-68015515D01*
X111077862Y-67937080D01*
X111248280Y-67823209D01*
X111393209Y-67678280D01*
X111507080Y-67507862D01*
X111585515Y-67318503D01*
X111625500Y-67117480D01*
X111625500Y-66912520D01*
X111585515Y-66711497D01*
X111507080Y-66522138D01*
X111393209Y-66351720D01*
X111248280Y-66206791D01*
X111077862Y-66092920D01*
X110888503Y-66014485D01*
X110687480Y-65974500D01*
X110482520Y-65974500D01*
X110281497Y-66014485D01*
X110092138Y-66092920D01*
X110081114Y-66100286D01*
X109798499Y-65817671D01*
X109798499Y-65159988D01*
X109921720Y-65283209D01*
X110092138Y-65397080D01*
X110281497Y-65475515D01*
X110482520Y-65515500D01*
X110687480Y-65515500D01*
X110888503Y-65475515D01*
X111077862Y-65397080D01*
X111088886Y-65389714D01*
X111719498Y-66020327D01*
X111728592Y-66031408D01*
X111772826Y-66067710D01*
X111823293Y-66094685D01*
X111878052Y-66111296D01*
X111920735Y-66115500D01*
X111920742Y-66115500D01*
X111934999Y-66116904D01*
X111949256Y-66115500D01*
X112598345Y-66115500D01*
X112461720Y-66206791D01*
X112316791Y-66351720D01*
X112202920Y-66522138D01*
X112124485Y-66711497D01*
X112084500Y-66912520D01*
X112084500Y-67117480D01*
X112124485Y-67318503D01*
X112202920Y-67507862D01*
X112316791Y-67678280D01*
X112461720Y-67823209D01*
X112632138Y-67937080D01*
X112821497Y-68015515D01*
X113022520Y-68055500D01*
X113227480Y-68055500D01*
X113428503Y-68015515D01*
X113617862Y-67937080D01*
X113788280Y-67823209D01*
X113795989Y-67815500D01*
X117136500Y-67815500D01*
X117136500Y-68057490D01*
X99458268Y-68057490D01*
X99065500Y-67664723D01*
X99065500Y-66912520D01*
X101924500Y-66912520D01*
X101924500Y-67117480D01*
X101964485Y-67318503D01*
X102042920Y-67507862D01*
X102156791Y-67678280D01*
X102301720Y-67823209D01*
X102472138Y-67937080D01*
X102661497Y-68015515D01*
X102862520Y-68055500D01*
X103067480Y-68055500D01*
X103268503Y-68015515D01*
X103457862Y-67937080D01*
X103628280Y-67823209D01*
X103773209Y-67678280D01*
X103887080Y-67507862D01*
X103965515Y-67318503D01*
X104005500Y-67117480D01*
X104005500Y-66912520D01*
X104464500Y-66912520D01*
X104464500Y-67117480D01*
X104504485Y-67318503D01*
X104582920Y-67507862D01*
X104696791Y-67678280D01*
X104841720Y-67823209D01*
X105012138Y-67937080D01*
X105201497Y-68015515D01*
X105402520Y-68055500D01*
X105607480Y-68055500D01*
X105808503Y-68015515D01*
X105997862Y-67937080D01*
X106168280Y-67823209D01*
X106313209Y-67678280D01*
X106427080Y-67507862D01*
X106505515Y-67318503D01*
X106545500Y-67117480D01*
X106545500Y-66912520D01*
X107004500Y-66912520D01*
X107004500Y-67117480D01*
X107044485Y-67318503D01*
X107122920Y-67507862D01*
X107236791Y-67678280D01*
X107381720Y-67823209D01*
X107552138Y-67937080D01*
X107741497Y-68015515D01*
X107942520Y-68055500D01*
X108147480Y-68055500D01*
X108348503Y-68015515D01*
X108537862Y-67937080D01*
X108708280Y-67823209D01*
X108853209Y-67678280D01*
X108967080Y-67507862D01*
X109045515Y-67318503D01*
X109085500Y-67117480D01*
X109085500Y-66912520D01*
X109045515Y-66711497D01*
X108967080Y-66522138D01*
X108853209Y-66351720D01*
X108708280Y-66206791D01*
X108537862Y-66092920D01*
X108348503Y-66014485D01*
X108147480Y-65974500D01*
X107942520Y-65974500D01*
X107741497Y-66014485D01*
X107552138Y-66092920D01*
X107381720Y-66206791D01*
X107236791Y-66351720D01*
X107122920Y-66522138D01*
X107044485Y-66711497D01*
X107004500Y-66912520D01*
X106545500Y-66912520D01*
X106505515Y-66711497D01*
X106427080Y-66522138D01*
X106313209Y-66351720D01*
X106168280Y-66206791D01*
X105997862Y-66092920D01*
X105808503Y-66014485D01*
X105607480Y-65974500D01*
X105402520Y-65974500D01*
X105201497Y-66014485D01*
X105012138Y-66092920D01*
X104841720Y-66206791D01*
X104696791Y-66351720D01*
X104582920Y-66522138D01*
X104504485Y-66711497D01*
X104464500Y-66912520D01*
X104005500Y-66912520D01*
X103965515Y-66711497D01*
X103887080Y-66522138D01*
X103773209Y-66351720D01*
X103628280Y-66206791D01*
X103457862Y-66092920D01*
X103268503Y-66014485D01*
X103067480Y-65974500D01*
X102862520Y-65974500D01*
X102661497Y-66014485D01*
X102472138Y-66092920D01*
X102301720Y-66206791D01*
X102156791Y-66351720D01*
X102042920Y-66522138D01*
X101964485Y-66711497D01*
X101924500Y-66912520D01*
X99065500Y-66912520D01*
X99065500Y-64372520D01*
X101924500Y-64372520D01*
X101924500Y-64577480D01*
X101964485Y-64778503D01*
X102042920Y-64967862D01*
X102156791Y-65138280D01*
X102301720Y-65283209D01*
X102472138Y-65397080D01*
X102661497Y-65475515D01*
X102862520Y-65515500D01*
X103067480Y-65515500D01*
X103268503Y-65475515D01*
X103457862Y-65397080D01*
X103628280Y-65283209D01*
X103773209Y-65138280D01*
X103887080Y-64967862D01*
X103965515Y-64778503D01*
X104005500Y-64577480D01*
X104005500Y-64372520D01*
X104464500Y-64372520D01*
X104464500Y-64577480D01*
X104504485Y-64778503D01*
X104582920Y-64967862D01*
X104696791Y-65138280D01*
X104841720Y-65283209D01*
X105012138Y-65397080D01*
X105201497Y-65475515D01*
X105402520Y-65515500D01*
X105607480Y-65515500D01*
X105808503Y-65475515D01*
X105997862Y-65397080D01*
X106168280Y-65283209D01*
X106313209Y-65138280D01*
X106427080Y-64967862D01*
X106505515Y-64778503D01*
X106545500Y-64577480D01*
X106545500Y-64372520D01*
X107004500Y-64372520D01*
X107004500Y-64577480D01*
X107044485Y-64778503D01*
X107122920Y-64967862D01*
X107236791Y-65138280D01*
X107381720Y-65283209D01*
X107552138Y-65397080D01*
X107741497Y-65475515D01*
X107942520Y-65515500D01*
X108147480Y-65515500D01*
X108348503Y-65475515D01*
X108537862Y-65397080D01*
X108708280Y-65283209D01*
X108853209Y-65138280D01*
X108967080Y-64967862D01*
X109045515Y-64778503D01*
X109085500Y-64577480D01*
X109085500Y-64372520D01*
X109045515Y-64171497D01*
X108967080Y-63982138D01*
X108853209Y-63811720D01*
X108708280Y-63666791D01*
X108537862Y-63552920D01*
X108348503Y-63474485D01*
X108147480Y-63434500D01*
X107942520Y-63434500D01*
X107741497Y-63474485D01*
X107552138Y-63552920D01*
X107381720Y-63666791D01*
X107236791Y-63811720D01*
X107122920Y-63982138D01*
X107044485Y-64171497D01*
X107004500Y-64372520D01*
X106545500Y-64372520D01*
X106505515Y-64171497D01*
X106427080Y-63982138D01*
X106313209Y-63811720D01*
X106168280Y-63666791D01*
X105997862Y-63552920D01*
X105808503Y-63474485D01*
X105607480Y-63434500D01*
X105402520Y-63434500D01*
X105201497Y-63474485D01*
X105012138Y-63552920D01*
X104841720Y-63666791D01*
X104696791Y-63811720D01*
X104582920Y-63982138D01*
X104504485Y-64171497D01*
X104464500Y-64372520D01*
X104005500Y-64372520D01*
X103965515Y-64171497D01*
X103887080Y-63982138D01*
X103773209Y-63811720D01*
X103628280Y-63666791D01*
X103457862Y-63552920D01*
X103268503Y-63474485D01*
X103067480Y-63434500D01*
X102862520Y-63434500D01*
X102661497Y-63474485D01*
X102472138Y-63552920D01*
X102301720Y-63666791D01*
X102156791Y-63811720D01*
X102042920Y-63982138D01*
X101964485Y-64171497D01*
X101924500Y-64372520D01*
X99065500Y-64372520D01*
X99065500Y-61390500D01*
X99441123Y-61390500D01*
X99816023Y-61315927D01*
X100169171Y-61169649D01*
X100486996Y-60957285D01*
X100757285Y-60686996D01*
X100969649Y-60369171D01*
X101115927Y-60016023D01*
X101190500Y-59641123D01*
X101190500Y-59258877D01*
X101164581Y-59128573D01*
X104622500Y-59128573D01*
X104622500Y-59771427D01*
X104747914Y-60401928D01*
X104993924Y-60995847D01*
X105351074Y-61530360D01*
X105805640Y-61984926D01*
X106340153Y-62342076D01*
X106934072Y-62588086D01*
X107564573Y-62713500D01*
X108207427Y-62713500D01*
X108837928Y-62588086D01*
X109431847Y-62342076D01*
X109966360Y-61984926D01*
X110420926Y-61530360D01*
X110778076Y-60995847D01*
X111024086Y-60401928D01*
X111149500Y-59771427D01*
X111149500Y-59128573D01*
X111024086Y-58498072D01*
X110778076Y-57904153D01*
X110420926Y-57369640D01*
X109966360Y-56915074D01*
X109431847Y-56557924D01*
X108837928Y-56311914D01*
X108207427Y-56186500D01*
X107564573Y-56186500D01*
X106934072Y-56311914D01*
X106340153Y-56557924D01*
X105805640Y-56915074D01*
X105351074Y-57369640D01*
X104993924Y-57904153D01*
X104747914Y-58498072D01*
X104622500Y-59128573D01*
X101164581Y-59128573D01*
X101115927Y-58883977D01*
X100969649Y-58530829D01*
X100757285Y-58213004D01*
X100486996Y-57942715D01*
X100169171Y-57730351D01*
X99816023Y-57584073D01*
X99441123Y-57509500D01*
X99058877Y-57509500D01*
X98683977Y-57584073D01*
X98330829Y-57730351D01*
X98013004Y-57942715D01*
X97742715Y-58213004D01*
X97530351Y-58530829D01*
X97384073Y-58883977D01*
X97309500Y-59258877D01*
X97309500Y-59641123D01*
X97366387Y-59927113D01*
X97247445Y-60072045D01*
X97155470Y-60244119D01*
X97098832Y-60430829D01*
X97084920Y-60572080D01*
X97079708Y-60625000D01*
X97084500Y-60673652D01*
X97084501Y-68026338D01*
X97079708Y-68075000D01*
X97098833Y-68269171D01*
X97155470Y-68455881D01*
X97176399Y-68495036D01*
X97247446Y-68627955D01*
X97371223Y-68778778D01*
X97409020Y-68809797D01*
X98313192Y-69713970D01*
X98344212Y-69751768D01*
X98384096Y-69784500D01*
X97060543Y-69784500D01*
X97043497Y-69782829D01*
X97037245Y-69780941D01*
X97031482Y-69777877D01*
X97026418Y-69773747D01*
X97022257Y-69768718D01*
X97019148Y-69762967D01*
X97017217Y-69756729D01*
X97015488Y-69740274D01*
X96992414Y-50750000D01*
X98008579Y-50750000D01*
X98008579Y-52450000D01*
X98012257Y-52487344D01*
X98023150Y-52523254D01*
X98040839Y-52556348D01*
X98064645Y-52585355D01*
X98093652Y-52609161D01*
X98126746Y-52626850D01*
X98162656Y-52637743D01*
X98200000Y-52641421D01*
X99900000Y-52641421D01*
X99937344Y-52637743D01*
X99973254Y-52626850D01*
X100006348Y-52609161D01*
X100035355Y-52585355D01*
X100059161Y-52556348D01*
X100076850Y-52523254D01*
X100087743Y-52487344D01*
X100091421Y-52450000D01*
X100091421Y-51497520D01*
X100549500Y-51497520D01*
X100549500Y-51702480D01*
X100589485Y-51903503D01*
X100667920Y-52092862D01*
X100781791Y-52263280D01*
X100926720Y-52408209D01*
X101097138Y-52522080D01*
X101286497Y-52600515D01*
X101487520Y-52640500D01*
X101692480Y-52640500D01*
X101893503Y-52600515D01*
X102082862Y-52522080D01*
X102253280Y-52408209D01*
X102398209Y-52263280D01*
X102512080Y-52092862D01*
X102590515Y-51903503D01*
X102630500Y-51702480D01*
X102630500Y-51497520D01*
X103089500Y-51497520D01*
X103089500Y-51702480D01*
X103129485Y-51903503D01*
X103207920Y-52092862D01*
X103321791Y-52263280D01*
X103466720Y-52408209D01*
X103637138Y-52522080D01*
X103826497Y-52600515D01*
X104027520Y-52640500D01*
X104232480Y-52640500D01*
X104433503Y-52600515D01*
X104622862Y-52522080D01*
X104793280Y-52408209D01*
X104938209Y-52263280D01*
X105052080Y-52092862D01*
X105130515Y-51903503D01*
X105170500Y-51702480D01*
X105170500Y-51497520D01*
X105629500Y-51497520D01*
X105629500Y-51702480D01*
X105669485Y-51903503D01*
X105747920Y-52092862D01*
X105861791Y-52263280D01*
X106006720Y-52408209D01*
X106177138Y-52522080D01*
X106366497Y-52600515D01*
X106567520Y-52640500D01*
X106772480Y-52640500D01*
X106973503Y-52600515D01*
X107162862Y-52522080D01*
X107333280Y-52408209D01*
X107478209Y-52263280D01*
X107592080Y-52092862D01*
X107670515Y-51903503D01*
X107710500Y-51702480D01*
X107710500Y-51497520D01*
X107670515Y-51296497D01*
X107592080Y-51107138D01*
X107478209Y-50936720D01*
X107333280Y-50791791D01*
X107162862Y-50677920D01*
X106973503Y-50599485D01*
X106772480Y-50559500D01*
X106567520Y-50559500D01*
X106366497Y-50599485D01*
X106177138Y-50677920D01*
X106006720Y-50791791D01*
X105861791Y-50936720D01*
X105747920Y-51107138D01*
X105669485Y-51296497D01*
X105629500Y-51497520D01*
X105170500Y-51497520D01*
X105130515Y-51296497D01*
X105052080Y-51107138D01*
X104938209Y-50936720D01*
X104793280Y-50791791D01*
X104622862Y-50677920D01*
X104433503Y-50599485D01*
X104232480Y-50559500D01*
X104027520Y-50559500D01*
X103826497Y-50599485D01*
X103637138Y-50677920D01*
X103466720Y-50791791D01*
X103321791Y-50936720D01*
X103207920Y-51107138D01*
X103129485Y-51296497D01*
X103089500Y-51497520D01*
X102630500Y-51497520D01*
X102590515Y-51296497D01*
X102512080Y-51107138D01*
X102398209Y-50936720D01*
X102253280Y-50791791D01*
X102082862Y-50677920D01*
X101893503Y-50599485D01*
X101692480Y-50559500D01*
X101487520Y-50559500D01*
X101286497Y-50599485D01*
X101097138Y-50677920D01*
X100926720Y-50791791D01*
X100781791Y-50936720D01*
X100667920Y-51107138D01*
X100589485Y-51296497D01*
X100549500Y-51497520D01*
X100091421Y-51497520D01*
X100091421Y-50750000D01*
X100087743Y-50712656D01*
X100076850Y-50676746D01*
X100059161Y-50643652D01*
X100035355Y-50614645D01*
X100006348Y-50590839D01*
X99973254Y-50573150D01*
X99937344Y-50562257D01*
X99900000Y-50558579D01*
X98200000Y-50558579D01*
X98162656Y-50562257D01*
X98126746Y-50573150D01*
X98093652Y-50590839D01*
X98064645Y-50614645D01*
X98040839Y-50643652D01*
X98023150Y-50676746D01*
X98012257Y-50712656D01*
X98008579Y-50750000D01*
X96992414Y-50750000D01*
X96990512Y-49185422D01*
X96992171Y-49168498D01*
X96994059Y-49162245D01*
X96997125Y-49156479D01*
X97001252Y-49151419D01*
X97006284Y-49147256D01*
X97012032Y-49144148D01*
X97018269Y-49142218D01*
X97034610Y-49140500D01*
X156711500Y-49140500D01*
X156711500Y-50383579D01*
%TA.AperFunction,Conductor*%
D34*
G36*
X156711500Y-50383579D02*
G01*
X156668672Y-50383579D01*
X155838064Y-49552972D01*
X155819567Y-49530433D01*
X155729651Y-49456642D01*
X155627068Y-49401810D01*
X155515758Y-49368044D01*
X155429008Y-49359500D01*
X155429005Y-49359500D01*
X155400000Y-49356643D01*
X155370995Y-49359500D01*
X143746594Y-49359500D01*
X143717588Y-49356643D01*
X143688583Y-49359500D01*
X143688581Y-49359500D01*
X143601831Y-49368044D01*
X143530729Y-49389613D01*
X143490521Y-49401810D01*
X143387937Y-49456642D01*
X143336060Y-49499217D01*
X143298022Y-49530433D01*
X143279529Y-49552967D01*
X142195996Y-50636501D01*
X139891421Y-50636501D01*
X139891421Y-49800000D01*
X139887743Y-49762656D01*
X139876850Y-49726746D01*
X139859161Y-49693652D01*
X139835355Y-49664645D01*
X139806348Y-49640839D01*
X139773254Y-49623150D01*
X139737344Y-49612257D01*
X139700000Y-49608579D01*
X138900000Y-49608579D01*
X138862656Y-49612257D01*
X138826746Y-49623150D01*
X138793652Y-49640839D01*
X138764645Y-49664645D01*
X138740839Y-49693652D01*
X138723150Y-49726746D01*
X138712257Y-49762656D01*
X138708579Y-49800000D01*
X138708579Y-50636501D01*
X137603402Y-50636501D01*
X137574396Y-50633644D01*
X137545391Y-50636501D01*
X137545389Y-50636501D01*
X137458639Y-50645045D01*
X137354136Y-50676746D01*
X137347329Y-50678811D01*
X137244745Y-50733643D01*
X137196479Y-50773254D01*
X137154830Y-50807434D01*
X137136338Y-50829967D01*
X136152967Y-51813339D01*
X136130434Y-51831831D01*
X136111942Y-51854364D01*
X136056642Y-51921747D01*
X136001810Y-52024331D01*
X135968045Y-52135640D01*
X135956643Y-52251398D01*
X135959501Y-52280413D01*
X135959500Y-53297435D01*
X135932972Y-53329760D01*
X135892180Y-53406075D01*
X135867061Y-53488883D01*
X135858579Y-53575000D01*
X135858579Y-53764908D01*
X135851487Y-53772000D01*
X133352400Y-53772000D01*
X133336118Y-53767061D01*
X133250001Y-53758579D01*
X132349999Y-53758579D01*
X132263882Y-53767061D01*
X132181075Y-53792180D01*
X132104759Y-53832972D01*
X132037868Y-53887868D01*
X131982972Y-53954759D01*
X131942180Y-54031075D01*
X131917061Y-54113882D01*
X131908579Y-54199999D01*
X131908579Y-54725001D01*
X131917061Y-54811118D01*
X131942180Y-54893925D01*
X131982972Y-54970241D01*
X132037868Y-55037132D01*
X132104759Y-55092028D01*
X132181075Y-55132820D01*
X132263882Y-55157939D01*
X132349999Y-55166421D01*
X133250001Y-55166421D01*
X133336118Y-55157939D01*
X133352400Y-55153000D01*
X136103581Y-55153000D01*
X136137500Y-55156341D01*
X136171419Y-55153000D01*
X136171422Y-55153000D01*
X136272862Y-55143009D01*
X136403021Y-55103525D01*
X136522977Y-55039408D01*
X136611913Y-54966421D01*
X136800000Y-54966421D01*
X136886117Y-54957939D01*
X136968925Y-54932820D01*
X137045240Y-54892028D01*
X137112132Y-54837132D01*
X137167028Y-54770240D01*
X137207820Y-54693925D01*
X137232939Y-54611117D01*
X137241421Y-54525000D01*
X137241421Y-54074570D01*
X137243841Y-54050001D01*
X137241421Y-54025432D01*
X137241421Y-53769407D01*
X137695329Y-53315500D01*
X139544675Y-53315500D01*
X139532972Y-53329760D01*
X139492180Y-53406075D01*
X139467061Y-53488883D01*
X139458579Y-53575000D01*
X139458579Y-54525000D01*
X139467061Y-54611117D01*
X139492180Y-54693925D01*
X139509500Y-54726328D01*
X139509501Y-56270913D01*
X139490839Y-56293652D01*
X139473150Y-56326746D01*
X139462257Y-56362656D01*
X139458579Y-56400000D01*
X139458579Y-57800000D01*
X139462257Y-57837344D01*
X139473150Y-57873254D01*
X139490839Y-57906348D01*
X139514645Y-57935355D01*
X139543652Y-57959161D01*
X139576746Y-57976850D01*
X139612656Y-57987743D01*
X139650000Y-57991421D01*
X139950000Y-57991421D01*
X139987344Y-57987743D01*
X140023254Y-57976850D01*
X140050000Y-57962554D01*
X140076746Y-57976850D01*
X140112656Y-57987743D01*
X140150000Y-57991421D01*
X140450000Y-57991421D01*
X140487344Y-57987743D01*
X140523254Y-57976850D01*
X140556348Y-57959161D01*
X140585355Y-57935355D01*
X140609161Y-57906348D01*
X140626850Y-57873254D01*
X140637743Y-57837344D01*
X140641421Y-57800000D01*
X140641421Y-56400000D01*
X140637743Y-56362656D01*
X140626850Y-56326746D01*
X140609161Y-56293652D01*
X140585355Y-56264645D01*
X140556348Y-56240839D01*
X140523254Y-56223150D01*
X140487344Y-56212257D01*
X140450000Y-56208579D01*
X140150000Y-56208579D01*
X140112656Y-56212257D01*
X140090500Y-56218978D01*
X140090500Y-54966421D01*
X140400000Y-54966421D01*
X140486117Y-54957939D01*
X140568925Y-54932820D01*
X140645240Y-54892028D01*
X140659501Y-54880325D01*
X140659500Y-56477141D01*
X140658096Y-56491398D01*
X140659500Y-56505655D01*
X140659500Y-56505662D01*
X140663704Y-56548345D01*
X140680315Y-56603104D01*
X140707290Y-56653571D01*
X140743592Y-56697806D01*
X140754678Y-56706904D01*
X141934501Y-57886728D01*
X141934500Y-59831377D01*
X141925493Y-59786095D01*
X141896056Y-59715029D01*
X141853321Y-59651071D01*
X141798929Y-59596679D01*
X141734971Y-59553944D01*
X141663905Y-59524507D01*
X141588461Y-59509500D01*
X141570329Y-59509500D01*
X140938496Y-58877668D01*
X140929398Y-58866582D01*
X140885164Y-58830280D01*
X140834697Y-58803305D01*
X140779938Y-58786694D01*
X140737255Y-58782490D01*
X140737247Y-58782490D01*
X140722990Y-58781086D01*
X140708733Y-58782490D01*
X137211750Y-58782490D01*
X137198929Y-58769669D01*
X137134971Y-58726934D01*
X137063905Y-58697497D01*
X136988461Y-58682490D01*
X136911539Y-58682490D01*
X136836095Y-58697497D01*
X136765029Y-58726934D01*
X136701071Y-58769669D01*
X136646679Y-58824061D01*
X136603944Y-58888019D01*
X136574507Y-58959085D01*
X136559500Y-59034529D01*
X136559500Y-59111451D01*
X136574507Y-59186895D01*
X136583870Y-59209500D01*
X136411750Y-59209500D01*
X136398929Y-59196679D01*
X136334971Y-59153944D01*
X136263905Y-59124507D01*
X136188461Y-59109500D01*
X136111539Y-59109500D01*
X136036095Y-59124507D01*
X135965029Y-59153944D01*
X135901071Y-59196679D01*
X135846679Y-59251071D01*
X135803944Y-59315029D01*
X135774507Y-59386095D01*
X135759500Y-59461539D01*
X135759500Y-59538461D01*
X135774507Y-59613905D01*
X135803944Y-59684971D01*
X135846679Y-59748929D01*
X135901071Y-59803321D01*
X135965029Y-59846056D01*
X136036095Y-59875493D01*
X136111539Y-59890500D01*
X136188461Y-59890500D01*
X136263905Y-59875493D01*
X136334971Y-59846056D01*
X136398929Y-59803321D01*
X136411750Y-59790500D01*
X140196830Y-59790500D01*
X140543732Y-60137402D01*
X140514265Y-60134500D01*
X140514257Y-60134500D01*
X140500000Y-60133096D01*
X140485743Y-60134500D01*
X139989254Y-60134500D01*
X139974999Y-60133096D01*
X139960744Y-60134500D01*
X139960735Y-60134500D01*
X139918052Y-60138704D01*
X139863293Y-60155315D01*
X139812826Y-60182290D01*
X139768592Y-60218592D01*
X139759494Y-60229678D01*
X139604674Y-60384498D01*
X139593593Y-60393592D01*
X139584499Y-60404673D01*
X139557290Y-60437827D01*
X139530316Y-60488293D01*
X139513704Y-60543053D01*
X139508096Y-60600000D01*
X139509501Y-60614267D01*
X139509501Y-60618978D01*
X139487344Y-60612257D01*
X139450000Y-60608579D01*
X139150000Y-60608579D01*
X139112656Y-60612257D01*
X139076746Y-60623150D01*
X139050000Y-60637446D01*
X139023254Y-60623150D01*
X138987344Y-60612257D01*
X138950000Y-60608579D01*
X138650000Y-60608579D01*
X138612656Y-60612257D01*
X138576746Y-60623150D01*
X138550000Y-60637446D01*
X138523254Y-60623150D01*
X138487344Y-60612257D01*
X138450000Y-60608579D01*
X138150000Y-60608579D01*
X138112656Y-60612257D01*
X138076746Y-60623150D01*
X138043652Y-60640839D01*
X138014645Y-60664645D01*
X137990839Y-60693652D01*
X137973150Y-60726746D01*
X137962257Y-60762656D01*
X137958579Y-60800000D01*
X137958579Y-61860366D01*
X137937480Y-61899840D01*
X137915151Y-61973450D01*
X137909500Y-62030823D01*
X137909501Y-62523485D01*
X137873486Y-62559500D01*
X137360561Y-62559500D01*
X137366421Y-62500000D01*
X137366421Y-62000000D01*
X137357939Y-61913883D01*
X137332820Y-61831075D01*
X137292028Y-61754760D01*
X137237132Y-61687868D01*
X137170240Y-61632972D01*
X137093925Y-61592180D01*
X137011117Y-61567061D01*
X136925000Y-61558579D01*
X135975000Y-61558579D01*
X135888883Y-61567061D01*
X135806075Y-61592180D01*
X135729760Y-61632972D01*
X135662868Y-61687868D01*
X135607972Y-61754760D01*
X135567180Y-61831075D01*
X135542061Y-61913883D01*
X135533579Y-62000000D01*
X135533579Y-62500000D01*
X135542061Y-62586117D01*
X135567180Y-62668925D01*
X135607972Y-62745240D01*
X135662868Y-62812132D01*
X135729760Y-62867028D01*
X135806075Y-62907820D01*
X135888883Y-62932939D01*
X135975000Y-62941421D01*
X136589171Y-62941421D01*
X136860310Y-63212560D01*
X136872539Y-63227461D01*
X136932000Y-63276260D01*
X136948044Y-63284836D01*
X136904759Y-63307972D01*
X136837868Y-63362868D01*
X136782972Y-63429759D01*
X136742180Y-63506075D01*
X136717061Y-63588882D01*
X136708579Y-63674999D01*
X136708579Y-64200001D01*
X136717061Y-64286118D01*
X136742180Y-64368925D01*
X136782972Y-64445241D01*
X136837868Y-64512132D01*
X136904759Y-64567028D01*
X136981075Y-64607820D01*
X137063882Y-64632939D01*
X137149999Y-64641421D01*
X138050001Y-64641421D01*
X138136118Y-64632939D01*
X138218925Y-64607820D01*
X138295241Y-64567028D01*
X138362132Y-64512132D01*
X138417028Y-64445241D01*
X138457820Y-64368925D01*
X138482939Y-64286118D01*
X138491421Y-64200001D01*
X138491421Y-63674999D01*
X138482939Y-63588882D01*
X138466211Y-63533736D01*
X138995327Y-63004620D01*
X139006408Y-62995526D01*
X139009501Y-62991758D01*
X139009501Y-63258557D01*
X138981075Y-63267180D01*
X138904759Y-63307972D01*
X138837868Y-63362868D01*
X138782972Y-63429759D01*
X138742180Y-63506075D01*
X138717061Y-63588882D01*
X138708579Y-63674999D01*
X138708579Y-64200001D01*
X138717061Y-64286118D01*
X138742180Y-64368925D01*
X138782972Y-64445241D01*
X138837868Y-64512132D01*
X138904759Y-64567028D01*
X138981075Y-64607820D01*
X138986613Y-64609500D01*
X138941275Y-64609500D01*
X138927010Y-64608095D01*
X138912745Y-64609500D01*
X138870062Y-64613704D01*
X138815303Y-64630315D01*
X138764836Y-64657290D01*
X138720602Y-64693592D01*
X138711508Y-64704673D01*
X138579671Y-64836510D01*
X138561539Y-64836510D01*
X138486095Y-64851517D01*
X138415029Y-64880954D01*
X138351071Y-64923689D01*
X138296679Y-64978081D01*
X138253944Y-65042039D01*
X138230592Y-65098416D01*
X138218925Y-65092180D01*
X138136118Y-65067061D01*
X138050001Y-65058579D01*
X137149999Y-65058579D01*
X137063882Y-65067061D01*
X136981075Y-65092180D01*
X136904759Y-65132972D01*
X136837868Y-65187868D01*
X136782972Y-65254759D01*
X136742180Y-65331075D01*
X136717061Y-65413882D01*
X136708579Y-65499999D01*
X136708579Y-66025001D01*
X136717061Y-66111118D01*
X136742180Y-66193925D01*
X136774006Y-66253467D01*
X129813500Y-66253467D01*
X129813500Y-63650000D01*
X134683579Y-63650000D01*
X134683579Y-64150000D01*
X134692061Y-64236117D01*
X134717180Y-64318925D01*
X134757972Y-64395240D01*
X134812868Y-64462132D01*
X134879760Y-64517028D01*
X134956075Y-64557820D01*
X135038883Y-64582939D01*
X135125000Y-64591421D01*
X136075000Y-64591421D01*
X136161117Y-64582939D01*
X136243925Y-64557820D01*
X136320240Y-64517028D01*
X136387132Y-64462132D01*
X136442028Y-64395240D01*
X136482820Y-64318925D01*
X136507939Y-64236117D01*
X136516421Y-64150000D01*
X136516421Y-63650000D01*
X136507939Y-63563883D01*
X136482820Y-63481075D01*
X136442028Y-63404760D01*
X136387132Y-63337868D01*
X136320240Y-63282972D01*
X136243925Y-63242180D01*
X136161117Y-63217061D01*
X136075000Y-63208579D01*
X135125000Y-63208579D01*
X135038883Y-63217061D01*
X134956075Y-63242180D01*
X134879760Y-63282972D01*
X134812868Y-63337868D01*
X134757972Y-63404760D01*
X134717180Y-63481075D01*
X134692061Y-63563883D01*
X134683579Y-63650000D01*
X129813500Y-63650000D01*
X129813500Y-62450000D01*
X129812280Y-62437612D01*
X129808666Y-62425700D01*
X129802798Y-62414721D01*
X129794901Y-62405099D01*
X129785279Y-62397202D01*
X129774300Y-62391334D01*
X129762388Y-62387720D01*
X129750000Y-62386500D01*
X125441421Y-62386500D01*
X125441421Y-60520000D01*
X125437743Y-60482656D01*
X125426850Y-60446746D01*
X125409161Y-60413652D01*
X125385355Y-60384645D01*
X125356348Y-60360839D01*
X125323254Y-60343150D01*
X125287344Y-60332257D01*
X125250000Y-60328579D01*
X124340500Y-60328579D01*
X124340500Y-55171345D01*
X124326168Y-55025828D01*
X124291421Y-54911283D01*
X124291421Y-54220000D01*
X124708579Y-54220000D01*
X124708579Y-56220000D01*
X124712257Y-56257344D01*
X124723150Y-56293254D01*
X124740839Y-56326348D01*
X124764645Y-56355355D01*
X124793652Y-56379161D01*
X124826746Y-56396850D01*
X124862656Y-56407743D01*
X124900000Y-56411421D01*
X126400000Y-56411421D01*
X126437344Y-56407743D01*
X126473254Y-56396850D01*
X126506348Y-56379161D01*
X126535355Y-56355355D01*
X126559161Y-56326348D01*
X126576850Y-56293254D01*
X126587743Y-56257344D01*
X126591421Y-56220000D01*
X126591421Y-55710500D01*
X126866829Y-55710500D01*
X127133579Y-55977250D01*
X127133579Y-56450000D01*
X127142061Y-56536117D01*
X127167180Y-56618925D01*
X127207972Y-56695240D01*
X127262868Y-56762132D01*
X127329760Y-56817028D01*
X127406075Y-56857820D01*
X127488883Y-56882939D01*
X127575000Y-56891421D01*
X128047750Y-56891421D01*
X128732499Y-57576171D01*
X128732500Y-59348899D01*
X128730126Y-59373001D01*
X128737026Y-59443052D01*
X128739597Y-59469156D01*
X128751836Y-59509500D01*
X128767645Y-59561615D01*
X128813190Y-59646826D01*
X128844495Y-59684971D01*
X128874486Y-59721515D01*
X128893201Y-59736874D01*
X131620199Y-62463873D01*
X131620205Y-62463878D01*
X131637323Y-62480996D01*
X131657452Y-62494446D01*
X131676172Y-62509809D01*
X131697527Y-62521223D01*
X131717659Y-62534675D01*
X131740034Y-62543943D01*
X131761383Y-62555354D01*
X131784548Y-62562381D01*
X131806925Y-62571650D01*
X131830678Y-62576375D01*
X131853843Y-62583402D01*
X131877934Y-62585775D01*
X131901688Y-62590500D01*
X131925906Y-62590500D01*
X131949998Y-62592873D01*
X131974090Y-62590500D01*
X131998308Y-62590500D01*
X132022063Y-62585775D01*
X132046152Y-62583402D01*
X132069315Y-62576376D01*
X132093071Y-62571650D01*
X132115451Y-62562380D01*
X132138612Y-62555354D01*
X132159958Y-62543945D01*
X132182337Y-62534675D01*
X132202473Y-62521221D01*
X132223823Y-62509809D01*
X132242537Y-62494450D01*
X132262673Y-62480996D01*
X132279800Y-62463869D01*
X132298511Y-62448513D01*
X132313867Y-62429802D01*
X132330994Y-62412675D01*
X132344448Y-62392539D01*
X132359807Y-62373825D01*
X132371219Y-62352475D01*
X132384673Y-62332339D01*
X132393943Y-62309960D01*
X132405352Y-62288614D01*
X132412378Y-62265453D01*
X132421648Y-62243073D01*
X132426374Y-62219317D01*
X132433400Y-62196154D01*
X132435773Y-62172065D01*
X132440498Y-62148310D01*
X132440498Y-62124092D01*
X132442871Y-62100000D01*
X132440498Y-62075908D01*
X132440498Y-62051690D01*
X132435773Y-62027936D01*
X132433400Y-62003845D01*
X132426373Y-61980680D01*
X132421648Y-61956927D01*
X132412379Y-61934550D01*
X132405352Y-61911385D01*
X132393941Y-61890036D01*
X132384673Y-61867661D01*
X132371221Y-61847529D01*
X132359807Y-61826174D01*
X132344444Y-61807454D01*
X132330994Y-61787325D01*
X132313876Y-61770207D01*
X132313871Y-61770201D01*
X129713499Y-59169830D01*
X129713499Y-58490620D01*
X129777921Y-58517305D01*
X129853365Y-58532312D01*
X129871484Y-58532312D01*
X132659500Y-61320329D01*
X132659500Y-61338461D01*
X132674507Y-61413905D01*
X132703944Y-61484971D01*
X132746679Y-61548929D01*
X132801071Y-61603321D01*
X132865029Y-61646056D01*
X132936095Y-61675493D01*
X133011539Y-61690500D01*
X133088461Y-61690500D01*
X133163905Y-61675493D01*
X133234971Y-61646056D01*
X133298929Y-61603321D01*
X133353321Y-61548929D01*
X133396056Y-61484971D01*
X133425493Y-61413905D01*
X133440500Y-61338461D01*
X133440500Y-61261539D01*
X133425493Y-61186095D01*
X133396056Y-61115029D01*
X133353321Y-61051071D01*
X133298929Y-60996679D01*
X133234971Y-60953944D01*
X133163905Y-60924507D01*
X133088461Y-60909500D01*
X133070329Y-60909500D01*
X130282326Y-58121498D01*
X130282326Y-58103351D01*
X130267319Y-58027907D01*
X130237882Y-57956841D01*
X130195147Y-57892883D01*
X130140755Y-57838491D01*
X130076797Y-57795756D01*
X130005731Y-57766319D01*
X129930287Y-57751312D01*
X129853365Y-57751312D01*
X129777921Y-57766319D01*
X129713499Y-57793004D01*
X129713499Y-57397090D01*
X129715872Y-57372998D01*
X129712889Y-57342710D01*
X129706402Y-57276844D01*
X129678354Y-57184385D01*
X129632808Y-57099173D01*
X129571513Y-57024485D01*
X129552798Y-57009126D01*
X129155211Y-56611539D01*
X137909500Y-56611539D01*
X137909500Y-56688461D01*
X137924507Y-56763905D01*
X137953944Y-56834971D01*
X137958579Y-56841908D01*
X137958579Y-57800000D01*
X137962257Y-57837344D01*
X137973150Y-57873254D01*
X137990839Y-57906348D01*
X138014645Y-57935355D01*
X138043652Y-57959161D01*
X138076746Y-57976850D01*
X138112656Y-57987743D01*
X138150000Y-57991421D01*
X138450000Y-57991421D01*
X138487344Y-57987743D01*
X138523254Y-57976850D01*
X138550000Y-57962554D01*
X138576746Y-57976850D01*
X138594216Y-57982149D01*
X138615029Y-57996056D01*
X138686095Y-58025493D01*
X138761539Y-58040500D01*
X138838461Y-58040500D01*
X138913905Y-58025493D01*
X138984971Y-57996056D01*
X139005784Y-57982149D01*
X139023254Y-57976850D01*
X139056348Y-57959161D01*
X139085355Y-57935355D01*
X139109161Y-57906348D01*
X139126850Y-57873254D01*
X139132149Y-57855784D01*
X139146056Y-57834971D01*
X139175493Y-57763905D01*
X139190500Y-57688461D01*
X139190500Y-57611539D01*
X139175493Y-57536095D01*
X139146056Y-57465029D01*
X139141421Y-57458092D01*
X139141421Y-56400000D01*
X139137743Y-56362656D01*
X139126850Y-56326746D01*
X139109161Y-56293652D01*
X139085355Y-56264645D01*
X139056348Y-56240839D01*
X139023254Y-56223150D01*
X138987344Y-56212257D01*
X138950000Y-56208579D01*
X138650000Y-56208579D01*
X138612656Y-56212257D01*
X138576746Y-56223150D01*
X138550000Y-56237446D01*
X138523254Y-56223150D01*
X138487344Y-56212257D01*
X138450000Y-56208579D01*
X138150000Y-56208579D01*
X138112656Y-56212257D01*
X138076746Y-56223150D01*
X138043652Y-56240839D01*
X138014645Y-56264645D01*
X137990839Y-56293652D01*
X137973150Y-56326746D01*
X137962257Y-56362656D01*
X137958579Y-56400000D01*
X137958579Y-56458092D01*
X137953944Y-56465029D01*
X137924507Y-56536095D01*
X137909500Y-56611539D01*
X129155211Y-56611539D01*
X128966421Y-56422750D01*
X128966421Y-55950000D01*
X128957939Y-55863883D01*
X128932820Y-55781075D01*
X128892028Y-55704760D01*
X128846455Y-55649228D01*
X135644500Y-55649228D01*
X135644500Y-55750772D01*
X135664311Y-55850366D01*
X135703170Y-55944181D01*
X135759585Y-56028612D01*
X135831388Y-56100415D01*
X135915819Y-56156830D01*
X136009634Y-56195689D01*
X136109228Y-56215500D01*
X136210772Y-56215500D01*
X136310366Y-56195689D01*
X136404181Y-56156830D01*
X136488612Y-56100415D01*
X136560415Y-56028612D01*
X136616830Y-55944181D01*
X136655689Y-55850366D01*
X136675500Y-55750772D01*
X136675500Y-55649228D01*
X136655689Y-55549634D01*
X136616830Y-55455819D01*
X136560415Y-55371388D01*
X136488612Y-55299585D01*
X136404181Y-55243170D01*
X136310366Y-55204311D01*
X136210772Y-55184500D01*
X136109228Y-55184500D01*
X136009634Y-55204311D01*
X135915819Y-55243170D01*
X135831388Y-55299585D01*
X135759585Y-55371388D01*
X135703170Y-55455819D01*
X135664311Y-55549634D01*
X135644500Y-55649228D01*
X128846455Y-55649228D01*
X128837132Y-55637868D01*
X128770240Y-55582972D01*
X128693925Y-55542180D01*
X128611117Y-55517061D01*
X128525000Y-55508579D01*
X128052251Y-55508579D01*
X127433878Y-54890207D01*
X127418514Y-54871486D01*
X127343826Y-54810191D01*
X127258614Y-54764645D01*
X127166155Y-54736597D01*
X127094095Y-54729500D01*
X127094092Y-54729500D01*
X127070000Y-54727127D01*
X127045908Y-54729500D01*
X126591421Y-54729500D01*
X126591421Y-54220000D01*
X126587743Y-54182656D01*
X126576850Y-54146746D01*
X126559161Y-54113652D01*
X126535355Y-54084645D01*
X126506348Y-54060839D01*
X126473254Y-54043150D01*
X126437344Y-54032257D01*
X126400000Y-54028579D01*
X124900000Y-54028579D01*
X124862656Y-54032257D01*
X124826746Y-54043150D01*
X124793652Y-54060839D01*
X124764645Y-54084645D01*
X124740839Y-54113652D01*
X124723150Y-54146746D01*
X124712257Y-54182656D01*
X124708579Y-54220000D01*
X124291421Y-54220000D01*
X124287743Y-54182656D01*
X124276850Y-54146746D01*
X124259161Y-54113652D01*
X124235355Y-54084645D01*
X124206348Y-54060839D01*
X124173254Y-54043150D01*
X124137344Y-54032257D01*
X124100000Y-54028579D01*
X123940500Y-54028579D01*
X123940500Y-53594592D01*
X125160093Y-52374999D01*
X131908579Y-52374999D01*
X131908579Y-52900001D01*
X131917061Y-52986118D01*
X131942180Y-53068925D01*
X131982972Y-53145241D01*
X132037868Y-53212132D01*
X132104759Y-53267028D01*
X132181075Y-53307820D01*
X132263882Y-53332939D01*
X132349999Y-53341421D01*
X133250001Y-53341421D01*
X133336118Y-53332939D01*
X133418925Y-53307820D01*
X133495241Y-53267028D01*
X133562132Y-53212132D01*
X133617028Y-53145241D01*
X133657820Y-53068925D01*
X133682939Y-52986118D01*
X133691421Y-52900001D01*
X133691421Y-52374999D01*
X133682939Y-52288882D01*
X133657820Y-52206075D01*
X133617028Y-52129759D01*
X133562132Y-52062868D01*
X133495241Y-52007972D01*
X133418925Y-51967180D01*
X133336118Y-51942061D01*
X133250001Y-51933579D01*
X132349999Y-51933579D01*
X132263882Y-51942061D01*
X132181075Y-51967180D01*
X132104759Y-52007972D01*
X132037868Y-52062868D01*
X131982972Y-52129759D01*
X131942180Y-52206075D01*
X131917061Y-52288882D01*
X131908579Y-52374999D01*
X125160093Y-52374999D01*
X125794593Y-51740500D01*
X127540879Y-51740500D01*
X127572926Y-51761913D01*
X127698589Y-51813964D01*
X127831992Y-51840500D01*
X127968008Y-51840500D01*
X128101411Y-51813964D01*
X128227074Y-51761913D01*
X128340168Y-51686346D01*
X128436346Y-51590168D01*
X128511913Y-51477074D01*
X128563964Y-51351411D01*
X128590500Y-51218008D01*
X128590500Y-51081992D01*
X128563964Y-50948589D01*
X128511913Y-50822926D01*
X128436346Y-50709832D01*
X128340168Y-50613654D01*
X128227074Y-50538087D01*
X128101411Y-50486036D01*
X127968008Y-50459500D01*
X127831992Y-50459500D01*
X127698589Y-50486036D01*
X127572926Y-50538087D01*
X127540879Y-50559500D01*
X125579005Y-50559500D01*
X125550000Y-50556643D01*
X125520994Y-50559500D01*
X125520992Y-50559500D01*
X125434242Y-50568044D01*
X125322932Y-50601810D01*
X125220348Y-50656642D01*
X125184421Y-50686127D01*
X125130433Y-50730433D01*
X125111941Y-50752966D01*
X122952967Y-52911941D01*
X122930434Y-52930433D01*
X122911942Y-52952966D01*
X122856642Y-53020349D01*
X122801810Y-53122933D01*
X122768045Y-53234242D01*
X122756643Y-53350000D01*
X122759501Y-53379015D01*
X122759501Y-54028579D01*
X122600000Y-54028579D01*
X122562656Y-54032257D01*
X122526746Y-54043150D01*
X122493652Y-54060839D01*
X122464645Y-54084645D01*
X122440839Y-54113652D01*
X122423150Y-54146746D01*
X122412257Y-54182656D01*
X122408579Y-54220000D01*
X122408579Y-54911284D01*
X122373832Y-55025829D01*
X122359500Y-55171346D01*
X122359500Y-57175407D01*
X122075407Y-57459500D01*
X119402565Y-57459500D01*
X119370240Y-57432972D01*
X119293925Y-57392180D01*
X119211117Y-57367061D01*
X119125000Y-57358579D01*
X118175000Y-57358579D01*
X118088883Y-57367061D01*
X118006075Y-57392180D01*
X117929760Y-57432972D01*
X117862868Y-57487868D01*
X117807972Y-57554760D01*
X117767180Y-57631075D01*
X117742061Y-57713883D01*
X117733579Y-57800000D01*
X117733579Y-58300000D01*
X117742061Y-58386117D01*
X117767180Y-58468925D01*
X117807972Y-58545240D01*
X117862868Y-58612132D01*
X117929760Y-58667028D01*
X118006075Y-58707820D01*
X118088883Y-58732939D01*
X118175000Y-58741421D01*
X119125000Y-58741421D01*
X119211117Y-58732939D01*
X119293925Y-58707820D01*
X119370240Y-58667028D01*
X119402565Y-58640500D01*
X120894408Y-58640500D01*
X120112908Y-59422000D01*
X116392797Y-59422000D01*
X116345241Y-59382972D01*
X116268925Y-59342180D01*
X116186118Y-59317061D01*
X116100001Y-59308579D01*
X115443672Y-59308579D01*
X114940045Y-58804953D01*
X114954759Y-58817028D01*
X115031075Y-58857820D01*
X115113882Y-58882939D01*
X115199999Y-58891421D01*
X116100001Y-58891421D01*
X116186118Y-58882939D01*
X116268925Y-58857820D01*
X116345241Y-58817028D01*
X116412132Y-58762132D01*
X116467028Y-58695241D01*
X116507820Y-58618925D01*
X116532939Y-58536118D01*
X116541421Y-58450001D01*
X116541421Y-57924999D01*
X116532939Y-57838882D01*
X116507820Y-57756075D01*
X116467028Y-57679759D01*
X116412132Y-57612868D01*
X116345241Y-57557972D01*
X116268925Y-57517180D01*
X116186118Y-57492061D01*
X116100001Y-57483579D01*
X115199999Y-57483579D01*
X115113882Y-57492061D01*
X115031075Y-57517180D01*
X114954759Y-57557972D01*
X114887868Y-57612868D01*
X114832972Y-57679759D01*
X114792180Y-57756075D01*
X114767061Y-57838882D01*
X114758579Y-57924999D01*
X114758579Y-58450001D01*
X114767061Y-58536118D01*
X114792180Y-58618925D01*
X114832972Y-58695241D01*
X114845047Y-58709955D01*
X114240500Y-58105408D01*
X114240500Y-57002565D01*
X114267028Y-56970240D01*
X114307820Y-56893925D01*
X114332939Y-56811117D01*
X114341421Y-56725000D01*
X114341421Y-55775000D01*
X114332939Y-55688883D01*
X114307820Y-55606075D01*
X114267028Y-55529760D01*
X114212132Y-55462868D01*
X114145240Y-55407972D01*
X114068925Y-55367180D01*
X113986117Y-55342061D01*
X113900000Y-55333579D01*
X113400000Y-55333579D01*
X113313883Y-55342061D01*
X113231075Y-55367180D01*
X113154760Y-55407972D01*
X113087868Y-55462868D01*
X113032972Y-55529760D01*
X112992180Y-55606075D01*
X112967061Y-55688883D01*
X112958579Y-55775000D01*
X112958579Y-56725000D01*
X112967061Y-56811117D01*
X112992180Y-56893925D01*
X113032972Y-56970240D01*
X113059500Y-57002565D01*
X113059501Y-58320985D01*
X113056643Y-58350000D01*
X113061605Y-58400372D01*
X109500500Y-54839268D01*
X109500500Y-52603101D01*
X109513503Y-52600515D01*
X109702862Y-52522080D01*
X109873280Y-52408209D01*
X110018209Y-52263280D01*
X110132080Y-52092862D01*
X110210515Y-51903503D01*
X110250500Y-51702480D01*
X110250500Y-51497520D01*
X110210515Y-51296497D01*
X110132080Y-51107138D01*
X110018209Y-50936720D01*
X109873280Y-50791791D01*
X109702862Y-50677920D01*
X109513503Y-50599485D01*
X109312480Y-50559500D01*
X109107520Y-50559500D01*
X108906497Y-50599485D01*
X108717138Y-50677920D01*
X108546720Y-50791791D01*
X108401791Y-50936720D01*
X108287920Y-51107138D01*
X108209485Y-51296497D01*
X108169500Y-51497520D01*
X108169500Y-51702480D01*
X108209485Y-51903503D01*
X108287920Y-52092862D01*
X108401791Y-52263280D01*
X108546720Y-52408209D01*
X108717138Y-52522080D01*
X108906497Y-52600515D01*
X108919500Y-52603101D01*
X108919501Y-54945329D01*
X108918096Y-54959596D01*
X108923704Y-55016543D01*
X108940316Y-55071303D01*
X108967290Y-55121769D01*
X108978406Y-55135314D01*
X109003593Y-55166004D01*
X109014674Y-55175098D01*
X114786912Y-60947337D01*
X114796006Y-60958418D01*
X114840240Y-60994720D01*
X114890707Y-61021695D01*
X114945466Y-61038306D01*
X114953244Y-61039072D01*
X115334500Y-61420329D01*
X115334500Y-63273672D01*
X114890506Y-62829678D01*
X114881408Y-62818592D01*
X114837174Y-62782290D01*
X114786707Y-62755315D01*
X114731948Y-62738704D01*
X114689265Y-62734500D01*
X114689257Y-62734500D01*
X114675000Y-62733096D01*
X114660743Y-62734500D01*
X109939254Y-62734500D01*
X109924999Y-62733096D01*
X109910744Y-62734500D01*
X109910735Y-62734500D01*
X109868052Y-62738704D01*
X109813293Y-62755315D01*
X109762826Y-62782290D01*
X109718592Y-62818592D01*
X109709498Y-62829673D01*
X109312677Y-63226495D01*
X109301591Y-63235593D01*
X109265289Y-63279828D01*
X109238314Y-63330295D01*
X109221703Y-63385054D01*
X109217499Y-63427737D01*
X109217499Y-63427744D01*
X109216095Y-63442001D01*
X109217499Y-63456258D01*
X109217500Y-65923732D01*
X109216095Y-65937999D01*
X109221703Y-65994946D01*
X109238315Y-66049706D01*
X109265289Y-66100172D01*
X109285666Y-66125001D01*
X109301592Y-66144407D01*
X109312673Y-66153501D01*
X109670286Y-66511114D01*
X109662920Y-66522138D01*
X109584485Y-66711497D01*
X109544500Y-66912520D01*
X109544500Y-67117480D01*
X109584485Y-67318503D01*
X109662920Y-67507862D01*
X109776791Y-67678280D01*
X109921720Y-67823209D01*
X110092138Y-67937080D01*
X110281497Y-68015515D01*
X110482520Y-68055500D01*
X110687480Y-68055500D01*
X110888503Y-68015515D01*
X111077862Y-67937080D01*
X111248280Y-67823209D01*
X111393209Y-67678280D01*
X111507080Y-67507862D01*
X111585515Y-67318503D01*
X111625500Y-67117480D01*
X111625500Y-66912520D01*
X111585515Y-66711497D01*
X111507080Y-66522138D01*
X111393209Y-66351720D01*
X111248280Y-66206791D01*
X111077862Y-66092920D01*
X110888503Y-66014485D01*
X110687480Y-65974500D01*
X110482520Y-65974500D01*
X110281497Y-66014485D01*
X110092138Y-66092920D01*
X110081114Y-66100286D01*
X109798499Y-65817671D01*
X109798499Y-65159988D01*
X109921720Y-65283209D01*
X110092138Y-65397080D01*
X110281497Y-65475515D01*
X110482520Y-65515500D01*
X110687480Y-65515500D01*
X110888503Y-65475515D01*
X111077862Y-65397080D01*
X111088886Y-65389714D01*
X111719498Y-66020327D01*
X111728592Y-66031408D01*
X111772826Y-66067710D01*
X111823293Y-66094685D01*
X111878052Y-66111296D01*
X111920735Y-66115500D01*
X111920742Y-66115500D01*
X111934999Y-66116904D01*
X111949256Y-66115500D01*
X112598345Y-66115500D01*
X112461720Y-66206791D01*
X112316791Y-66351720D01*
X112202920Y-66522138D01*
X112124485Y-66711497D01*
X112084500Y-66912520D01*
X112084500Y-67117480D01*
X112124485Y-67318503D01*
X112202920Y-67507862D01*
X112316791Y-67678280D01*
X112461720Y-67823209D01*
X112632138Y-67937080D01*
X112821497Y-68015515D01*
X113022520Y-68055500D01*
X113227480Y-68055500D01*
X113428503Y-68015515D01*
X113617862Y-67937080D01*
X113788280Y-67823209D01*
X113795989Y-67815500D01*
X117136500Y-67815500D01*
X117136500Y-68057490D01*
X99458268Y-68057490D01*
X99065500Y-67664723D01*
X99065500Y-66912520D01*
X101924500Y-66912520D01*
X101924500Y-67117480D01*
X101964485Y-67318503D01*
X102042920Y-67507862D01*
X102156791Y-67678280D01*
X102301720Y-67823209D01*
X102472138Y-67937080D01*
X102661497Y-68015515D01*
X102862520Y-68055500D01*
X103067480Y-68055500D01*
X103268503Y-68015515D01*
X103457862Y-67937080D01*
X103628280Y-67823209D01*
X103773209Y-67678280D01*
X103887080Y-67507862D01*
X103965515Y-67318503D01*
X104005500Y-67117480D01*
X104005500Y-66912520D01*
X104464500Y-66912520D01*
X104464500Y-67117480D01*
X104504485Y-67318503D01*
X104582920Y-67507862D01*
X104696791Y-67678280D01*
X104841720Y-67823209D01*
X105012138Y-67937080D01*
X105201497Y-68015515D01*
X105402520Y-68055500D01*
X105607480Y-68055500D01*
X105808503Y-68015515D01*
X105997862Y-67937080D01*
X106168280Y-67823209D01*
X106313209Y-67678280D01*
X106427080Y-67507862D01*
X106505515Y-67318503D01*
X106545500Y-67117480D01*
X106545500Y-66912520D01*
X107004500Y-66912520D01*
X107004500Y-67117480D01*
X107044485Y-67318503D01*
X107122920Y-67507862D01*
X107236791Y-67678280D01*
X107381720Y-67823209D01*
X107552138Y-67937080D01*
X107741497Y-68015515D01*
X107942520Y-68055500D01*
X108147480Y-68055500D01*
X108348503Y-68015515D01*
X108537862Y-67937080D01*
X108708280Y-67823209D01*
X108853209Y-67678280D01*
X108967080Y-67507862D01*
X109045515Y-67318503D01*
X109085500Y-67117480D01*
X109085500Y-66912520D01*
X109045515Y-66711497D01*
X108967080Y-66522138D01*
X108853209Y-66351720D01*
X108708280Y-66206791D01*
X108537862Y-66092920D01*
X108348503Y-66014485D01*
X108147480Y-65974500D01*
X107942520Y-65974500D01*
X107741497Y-66014485D01*
X107552138Y-66092920D01*
X107381720Y-66206791D01*
X107236791Y-66351720D01*
X107122920Y-66522138D01*
X107044485Y-66711497D01*
X107004500Y-66912520D01*
X106545500Y-66912520D01*
X106505515Y-66711497D01*
X106427080Y-66522138D01*
X106313209Y-66351720D01*
X106168280Y-66206791D01*
X105997862Y-66092920D01*
X105808503Y-66014485D01*
X105607480Y-65974500D01*
X105402520Y-65974500D01*
X105201497Y-66014485D01*
X105012138Y-66092920D01*
X104841720Y-66206791D01*
X104696791Y-66351720D01*
X104582920Y-66522138D01*
X104504485Y-66711497D01*
X104464500Y-66912520D01*
X104005500Y-66912520D01*
X103965515Y-66711497D01*
X103887080Y-66522138D01*
X103773209Y-66351720D01*
X103628280Y-66206791D01*
X103457862Y-66092920D01*
X103268503Y-66014485D01*
X103067480Y-65974500D01*
X102862520Y-65974500D01*
X102661497Y-66014485D01*
X102472138Y-66092920D01*
X102301720Y-66206791D01*
X102156791Y-66351720D01*
X102042920Y-66522138D01*
X101964485Y-66711497D01*
X101924500Y-66912520D01*
X99065500Y-66912520D01*
X99065500Y-64372520D01*
X101924500Y-64372520D01*
X101924500Y-64577480D01*
X101964485Y-64778503D01*
X102042920Y-64967862D01*
X102156791Y-65138280D01*
X102301720Y-65283209D01*
X102472138Y-65397080D01*
X102661497Y-65475515D01*
X102862520Y-65515500D01*
X103067480Y-65515500D01*
X103268503Y-65475515D01*
X103457862Y-65397080D01*
X103628280Y-65283209D01*
X103773209Y-65138280D01*
X103887080Y-64967862D01*
X103965515Y-64778503D01*
X104005500Y-64577480D01*
X104005500Y-64372520D01*
X104464500Y-64372520D01*
X104464500Y-64577480D01*
X104504485Y-64778503D01*
X104582920Y-64967862D01*
X104696791Y-65138280D01*
X104841720Y-65283209D01*
X105012138Y-65397080D01*
X105201497Y-65475515D01*
X105402520Y-65515500D01*
X105607480Y-65515500D01*
X105808503Y-65475515D01*
X105997862Y-65397080D01*
X106168280Y-65283209D01*
X106313209Y-65138280D01*
X106427080Y-64967862D01*
X106505515Y-64778503D01*
X106545500Y-64577480D01*
X106545500Y-64372520D01*
X107004500Y-64372520D01*
X107004500Y-64577480D01*
X107044485Y-64778503D01*
X107122920Y-64967862D01*
X107236791Y-65138280D01*
X107381720Y-65283209D01*
X107552138Y-65397080D01*
X107741497Y-65475515D01*
X107942520Y-65515500D01*
X108147480Y-65515500D01*
X108348503Y-65475515D01*
X108537862Y-65397080D01*
X108708280Y-65283209D01*
X108853209Y-65138280D01*
X108967080Y-64967862D01*
X109045515Y-64778503D01*
X109085500Y-64577480D01*
X109085500Y-64372520D01*
X109045515Y-64171497D01*
X108967080Y-63982138D01*
X108853209Y-63811720D01*
X108708280Y-63666791D01*
X108537862Y-63552920D01*
X108348503Y-63474485D01*
X108147480Y-63434500D01*
X107942520Y-63434500D01*
X107741497Y-63474485D01*
X107552138Y-63552920D01*
X107381720Y-63666791D01*
X107236791Y-63811720D01*
X107122920Y-63982138D01*
X107044485Y-64171497D01*
X107004500Y-64372520D01*
X106545500Y-64372520D01*
X106505515Y-64171497D01*
X106427080Y-63982138D01*
X106313209Y-63811720D01*
X106168280Y-63666791D01*
X105997862Y-63552920D01*
X105808503Y-63474485D01*
X105607480Y-63434500D01*
X105402520Y-63434500D01*
X105201497Y-63474485D01*
X105012138Y-63552920D01*
X104841720Y-63666791D01*
X104696791Y-63811720D01*
X104582920Y-63982138D01*
X104504485Y-64171497D01*
X104464500Y-64372520D01*
X104005500Y-64372520D01*
X103965515Y-64171497D01*
X103887080Y-63982138D01*
X103773209Y-63811720D01*
X103628280Y-63666791D01*
X103457862Y-63552920D01*
X103268503Y-63474485D01*
X103067480Y-63434500D01*
X102862520Y-63434500D01*
X102661497Y-63474485D01*
X102472138Y-63552920D01*
X102301720Y-63666791D01*
X102156791Y-63811720D01*
X102042920Y-63982138D01*
X101964485Y-64171497D01*
X101924500Y-64372520D01*
X99065500Y-64372520D01*
X99065500Y-61390500D01*
X99441123Y-61390500D01*
X99816023Y-61315927D01*
X100169171Y-61169649D01*
X100486996Y-60957285D01*
X100757285Y-60686996D01*
X100969649Y-60369171D01*
X101115927Y-60016023D01*
X101190500Y-59641123D01*
X101190500Y-59258877D01*
X101164581Y-59128573D01*
X104622500Y-59128573D01*
X104622500Y-59771427D01*
X104747914Y-60401928D01*
X104993924Y-60995847D01*
X105351074Y-61530360D01*
X105805640Y-61984926D01*
X106340153Y-62342076D01*
X106934072Y-62588086D01*
X107564573Y-62713500D01*
X108207427Y-62713500D01*
X108837928Y-62588086D01*
X109431847Y-62342076D01*
X109966360Y-61984926D01*
X110420926Y-61530360D01*
X110778076Y-60995847D01*
X111024086Y-60401928D01*
X111149500Y-59771427D01*
X111149500Y-59128573D01*
X111024086Y-58498072D01*
X110778076Y-57904153D01*
X110420926Y-57369640D01*
X109966360Y-56915074D01*
X109431847Y-56557924D01*
X108837928Y-56311914D01*
X108207427Y-56186500D01*
X107564573Y-56186500D01*
X106934072Y-56311914D01*
X106340153Y-56557924D01*
X105805640Y-56915074D01*
X105351074Y-57369640D01*
X104993924Y-57904153D01*
X104747914Y-58498072D01*
X104622500Y-59128573D01*
X101164581Y-59128573D01*
X101115927Y-58883977D01*
X100969649Y-58530829D01*
X100757285Y-58213004D01*
X100486996Y-57942715D01*
X100169171Y-57730351D01*
X99816023Y-57584073D01*
X99441123Y-57509500D01*
X99058877Y-57509500D01*
X98683977Y-57584073D01*
X98330829Y-57730351D01*
X98013004Y-57942715D01*
X97742715Y-58213004D01*
X97530351Y-58530829D01*
X97384073Y-58883977D01*
X97309500Y-59258877D01*
X97309500Y-59641123D01*
X97366387Y-59927113D01*
X97247445Y-60072045D01*
X97155470Y-60244119D01*
X97098832Y-60430829D01*
X97084920Y-60572080D01*
X97079708Y-60625000D01*
X97084500Y-60673652D01*
X97084501Y-68026338D01*
X97079708Y-68075000D01*
X97098833Y-68269171D01*
X97155470Y-68455881D01*
X97176399Y-68495036D01*
X97247446Y-68627955D01*
X97371223Y-68778778D01*
X97409020Y-68809797D01*
X98313192Y-69713970D01*
X98344212Y-69751768D01*
X98384096Y-69784500D01*
X97060543Y-69784500D01*
X97043497Y-69782829D01*
X97037245Y-69780941D01*
X97031482Y-69777877D01*
X97026418Y-69773747D01*
X97022257Y-69768718D01*
X97019148Y-69762967D01*
X97017217Y-69756729D01*
X97015488Y-69740274D01*
X96992414Y-50750000D01*
X98008579Y-50750000D01*
X98008579Y-52450000D01*
X98012257Y-52487344D01*
X98023150Y-52523254D01*
X98040839Y-52556348D01*
X98064645Y-52585355D01*
X98093652Y-52609161D01*
X98126746Y-52626850D01*
X98162656Y-52637743D01*
X98200000Y-52641421D01*
X99900000Y-52641421D01*
X99937344Y-52637743D01*
X99973254Y-52626850D01*
X100006348Y-52609161D01*
X100035355Y-52585355D01*
X100059161Y-52556348D01*
X100076850Y-52523254D01*
X100087743Y-52487344D01*
X100091421Y-52450000D01*
X100091421Y-51497520D01*
X100549500Y-51497520D01*
X100549500Y-51702480D01*
X100589485Y-51903503D01*
X100667920Y-52092862D01*
X100781791Y-52263280D01*
X100926720Y-52408209D01*
X101097138Y-52522080D01*
X101286497Y-52600515D01*
X101487520Y-52640500D01*
X101692480Y-52640500D01*
X101893503Y-52600515D01*
X102082862Y-52522080D01*
X102253280Y-52408209D01*
X102398209Y-52263280D01*
X102512080Y-52092862D01*
X102590515Y-51903503D01*
X102630500Y-51702480D01*
X102630500Y-51497520D01*
X103089500Y-51497520D01*
X103089500Y-51702480D01*
X103129485Y-51903503D01*
X103207920Y-52092862D01*
X103321791Y-52263280D01*
X103466720Y-52408209D01*
X103637138Y-52522080D01*
X103826497Y-52600515D01*
X104027520Y-52640500D01*
X104232480Y-52640500D01*
X104433503Y-52600515D01*
X104622862Y-52522080D01*
X104793280Y-52408209D01*
X104938209Y-52263280D01*
X105052080Y-52092862D01*
X105130515Y-51903503D01*
X105170500Y-51702480D01*
X105170500Y-51497520D01*
X105629500Y-51497520D01*
X105629500Y-51702480D01*
X105669485Y-51903503D01*
X105747920Y-52092862D01*
X105861791Y-52263280D01*
X106006720Y-52408209D01*
X106177138Y-52522080D01*
X106366497Y-52600515D01*
X106567520Y-52640500D01*
X106772480Y-52640500D01*
X106973503Y-52600515D01*
X107162862Y-52522080D01*
X107333280Y-52408209D01*
X107478209Y-52263280D01*
X107592080Y-52092862D01*
X107670515Y-51903503D01*
X107710500Y-51702480D01*
X107710500Y-51497520D01*
X107670515Y-51296497D01*
X107592080Y-51107138D01*
X107478209Y-50936720D01*
X107333280Y-50791791D01*
X107162862Y-50677920D01*
X106973503Y-50599485D01*
X106772480Y-50559500D01*
X106567520Y-50559500D01*
X106366497Y-50599485D01*
X106177138Y-50677920D01*
X106006720Y-50791791D01*
X105861791Y-50936720D01*
X105747920Y-51107138D01*
X105669485Y-51296497D01*
X105629500Y-51497520D01*
X105170500Y-51497520D01*
X105130515Y-51296497D01*
X105052080Y-51107138D01*
X104938209Y-50936720D01*
X104793280Y-50791791D01*
X104622862Y-50677920D01*
X104433503Y-50599485D01*
X104232480Y-50559500D01*
X104027520Y-50559500D01*
X103826497Y-50599485D01*
X103637138Y-50677920D01*
X103466720Y-50791791D01*
X103321791Y-50936720D01*
X103207920Y-51107138D01*
X103129485Y-51296497D01*
X103089500Y-51497520D01*
X102630500Y-51497520D01*
X102590515Y-51296497D01*
X102512080Y-51107138D01*
X102398209Y-50936720D01*
X102253280Y-50791791D01*
X102082862Y-50677920D01*
X101893503Y-50599485D01*
X101692480Y-50559500D01*
X101487520Y-50559500D01*
X101286497Y-50599485D01*
X101097138Y-50677920D01*
X100926720Y-50791791D01*
X100781791Y-50936720D01*
X100667920Y-51107138D01*
X100589485Y-51296497D01*
X100549500Y-51497520D01*
X100091421Y-51497520D01*
X100091421Y-50750000D01*
X100087743Y-50712656D01*
X100076850Y-50676746D01*
X100059161Y-50643652D01*
X100035355Y-50614645D01*
X100006348Y-50590839D01*
X99973254Y-50573150D01*
X99937344Y-50562257D01*
X99900000Y-50558579D01*
X98200000Y-50558579D01*
X98162656Y-50562257D01*
X98126746Y-50573150D01*
X98093652Y-50590839D01*
X98064645Y-50614645D01*
X98040839Y-50643652D01*
X98023150Y-50676746D01*
X98012257Y-50712656D01*
X98008579Y-50750000D01*
X96992414Y-50750000D01*
X96990512Y-49185422D01*
X96992171Y-49168498D01*
X96994059Y-49162245D01*
X96997125Y-49156479D01*
X97001252Y-49151419D01*
X97006284Y-49147256D01*
X97012032Y-49144148D01*
X97018269Y-49142218D01*
X97034610Y-49140500D01*
X156711500Y-49140500D01*
X156711500Y-50383579D01*
G37*
%TD.AperFunction*%
D33*
X140819004Y-63212675D02*
X140833579Y-63227250D01*
X140833579Y-63350000D01*
X140842061Y-63436117D01*
X140867180Y-63518925D01*
X140907972Y-63595240D01*
X140962868Y-63662132D01*
X141029760Y-63717028D01*
X141106075Y-63757820D01*
X141188883Y-63782939D01*
X141275000Y-63791421D01*
X141606329Y-63791421D01*
X142161940Y-64347033D01*
X142180433Y-64369567D01*
X142202965Y-64388058D01*
X142270348Y-64443358D01*
X142342560Y-64481956D01*
X142372932Y-64498190D01*
X142484242Y-64531956D01*
X142570992Y-64540500D01*
X142570995Y-64540500D01*
X142600000Y-64543357D01*
X142629005Y-64540500D01*
X146995995Y-64540500D01*
X147025000Y-64543357D01*
X147054005Y-64540500D01*
X147054008Y-64540500D01*
X147140758Y-64531956D01*
X147252068Y-64498190D01*
X147354651Y-64443358D01*
X147444567Y-64369567D01*
X147463064Y-64347028D01*
X147786500Y-64023592D01*
X147786500Y-65753610D01*
X145482621Y-68057490D01*
X140228729Y-68057490D01*
X140263905Y-68050493D01*
X140334971Y-68021056D01*
X140398929Y-67978321D01*
X140453321Y-67923929D01*
X140496056Y-67859971D01*
X140525493Y-67788905D01*
X140540500Y-67713461D01*
X140540500Y-67636539D01*
X140525493Y-67561095D01*
X140496056Y-67490029D01*
X140495027Y-67488489D01*
X141262754Y-67488489D01*
X141277011Y-67489893D01*
X141291268Y-67488489D01*
X141291276Y-67488489D01*
X141333959Y-67484285D01*
X141388718Y-67467674D01*
X141439185Y-67440699D01*
X141483419Y-67404397D01*
X141492517Y-67393311D01*
X141595328Y-67290500D01*
X141613461Y-67290500D01*
X141688905Y-67275493D01*
X141759971Y-67246056D01*
X141823929Y-67203321D01*
X141878321Y-67148929D01*
X141921056Y-67084971D01*
X141950493Y-67013905D01*
X141965500Y-66938461D01*
X141965500Y-66861539D01*
X141950493Y-66786095D01*
X141921056Y-66715029D01*
X141878321Y-66651071D01*
X141823929Y-66596679D01*
X141759971Y-66553944D01*
X141688905Y-66524507D01*
X141628543Y-66512500D01*
X141688905Y-66500493D01*
X141759971Y-66471056D01*
X141823929Y-66428321D01*
X141878321Y-66373929D01*
X141921056Y-66309971D01*
X141950493Y-66238905D01*
X141965500Y-66163461D01*
X141965500Y-66086539D01*
X141950493Y-66011095D01*
X141921056Y-65940029D01*
X141878321Y-65876071D01*
X141823929Y-65821679D01*
X141759971Y-65778944D01*
X141688905Y-65749507D01*
X141613461Y-65734500D01*
X141536539Y-65734500D01*
X141461095Y-65749507D01*
X141390029Y-65778944D01*
X141326071Y-65821679D01*
X141271679Y-65876071D01*
X141228944Y-65940029D01*
X141199507Y-66011095D01*
X141184500Y-66086539D01*
X141184500Y-66104671D01*
X140779672Y-66509500D01*
X140164256Y-66509500D01*
X140149999Y-66508096D01*
X140135742Y-66509500D01*
X140135735Y-66509500D01*
X140093052Y-66513704D01*
X140038293Y-66530315D01*
X139987826Y-66557290D01*
X139959571Y-66580478D01*
X138579946Y-66580478D01*
X138795328Y-66365097D01*
X138806408Y-66356004D01*
X138829882Y-66327401D01*
X138837868Y-66337132D01*
X138904759Y-66392028D01*
X138981075Y-66432820D01*
X139063882Y-66457939D01*
X139149999Y-66466421D01*
X140050001Y-66466421D01*
X140136118Y-66457939D01*
X140218925Y-66432820D01*
X140295241Y-66392028D01*
X140362132Y-66337132D01*
X140417028Y-66270241D01*
X140457820Y-66193925D01*
X140482939Y-66111118D01*
X140491421Y-66025001D01*
X140491421Y-65499999D01*
X140482939Y-65413882D01*
X140457820Y-65331075D01*
X140417028Y-65254759D01*
X140362132Y-65187868D01*
X140295241Y-65132972D01*
X140235437Y-65101006D01*
X140240102Y-65095322D01*
X140722337Y-64613088D01*
X140733418Y-64603994D01*
X140769720Y-64559760D01*
X140781712Y-64537325D01*
X140796695Y-64509294D01*
X140813306Y-64454534D01*
X140818915Y-64397586D01*
X140817510Y-64383321D01*
X140817510Y-63210439D01*
X140819004Y-63212675D01*
%TA.AperFunction,Conductor*%
D34*
G36*
X140819004Y-63212675D02*
G01*
X140833579Y-63227250D01*
X140833579Y-63350000D01*
X140842061Y-63436117D01*
X140867180Y-63518925D01*
X140907972Y-63595240D01*
X140962868Y-63662132D01*
X141029760Y-63717028D01*
X141106075Y-63757820D01*
X141188883Y-63782939D01*
X141275000Y-63791421D01*
X141606329Y-63791421D01*
X142161940Y-64347033D01*
X142180433Y-64369567D01*
X142202965Y-64388058D01*
X142270348Y-64443358D01*
X142342560Y-64481956D01*
X142372932Y-64498190D01*
X142484242Y-64531956D01*
X142570992Y-64540500D01*
X142570995Y-64540500D01*
X142600000Y-64543357D01*
X142629005Y-64540500D01*
X146995995Y-64540500D01*
X147025000Y-64543357D01*
X147054005Y-64540500D01*
X147054008Y-64540500D01*
X147140758Y-64531956D01*
X147252068Y-64498190D01*
X147354651Y-64443358D01*
X147444567Y-64369567D01*
X147463064Y-64347028D01*
X147786500Y-64023592D01*
X147786500Y-65753610D01*
X145482621Y-68057490D01*
X140228729Y-68057490D01*
X140263905Y-68050493D01*
X140334971Y-68021056D01*
X140398929Y-67978321D01*
X140453321Y-67923929D01*
X140496056Y-67859971D01*
X140525493Y-67788905D01*
X140540500Y-67713461D01*
X140540500Y-67636539D01*
X140525493Y-67561095D01*
X140496056Y-67490029D01*
X140495027Y-67488489D01*
X141262754Y-67488489D01*
X141277011Y-67489893D01*
X141291268Y-67488489D01*
X141291276Y-67488489D01*
X141333959Y-67484285D01*
X141388718Y-67467674D01*
X141439185Y-67440699D01*
X141483419Y-67404397D01*
X141492517Y-67393311D01*
X141595328Y-67290500D01*
X141613461Y-67290500D01*
X141688905Y-67275493D01*
X141759971Y-67246056D01*
X141823929Y-67203321D01*
X141878321Y-67148929D01*
X141921056Y-67084971D01*
X141950493Y-67013905D01*
X141965500Y-66938461D01*
X141965500Y-66861539D01*
X141950493Y-66786095D01*
X141921056Y-66715029D01*
X141878321Y-66651071D01*
X141823929Y-66596679D01*
X141759971Y-66553944D01*
X141688905Y-66524507D01*
X141628543Y-66512500D01*
X141688905Y-66500493D01*
X141759971Y-66471056D01*
X141823929Y-66428321D01*
X141878321Y-66373929D01*
X141921056Y-66309971D01*
X141950493Y-66238905D01*
X141965500Y-66163461D01*
X141965500Y-66086539D01*
X141950493Y-66011095D01*
X141921056Y-65940029D01*
X141878321Y-65876071D01*
X141823929Y-65821679D01*
X141759971Y-65778944D01*
X141688905Y-65749507D01*
X141613461Y-65734500D01*
X141536539Y-65734500D01*
X141461095Y-65749507D01*
X141390029Y-65778944D01*
X141326071Y-65821679D01*
X141271679Y-65876071D01*
X141228944Y-65940029D01*
X141199507Y-66011095D01*
X141184500Y-66086539D01*
X141184500Y-66104671D01*
X140779672Y-66509500D01*
X140164256Y-66509500D01*
X140149999Y-66508096D01*
X140135742Y-66509500D01*
X140135735Y-66509500D01*
X140093052Y-66513704D01*
X140038293Y-66530315D01*
X139987826Y-66557290D01*
X139959571Y-66580478D01*
X138579946Y-66580478D01*
X138795328Y-66365097D01*
X138806408Y-66356004D01*
X138829882Y-66327401D01*
X138837868Y-66337132D01*
X138904759Y-66392028D01*
X138981075Y-66432820D01*
X139063882Y-66457939D01*
X139149999Y-66466421D01*
X140050001Y-66466421D01*
X140136118Y-66457939D01*
X140218925Y-66432820D01*
X140295241Y-66392028D01*
X140362132Y-66337132D01*
X140417028Y-66270241D01*
X140457820Y-66193925D01*
X140482939Y-66111118D01*
X140491421Y-66025001D01*
X140491421Y-65499999D01*
X140482939Y-65413882D01*
X140457820Y-65331075D01*
X140417028Y-65254759D01*
X140362132Y-65187868D01*
X140295241Y-65132972D01*
X140235437Y-65101006D01*
X140240102Y-65095322D01*
X140722337Y-64613088D01*
X140733418Y-64603994D01*
X140769720Y-64559760D01*
X140781712Y-64537325D01*
X140796695Y-64509294D01*
X140813306Y-64454534D01*
X140818915Y-64397586D01*
X140817510Y-64383321D01*
X140817510Y-63210439D01*
X140819004Y-63212675D01*
G37*
%TD.AperFunction*%
D33*
X155708579Y-51093672D02*
X155708579Y-51350001D01*
X155717061Y-51436118D01*
X155742180Y-51518925D01*
X155782972Y-51595241D01*
X155837868Y-51662132D01*
X155904759Y-51717028D01*
X155981075Y-51757820D01*
X156063882Y-51782939D01*
X156149999Y-51791421D01*
X156711500Y-51791421D01*
X156711500Y-52208579D01*
X156149999Y-52208579D01*
X156063882Y-52217061D01*
X155981075Y-52242180D01*
X155904759Y-52282972D01*
X155837868Y-52337868D01*
X155782972Y-52404759D01*
X155742180Y-52481075D01*
X155717061Y-52563882D01*
X155708579Y-52649999D01*
X155708579Y-53175001D01*
X155717061Y-53261118D01*
X155742180Y-53343925D01*
X155782972Y-53420241D01*
X155837868Y-53487132D01*
X155904759Y-53542028D01*
X155981075Y-53582820D01*
X156063882Y-53607939D01*
X156149999Y-53616421D01*
X156431329Y-53616421D01*
X156711500Y-53896592D01*
X156711500Y-56809500D01*
X149704005Y-56809500D01*
X149674999Y-56806643D01*
X149645994Y-56809500D01*
X149645992Y-56809500D01*
X149559242Y-56818044D01*
X149447932Y-56851810D01*
X149345348Y-56906642D01*
X149302230Y-56942028D01*
X149255433Y-56980433D01*
X149236940Y-57002967D01*
X149083579Y-57156328D01*
X147190500Y-55263250D01*
X147190500Y-54066421D01*
X147250001Y-54066421D01*
X147336118Y-54057939D01*
X147418925Y-54032820D01*
X147495241Y-53992028D01*
X147562132Y-53937132D01*
X147617028Y-53870241D01*
X147657820Y-53793925D01*
X147682939Y-53711118D01*
X147691421Y-53625001D01*
X147691421Y-53099999D01*
X147682939Y-53013882D01*
X147657820Y-52931075D01*
X147617028Y-52854759D01*
X147562132Y-52787868D01*
X147495241Y-52732972D01*
X147418925Y-52692180D01*
X147336118Y-52667061D01*
X147250001Y-52658579D01*
X146349999Y-52658579D01*
X146263882Y-52667061D01*
X146181075Y-52692180D01*
X146104759Y-52732972D01*
X146037868Y-52787868D01*
X145982972Y-52854759D01*
X145942180Y-52931075D01*
X145917061Y-53013882D01*
X145908579Y-53099999D01*
X145908579Y-53625001D01*
X145917061Y-53711118D01*
X145942180Y-53793925D01*
X145982972Y-53870241D01*
X146037868Y-53937132D01*
X146104759Y-53992028D01*
X146181075Y-54032820D01*
X146263882Y-54057939D01*
X146349999Y-54066421D01*
X146409500Y-54066421D01*
X146409501Y-55405812D01*
X146407611Y-55425000D01*
X146415151Y-55501551D01*
X146437480Y-55575160D01*
X146437481Y-55575161D01*
X146473741Y-55643000D01*
X146522540Y-55702461D01*
X146537436Y-55714686D01*
X148334249Y-57511500D01*
X147850000Y-57511500D01*
X147837612Y-57512720D01*
X147825700Y-57516334D01*
X147814721Y-57522202D01*
X147805099Y-57530099D01*
X147797202Y-57539721D01*
X147791334Y-57550700D01*
X147787720Y-57562612D01*
X147786500Y-57575000D01*
X147786500Y-58453408D01*
X147602972Y-58636936D01*
X147580433Y-58655433D01*
X147545913Y-58697497D01*
X147506642Y-58745349D01*
X147486790Y-58782490D01*
X147451810Y-58847933D01*
X147418044Y-58959243D01*
X147412450Y-59016042D01*
X147406643Y-59075000D01*
X147409500Y-59104006D01*
X147409501Y-62730406D01*
X146780408Y-63359500D01*
X142844593Y-63359500D01*
X142666421Y-63181328D01*
X142666421Y-63116053D01*
X142696650Y-63043073D01*
X142715500Y-62948310D01*
X142715500Y-62851690D01*
X142696650Y-62756927D01*
X142659675Y-62667661D01*
X142605996Y-62587325D01*
X142537675Y-62519004D01*
X142457339Y-62465325D01*
X142368073Y-62428350D01*
X142273310Y-62409500D01*
X142234351Y-62409500D01*
X142225000Y-62408579D01*
X141275000Y-62408579D01*
X141254052Y-62410642D01*
X141248310Y-62409500D01*
X141151690Y-62409500D01*
X141151239Y-62409590D01*
X141416307Y-62144522D01*
X142081647Y-62144522D01*
X142095904Y-62145926D01*
X142110161Y-62144522D01*
X142110169Y-62144522D01*
X142152852Y-62140318D01*
X142207611Y-62123707D01*
X142258078Y-62096732D01*
X142302312Y-62060430D01*
X142311410Y-62049344D01*
X142410754Y-61950000D01*
X142958579Y-61950000D01*
X142958579Y-63150000D01*
X142962257Y-63187344D01*
X142973150Y-63223254D01*
X142990839Y-63256348D01*
X143014645Y-63285355D01*
X143043652Y-63309161D01*
X143076746Y-63326850D01*
X143112656Y-63337743D01*
X143150000Y-63341421D01*
X144550000Y-63341421D01*
X144587344Y-63337743D01*
X144623254Y-63326850D01*
X144656348Y-63309161D01*
X144685355Y-63285355D01*
X144709161Y-63256348D01*
X144726850Y-63223254D01*
X144737743Y-63187344D01*
X144741421Y-63150000D01*
X144741421Y-61950000D01*
X144737743Y-61912656D01*
X144726850Y-61876746D01*
X144709161Y-61843652D01*
X144685355Y-61814645D01*
X144656348Y-61790839D01*
X144623254Y-61773150D01*
X144587344Y-61762257D01*
X144550000Y-61758579D01*
X143150000Y-61758579D01*
X143112656Y-61762257D01*
X143076746Y-61773150D01*
X143043652Y-61790839D01*
X143014645Y-61814645D01*
X142990839Y-61843652D01*
X142973150Y-61876746D01*
X142962257Y-61912656D01*
X142958579Y-61950000D01*
X142410754Y-61950000D01*
X143074349Y-61286406D01*
X143085430Y-61277312D01*
X143121732Y-61233078D01*
X143148707Y-61182611D01*
X143165318Y-61127852D01*
X143169522Y-61085169D01*
X143169522Y-61085162D01*
X143170926Y-61070905D01*
X143169522Y-61056648D01*
X143169522Y-60250000D01*
X145158579Y-60250000D01*
X145158579Y-61450000D01*
X145162257Y-61487344D01*
X145173150Y-61523254D01*
X145190839Y-61556348D01*
X145214645Y-61585355D01*
X145243652Y-61609161D01*
X145276746Y-61626850D01*
X145312656Y-61637743D01*
X145350000Y-61641421D01*
X146750000Y-61641421D01*
X146787344Y-61637743D01*
X146823254Y-61626850D01*
X146856348Y-61609161D01*
X146885355Y-61585355D01*
X146909161Y-61556348D01*
X146926850Y-61523254D01*
X146937743Y-61487344D01*
X146941421Y-61450000D01*
X146941421Y-60250000D01*
X146937743Y-60212656D01*
X146926850Y-60176746D01*
X146909161Y-60143652D01*
X146885355Y-60114645D01*
X146856348Y-60090839D01*
X146823254Y-60073150D01*
X146787344Y-60062257D01*
X146750000Y-60058579D01*
X145350000Y-60058579D01*
X145312656Y-60062257D01*
X145276746Y-60073150D01*
X145243652Y-60090839D01*
X145214645Y-60114645D01*
X145190839Y-60143652D01*
X145173150Y-60176746D01*
X145162257Y-60212656D01*
X145158579Y-60250000D01*
X143169522Y-60250000D01*
X143169522Y-57509759D01*
X143170927Y-57495494D01*
X143165318Y-57438546D01*
X143148707Y-57383786D01*
X143121732Y-57333320D01*
X143094523Y-57300166D01*
X143085430Y-57289086D01*
X143074350Y-57279993D01*
X142933490Y-57139134D01*
X142933490Y-54657255D01*
X142934895Y-54642990D01*
X142934650Y-54640500D01*
X143093406Y-54640500D01*
X143122411Y-54643357D01*
X143151416Y-54640500D01*
X143151419Y-54640500D01*
X143238169Y-54631956D01*
X143349479Y-54598190D01*
X143452062Y-54543358D01*
X143541978Y-54469567D01*
X143560475Y-54447028D01*
X145867004Y-52140500D01*
X146072435Y-52140500D01*
X146104759Y-52167028D01*
X146181075Y-52207820D01*
X146263882Y-52232939D01*
X146349999Y-52241421D01*
X147250001Y-52241421D01*
X147336118Y-52232939D01*
X147418925Y-52207820D01*
X147495241Y-52167028D01*
X147562132Y-52112132D01*
X147617028Y-52045241D01*
X147657820Y-51968925D01*
X147682939Y-51886118D01*
X147691421Y-51800001D01*
X147691421Y-51274999D01*
X147682939Y-51188882D01*
X147657820Y-51106075D01*
X147617028Y-51029759D01*
X147562132Y-50962868D01*
X147495241Y-50907972D01*
X147418925Y-50867180D01*
X147336118Y-50842061D01*
X147250001Y-50833579D01*
X146349999Y-50833579D01*
X146263882Y-50842061D01*
X146181075Y-50867180D01*
X146104759Y-50907972D01*
X146041972Y-50959500D01*
X145651416Y-50959500D01*
X145622411Y-50956643D01*
X145593405Y-50959500D01*
X145593403Y-50959500D01*
X145506653Y-50968044D01*
X145429838Y-50991346D01*
X145395343Y-51001810D01*
X145292759Y-51056642D01*
X145261870Y-51081992D01*
X145202844Y-51130433D01*
X145184352Y-51152966D01*
X142877819Y-53459500D01*
X142724026Y-53459500D01*
X142707820Y-53406075D01*
X142667028Y-53329760D01*
X142612132Y-53262868D01*
X142545240Y-53207972D01*
X142468925Y-53167180D01*
X142386117Y-53142061D01*
X142300000Y-53133579D01*
X141800000Y-53133579D01*
X141713883Y-53142061D01*
X141631075Y-53167180D01*
X141572739Y-53198362D01*
X141569685Y-53188293D01*
X141542710Y-53137826D01*
X141506408Y-53093592D01*
X141495328Y-53084499D01*
X140841421Y-52430593D01*
X140841421Y-51817501D01*
X142411583Y-51817501D01*
X142440588Y-51820358D01*
X142469593Y-51817501D01*
X142469596Y-51817501D01*
X142556346Y-51808957D01*
X142667656Y-51775191D01*
X142770239Y-51720359D01*
X142860155Y-51646568D01*
X142878652Y-51624029D01*
X143962182Y-50540500D01*
X155155408Y-50540500D01*
X155708579Y-51093672D01*
%TA.AperFunction,Conductor*%
D34*
G36*
X155708579Y-51093672D02*
G01*
X155708579Y-51350001D01*
X155717061Y-51436118D01*
X155742180Y-51518925D01*
X155782972Y-51595241D01*
X155837868Y-51662132D01*
X155904759Y-51717028D01*
X155981075Y-51757820D01*
X156063882Y-51782939D01*
X156149999Y-51791421D01*
X156711500Y-51791421D01*
X156711500Y-52208579D01*
X156149999Y-52208579D01*
X156063882Y-52217061D01*
X155981075Y-52242180D01*
X155904759Y-52282972D01*
X155837868Y-52337868D01*
X155782972Y-52404759D01*
X155742180Y-52481075D01*
X155717061Y-52563882D01*
X155708579Y-52649999D01*
X155708579Y-53175001D01*
X155717061Y-53261118D01*
X155742180Y-53343925D01*
X155782972Y-53420241D01*
X155837868Y-53487132D01*
X155904759Y-53542028D01*
X155981075Y-53582820D01*
X156063882Y-53607939D01*
X156149999Y-53616421D01*
X156431329Y-53616421D01*
X156711500Y-53896592D01*
X156711500Y-56809500D01*
X149704005Y-56809500D01*
X149674999Y-56806643D01*
X149645994Y-56809500D01*
X149645992Y-56809500D01*
X149559242Y-56818044D01*
X149447932Y-56851810D01*
X149345348Y-56906642D01*
X149302230Y-56942028D01*
X149255433Y-56980433D01*
X149236940Y-57002967D01*
X149083579Y-57156328D01*
X147190500Y-55263250D01*
X147190500Y-54066421D01*
X147250001Y-54066421D01*
X147336118Y-54057939D01*
X147418925Y-54032820D01*
X147495241Y-53992028D01*
X147562132Y-53937132D01*
X147617028Y-53870241D01*
X147657820Y-53793925D01*
X147682939Y-53711118D01*
X147691421Y-53625001D01*
X147691421Y-53099999D01*
X147682939Y-53013882D01*
X147657820Y-52931075D01*
X147617028Y-52854759D01*
X147562132Y-52787868D01*
X147495241Y-52732972D01*
X147418925Y-52692180D01*
X147336118Y-52667061D01*
X147250001Y-52658579D01*
X146349999Y-52658579D01*
X146263882Y-52667061D01*
X146181075Y-52692180D01*
X146104759Y-52732972D01*
X146037868Y-52787868D01*
X145982972Y-52854759D01*
X145942180Y-52931075D01*
X145917061Y-53013882D01*
X145908579Y-53099999D01*
X145908579Y-53625001D01*
X145917061Y-53711118D01*
X145942180Y-53793925D01*
X145982972Y-53870241D01*
X146037868Y-53937132D01*
X146104759Y-53992028D01*
X146181075Y-54032820D01*
X146263882Y-54057939D01*
X146349999Y-54066421D01*
X146409500Y-54066421D01*
X146409501Y-55405812D01*
X146407611Y-55425000D01*
X146415151Y-55501551D01*
X146437480Y-55575160D01*
X146437481Y-55575161D01*
X146473741Y-55643000D01*
X146522540Y-55702461D01*
X146537436Y-55714686D01*
X148334249Y-57511500D01*
X147850000Y-57511500D01*
X147837612Y-57512720D01*
X147825700Y-57516334D01*
X147814721Y-57522202D01*
X147805099Y-57530099D01*
X147797202Y-57539721D01*
X147791334Y-57550700D01*
X147787720Y-57562612D01*
X147786500Y-57575000D01*
X147786500Y-58453408D01*
X147602972Y-58636936D01*
X147580433Y-58655433D01*
X147545913Y-58697497D01*
X147506642Y-58745349D01*
X147486790Y-58782490D01*
X147451810Y-58847933D01*
X147418044Y-58959243D01*
X147412450Y-59016042D01*
X147406643Y-59075000D01*
X147409500Y-59104006D01*
X147409501Y-62730406D01*
X146780408Y-63359500D01*
X142844593Y-63359500D01*
X142666421Y-63181328D01*
X142666421Y-63116053D01*
X142696650Y-63043073D01*
X142715500Y-62948310D01*
X142715500Y-62851690D01*
X142696650Y-62756927D01*
X142659675Y-62667661D01*
X142605996Y-62587325D01*
X142537675Y-62519004D01*
X142457339Y-62465325D01*
X142368073Y-62428350D01*
X142273310Y-62409500D01*
X142234351Y-62409500D01*
X142225000Y-62408579D01*
X141275000Y-62408579D01*
X141254052Y-62410642D01*
X141248310Y-62409500D01*
X141151690Y-62409500D01*
X141151239Y-62409590D01*
X141416307Y-62144522D01*
X142081647Y-62144522D01*
X142095904Y-62145926D01*
X142110161Y-62144522D01*
X142110169Y-62144522D01*
X142152852Y-62140318D01*
X142207611Y-62123707D01*
X142258078Y-62096732D01*
X142302312Y-62060430D01*
X142311410Y-62049344D01*
X142410754Y-61950000D01*
X142958579Y-61950000D01*
X142958579Y-63150000D01*
X142962257Y-63187344D01*
X142973150Y-63223254D01*
X142990839Y-63256348D01*
X143014645Y-63285355D01*
X143043652Y-63309161D01*
X143076746Y-63326850D01*
X143112656Y-63337743D01*
X143150000Y-63341421D01*
X144550000Y-63341421D01*
X144587344Y-63337743D01*
X144623254Y-63326850D01*
X144656348Y-63309161D01*
X144685355Y-63285355D01*
X144709161Y-63256348D01*
X144726850Y-63223254D01*
X144737743Y-63187344D01*
X144741421Y-63150000D01*
X144741421Y-61950000D01*
X144737743Y-61912656D01*
X144726850Y-61876746D01*
X144709161Y-61843652D01*
X144685355Y-61814645D01*
X144656348Y-61790839D01*
X144623254Y-61773150D01*
X144587344Y-61762257D01*
X144550000Y-61758579D01*
X143150000Y-61758579D01*
X143112656Y-61762257D01*
X143076746Y-61773150D01*
X143043652Y-61790839D01*
X143014645Y-61814645D01*
X142990839Y-61843652D01*
X142973150Y-61876746D01*
X142962257Y-61912656D01*
X142958579Y-61950000D01*
X142410754Y-61950000D01*
X143074349Y-61286406D01*
X143085430Y-61277312D01*
X143121732Y-61233078D01*
X143148707Y-61182611D01*
X143165318Y-61127852D01*
X143169522Y-61085169D01*
X143169522Y-61085162D01*
X143170926Y-61070905D01*
X143169522Y-61056648D01*
X143169522Y-60250000D01*
X145158579Y-60250000D01*
X145158579Y-61450000D01*
X145162257Y-61487344D01*
X145173150Y-61523254D01*
X145190839Y-61556348D01*
X145214645Y-61585355D01*
X145243652Y-61609161D01*
X145276746Y-61626850D01*
X145312656Y-61637743D01*
X145350000Y-61641421D01*
X146750000Y-61641421D01*
X146787344Y-61637743D01*
X146823254Y-61626850D01*
X146856348Y-61609161D01*
X146885355Y-61585355D01*
X146909161Y-61556348D01*
X146926850Y-61523254D01*
X146937743Y-61487344D01*
X146941421Y-61450000D01*
X146941421Y-60250000D01*
X146937743Y-60212656D01*
X146926850Y-60176746D01*
X146909161Y-60143652D01*
X146885355Y-60114645D01*
X146856348Y-60090839D01*
X146823254Y-60073150D01*
X146787344Y-60062257D01*
X146750000Y-60058579D01*
X145350000Y-60058579D01*
X145312656Y-60062257D01*
X145276746Y-60073150D01*
X145243652Y-60090839D01*
X145214645Y-60114645D01*
X145190839Y-60143652D01*
X145173150Y-60176746D01*
X145162257Y-60212656D01*
X145158579Y-60250000D01*
X143169522Y-60250000D01*
X143169522Y-57509759D01*
X143170927Y-57495494D01*
X143165318Y-57438546D01*
X143148707Y-57383786D01*
X143121732Y-57333320D01*
X143094523Y-57300166D01*
X143085430Y-57289086D01*
X143074350Y-57279993D01*
X142933490Y-57139134D01*
X142933490Y-54657255D01*
X142934895Y-54642990D01*
X142934650Y-54640500D01*
X143093406Y-54640500D01*
X143122411Y-54643357D01*
X143151416Y-54640500D01*
X143151419Y-54640500D01*
X143238169Y-54631956D01*
X143349479Y-54598190D01*
X143452062Y-54543358D01*
X143541978Y-54469567D01*
X143560475Y-54447028D01*
X145867004Y-52140500D01*
X146072435Y-52140500D01*
X146104759Y-52167028D01*
X146181075Y-52207820D01*
X146263882Y-52232939D01*
X146349999Y-52241421D01*
X147250001Y-52241421D01*
X147336118Y-52232939D01*
X147418925Y-52207820D01*
X147495241Y-52167028D01*
X147562132Y-52112132D01*
X147617028Y-52045241D01*
X147657820Y-51968925D01*
X147682939Y-51886118D01*
X147691421Y-51800001D01*
X147691421Y-51274999D01*
X147682939Y-51188882D01*
X147657820Y-51106075D01*
X147617028Y-51029759D01*
X147562132Y-50962868D01*
X147495241Y-50907972D01*
X147418925Y-50867180D01*
X147336118Y-50842061D01*
X147250001Y-50833579D01*
X146349999Y-50833579D01*
X146263882Y-50842061D01*
X146181075Y-50867180D01*
X146104759Y-50907972D01*
X146041972Y-50959500D01*
X145651416Y-50959500D01*
X145622411Y-50956643D01*
X145593405Y-50959500D01*
X145593403Y-50959500D01*
X145506653Y-50968044D01*
X145429838Y-50991346D01*
X145395343Y-51001810D01*
X145292759Y-51056642D01*
X145261870Y-51081992D01*
X145202844Y-51130433D01*
X145184352Y-51152966D01*
X142877819Y-53459500D01*
X142724026Y-53459500D01*
X142707820Y-53406075D01*
X142667028Y-53329760D01*
X142612132Y-53262868D01*
X142545240Y-53207972D01*
X142468925Y-53167180D01*
X142386117Y-53142061D01*
X142300000Y-53133579D01*
X141800000Y-53133579D01*
X141713883Y-53142061D01*
X141631075Y-53167180D01*
X141572739Y-53198362D01*
X141569685Y-53188293D01*
X141542710Y-53137826D01*
X141506408Y-53093592D01*
X141495328Y-53084499D01*
X140841421Y-52430593D01*
X140841421Y-51817501D01*
X142411583Y-51817501D01*
X142440588Y-51820358D01*
X142469593Y-51817501D01*
X142469596Y-51817501D01*
X142556346Y-51808957D01*
X142667656Y-51775191D01*
X142770239Y-51720359D01*
X142860155Y-51646568D01*
X142878652Y-51624029D01*
X143962182Y-50540500D01*
X155155408Y-50540500D01*
X155708579Y-51093672D01*
G37*
%TD.AperFunction*%
D33*
X139658579Y-52700000D02*
X139661977Y-52734500D01*
X137589256Y-52734500D01*
X137574999Y-52733096D01*
X137560742Y-52734500D01*
X137560735Y-52734500D01*
X137518052Y-52738704D01*
X137463293Y-52755315D01*
X137412826Y-52782290D01*
X137368592Y-52818592D01*
X137359498Y-52829673D01*
X137140500Y-53048671D01*
X137140500Y-52495990D01*
X137818990Y-51817501D01*
X139658579Y-51817501D01*
X139658579Y-52700000D01*
%TA.AperFunction,Conductor*%
D34*
G36*
X139658579Y-52700000D02*
G01*
X139661977Y-52734500D01*
X137589256Y-52734500D01*
X137574999Y-52733096D01*
X137560742Y-52734500D01*
X137560735Y-52734500D01*
X137518052Y-52738704D01*
X137463293Y-52755315D01*
X137412826Y-52782290D01*
X137368592Y-52818592D01*
X137359498Y-52829673D01*
X137140500Y-53048671D01*
X137140500Y-52495990D01*
X137818990Y-51817501D01*
X139658579Y-51817501D01*
X139658579Y-52700000D01*
G37*
%TD.AperFunction*%
%TD*%
M02*
